<svg width="24" height="24" viewBox="0 0 24 24" fill="none" xmlns="http://www.w3.org/2000/svg">
    <path d="M15 0V3L12.5 8H5.40039L3.40039 6L2 7.40039L4 9.40039V11V13L3 15L2 21H4.25L5 17L7 15H13.5566L15.8496 21H17.9902L16.5 15.8145V15L18 12V7H18.7578C19.5538 7 20.3169 6.68409 20.8789 6.12109L22 5V3.5C22 3.224 21.776 3 21.5 3H20L19.293 2.29297C19.105 2.10497 18.8509 2 18.5859 2H17.5L16.5996 0.800781C16.2216 0.296781 15.63 0 15 0ZM7.82812 17L7.43555 17.3926L8.75 21H11L9.63477 17H7.82812Z" fill="#AB7EFB"/>
</svg>
