<svg width="24" height="24" viewBox="0 0 24 24" fill="none" xmlns="http://www.w3.org/2000/svg">
    <g clip-path="url(#clip0)">
        <path d="M13.4609 0.0332031L11.5391 0.582031L13.3691 7H15.4473L13.4609 0.0332031ZM18.5391 0.0332031L16.5527 7H18.6308L20.4609 0.582031L18.5391 0.0332031ZM11 9V10.5625C11.0546 10.6326 11.102 10.708 11.1523 10.7812C11.2713 10.948 11.3901 11.1148 11.4883 11.2969C12.0233 11.3879 12.529 11.5685 13 11.8105V11H14.5098L14.9609 12.582L14.7578 13.291C15.1028 13.747 15.3853 14.2572 15.5703 14.8242C15.7962 15.5204 15.8513 16.321 15.7832 17.0078C15.6487 18.1518 15.137 19.2237 14.3379 20.0527C14.4399 20.7859 14.3798 21.5262 14.1777 22.2305C14.1679 22.2656 14.159 22.301 14.1484 22.3359C14.0786 22.5616 13.9961 22.7844 13.8965 23H13.9004C13.7399 23.3516 13.5429 23.6885 13.3008 24H22C23.105 24 24 23.105 24 22V14C24 12.895 23.105 12 22 12H20.998L21 11.002C21 11.0013 21 11.0007 21 11V9H19H13.9394H13H11ZM6.91405 10.5332C5.30705 10.5332 3.97141 11.7188 3.73241 13.2598C2.18441 13.0078 0.644193 13.9474 0.158193 15.4434C-0.107807 16.2604 -0.0384477 17.1314 0.351552 17.8984C0.665552 18.5154 1.15957 19.0045 1.76757 19.3105C1.05557 20.6975 1.43927 22.4408 2.73827 23.3848C3.99027 24.2948 5.83805 24.1278 6.91405 23.0488C7.51305 23.6508 8.33721 24 9.19921 24C9.88221 24 10.5358 23.7868 11.0898 23.3848C12.3888 22.4408 12.7735 20.6975 12.0605 19.3105C13.4525 18.6065 14.1669 16.9704 13.6699 15.4414C13.1839 13.9474 11.6437 13.0088 10.0957 13.2598C9.85669 11.7188 8.52105 10.5332 6.91405 10.5332ZM17.4902 11H19V14H22V17H18.2988L17.0391 12.582L17.4902 11ZM7.0078 15.5977C8.1128 15.5977 9.0078 16.4927 9.0078 17.5977C9.0078 18.7027 8.1128 19.5977 7.0078 19.5977C5.9028 19.5977 5.0078 18.7027 5.0078 17.5977C5.0078 16.4927 5.9028 15.5977 7.0078 15.5977Z" fill="#66B807"/>
    </g>
    <defs>
        <clipPath id="clip0">
            <rect width="24" height="24" fill="white"/>
        </clipPath>
    </defs>
</svg>
