<svg width="24" height="24" viewBox="0 0 24 24" fill="none" xmlns="http://www.w3.org/2000/svg">
    <path d="M13.0001 2C11.8947 2 11.0001 2.89453 11.0001 4C11.0001 5.10547 11.8947 6 13.0001 6C14.1056 6 15.0001 5.10547 15.0001 4C15.0001 2.89453 14.1056 2 13.0001 2ZM8.62515 6.09375C7.27358 6.25 6.04312 7.14844 5.5939 8.5L5.00015 10.5C4.69937 11.3984 5.28921 12.3867 6.18765 12.6875C7.18765 12.9883 8.10562 12.5 8.4064 11.5L10.0001 6.1875C9.55093 6.0625 9.07437 6.04297 8.62515 6.09375ZM10.9064 6.34375L10.3126 8.25L10.3751 8.28125L9.18765 12.3125C8.98843 13.1133 9.30483 13.9062 9.9064 14.4062L12.8439 16.7812C12.9494 17.0078 13.0001 17.2539 13.0001 17.5V22H15.0001V17.5C15.0001 16.6797 14.7306 15.8672 14.1876 15.1875L14.1564 15.1562L12.2189 12.9062L13.1876 9.5C13.2189 9.53125 13.2501 9.5625 13.2814 9.59375L14.0939 10.4062C14.7306 11.043 15.6564 11.2422 16.4064 11.0938L18.0001 10.7812V22H19.0001V7H18.0001V8.71875L16.0001 9.125C15.7501 9.17578 15.6642 9.16406 15.5001 9L15.4376 8.9375L14.7189 8.1875C14.0119 7.48047 13.1408 6.99609 12.1876 6.75H12.1564L10.9064 6.34375ZM9.4064 15.5938L7.0939 22H9.18765L11.0001 17L9.4064 15.5938Z" fill="#FF3F80"/>
</svg>
