<svg width="24" height="24" viewBox="0 0 24 24" fill="none" xmlns="http://www.w3.org/2000/svg">
    <path d="M12 2.09961L9.93164 3.96289C10.1946 4.15389 10.4324 4.37238 10.6504 4.60938C10.6704 4.63037 10.689 4.65478 10.709 4.67578C10.92 4.91278 11.1123 5.16741 11.2773 5.44141L11.2793 5.4375C11.3143 5.4955 11.3576 5.54842 11.3906 5.60742C12.9436 6.45842 14 8.108 14 10C14 10.307 13.9729 10.6064 13.9199 10.8984C14.5969 11.7514 15 12.829 15 14C15 16.757 12.757 19 10 19V20V21H20V12H23L12 2.09961ZM7 5C5.648 5 4.50291 5.89791 4.12891 7.12891C2.89791 7.50291 2 8.648 2 10C2 10.534 2.14172 11.0377 2.38672 11.4727C1.55372 12.0067 1 12.939 1 14C1 15.654 2.346 17 4 17H6V21H8V17H10C11.654 17 13 15.654 13 14C13 12.939 12.4463 12.0067 11.6133 11.4727C11.8583 11.0377 12 10.534 12 10C12 8.648 11.1021 7.50291 9.87109 7.12891C9.49709 5.89791 8.352 5 7 5Z" fill="#04A9F5"/>
</svg>
