<svg width="24" height="24" viewBox="0 0 24 24" fill="none" xmlns="http://www.w3.org/2000/svg">
    <path d="M13 2C12.529 2 12.1357 2.36008 12.0977 2.83008L12.082 3.01953C12.0793 3.05251 12.093 3.08098 12.0938 3.11328C11.3101 3.29551 10.6196 3.70573 10.0879 4.27344C10.06 4.2564 10.0421 4.22909 10.0117 4.21484L9.8418 4.13477C9.4158 3.93377 8.90592 4.092 8.66992 4.5C8.43392 4.908 8.5505 5.42731 8.9375 5.69531L9.09375 5.80469C9.12369 5.82543 9.15813 5.82904 9.18945 5.8457C9.07799 6.21341 9 6.59591 9 7C9 7.40409 9.07799 7.78659 9.18945 8.1543C9.15813 8.17095 9.12369 8.17457 9.09375 8.19531L8.9375 8.30273C8.5505 8.57173 8.43392 9.092 8.66992 9.5C8.90592 9.908 9.4158 10.0662 9.8418 9.86523L10.0117 9.78516C10.042 9.77089 10.06 9.74359 10.0879 9.72656C10.6191 10.2938 11.3089 10.7043 12.0918 10.8867C12.091 10.919 12.0774 10.9475 12.0801 10.9805L12.0977 11.1699C12.1367 11.6399 12.529 12 13 12C13.471 12 13.8643 11.6399 13.9023 11.1699L13.918 10.9805C13.9207 10.9475 13.907 10.919 13.9062 10.8867C14.6899 10.7045 15.3804 10.2943 15.9121 9.72656C15.94 9.74366 15.9579 9.77084 15.9883 9.78516L16.1582 9.86719C16.5842 10.0682 17.0941 9.90995 17.3301 9.50195C17.5661 9.09395 17.4495 8.57369 17.0625 8.30469L16.9062 8.19531C16.8763 8.17457 16.8419 8.17096 16.8105 8.1543C16.922 7.78659 17 7.40409 17 7C17 6.59591 16.922 6.21341 16.8105 5.8457C16.8419 5.82905 16.8763 5.82543 16.9062 5.80469L17.0625 5.69727C17.4495 5.42827 17.5661 4.908 17.3301 4.5C17.0941 4.092 16.5842 3.93377 16.1582 4.13477L15.9883 4.21484C15.958 4.22911 15.94 4.25641 15.9121 4.27344C15.3809 3.70617 14.6911 3.29573 13.9082 3.11328C13.909 3.08098 13.9226 3.05251 13.9199 3.01953L13.9023 2.83008C13.8633 2.36008 13.471 2 13 2ZM13 5.5C13.828 5.5 14.5 6.172 14.5 7C14.5 7.828 13.828 8.5 13 8.5C12.172 8.5 11.5 7.828 11.5 7C11.5 6.172 12.172 5.5 13 5.5ZM20.5859 12C20.2239 12 19.8619 12.1381 19.5859 12.4141L15 17H11C10.724 17 10.5 16.776 10.5 16.5C10.5 16.224 10.724 16 11 16H13C14.105 16 15 15.105 15 14V13H8.65625C7.59525 13 6.57812 13.4209 5.82812 14.1719L2 18L6 22L8 20H15.1719C15.7019 20 16.2109 19.7891 16.5859 19.4141L21.5859 14.4141C22.1379 13.8621 22.1379 12.9661 21.5859 12.4141C21.3099 12.1381 20.9479 12 20.5859 12Z" fill="#FC9300"/>
</svg>
