<svg width="24" height="24" viewBox="0 0 24 24" fill="none" xmlns="http://www.w3.org/2000/svg">
<path fill-rule="evenodd" clip-rule="evenodd" d="M11.9998 0C16.7369 0 20.565 3.92008 20.565 8.56521C20.565 11.8205 18.4597 15.6133 14.3585 20.0938C14.2949 20.1632 14.2283 20.2298 14.1589 20.2934C12.8561 21.4858 10.8334 21.3964 9.64104 20.0937C5.53982 15.6133 3.43457 11.8205 3.43457 8.56521C3.43457 3.92008 7.2627 0 11.9998 0ZM11.8875 5.28331C10.1378 5.28331 8.71768 6.70341 8.71768 8.45317C8.71768 10.2029 10.1378 11.623 11.8875 11.623C13.6373 11.623 15.0574 10.2029 15.0574 8.45317C15.0574 6.70341 13.6373 5.28331 11.8875 5.28331Z" fill="#7210FF"/>
</svg>
