<svg width="24" height="24" viewBox="0 0 24 24" fill="none" xmlns="http://www.w3.org/2000/svg">
<path fill-rule="evenodd" clip-rule="evenodd" d="M18.9143 7.26319C18.9143 3.32418 15.824 0 12 0C8.17598 0 5.08571 3.32418 5.08571 7.26319C5.08571 10.0236 6.78518 13.2399 10.0959 17.0392C11.0584 18.1439 12.6913 18.2197 13.7429 17.2085C13.799 17.1546 13.8528 17.0981 13.9041 17.0392C17.2148 13.2399 18.9143 10.0236 18.9143 7.26319ZM9.35052 7.16818C9.35052 5.6844 10.4969 4.48018 11.9094 4.48018C13.3219 4.48018 14.4683 5.6844 14.4683 7.16818C14.4683 8.65196 13.3219 9.85618 11.9094 9.85618C10.4969 9.85618 9.35052 8.65196 9.35052 7.16818Z" fill="#7210FF"/>
<path d="M6.02857 14.72C5.75129 13.8025 5.75103 13.8025 5.75075 13.8026L5.74855 13.8033L5.74432 13.8047L5.73143 13.8088L5.68867 13.8229C5.65286 13.8348 5.6027 13.852 5.54023 13.8744C5.41545 13.919 5.24064 13.9848 5.03231 14.0718C4.61844 14.2447 4.05861 14.5071 3.49157 14.8624C2.43477 15.5246 1 16.7336 1 18.56C1 20.4547 2.5974 21.8096 4.47406 22.6404C6.43065 23.5065 9.08055 24 12 24C14.9194 24 17.5694 23.5065 19.5259 22.6404C21.4026 21.8096 23 20.4547 23 18.56C23 16.7336 21.5652 15.5246 20.5084 14.8624C19.9414 14.5071 19.3816 14.2447 18.9677 14.0718C18.7594 13.9848 18.5845 13.919 18.4598 13.8744C18.3973 13.852 18.3471 13.8348 18.3113 13.8229L18.2686 13.8088L18.2557 13.8047L18.2514 13.8033L18.2499 13.8028C18.2496 13.8027 18.2487 13.8025 17.9714 14.72C17.6941 15.6375 17.6939 15.6375 17.6937 15.6374L17.6977 15.6387L17.7233 15.6471C17.7473 15.6552 17.785 15.668 17.8342 15.6856C17.9329 15.721 18.0773 15.7752 18.252 15.8482C18.6042 15.9953 19.0658 16.2129 19.5201 16.4976C20.5062 17.1154 21.1143 17.8264 21.1143 18.56C21.1143 19.2253 20.5117 20.1104 18.7741 20.8796C17.1164 21.6135 14.7377 22.08 12 22.08C9.2623 22.08 6.88364 21.6135 5.22594 20.8796C3.48832 20.1104 2.88571 19.2253 2.88571 18.56C2.88571 17.8264 3.4938 17.1154 4.47986 16.4976C4.93424 16.2129 5.39584 15.9953 5.74805 15.8482C5.92275 15.7752 6.06714 15.721 6.16579 15.6856C6.21504 15.668 6.25266 15.6552 6.27671 15.6471L6.30227 15.6387L6.3063 15.6374C6.30608 15.6375 6.30585 15.6375 6.02857 14.72Z" fill="#7210FF"/>
</svg>
