<svg width="24" height="24" viewBox="0 0 24 24" fill="none" xmlns="http://www.w3.org/2000/svg">
<path fill-rule="evenodd" clip-rule="evenodd" d="M20.2125 8.10624C20.2125 3.71002 16.5895 0 12.1062 0C7.623 0 4 3.71002 4 8.10624C4 11.1871 5.99244 14.7766 9.87389 19.017C11.0024 20.2499 12.9167 20.3345 14.1496 19.206C14.2154 19.1458 14.2784 19.0828 14.3386 19.017C18.22 14.7766 20.2125 11.1871 20.2125 8.10624ZM8.99984 7.99984C8.99984 6.34384 10.3438 4.99984 11.9998 4.99984C13.6558 4.99984 14.9998 6.34384 14.9998 7.99984C14.9998 9.65584 13.6558 10.9998 11.9998 10.9998C10.3438 10.9998 8.99984 9.65584 8.99984 7.99984Z" fill="#7210FF"/>
<path d="M16.8067 17.9558C17.461 18.368 17.7652 18.7998 17.8381 19.1615C17.9057 19.4961 17.7974 19.8876 17.3654 20.3082C16.9247 20.7373 16.2012 21.1348 15.2396 21.423C14.2849 21.7092 13.1699 21.8651 12.0226 21.8671C10.8753 21.8691 9.75777 21.7171 8.79813 21.4341C7.83186 21.1492 7.10079 20.7538 6.65203 20.3248C6.2112 19.9033 6.09707 19.51 6.15938 19.1758C6.22643 18.8161 6.52206 18.3852 7.16858 17.9717L6.54897 17.0199C5.75972 17.5247 5.18175 18.1861 5.0356 18.97C4.88471 19.7794 5.22624 20.5355 5.85868 21.1401C6.4832 21.7371 7.40046 22.2037 8.47224 22.5198C9.55064 22.8378 10.78 23.002 12.0246 22.9998C13.2693 22.9976 14.4964 22.8291 15.5704 22.5072C16.6378 22.1873 17.5494 21.717 18.1663 21.1163C18.792 20.5071 19.1219 19.7476 18.9588 18.9394C18.8011 18.1583 18.2151 17.5009 17.4197 16.9998L16.8067 17.9558Z" fill="#7210FF"/>
</svg>
