<svg width="109" height="113" viewBox="0 0 109 113" fill="none" xmlns="http://www.w3.org/2000/svg">
<path d="M86.96 81.7148C86.96 80.6791 86.9872 79.7524 87.0688 78.9348C87.1232 78.2262 87.2592 77.5176 87.5312 76.8635C87.776 76.2911 88.1296 75.8005 88.6192 75.419C89.1904 74.9829 89.8432 74.6831 90.5504 74.4923C91.5296 74.2198 92.536 74.0562 93.5696 73.9745C94.7664 73.8655 96.208 73.8382 97.9216 73.8382C99.6352 73.8382 101.077 73.8927 102.274 73.9745C103.28 74.0562 104.286 74.2198 105.266 74.4923C105.946 74.6831 106.598 74.9829 107.17 75.419C107.632 75.8005 108.013 76.2911 108.23 76.8635C108.475 77.5176 108.638 78.2262 108.666 78.9348C108.72 79.7252 108.774 80.6518 108.774 81.7148C108.774 82.7777 108.747 83.6771 108.666 84.4947C108.611 85.2033 108.475 85.9119 108.23 86.5661C108.013 87.1384 107.659 87.629 107.17 88.0106C106.598 88.4466 105.946 88.7464 105.266 88.9372C104.286 89.2097 103.28 89.3733 102.246 89.455C101.05 89.5641 99.608 89.5913 97.8944 89.5913C96.1808 89.5913 94.7392 89.5368 93.5424 89.455C92.5088 89.3733 91.5024 89.2097 90.5232 88.9372C89.816 88.7464 89.1632 88.4466 88.592 88.0106C88.1024 87.629 87.7488 87.1384 87.504 86.5661C87.232 85.9119 87.096 85.2033 87.0416 84.4947C86.9872 83.6771 86.96 82.7504 86.96 81.7148ZM87.2592 91.6627H90.8496V97.4406H108.475V101.91H90.8496V107.716H87.2592V91.6627ZM90.4688 81.7148C90.4688 82.3144 90.5232 82.914 90.632 83.5136C90.768 83.9769 91.0944 84.3857 91.5296 84.5765C92.2368 84.8763 92.9712 85.0671 93.7328 85.0943C94.712 85.1761 96.0992 85.2306 97.8944 85.2306C99.6624 85.2306 101.05 85.1761 102.056 85.0943C102.818 85.0671 103.552 84.8763 104.259 84.5765C104.694 84.3584 105.021 83.9769 105.13 83.5136C105.238 82.914 105.293 82.3144 105.293 81.7148C105.293 81.1152 105.238 80.4883 105.13 79.916C105.021 79.4526 104.694 79.0438 104.259 78.8258C103.77 78.5532 103.062 78.3897 102.056 78.2807C101.05 78.1717 99.6896 78.1444 97.8944 78.1444C96.1264 78.1444 94.7392 78.1989 93.7328 78.2807C92.9712 78.3079 92.2096 78.4987 91.5296 78.8258C91.0944 79.0438 90.768 79.4254 90.632 79.916C90.5232 80.4883 90.4688 81.1152 90.4688 81.7148ZM62.344 78.3079V89.4823C62.344 89.4823 67.7024 90.7633 69.688 87.5745C71.6736 84.3857 71.048 80.4065 68.872 78.853C67.3216 77.7629 62.344 78.3079 62.344 78.3079ZM78.936 81.5785C78.936 91.1176 72.68 91.9352 72.68 91.9352C72.68 91.9352 75.808 93.1617 77.304 94.6606C78.8 96.1596 78.8 101.202 78.936 105.29C79.072 109.378 80.568 112.104 80.568 112.104H71.864C71.864 112.104 72.408 105.017 71.32 99.0214C70.232 93.0254 62.616 94.6606 62.616 94.6606V112.104H53.912V73.4021H67.24C67.24 73.4021 78.936 72.0394 78.936 81.5785ZM12.296 82.9412H9.84798L13.928 101.202L19.368 73.4021H26.984L19.096 112.376H9.03198L0.599976 79.1256H13.112L12.296 82.9412ZM22.7408 56.7769H34.056L25.624 19.7107L14.472 72.5845H0.599976L16.376 0.905136H34.872L50.376 62.5003H21.5984L22.7408 56.7769ZM29.16 106.108H43.848V95.2057H30.52V89.2097H43.576V79.1256H29.432V73.4021H50.92V112.104H29.16V106.108ZM84.104 11.5344C84.104 11.5344 75.944 9.08149 69.96 14.8049C63.976 20.5284 64.1936 38.5164 67.512 50.5083C69.96 59.3661 84.104 58.4122 84.104 58.4122V11.5344ZM65.608 66.8611C54.728 61.6827 52.144 47.6466 53.64 23.7989C55.136 -0.0487718 71.592 0.905136 71.592 0.905136H98.52V68.7689C98.52 68.7689 76.488 72.0394 65.608 66.8611Z" fill="#FF9514"/>
</svg>
