<svg width="146" height="32" viewBox="0 0 146 32" fill="none" xmlns="http://www.w3.org/2000/svg">
    <path d="M52.5014 20.5346H46.7899L45.974 24.1343H42.6624L46.6699 7.33597H52.6213L56.6289 24.1343H53.3173L52.5014 20.5346ZM47.4619 17.5109H51.8054L49.8616 8.91981H49.4297L47.4619 17.5109Z" fill="#FF9514"/>
    <path d="M58.1001 7.33597H64.1955C66.2753 7.33597 67.8191 7.82392 68.827 8.79982C69.8349 9.75972 70.3389 11.2556 70.3389 13.2874V18.1829C70.3389 20.2147 69.8349 21.7185 68.827 22.6944C67.8191 23.6543 66.2753 24.1343 64.1955 24.1343H58.1001V21.0866H59.6839V10.3597H58.1001V7.33597ZM64.1955 21.1106C65.2994 21.1106 66.0673 20.8546 66.4993 20.3427C66.9472 19.8147 67.1712 18.9988 67.1712 17.8949V13.2874C67.1712 12.3275 66.9472 11.5995 66.4993 11.1036C66.0673 10.6076 65.2994 10.3597 64.1955 10.3597H62.8516V21.1106H64.1955Z" fill="#FF9514"/>
    <path d="M72.266 7.33597H75.5297L78.8173 22.5504H79.2493L82.5369 7.33597H85.8006L82.009 24.1343H76.0576L72.266 7.33597Z" fill="#FF9514"/>
    <path d="M88.3517 7.33597H98.9586V10.3597H91.5194V14.1993H98.6706V17.223H91.5194V21.1106H99.2466V24.1343H88.3517V7.33597Z" fill="#FF9514"/>
    <path d="M114.108 24.1343H110.941V19.0948C110.941 18.7108 110.837 18.3988 110.629 18.1589C110.437 17.9189 110.109 17.7989 109.645 17.7989H105.997V24.1343H102.83V7.33597H109.261C110.125 7.33597 110.885 7.45595 111.541 7.69593C112.197 7.93591 112.741 8.27187 113.172 8.70383C113.62 9.11979 113.956 9.60774 114.18 10.1677C114.42 10.7276 114.54 11.3276 114.54 11.9675V12.5434C114.54 13.2314 114.356 13.8793 113.988 14.4872C113.62 15.0792 113.052 15.5351 112.285 15.8551V16.2871C112.845 16.3511 113.284 16.567 113.604 16.935C113.94 17.303 114.108 17.7669 114.108 18.3269V24.1343ZM105.997 14.7752H109.021C109.789 14.7752 110.373 14.5992 110.773 14.2473C111.173 13.8793 111.373 13.3674 111.373 12.7114V12.4235C111.373 11.8635 111.173 11.3836 110.773 10.9836C110.373 10.5676 109.789 10.3597 109.021 10.3597H105.997V14.7752Z" fill="#FF9514"/>
    <path d="M117.067 7.33597H129.162V10.3597H124.699V24.1343H121.531V10.3597H117.067V7.33597Z" fill="#FF9514"/>
    <path d="M131.617 13.8633C131.617 11.6875 132.161 9.9997 133.249 8.79982C134.353 7.59994 135.873 7 137.809 7C139.744 7 141.256 7.59994 142.344 8.79982C143.448 9.9997 144 11.6875 144 13.8633V17.6069C144 19.8467 143.448 21.5505 142.344 22.7184C141.256 23.8863 139.744 24.4702 137.809 24.4702C135.873 24.4702 134.353 23.8863 133.249 22.7184C132.161 21.5505 131.617 19.8467 131.617 17.6069V13.8633ZM137.809 21.5905C138.385 21.5905 138.865 21.5025 139.248 21.3266C139.632 21.1346 139.944 20.8706 140.184 20.5346C140.424 20.1987 140.592 19.7987 140.688 19.3348C140.784 18.8708 140.832 18.3589 140.832 17.7989V13.6713C140.832 13.1434 140.776 12.6474 140.664 12.1835C140.552 11.7195 140.376 11.3196 140.136 10.9836C139.896 10.6476 139.584 10.3837 139.2 10.1917C138.817 9.9837 138.353 9.87971 137.809 9.87971C137.265 9.87971 136.801 9.9837 136.417 10.1917C136.033 10.3837 135.721 10.6476 135.481 10.9836C135.241 11.3196 135.065 11.7195 134.953 12.1835C134.841 12.6474 134.785 13.1434 134.785 13.6713V17.7989C134.785 18.3589 134.833 18.8708 134.929 19.3348C135.025 19.7987 135.193 20.1987 135.433 20.5346C135.673 20.8706 135.985 21.1346 136.369 21.3266C136.753 21.5025 137.233 21.5905 137.809 21.5905Z" fill="#FF9514"/>
    <g clip-path="url(#clip0)">
        <path d="M31.9968 0H0V31.9968H31.9968V0Z" fill="#FF9514"/>
        <path d="M23.5177 21.8131C23.5177 21.5695 23.5241 21.3515 23.5433 21.1591C23.5561 20.9924 23.5881 20.8257 23.652 20.6718C23.7096 20.5371 23.7928 20.4217 23.908 20.3319C24.0424 20.2293 24.196 20.1588 24.3624 20.1139C24.5927 20.0498 24.8295 20.0113 25.0727 19.9921C25.3543 19.9664 25.6934 19.96 26.0966 19.96C26.4998 19.96 26.8389 19.9728 27.1205 19.9921C27.3573 20.0113 27.594 20.0498 27.8244 20.1139C27.9844 20.1588 28.138 20.2293 28.2724 20.3319C28.3812 20.4217 28.4708 20.5371 28.522 20.6718C28.5795 20.8257 28.6179 20.9924 28.6243 21.1591C28.6371 21.3451 28.6499 21.5631 28.6499 21.8131C28.6499 22.0632 28.6435 22.2748 28.6243 22.4672C28.6115 22.6339 28.5795 22.8006 28.522 22.9545C28.4708 23.0892 28.3876 23.2046 28.2724 23.2944C28.138 23.397 27.9844 23.4675 27.8244 23.5124C27.594 23.5765 27.3573 23.615 27.1141 23.6342C26.8325 23.6599 26.4934 23.6663 26.0902 23.6663C25.687 23.6663 25.3479 23.6534 25.0663 23.6342C24.8231 23.615 24.5863 23.5765 24.356 23.5124C24.1896 23.4675 24.036 23.397 23.9016 23.2944C23.7864 23.2046 23.7032 23.0892 23.6456 22.9545C23.5816 22.8006 23.5497 22.6339 23.5369 22.4672C23.5241 22.2748 23.5177 22.0568 23.5177 21.8131ZM23.5881 24.1536H24.4328V25.513H28.5795V26.5646H24.4328V27.9304H23.5881V24.1536ZM24.3432 21.8131C24.3432 21.9542 24.356 22.0953 24.3816 22.2363C24.4136 22.3454 24.4904 22.4415 24.5927 22.4864C24.7591 22.557 24.9319 22.6018 25.1111 22.6083C25.3415 22.6275 25.6678 22.6403 26.0902 22.6403C26.5062 22.6403 26.8325 22.6275 27.0693 22.6083C27.2485 22.6018 27.4213 22.557 27.5876 22.4864C27.69 22.4351 27.7668 22.3454 27.7924 22.2363C27.818 22.0953 27.8308 21.9542 27.8308 21.8131C27.8308 21.6721 27.818 21.5246 27.7924 21.3899C27.7668 21.2809 27.69 21.1847 27.5876 21.1335C27.4725 21.0693 27.3061 21.0309 27.0693 21.0052C26.8325 20.9796 26.5126 20.9731 26.0902 20.9731C25.6742 20.9731 25.3479 20.986 25.1111 21.0052C24.9319 21.0116 24.7527 21.0565 24.5927 21.1335C24.4904 21.1847 24.4136 21.2745 24.3816 21.3899C24.356 21.5246 24.3432 21.6721 24.3432 21.8131ZM17.7262 21.0116V23.6406C17.7262 23.6406 18.9869 23.942 19.4541 23.1918C19.9212 22.4415 19.774 21.5054 19.2621 21.1399C18.8973 20.8834 17.7262 21.0116 17.7262 21.0116ZM21.6298 21.7811C21.6298 24.0253 20.158 24.2177 20.158 24.2177C20.158 24.2177 20.8939 24.5063 21.2459 24.8589C21.5979 25.2116 21.5979 26.3979 21.6298 27.3597C21.6618 28.3215 22.0138 28.9627 22.0138 28.9627H19.966C19.966 28.9627 20.094 27.2956 19.838 25.8849C19.5821 24.4742 17.7902 24.8589 17.7902 24.8589V28.9627H15.7424V19.8574H18.8781C18.8781 19.8574 21.6298 19.5368 21.6298 21.7811ZM5.95143 22.1017H5.37549L6.33539 26.3979L7.61526 19.8574H9.40708L7.55127 29.0268H5.18351L3.19971 21.204H6.14341L5.95143 22.1017ZM8.40878 15.946H11.0709L9.08711 7.22544L6.46338 19.6651H3.19971L6.91133 2.80104H11.2629L14.9105 17.2926H8.14001L8.40878 15.946ZM9.91903 27.552H13.3747V24.9872H10.239V23.5765H13.3107V21.204H9.98302V19.8574H15.0385V28.9627H9.91903V27.552ZM22.8457 5.30179C22.8457 5.30179 20.9259 4.72469 19.5181 6.07125C18.1102 7.4178 18.1614 11.6498 18.9421 14.4712C19.5181 16.5552 22.8457 16.3307 22.8457 16.3307V5.30179ZM18.4942 18.3185C15.9344 17.1002 15.3265 13.7979 15.6784 8.18727C16.0304 2.57661 19.902 2.80104 19.902 2.80104H26.2374V18.7674C26.2374 18.7674 21.0539 19.5368 18.4942 18.3185Z" fill="white"/>
    </g>
    <defs>
        <clipPath id="clip0">
            <rect width="31.9968" height="31.9968" fill="white"/>
        </clipPath>
    </defs>
</svg>
