<svg width="24" height="24" viewBox="0 0 24 24" fill="none" xmlns="http://www.w3.org/2000/svg">
<path fill-rule="evenodd" clip-rule="evenodd" d="M20.28 2.00095V14.3226C20.28 14.3226 16.392 14.9164 14.472 13.9762C12.552 13.036 12.096 10.4875 12.36 6.15765C12.624 1.82775 15.528 2.00095 15.528 2.00095H20.28ZM17.736 12.4422V3.93085C17.736 3.93085 16.296 3.48549 15.24 4.52466C14.184 5.56384 14.2236 8.8315 14.808 11.0071C15.24 12.6154 17.736 12.4422 17.736 12.4422ZM5.784 2.00095L3 15.0154H5.448L7.416 5.41538L8.904 12.1453H6.888L6.696 13.1845H11.784L9.048 2.00095H5.784ZM4.488 22.2401L3 16.203H5.208L5.064 16.8958H4.632L5.352 20.2113L6.312 15.1638H7.656L6.264 22.2401H4.488ZM11.88 15.1638H8.088V16.203H10.584V18.0339H8.28V19.1226H10.632V21.102H8.04V22.1906H11.88V15.1638ZM12.408 22.1906V15.1638H14.76C14.76 15.1638 16.824 14.9164 16.824 16.6484C16.824 18.3803 15.72 18.5288 15.72 18.5288C15.72 18.5288 16.272 18.7515 16.536 19.0236C16.7754 19.2705 16.7977 20.0465 16.8177 20.7425C16.8197 20.8139 16.8218 20.8845 16.824 20.9535C16.848 21.6958 17.112 22.1906 17.112 22.1906H15.576C15.576 22.1906 15.672 20.904 15.48 19.8154C15.288 18.7267 13.944 19.0236 13.944 19.0236V22.1906H12.408ZM13.896 18.0834V16.0546C13.896 16.0546 14.7735 15.9531 15.048 16.1535C15.432 16.434 15.544 17.1597 15.192 17.737C14.84 18.3144 13.896 18.0834 13.896 18.0834ZM21.1629 16.8572C20.952 16.7583 20.7065 16.7088 20.4266 16.7088H20.2996C20.021 16.7088 19.7755 16.7596 19.5633 16.8611C19.3498 16.9614 19.1863 17.104 19.0731 17.2889C18.9585 17.4725 18.9012 17.6828 18.9012 17.9197C18.9012 18.1567 18.9585 18.3677 19.0731 18.5526C19.1863 18.7361 19.3498 18.8787 19.5633 18.9803C19.7755 19.0805 20.0216 19.1307 20.3016 19.1307H20.4422C20.7156 19.1294 20.9578 19.0779 21.1688 18.9764C21.3784 18.8748 21.5399 18.7316 21.6531 18.5467C21.7664 18.3618 21.8231 18.1515 21.8231 17.9158C21.8231 17.6776 21.7658 17.4666 21.6512 17.283C21.5366 17.0981 21.3738 16.9562 21.1629 16.8572ZM19.618 17.4627C19.7729 17.3559 19.9995 17.3026 20.2977 17.3026H20.4363C20.7319 17.3039 20.9572 17.3572 21.1121 17.4627C21.2658 17.5682 21.3426 17.7192 21.3426 17.9158C21.3426 18.1164 21.2625 18.27 21.1024 18.3768C20.9422 18.4835 20.7169 18.5369 20.4266 18.5369H20.2879C19.9923 18.5356 19.7684 18.4816 19.616 18.3748C19.4624 18.268 19.3856 18.1164 19.3856 17.9197C19.3856 17.7218 19.463 17.5695 19.618 17.4627ZM19.4149 20.1971V19.326H18.9402V21.6424H19.4149V20.783H21.784V20.1971H19.4149Z" fill="white"/>
</svg>
