<svg width="136" height="136" viewBox="0 0 136 136" fill="none" xmlns="http://www.w3.org/2000/svg">
    <path d="M136 0H0V136H136V0Z" fill="#FF9514"/>
    <path d="M99.96 92.7148C99.96 91.6791 99.9872 90.7524 100.069 89.9348C100.123 89.2262 100.259 88.5176 100.531 87.8635C100.776 87.2911 101.13 86.8005 101.619 86.419C102.19 85.9829 102.843 85.6831 103.55 85.4923C104.53 85.2198 105.536 85.0562 106.57 84.9745C107.766 84.8655 109.208 84.8382 110.922 84.8382C112.635 84.8382 114.077 84.8927 115.274 84.9745C116.28 85.0562 117.286 85.2198 118.266 85.4923C118.946 85.6831 119.598 85.9829 120.17 86.419C120.632 86.8005 121.013 87.2911 121.23 87.8635C121.475 88.5176 121.638 89.2262 121.666 89.9348C121.72 90.7252 121.774 91.6518 121.774 92.7148C121.774 93.7777 121.747 94.6771 121.666 95.4947C121.611 96.2033 121.475 96.9119 121.23 97.5661C121.013 98.1384 120.659 98.629 120.17 99.0106C119.598 99.4466 118.946 99.7464 118.266 99.9372C117.286 100.21 116.28 100.373 115.246 100.455C114.05 100.564 112.608 100.591 110.894 100.591C109.181 100.591 107.739 100.537 106.542 100.455C105.509 100.373 104.502 100.21 103.523 99.9372C102.816 99.7464 102.163 99.4466 101.592 99.0106C101.102 98.629 100.749 98.1384 100.504 97.5661C100.232 96.9119 100.096 96.2033 100.042 95.4947C99.9872 94.6771 99.96 93.7504 99.96 92.7148ZM100.259 102.663H103.85V108.441H121.475V112.91H103.85V118.716H100.259V102.663ZM103.469 92.7148C103.469 93.3144 103.523 93.914 103.632 94.5136C103.768 94.9769 104.094 95.3857 104.53 95.5765C105.237 95.8763 105.971 96.0671 106.733 96.0943C107.712 96.1761 109.099 96.2306 110.894 96.2306C112.662 96.2306 114.05 96.1761 115.056 96.0943C115.818 96.0671 116.552 95.8763 117.259 95.5765C117.694 95.3584 118.021 94.9769 118.13 94.5136C118.238 93.914 118.293 93.3144 118.293 92.7148C118.293 92.1152 118.238 91.4883 118.13 90.916C118.021 90.4526 117.694 90.0438 117.259 89.8258C116.77 89.5532 116.062 89.3897 115.056 89.2807C114.05 89.1717 112.69 89.1444 110.894 89.1444C109.126 89.1444 107.739 89.1989 106.733 89.2807C105.971 89.3079 105.21 89.4987 104.53 89.8258C104.094 90.0438 103.768 90.4254 103.632 90.916C103.523 91.4883 103.469 92.1152 103.469 92.7148ZM75.344 89.3079V100.482C75.344 100.482 80.7024 101.763 82.688 98.5745C84.6736 95.3857 84.048 91.4065 81.872 89.853C80.3216 88.7629 75.344 89.3079 75.344 89.3079ZM91.936 92.5785C91.936 102.118 85.68 102.935 85.68 102.935C85.68 102.935 88.808 104.162 90.304 105.661C91.8 107.16 91.8 112.202 91.936 116.29C92.072 120.378 93.568 123.104 93.568 123.104H84.864C84.864 123.104 85.408 116.017 84.32 110.021C83.232 104.025 75.616 105.661 75.616 105.661V123.104H66.912V84.4021H80.24C80.24 84.4021 91.936 83.0394 91.936 92.5785ZM25.296 93.9412H22.848L26.928 112.202L32.368 84.4021H39.984L32.096 123.376H22.032L13.6 90.1256H26.112L25.296 93.9412ZM35.7408 67.7769H47.056L38.624 30.7107L27.472 83.5845H13.6L29.376 11.9051H47.872L63.376 73.5003H34.5984L35.7408 67.7769ZM42.16 117.108H56.848V106.206H43.52V100.21H56.576V90.1256H42.432V84.4021H63.92V123.104H42.16V117.108ZM97.104 22.5344C97.104 22.5344 88.944 20.0815 82.96 25.8049C76.976 31.5284 77.1936 49.5164 80.512 61.5083C82.96 70.3661 97.104 69.4122 97.104 69.4122V22.5344ZM78.608 77.8611C67.728 72.6827 65.144 58.6466 66.64 34.7989C68.136 10.9512 84.592 11.9051 84.592 11.9051H111.52V79.7689C111.52 79.7689 89.488 83.0394 78.608 77.8611Z" fill="white"/>
</svg>
