<svg width="16" height="16" viewBox="0 0 16 16" fill="#212121" xmlns="http://www.w3.org/2000/svg">
<path d="M7.99997 5.39646C6.56638 5.39646 5.39646 6.56638 5.39646 7.99997C5.39646 9.43357 6.56638 10.6035 7.99997 10.6035C9.43357 10.6035 10.6035 9.43357 10.6035 7.99997C10.6035 6.56638 9.43357 5.39646 7.99997 5.39646ZM15.8086 7.99997C15.8086 6.92185 15.8183 5.85349 15.7578 4.77731C15.6972 3.52731 15.4121 2.41794 14.498 1.50388C13.582 0.587861 12.4746 0.304658 11.2246 0.244111C10.1465 0.183564 9.0781 0.19333 8.00192 0.19333C6.9238 0.19333 5.85544 0.183564 4.77927 0.244111C3.52927 0.304658 2.41989 0.589814 1.50583 1.50388C0.589814 2.41989 0.306611 3.52731 0.246064 4.77731C0.185517 5.85544 0.195283 6.9238 0.195283 7.99997C0.195283 9.07614 0.185517 10.1465 0.246064 11.2226C0.306611 12.4726 0.591768 13.582 1.50583 14.4961C2.42185 15.4121 3.52927 15.6953 4.77927 15.7558C5.85739 15.8164 6.92575 15.8066 8.00192 15.8066C9.08005 15.8066 10.1484 15.8164 11.2246 15.7558C12.4746 15.6953 13.584 15.4101 14.498 14.4961C15.414 13.58 15.6972 12.4726 15.7578 11.2226C15.8203 10.1465 15.8086 9.0781 15.8086 7.99997ZM7.99997 12.0058C5.78317 12.0058 3.99411 10.2168 3.99411 7.99997C3.99411 5.78317 5.78317 3.99411 7.99997 3.99411C10.2168 3.99411 12.0058 5.78317 12.0058 7.99997C12.0058 10.2168 10.2168 12.0058 7.99997 12.0058ZM12.1699 4.7656C11.6523 4.7656 11.2343 4.34763 11.2343 3.83005C11.2343 3.31247 11.6523 2.8945 12.1699 2.8945C12.6875 2.8945 13.1054 3.31247 13.1054 3.83005C13.1056 3.95295 13.0815 4.07467 13.0345 4.18825C12.9876 4.30183 12.9187 4.40502 12.8318 4.49192C12.7449 4.57883 12.6417 4.64774 12.5281 4.6947C12.4145 4.74166 12.2928 4.76575 12.1699 4.7656Z" fill="#212121"/>
</svg>
