<svg width="24" height="24" viewBox="0 0 24 24" fill="none" xmlns="http://www.w3.org/2000/svg">
<path fill-rule="evenodd" clip-rule="evenodd" d="M8.2895 3.054C9.2495 3.01 9.5555 3 12 3C14.445 3 14.7505 3.0105 15.71 3.054C16.6685 3.0975 17.323 3.25 17.8955 3.4725C18.4959 3.69857 19.0399 4.05279 19.4895 4.5105C19.9473 4.96004 20.3015 5.50401 20.5275 6.1045C20.75 6.677 20.902 7.3315 20.946 8.2895C20.99 9.2495 21 9.5555 21 12C21 14.4445 20.9895 14.7505 20.946 15.7105C20.9025 16.6685 20.75 17.323 20.5275 17.8955C20.2975 18.487 19.9895 18.9895 19.4895 19.4895C19.04 19.9473 18.496 20.3015 17.8955 20.5275C17.323 20.75 16.6685 20.902 15.7105 20.946C14.7505 20.99 14.4445 21 12 21C9.5555 21 9.2495 20.9895 8.2895 20.946C7.3315 20.9025 6.677 20.75 6.1045 20.5275C5.513 20.2975 5.0105 19.9895 4.5105 19.4895C4.0527 19.04 3.69847 18.496 3.4725 17.8955C3.25 17.323 3.098 16.6685 3.054 15.7105C3.01 14.7505 3 14.445 3 12C3 9.555 3.0105 9.2495 3.054 8.29C3.0975 7.3315 3.25 6.677 3.4725 6.1045C3.69857 5.50406 4.05279 4.9601 4.5105 4.5105C4.96003 4.0527 5.50401 3.69847 6.1045 3.4725C6.677 3.25 7.3315 3.098 8.2895 3.054ZM15.637 4.674C14.688 4.631 14.403 4.6215 12 4.6215C9.597 4.6215 9.312 4.631 8.363 4.674C7.4855 4.714 7.009 4.8605 6.692 4.984C6.272 5.147 5.972 5.342 5.657 5.657C5.3425 5.972 5.147 6.272 4.984 6.692C4.8605 7.009 4.714 7.4855 4.674 8.363C4.631 9.312 4.6215 9.597 4.6215 12C4.6215 14.403 4.631 14.688 4.674 15.637C4.714 16.5145 4.8605 16.991 4.984 17.308C5.12818 17.6989 5.35815 18.0526 5.657 18.343C5.94737 18.6419 6.30104 18.8718 6.692 19.016C7.009 19.1395 7.4855 19.286 8.363 19.326C9.312 19.369 9.5965 19.3785 12 19.3785C14.4035 19.3785 14.688 19.369 15.637 19.326C16.5145 19.286 16.991 19.1395 17.308 19.016C17.728 18.853 18.028 18.658 18.343 18.343C18.6419 18.0526 18.8718 17.699 19.016 17.308C19.1395 16.991 19.286 16.5145 19.326 15.637C19.369 14.688 19.3785 14.403 19.3785 12C19.3785 9.597 19.369 9.312 19.326 8.363C19.286 7.4855 19.1395 7.009 19.016 6.692C18.853 6.272 18.658 5.972 18.343 5.657C18.028 5.3425 17.728 5.147 17.308 4.984C16.991 4.8605 16.5145 4.714 15.637 4.674ZM10.8508 14.7744C11.2152 14.9254 11.6057 15.003 12 15.003C12.7965 15.003 13.5603 14.6866 14.1235 14.1235C14.6866 13.5603 15.003 12.7965 15.003 12C15.003 11.2036 14.6866 10.4398 14.1235 9.87659C13.5603 9.31342 12.7965 8.99703 12 8.99703C11.6057 8.99703 11.2152 9.07471 10.8508 9.22562C10.4865 9.37654 10.1554 9.59774 9.87658 9.87659C9.59773 10.1554 9.37653 10.4865 9.22561 10.8508C9.0747 11.2152 8.99702 11.6057 8.99702 12C8.99702 12.3944 9.0747 12.7849 9.22561 13.1492C9.37653 13.5136 9.59773 13.8446 9.87658 14.1235C10.1554 14.4023 10.4865 14.6235 10.8508 14.7744ZM8.72895 8.72896C9.59649 7.86141 10.7731 7.37403 12 7.37403C13.2269 7.37403 14.4036 7.86141 15.2711 8.72896C16.1386 9.5965 16.626 10.7731 16.626 12C16.626 13.2269 16.1386 14.4036 15.2711 15.2711C14.4036 16.1387 13.2269 16.626 12 16.626C10.7731 16.626 9.59649 16.1387 8.72895 15.2711C7.8614 14.4036 7.37402 13.2269 7.37402 12C7.37402 10.7731 7.8614 9.5965 8.72895 8.72896ZM17.6517 8.06325C17.8568 7.85818 17.972 7.58005 17.972 7.29003C17.972 7.00002 17.8568 6.72188 17.6517 6.51681C17.4467 6.31174 17.1685 6.19653 16.8785 6.19653C16.5885 6.19653 16.3104 6.31174 16.1053 6.51681C15.9002 6.72188 15.785 7.00002 15.785 7.29003C15.785 7.58005 15.9002 7.85818 16.1053 8.06325C16.3104 8.26833 16.5885 8.38353 16.8785 8.38353C17.1685 8.38353 17.4467 8.26833 17.6517 8.06325Z" fill="url(#paint0_linear)"/>
<defs>
<linearGradient id="paint0_linear" x1="21" y1="3" x2="3" y2="21" gradientUnits="userSpaceOnUse">
<stop stop-color="#1400C8"/>
<stop offset="0.520833" stop-color="#B900B4"/>
<stop offset="1" stop-color="#F50000"/>
</linearGradient>
</defs>
</svg>
