<svg width="24" height="24" viewBox="0 0 24 24" fill="none" xmlns="http://www.w3.org/2000/svg">
<path d="M9.99468 9.96955V9.18094C9.72016 9.13759 9.44289 9.11385 9.16497 9.10988C6.47439 9.10415 4.09235 10.8428 3.28436 13.402C2.47638 15.9611 3.43011 18.747 5.63858 20.2793C4.82873 19.415 4.28705 18.3354 4.07892 17.1709C3.8708 16.0064 4.00512 14.8067 4.46568 13.7167C4.92624 12.6266 5.69336 11.6928 6.67442 11.0279C7.65549 10.363 8.80858 9.99544 9.9945 9.96964L9.99468 9.96955Z" fill="#25F4EE"/>
<path d="M10.1438 18.9028C11.6481 18.9007 12.8846 17.719 12.9505 16.2203V2.84679H15.4006C15.3506 2.56733 15.3267 2.28385 15.3293 2L11.9781 2V15.3607C11.9224 16.8669 10.6829 18.06 9.17138 18.0625C8.71969 18.0586 8.27536 17.9479 7.875 17.7393C8.13448 18.0978 8.47525 18.39 8.86953 18.5922C9.26381 18.7944 9.70042 18.9009 10.1438 18.9028V18.9028ZM19.9769 7.38428V6.64095C19.0752 6.6413 18.1935 6.37598 17.4425 5.87829C18.1008 6.64148 18.9905 7.17013 19.9769 7.38428V7.38428Z" fill="#25F4EE"/>
<path d="M17.4424 5.87836C16.7025 5.0383 16.2947 3.95837 16.2951 2.84033H15.4005C15.516 3.45848 15.7567 4.04667 16.1077 4.569C16.4588 5.09133 16.9129 5.53685 17.4424 5.87836V5.87836ZM9.16484 12.452C8.53742 12.4552 7.92908 12.6674 7.43653 13.055C6.94398 13.4426 6.59549 13.9832 6.44647 14.5909C6.29745 15.1987 6.35645 15.8387 6.61409 16.4092C6.87172 16.9796 7.31321 17.4479 7.86837 17.7394C7.56484 17.3215 7.38308 16.828 7.34315 16.3136C7.30323 15.7991 7.40671 15.2836 7.64215 14.8241C7.87759 14.3646 8.23583 13.979 8.67729 13.7098C9.11875 13.4406 9.62624 13.2983 10.1437 13.2987C10.425 13.3024 10.7044 13.3461 10.9733 13.4284V10.0281C10.6987 9.98702 10.4214 9.96543 10.1437 9.96347H9.99454V12.5489C9.72416 12.4766 9.44466 12.444 9.16484 12.452V12.452Z" fill="#FE2C55"/>
<path d="M19.977 7.38428V9.96983C18.3077 9.96659 16.6818 9.43969 15.3295 8.46375V15.2572C15.3223 18.647 12.5645 21.3913 9.16506 21.3913C7.90254 21.3936 6.67042 21.0052 5.63867 20.2796C6.48 21.1819 7.57435 21.8108 8.77916 22.0841C9.98398 22.3574 11.2434 22.2626 12.3934 21.812C13.5435 21.3615 14.5307 20.576 15.2267 19.5579C15.9227 18.5398 16.295 17.3363 16.2953 16.1042V9.32995C17.6522 10.2995 19.2801 10.8195 20.9494 10.8166V7.48746C20.6226 7.48649 20.2967 7.45191 19.977 7.38428V7.38428Z" fill="#FE2C55"/>
<path d="M15.3293 15.2573V8.46383C16.6857 9.43421 18.314 9.95434 19.9834 9.95049V7.36503C18.9971 7.15734 18.1054 6.63556 17.4425 5.87836C16.913 5.53685 16.4589 5.09133 16.1078 4.569C15.7568 4.04667 15.5161 3.45848 15.4006 2.84033H12.9505V16.2206C12.9266 16.803 12.7214 17.3635 12.3634 17.8243C12.0054 18.2851 11.5123 18.6232 10.9527 18.7917C10.3931 18.9601 9.79475 18.9506 9.24085 18.7643C8.68694 18.5781 8.20496 18.2244 7.8619 17.7524C7.30666 17.461 6.86507 16.9927 6.60737 16.4222C6.34966 15.8517 6.29063 15.2117 6.43966 14.6039C6.5887 13.996 6.93723 13.4554 7.42986 13.0678C7.92248 12.6802 8.5309 12.468 9.15838 12.4649C9.43979 12.4674 9.71932 12.511 9.98808 12.5942V10.0087C8.79578 10.0288 7.63512 10.3945 6.64762 11.0611C5.66013 11.7276 4.88845 12.6663 4.42669 13.7626C3.96493 14.859 3.83303 16.0656 4.04708 17.2354C4.26112 18.4052 4.81187 19.4876 5.63216 20.3507C6.67405 21.0524 7.90792 21.4159 9.16493 21.3914C12.5643 21.3914 15.3221 18.6471 15.3293 15.2573V15.2573Z" fill="black"/>
</svg>
