<svg width="32" height="32" viewBox="0 0 32 32" fill="none" xmlns="http://www.w3.org/2000/svg">
<path fill-rule="evenodd" clip-rule="evenodd" d="M7.80276 8.93943C7.75297 9.33428 7.75001 9.82979 7.75001 10.5C7.75001 11.1729 7.75051 11.6686 7.79786 12.0655C7.84451 12.4567 7.9274 12.6511 8.01972 12.7668C8.10304 12.8713 8.26235 12.9969 8.6536 13.0946C9.05681 13.1953 9.64186 13.25 10.5 13.25C11.3581 13.25 11.9432 13.1953 12.3464 13.0946C12.7377 12.9969 12.897 12.8713 12.9803 12.7668C13.0726 12.6511 13.1555 12.4567 13.2022 12.0655C13.2495 11.6686 13.25 11.1729 13.25 10.5C13.25 9.82979 13.247 9.33428 13.1973 8.93943C13.1482 8.55042 13.0632 8.35427 12.9682 8.23636C12.8815 8.12889 12.7187 8.00281 12.3292 7.9052C11.9279 7.80461 11.3478 7.75 10.5 7.75C9.65222 7.75 9.07211 7.80461 8.67077 7.9052C8.28134 8.00281 8.11853 8.12889 8.03185 8.23636C7.93677 8.35427 7.8518 8.55042 7.80276 8.93943ZM8.30609 6.45021C8.88649 6.30474 9.61184 6.25 10.5 6.25C11.3882 6.25 12.1135 6.30474 12.6939 6.45021C13.2862 6.59866 13.7814 6.85536 14.1358 7.29473C14.4817 7.72367 14.6208 8.23844 14.6855 8.7518C14.7495 9.25931 14.75 9.8576 14.75 10.5C14.75 10.5189 14.75 10.5377 14.75 10.5565C14.7501 11.1749 14.7501 11.7527 14.6916 12.2432C14.6306 12.7545 14.4968 13.271 14.153 13.7021C13.8002 14.1445 13.304 14.4016 12.7098 14.55C12.1276 14.6953 11.3974 14.75 10.5 14.75C9.60261 14.75 8.87239 14.6953 8.2902 14.55C7.69603 14.4016 7.19978 14.1445 6.84699 13.7021C6.50319 13.271 6.36941 12.7545 6.30842 12.2432C6.2499 11.7527 6.24995 11.1749 6.25 10.5565C6.25 10.5377 6.25001 10.5189 6.25001 10.5C6.25001 9.8576 6.25055 9.25931 6.31454 8.7518C6.37926 8.23844 6.51831 7.72367 6.86424 7.29473C7.21858 6.85536 7.71378 6.59866 8.30609 6.45021Z" fill="#7210FF"/>
<path fill-rule="evenodd" clip-rule="evenodd" d="M18.8028 8.93943C18.753 9.33428 18.75 9.82979 18.75 10.5C18.75 11.1729 18.7505 11.6686 18.7979 12.0655C18.8445 12.4567 18.9274 12.6511 19.0197 12.7668C19.103 12.8713 19.2624 12.9969 19.6536 13.0946C20.0568 13.1953 20.6419 13.25 21.5 13.25C22.3581 13.25 22.9432 13.1953 23.3464 13.0946C23.7377 12.9969 23.897 12.8713 23.9803 12.7668C24.0726 12.6511 24.1555 12.4567 24.2022 12.0655C24.2495 11.6686 24.25 11.1729 24.25 10.5C24.25 9.82979 24.247 9.33428 24.1973 8.93943C24.1482 8.55042 24.0632 8.35427 23.9682 8.23636C23.8815 8.12889 23.7187 8.00281 23.3292 7.9052C22.9279 7.80461 22.3478 7.75 21.5 7.75C20.6522 7.75 20.0721 7.80461 19.6708 7.9052C19.2813 8.00281 19.1185 8.12889 19.0319 8.23636C18.9368 8.35427 18.8518 8.55042 18.8028 8.93943ZM19.3061 6.45021C19.8865 6.30474 20.6118 6.25 21.5 6.25C22.3882 6.25 23.1135 6.30474 23.6939 6.45021C24.2862 6.59866 24.7814 6.85536 25.1358 7.29473C25.4817 7.72367 25.6208 8.23844 25.6855 8.7518C25.7495 9.25931 25.75 9.8576 25.75 10.5C25.75 10.5189 25.75 10.5377 25.75 10.5565C25.7501 11.1749 25.7501 11.7527 25.6916 12.2432C25.6306 12.7545 25.4968 13.271 25.153 13.7021C24.8002 14.1445 24.304 14.4016 23.7098 14.55C23.1276 14.6953 22.3974 14.75 21.5 14.75C20.6026 14.75 19.8724 14.6953 19.2902 14.55C18.696 14.4016 18.1998 14.1445 17.847 13.7021C17.5032 13.271 17.3694 12.7545 17.3084 12.2432C17.2499 11.7527 17.2499 11.1749 17.25 10.5565C17.25 10.5377 17.25 10.5189 17.25 10.5C17.25 9.8576 17.2506 9.25931 17.3145 8.7518C17.3793 8.23844 17.5183 7.72367 17.8642 7.29473C18.2186 6.85536 18.7138 6.59866 19.3061 6.45021Z" fill="#7210FF"/>
<path fill-rule="evenodd" clip-rule="evenodd" d="M7.80276 19.9394C7.75297 20.3343 7.75001 20.8298 7.75001 21.5C7.75001 22.1729 7.75051 22.6686 7.79786 23.0655C7.84451 23.4567 7.9274 23.6511 8.01972 23.7668C8.10304 23.8713 8.26235 23.9969 8.6536 24.0946C9.05681 24.1953 9.64186 24.25 10.5 24.25C11.3581 24.25 11.9432 24.1953 12.3464 24.0946C12.7377 23.9969 12.897 23.8713 12.9803 23.7668C13.0726 23.6511 13.1555 23.4567 13.2022 23.0655C13.2495 22.6686 13.25 22.1729 13.25 21.5C13.25 20.8298 13.247 20.3343 13.1973 19.9394C13.1482 19.5504 13.0632 19.3543 12.9682 19.2364C12.8815 19.1289 12.7187 19.0028 12.3292 18.9052C11.9279 18.8046 11.3478 18.75 10.5 18.75C9.65222 18.75 9.07211 18.8046 8.67077 18.9052C8.28134 19.0028 8.11853 19.1289 8.03185 19.2364C7.93677 19.3543 7.8518 19.5504 7.80276 19.9394ZM8.30609 17.4502C8.88649 17.3047 9.61184 17.25 10.5 17.25C11.3882 17.25 12.1135 17.3047 12.6939 17.4502C13.2862 17.5987 13.7814 17.8554 14.1358 18.2947C14.4817 18.7237 14.6208 19.2384 14.6855 19.7518C14.7495 20.2593 14.75 20.8576 14.75 21.5C14.75 21.5189 14.75 21.5377 14.75 21.5565C14.7501 22.1749 14.7501 22.7527 14.6916 23.2432C14.6306 23.7545 14.4968 24.271 14.153 24.7021C13.8002 25.1445 13.304 25.4016 12.7098 25.55C12.1276 25.6953 11.3974 25.75 10.5 25.75C9.60261 25.75 8.87239 25.6953 8.2902 25.55C7.69603 25.4016 7.19978 25.1445 6.84699 24.7021C6.50319 24.271 6.36941 23.7545 6.30842 23.2432C6.2499 22.7527 6.24995 22.1749 6.25 21.5565C6.25 21.5377 6.25001 21.5189 6.25001 21.5C6.25001 20.8576 6.25055 20.2593 6.31454 19.7518C6.37926 19.2384 6.51831 18.7237 6.86424 18.2947C7.21858 17.8554 7.71378 17.5987 8.30609 17.4502Z" fill="#7210FF"/>
<path fill-rule="evenodd" clip-rule="evenodd" d="M18.8028 19.9394C18.753 20.3343 18.75 20.8298 18.75 21.5C18.75 22.1729 18.7505 22.6686 18.7979 23.0655C18.8445 23.4567 18.9274 23.6511 19.0197 23.7668C19.103 23.8713 19.2624 23.9969 19.6536 24.0946C20.0568 24.1953 20.6419 24.25 21.5 24.25C22.3581 24.25 22.9432 24.1953 23.3464 24.0946C23.7377 23.9969 23.897 23.8713 23.9803 23.7668C24.0726 23.6511 24.1555 23.4567 24.2022 23.0655C24.2495 22.6686 24.25 22.1729 24.25 21.5C24.25 20.8298 24.247 20.3343 24.1973 19.9394C24.1482 19.5504 24.0632 19.3543 23.9682 19.2364C23.8815 19.1289 23.7187 19.0028 23.3292 18.9052C22.9279 18.8046 22.3478 18.75 21.5 18.75C20.6522 18.75 20.0721 18.8046 19.6708 18.9052C19.2813 19.0028 19.1185 19.1289 19.0319 19.2364C18.9368 19.3543 18.8518 19.5504 18.8028 19.9394ZM19.3061 17.4502C19.8865 17.3047 20.6118 17.25 21.5 17.25C22.3882 17.25 23.1135 17.3047 23.6939 17.4502C24.2862 17.5987 24.7814 17.8554 25.1358 18.2947C25.4817 18.7237 25.6208 19.2384 25.6855 19.7518C25.7495 20.2593 25.75 20.8576 25.75 21.5C25.75 21.5189 25.75 21.5377 25.75 21.5565C25.7501 22.1749 25.7501 22.7527 25.6916 23.2432C25.6306 23.7545 25.4968 24.271 25.153 24.7021C24.8002 25.1445 24.304 25.4016 23.7098 25.55C23.1276 25.6953 22.3974 25.75 21.5 25.75C20.6026 25.75 19.8724 25.6953 19.2902 25.55C18.696 25.4016 18.1998 25.1445 17.847 24.7021C17.5032 24.271 17.3694 23.7545 17.3084 23.2432C17.2499 22.7527 17.2499 22.1749 17.25 21.5565C17.25 21.5377 17.25 21.5189 17.25 21.5C17.25 20.8576 17.2506 20.2593 17.3145 19.7518C17.3793 19.2384 17.5183 18.7237 17.8642 18.2947C18.2186 17.8554 18.7138 17.5987 19.3061 17.4502Z" fill="#7210FF"/>
</svg>
