<svg width="40" height="40" viewBox="0 0 40 40" fill="none" xmlns="http://www.w3.org/2000/svg">
<path fill-rule="evenodd" clip-rule="evenodd" d="M20.8334 7.00002C20.8334 6.53978 20.4603 6.16669 20.0001 6.16669C19.5398 6.16669 19.1667 6.53978 19.1667 7.00002V14.2258C16.3398 14.6302 14.1667 17.0614 14.1667 20.0001C14.1667 23.2218 16.7784 25.8334 20.0001 25.8334C23.2217 25.8334 25.8334 23.2218 25.8334 20.0001C25.8334 17.0614 23.6603 14.6302 20.8334 14.2258V7.00002ZM15.8334 20.0001C15.8334 17.6989 17.6989 15.8334 20.0001 15.8334C22.3013 15.8334 24.1667 17.6989 24.1667 20.0001C24.1667 22.3013 22.3013 24.1668 20.0001 24.1668C17.6989 24.1668 15.8334 22.3013 15.8334 20.0001ZM24.2578 9.82128C24.467 9.41134 24.9689 9.2486 25.3788 9.4578C27.3219 10.4494 28.9531 11.9588 30.0921 13.8192C31.2312 15.6796 31.8338 17.8187 31.8334 20.0001V28.0001C31.8334 28.7515 31.5349 29.4722 31.0035 30.0035C30.4722 30.5349 29.7515 30.8334 29.0001 30.8334H25.8334V33.0001C25.8334 33.4603 25.4603 33.8334 25.0001 33.8334C24.5398 33.8334 24.1667 33.4603 24.1667 33.0001V30.0001C24.1667 29.5398 24.5398 29.1667 25.0001 29.1667H29.0001C29.3095 29.1667 29.6062 29.0438 29.825 28.825C30.0438 28.6062 30.1667 28.3095 30.1667 28.0001V20.0001C30.1671 18.1259 29.6493 16.2879 28.6707 14.6895C27.6921 13.091 26.2907 11.7942 24.6213 10.9423C24.2113 10.7331 24.0486 10.2312 24.2578 9.82128ZM15.3785 10.9425C15.7886 10.7335 15.9515 10.2316 15.7425 9.82158C15.5334 9.41155 15.0316 9.24861 14.6216 9.45764C12.6777 10.4486 11.0457 11.9578 9.90581 13.8183C8.76597 15.6787 8.16272 17.8182 8.16272 20.0001C8.16272 22.182 8.76597 24.3214 9.90581 26.1819C10.9556 27.8954 12.4229 29.3108 14.1667 30.298V33.0001C14.1667 33.4603 14.5398 33.8334 15.0001 33.8334C15.4603 33.8334 15.8334 33.4603 15.8334 33.0001V29.8001C15.8334 29.4868 15.6577 29.1999 15.3785 29.0576C13.7084 28.2062 12.3063 26.9097 11.327 25.3112C10.3477 23.7128 9.82939 21.8747 9.82939 20.0001C9.82939 18.1255 10.3477 16.2874 11.327 14.6889C12.3063 13.0905 13.7084 11.7939 15.3785 10.9425Z" fill="#FFD300"/>
</svg>
