<svg width="40" height="40" viewBox="0 0 40 40" fill="none" xmlns="http://www.w3.org/2000/svg">
<path d="M14.1818 14.2708V13.6788C14.1818 10.7372 16.4483 8.33331 19.2711 8.33331C22.094 8.33331 24.3604 10.7372 24.3604 13.6788V14.2725H27.8347C28.0448 14.2727 28.2474 14.3509 28.4032 14.492C28.5589 14.633 28.6568 14.8268 28.6778 15.0359L30.2046 30.3038C30.2164 30.4216 30.2035 30.5407 30.1665 30.6532C30.1295 30.7658 30.0694 30.8694 29.99 30.9573C29.9105 31.0452 29.8136 31.1155 29.7053 31.1636C29.5971 31.2117 29.4799 31.2367 29.3615 31.2368H9.18075C9.06228 31.2367 8.94515 31.2117 8.8369 31.1636C8.72865 31.1155 8.63169 31.0452 8.55226 30.9573C8.47282 30.8694 8.41269 30.7658 8.37572 30.6532C8.33876 30.5407 8.32578 30.4216 8.33763 30.3038L9.86441 15.0359C9.88542 14.8268 9.9833 14.633 10.1391 14.492C10.2948 14.3509 10.4974 14.2727 10.7075 14.2725H14.1818V14.2708ZM15.8783 14.2708H22.664V13.6788C22.664 11.6532 21.1338 10.0297 19.2711 10.0297C17.4084 10.0297 15.8783 11.6532 15.8783 13.6788V14.2725V14.2708ZM14.1818 15.9672H11.476L10.1189 29.5387H28.4233L27.0645 15.9672H24.3604V18.5119C24.3604 18.7368 24.271 18.9526 24.112 19.1117C23.9529 19.2707 23.7371 19.3601 23.5122 19.3601C23.2872 19.3601 23.0715 19.2707 22.9124 19.1117C22.7533 18.9526 22.664 18.7368 22.664 18.5119V15.9672H15.8783V18.5119C15.8783 18.7368 15.7889 18.9526 15.6298 19.1117C15.4707 19.2707 15.255 19.3601 15.03 19.3601C14.8051 19.3601 14.5893 19.2707 14.4303 19.1117C14.2712 18.9526 14.1818 18.7368 14.1818 18.5119V15.9672Z" fill="#246BFD"/>
</svg>
