<svg width="24" height="24" viewBox="0 0 24 24" fill="none" xmlns="http://www.w3.org/2000/svg">
<path d="M19 3H5C3.895 3 3 3.895 3 5V19C3 20.105 3.895 21 5 21H19C20.105 21 21 20.105 21 19V5C21 3.895 20.105 3 19 3ZM17.907 15.684L16.172 15.708C16.172 15.708 15.798 15.781 15.308 15.443C14.659 14.997 14.047 13.837 13.57 13.988C13.086 14.142 13.101 15.186 13.101 15.186C13.101 15.186 13.105 15.37 12.994 15.49C12.874 15.619 12.639 15.606 12.639 15.606H11.862C11.862 15.606 10.148 15.748 8.637 14.173C6.991 12.456 5.537 9.067 5.537 9.067C5.537 9.067 5.452 8.853 5.543 8.744C5.646 8.623 5.924 8.62 5.924 8.62L7.781 8.611C7.781 8.611 7.956 8.642 8.082 8.734C8.185 8.81 8.244 8.953 8.244 8.953C8.244 8.953 8.544 9.714 8.942 10.403C9.718 11.746 10.079 12.04 10.342 11.896C10.726 11.686 10.611 9.998 10.611 9.998C10.611 9.998 10.618 9.385 10.418 9.112C10.262 8.899 9.969 8.836 9.84 8.82C9.735 8.806 9.906 8.563 10.129 8.453C10.463 8.29 11.054 8.28 11.751 8.287C12.294 8.293 12.451 8.326 12.663 8.378C13.304 8.533 13.086 9.131 13.086 10.566C13.086 11.026 13.003 11.672 13.334 11.885C13.477 11.977 13.825 11.899 14.694 10.419C15.107 9.717 15.416 8.892 15.416 8.892C15.416 8.892 15.484 8.745 15.589 8.682C15.697 8.617 15.842 8.637 15.842 8.637L17.797 8.625C17.797 8.625 18.384 8.554 18.48 8.821C18.58 9.1 18.261 9.751 17.462 10.816C16.151 12.566 16.005 12.403 17.094 13.415C18.134 14.382 18.349 14.852 18.385 14.911C18.815 15.627 17.907 15.684 17.907 15.684Z" fill="#2787F5"/>
</svg>
