<svg width="95" height="136" viewBox="0 0 95 136" fill="none" xmlns="http://www.w3.org/2000/svg">
<path opacity="0.61" d="M52.034 1.50637C63.3768 -2.4135 76.4858 1.6439 85.2364 9.89052C92.8135 17.0254 97.5649 28.4755 93.5257 38.0918C89.965 46.5676 80.9352 51.158 75.0159 58.1725C71.5407 62.2929 69.222 67.3532 68.2022 72.6542C67.3363 77.1472 69.0055 82.4768 65.0176 85.7892C58.9047 90.8667 52.3074 84.9525 51.0655 78.5799C49.2481 69.2788 56.3638 60.8717 62.8299 53.9776C69.2904 47.0834 76.104 38.2293 73.5689 29.1002C71.592 21.9825 63.3426 17.3176 56.2726 19.3234C52.5581 20.3779 49.5159 23.1802 47.7726 26.5958C46.2002 29.6732 47.0092 34.2178 43.1352 35.6161C41.1469 36.3324 38.7883 35.725 37.2843 34.2292C34.5953 31.5529 34.8688 26.4926 34.9941 23.0198C35.3359 13.4895 43.3916 4.49211 52.034 1.50637Z" fill="#7210FF"/>
<path opacity="0.61" d="M58.8362 109.967C59.0811 108.26 59.8218 106.632 60.984 105.497C63.8268 102.718 68.6579 102.592 71.5748 105.348C74.7993 108.403 74.429 114.013 71.1247 116.867C68.2705 119.332 63.9408 118.776 61.0979 116.587C59.1552 115.091 58.4773 112.449 58.8362 109.967Z" fill="#7210FF"/>
<path opacity="0.61" d="M0.709044 29.702C0.897047 26.9741 1.14772 24.1718 2.3441 21.7133C3.54048 19.2548 5.92185 17.1974 8.64504 17.1745C11.5562 17.1516 14.0686 19.4783 15.208 22.1717C16.3417 24.8652 16.3873 27.8796 16.4101 30.8081C16.5753 51.9547 16.6209 73.1013 16.6665 94.2537C16.6722 97.761 16.6494 101.4 15.134 104.558C12.1487 110.77 4.26969 111.165 2.40105 104.025C0.748907 97.7266 1.59206 90.735 1.21606 84.2592C0.800171 77.1244 0.572304 69.9723 0.27036 62.8318C-0.202496 51.7942 -0.0543612 40.7281 0.709044 29.702Z" fill="#7210FF"/>
<path opacity="0.61" d="M2.57762 127.435C3.76831 122.931 10.2288 120.954 13.7097 124.031C17.1906 127.109 16.074 133.808 11.7841 135.573C7.4942 137.338 2.03071 133.355 2.36684 128.702L2.57762 127.435Z" fill="#7210FF"/>
</svg>
