<svg width="105" height="98" viewBox="0 0 105 98" fill="none" xmlns="http://www.w3.org/2000/svg">
<path d="M14.7272 57.6307C16.3539 57.5167 17.9739 57.4687 19.4934 57.2767C26.466 56.3857 33.4431 57.6007 40.4202 57.6007C49.3047 57.6007 58.1869 57.6007 67.0714 57.6007C74.8106 57.6007 81.0827 49.3536 81.0827 39.1775V18.4232C81.0827 8.2471 74.8106 8.1823e-07 67.0714 8.1823e-07H14.6519C6.91272 -0.00299922 0.640625 8.24411 0.640625 18.4202C0.640625 33.1594 0.681694 47.7426 1.19049 62.4728C1.2133 63.1568 1.27491 63.9368 1.69472 64.3418C2.47731 65.0948 3.4447 63.8588 4.05617 62.8688C6.68912 58.5937 10.7253 57.9097 14.7272 57.6307Z" fill="#7210FF"/>
<path opacity="0.61" d="M89.9492 91.0535C88.3225 90.9395 86.7025 90.8915 85.183 90.6995C78.2105 89.8085 71.2334 91.0235 64.2563 91.0235C55.3717 91.0235 46.4895 91.0235 37.605 91.0235C29.8658 91.0235 23.5938 82.7764 23.5938 72.6003V51.8461C23.5938 41.67 29.8658 33.4229 37.605 33.4229H90.0223C97.7614 33.4229 104.034 41.67 104.034 51.8461C104.034 66.5852 103.992 81.1684 103.484 95.8986C103.461 96.5826 103.399 97.3626 102.979 97.7676C102.197 98.5206 101.229 97.2846 100.618 96.2946C97.9873 92.0166 93.9489 91.3325 89.9492 91.0535Z" fill="#7210FF"/>
<path d="M12.4068 16.7261H68.2442C68.6161 16.7261 68.9196 16.3301 68.9196 15.838V14.1396C68.9196 13.6505 68.6184 13.2515 68.2442 13.2515H12.4068C12.0349 13.2515 11.7314 13.6475 11.7314 14.1396V15.838C11.7314 16.3301 12.0349 16.7261 12.4068 16.7261Z" fill="white"/>
<path d="M12.4068 25.8429H68.2442C68.6161 25.8429 68.9196 25.4468 68.9196 24.9547V23.2563C68.9196 22.7672 68.6184 22.3682 68.2442 22.3682H12.4068C12.0349 22.3682 11.7314 22.7642 11.7314 23.2563V24.9547C11.7314 25.4438 12.0349 25.8429 12.4068 25.8429Z" fill="white"/>
</svg>
