<svg width="32" height="32" viewBox="0 0 32 32" fill="none" xmlns="http://www.w3.org/2000/svg">
<path d="M0.481974 7.03521C0.594902 6.80936 0.825744 6.66669 1.07826 6.66669H3.85303C4.27373 6.66669 4.58926 7.05157 4.50675 7.4641L4.27957 8.60004C4.20143 8.9907 3.80034 9.22608 3.42118 9.10377L0.738336 8.23833C0.349745 8.11298 0.164119 7.67092 0.34672 7.30572L0.481974 7.03521Z" fill="url(#paint0_linear_12_9857)"/>
<path d="M1.07826 12C0.825743 12 0.594902 12.1427 0.481974 12.3685L0.32359 12.6853C0.149165 13.0342 0.31015 13.4576 0.672281 13.6024L2.58877 14.369C2.97577 14.5238 3.40834 14.2895 3.49008 13.8808L3.70675 12.7974C3.78926 12.3849 3.47373 12 3.05303 12H1.07826Z" fill="url(#paint1_linear_12_9857)"/>
<path d="M1.07826 17.3334C0.825744 17.3334 0.594902 17.476 0.481974 17.7019L0.270666 18.1245C0.116956 18.4319 0.222157 18.8058 0.513618 18.988L1.315 19.4888C1.71031 19.7359 2.23064 19.5114 2.32206 19.0542L2.50675 18.1308C2.58926 17.7182 2.27373 17.3334 1.85303 17.3334H1.07826Z" fill="url(#paint2_linear_12_9857)"/>
<path fill-rule="evenodd" clip-rule="evenodd" d="M6.55025 6.66669C6.2306 6.66669 5.95594 6.89356 5.89558 7.20746L2.81865 23.2075C2.73958 23.6186 3.05464 24 3.47332 24H4.66624C5.03443 24 5.32708 24.3007 5.38774 24.6639C5.70397 26.5571 7.34993 28 9.3329 28C11.3159 28 12.9618 26.5571 13.2781 24.6639C13.3387 24.3007 13.6314 24 13.9996 24H20.6662C21.0344 24 21.3271 24.3007 21.3877 24.6639C21.704 26.5571 23.3499 28 25.3329 28C27.3159 28 28.9618 26.5571 29.2781 24.6639C29.3387 24.3007 29.6314 24 29.9996 24H30.1197C30.4375 24 30.7111 23.7757 30.7734 23.4641L31.9911 17.3758C31.9955 17.3538 31.9787 17.3334 31.9563 17.3334C31.9368 17.3334 31.921 17.3175 31.9199 17.2979C31.9151 17.2077 31.892 17.1182 31.8505 17.0352L28.1838 9.70188C28.0709 9.47602 27.8401 9.33335 27.5875 9.33335H26.2938C25.8752 9.33335 25.5601 8.95194 25.6392 8.54079L25.8472 7.45925C25.9262 7.0481 25.6112 6.66669 25.1925 6.66669H6.55025ZM25.9395 12C26.192 12 26.4228 12.1427 26.5357 12.3685L28.5357 16.3685C28.7574 16.8118 28.435 17.3334 27.9395 17.3334H24.7554C24.3367 17.3334 24.0216 16.9519 24.1007 16.5408L24.8699 12.5408C24.9303 12.2269 25.205 12 25.5246 12H25.9395ZM27.3329 24C27.3329 25.1046 26.4375 26 25.3329 26C24.2283 26 23.3329 25.1046 23.3329 24C23.3329 22.8955 24.2283 22 25.3329 22C26.4375 22 27.3329 22.8955 27.3329 24ZM9.3329 26C10.4375 26 11.3329 25.1046 11.3329 24C11.3329 22.8955 10.4375 22 9.3329 22C8.22833 22 7.3329 22.8955 7.3329 24C7.3329 25.1046 8.22833 26 9.3329 26Z" fill="url(#paint3_linear_12_9857)"/>
<defs>
<linearGradient id="paint0_linear_12_9857" x1="28.2602" y1="31.2" x2="2.06245" y2="30.3657" gradientUnits="userSpaceOnUse">
<stop stop-color="#7210FF"/>
<stop offset="1" stop-color="#FA6D20"/>
</linearGradient>
<linearGradient id="paint1_linear_12_9857" x1="28.2602" y1="31.2" x2="2.06245" y2="30.3657" gradientUnits="userSpaceOnUse">
<stop stop-color="#7210FF"/>
<stop offset="1" stop-color="#FA6D20"/>
</linearGradient>
<linearGradient id="paint2_linear_12_9857" x1="28.2602" y1="31.2" x2="2.06245" y2="30.3657" gradientUnits="userSpaceOnUse">
<stop stop-color="#7210FF"/>
<stop offset="1" stop-color="#FA6D20"/>
</linearGradient>
<linearGradient id="paint3_linear_12_9857" x1="28.2602" y1="31.2" x2="2.06245" y2="30.3657" gradientUnits="userSpaceOnUse">
<stop stop-color="#7210FF"/>
<stop offset="1" stop-color="#FA6D20"/>
</linearGradient>
</defs>
</svg>
