<svg width="174" height="148" viewBox="0 0 174 148" fill="none" xmlns="http://www.w3.org/2000/svg">
<g clip-path="url(#clip0_12_10015)">
<path d="M169.753 109.853L121.623 104.828C119.852 104.643 118.219 105.796 117.797 107.526L112.514 129.223L112.07 131.051L109.979 139.639L120.899 137.032L160.892 147.874C162.822 148.398 164.806 147.226 165.278 145.282L172.838 114.233C173.348 112.139 171.896 110.077 169.753 109.853Z" fill="#7210FF" fill-opacity="0.31"/>
<path d="M153.216 126.579C152.869 128.005 153.743 129.445 155.17 129.792C156.596 130.138 158.035 129.264 158.384 127.837C158.731 126.411 157.856 124.971 156.43 124.625C155.002 124.276 153.562 125.15 153.216 126.579Z" fill="white"/>
<path d="M140.51 123.484C140.164 124.911 141.038 126.35 142.465 126.699C143.891 127.046 145.33 126.171 145.677 124.745C146.024 123.318 145.149 121.879 143.723 121.53C142.296 121.181 140.859 122.056 140.51 123.484Z" fill="white"/>
<path d="M127.808 120.39C127.461 121.817 128.336 123.256 129.762 123.605C131.189 123.952 132.628 123.077 132.977 121.651C133.324 120.224 132.449 118.785 131.023 118.436C129.594 118.087 128.155 118.964 127.808 120.39Z" fill="white"/>
</g>
<path d="M161.542 46.093C156.347 59.9088 140.978 66.8521 127.214 61.5969C113.449 56.3417 106.499 40.8826 111.694 27.0668C116.889 13.2511 132.257 6.30778 146.022 11.563C159.788 16.8141 166.737 32.2773 161.542 46.093Z" fill="#FFEAD7"/>
<path d="M119.483 46.7301C119.439 46.7044 119.397 46.6747 119.358 46.641C118.994 46.3328 118.945 45.7834 119.25 45.4184C123.07 40.8628 129.376 39.2239 134.93 41.3492C140.347 43.4159 143.999 48.7173 144.001 54.5365C144.004 55.0164 143.616 55.4034 143.139 55.4053C142.659 55.4008 142.275 55.0163 142.272 54.5364C142.269 49.4367 139.082 44.7813 134.318 42.9758C129.446 41.1178 123.922 42.5505 120.572 46.5405C120.3 46.8658 119.837 46.9354 119.483 46.7301Z" fill="white"/>
<path d="M134.795 30.0789C134.163 31.7595 132.289 32.606 130.615 31.9666C128.941 31.3271 128.093 29.4427 128.725 27.7622C129.357 26.0816 131.231 25.2351 132.905 25.8745C134.582 26.51 135.429 28.3944 134.795 30.0789Z" fill="white"/>
<path d="M148.342 35.237C147.71 36.9176 145.837 37.7641 144.162 37.1246C142.488 36.4852 141.641 34.6008 142.273 32.9202C142.905 31.2397 144.778 30.3932 146.452 31.0326C148.127 31.6721 148.974 33.5565 148.342 35.237Z" fill="white"/>
<path fill-rule="evenodd" clip-rule="evenodd" d="M27.9755 46.8165C27.6324 46.9693 27.3508 47.206 27.1489 47.4893C26.7573 48.0425 26.6494 48.7898 26.9403 49.4583L32.0219 61.1763C32.459 62.192 33.637 62.6511 34.6492 62.2094C35.6585 61.7627 36.1264 60.5803 35.6843 59.5676L30.6028 47.8496C30.1657 46.8339 28.9848 46.3698 27.9755 46.8165ZM51.9696 62.4863L41.4941 76.7408C38.4655 74.9379 34.5094 75.7031 32.3729 78.6139C30.2331 81.5207 30.6737 85.5419 33.2808 87.9171L22.8023 102.176C22.4147 102.7 22.5271 103.438 23.0476 103.826C26.0737 106.067 30.296 105.509 32.668 102.627L48.9707 114.701C56.1327 120.004 65.7808 119.502 72.3597 114.051L73.8678 115.167C75.9208 116.691 78.8192 116.25 80.3386 114.178C81.8609 112.111 81.4239 109.203 79.3709 107.679L77.8693 106.567C81.1374 98.6382 78.7705 89.2174 71.6016 83.9116L55.2966 71.8363C57.3614 68.7095 56.646 64.4814 53.6177 62.2327C53.0922 61.8474 52.3573 61.9623 51.9696 62.4863ZM11.6812 63.2695L11.6621 63.2939C11.0335 64.184 11.2265 65.4207 12.0967 66.0714L22.3352 73.6524C23.2259 74.3044 24.4759 74.1165 25.1301 73.2248C25.8269 72.3615 25.6003 71.0778 24.7145 70.423L14.4761 62.842C13.5853 62.19 12.3353 62.3779 11.6812 63.2695ZM0.368572 83.9877C0.773937 83.4135 1.4728 83.0739 2.21917 83.1517L14.8665 84.5644C15.9619 84.6851 16.7488 85.6758 16.6208 86.7796C16.4978 87.8805 15.5097 88.6736 14.4143 88.5529L1.76699 87.1402C0.671581 87.0195 -0.115321 86.0288 0.012667 84.925C0.0513658 84.5771 0.178981 84.2572 0.368572 83.9877Z" fill="#7210FF"/>
<defs>
<clipPath id="clip0_12_10015">
<rect width="62.9626" height="43.1907" fill="white" transform="translate(109.979 104.81)"/>
</clipPath>
</defs>
</svg>
