<svg width="32" height="32" viewBox="0 0 32 32" fill="none" xmlns="http://www.w3.org/2000/svg">
<path d="M16 2.66663C10.0729 2.66663 4.72917 6.0885 5.375 14.0833C5.36458 14.2812 5.33333 14.4635 5.33333 14.6666C5.33333 14.927 5.39583 15.2552 5.41667 15.5416C4.65104 16.1198 4 16.8958 4 18C4 19.5677 5.16667 20.6823 6.625 21.0416C7.41667 23.0989 8.52604 25.052 10 26.5416C11.625 28.1875 13.6875 29.3333 16 29.3333C18.3125 29.3333 20.3542 28.1823 21.9583 26.5416C23.4167 25.0468 24.5365 23.0885 25.375 21.0416C26.8333 20.6823 28 19.5677 28 18C28 16.8958 27.349 16.1198 26.5833 15.5416C26.6198 15.2864 26.6667 15.1198 26.6667 14.6666C26.6667 14.2604 26.6615 13.8802 26.625 13.5C26.8958 5.92183 21.7813 2.66663 16 2.66663ZM12.7917 9.87496C14.7917 13.5156 20.349 11.2552 23.6667 12.25C23.7656 12.5781 23.8646 12.9479 23.9167 13.3333H8.08333C8.09375 13.25 8.10938 13.1614 8.125 13.0833C9.66146 11.8854 10.8646 12.901 12.7917 9.87496ZM10.7018 16.0264C10.666 15.687 11.001 15.4447 11.3248 15.5527L14.3248 16.5527C14.529 16.6207 14.6731 16.8136 14.6316 17.0248C14.4527 17.9345 13.6128 18.6666 12.6667 18.6666C11.7206 18.6666 10.8809 17.7262 10.7018 16.0264ZM20.6752 15.5527C20.999 15.4447 21.334 15.687 21.2982 16.0264C21.1191 17.7262 20.2794 18.6666 19.3333 18.6666C18.3872 18.6666 17.5473 17.9345 17.3684 17.0248C17.3269 16.8136 17.471 16.6207 17.6752 16.5527L20.6752 15.5527ZM23.875 16.7916V17.0833L24.7917 17.4166C25.1719 17.5416 25.3333 17.7031 25.3333 18C25.3333 18.2864 24.9531 18.6666 24.6667 18.6666H23.4583L23.1667 19.5416C22.4219 21.5312 21.3021 23.375 20.0417 24.6666C18.7813 25.9583 17.4219 26.6666 16 26.6666C14.5781 26.6666 13.1927 25.9583 11.9167 24.6666C10.6406 23.375 9.55208 21.5468 8.875 19.5833L8.54167 18.6666H7.33333C7.04687 18.6666 6.66667 18.2864 6.66667 18C6.66667 17.7031 6.82813 17.5416 7.20833 17.4166L8.125 17.0833L9.875 20C10.4063 20.802 11.1927 21.3333 12.125 21.3333C12.7917 21.3333 13.599 21.0729 14 20.5416L15.0833 19.4583C15.6146 18.927 16.2604 18.927 16.7917 19.4583L17.875 20.5416C18.4063 21.0729 19.0833 21.3333 19.75 21.3333C20.6823 21.3333 21.599 20.802 22 20L23.75 17.0833L23.875 16.7916Z" fill="url(#paint0_linear_12_9865)"/>
<defs>
<linearGradient id="paint0_linear_12_9865" x1="25.1829" y1="33.3333" x2="5.39311" y2="32.9527" gradientUnits="userSpaceOnUse">
<stop stop-color="#FF9514"/>
<stop offset="1" stop-color="#FA6D20"/>
</linearGradient>
</defs>
</svg>
