<svg width="32" height="32" viewBox="0 0 32 32" fill="none" xmlns="http://www.w3.org/2000/svg">
<path d="M14.4759 1.33331C15.3024 1.33331 15.9725 2.00334 15.9725 2.82987V12.7222C15.9725 13.0304 16.2485 13.2652 16.5527 13.2158L17.3372 13.0882C17.3432 13.0872 17.3493 13.0867 17.3554 13.0867C17.4182 13.0867 17.469 13.0358 17.469 12.9731V4.29654C17.469 3.47001 18.1391 2.79998 18.9656 2.79998C19.7921 2.79998 20.4621 3.47001 20.4621 4.29654V20.9424C20.4621 21.3488 20.9213 21.5854 21.2523 21.3496L24.5192 19.0221L24.6683 18.9448C26.0825 18.2965 27.7546 18.6067 28.8306 19.7096L29.0646 19.9883C29.2202 20.1735 29.2208 20.4436 29.0661 20.6296L21.8798 29.2687L21.7775 29.3776C20.9289 30.2077 19.8019 30.6666 18.6031 30.6666H10.2392C4.02631 30.6666 4 21.6847 4 17.7502C4 17.658 4.01539 17.5702 4.0249 17.4804C4.02568 17.473 4.0199 17.4666 4.01251 17.4666C4.0056 17.4666 4 17.461 4 17.4541V7.22987C4 6.40334 4.67003 5.73331 5.49656 5.73331C6.32308 5.73331 6.99312 6.40335 6.99312 7.22987V14.1906C6.99312 14.4992 7.26986 14.7341 7.57433 14.684L8.07089 14.6023C8.31243 14.5625 8.48967 14.3537 8.48967 14.1089V4.29654C8.48967 3.47001 9.15971 2.79998 9.98623 2.79998C10.8128 2.79998 11.4828 3.47001 11.4828 4.29654V13.4555C11.4828 13.7637 11.7589 13.9985 12.0631 13.9491L12.5596 13.8683C12.8016 13.8289 12.9793 13.6199 12.9793 13.3748V2.82987C12.9793 2.00334 13.6494 1.33331 14.4759 1.33331Z" fill="url(#paint0_linear_12_9861)"/>
<defs>
<linearGradient id="paint0_linear_12_9861" x1="26.3598" y1="35.0666" x2="5.46989" y2="34.6811" gradientUnits="userSpaceOnUse">
<stop stop-color="#7210FF"/>
<stop offset="1" stop-color="#FA6D20"/>
</linearGradient>
</defs>
</svg>
