<svg width="16" height="16" viewBox="0 0 16 16" fill="none" xmlns="http://www.w3.org/2000/svg">
<circle cx="8" cy="8" r="8" fill="#7210FF"/>
<path d="M8.9866 3.31035L8.7147 9.26489H6.97456L6.70266 3.31035H8.9866ZM7.84463 10.502C8.18903 10.502 8.47906 10.6244 8.7147 10.8691C8.95941 11.1047 9.08176 11.3902 9.08176 11.7256C9.08176 12.07 8.95941 12.3645 8.7147 12.6092C8.47906 12.8449 8.18903 12.9627 7.84463 12.9627C7.50929 12.9627 7.21927 12.8449 6.97456 12.6092C6.73892 12.3645 6.62109 12.07 6.62109 11.7256C6.62109 11.3902 6.73892 11.1047 6.97456 10.8691C7.21927 10.6244 7.50929 10.502 7.84463 10.502Z" fill="white"/>
</svg>
