<svg width="32" height="32" viewBox="0 0 32 32" fill="none" xmlns="http://www.w3.org/2000/svg">
<path d="M15.987 2.66669C8.62699 2.66669 2.66699 8.64002 2.66699 16C2.66699 23.36 8.62699 29.3334 15.987 29.3334C23.3603 29.3334 29.3337 23.36 29.3337 16C29.3337 8.64002 23.3603 2.66669 15.987 2.66669ZM25.227 10.6667H21.2937C20.867 9.00002 20.2537 7.40002 19.4537 5.92002C21.907 6.76002 23.947 8.46669 25.227 10.6667ZM16.0003 5.38669C17.107 6.98669 17.9737 8.76002 18.547 10.6667H13.4537C14.027 8.76002 14.8937 6.98669 16.0003 5.38669ZM5.68033 18.6667C5.46699 17.8134 5.33366 16.92 5.33366 16C5.33366 15.08 5.46699 14.1867 5.68033 13.3334H10.187C10.0803 14.2134 10.0003 15.0934 10.0003 16C10.0003 16.9067 10.0803 17.7867 10.187 18.6667H5.68033ZM6.77366 21.3334H10.707C11.1337 23 11.747 24.6 12.547 26.08C10.0937 25.24 8.05366 23.5467 6.77366 21.3334ZM10.707 10.6667H6.77366C8.05366 8.45335 10.0937 6.76002 12.547 5.92002C11.747 7.40002 11.1337 9.00002 10.707 10.6667ZM16.0003 26.6134C14.8937 25.0134 14.027 23.24 13.4537 21.3334H18.547C17.9737 23.24 17.107 25.0134 16.0003 26.6134ZM19.1203 18.6667H12.8803C12.7603 17.7867 12.667 16.9067 12.667 16C12.667 15.0934 12.7603 14.2 12.8803 13.3334H19.1203C19.2403 14.2 19.3337 15.0934 19.3337 16C19.3337 16.9067 19.2403 17.7867 19.1203 18.6667ZM19.4537 26.08C20.2537 24.6 20.867 23 21.2937 21.3334H25.227C23.947 23.5334 21.907 25.24 19.4537 26.08ZM21.8137 18.6667C21.9203 17.7867 22.0003 16.9067 22.0003 16C22.0003 15.0934 21.9203 14.2134 21.8137 13.3334H26.3203C26.5337 14.1867 26.667 15.08 26.667 16C26.667 16.92 26.5337 17.8134 26.3203 18.6667H21.8137Z" fill="url(#paint0_linear_12_9824)"/>
<defs>
<linearGradient id="paint0_linear_12_9824" x1="26.2036" y1="33.3334" x2="4.21679" y2="32.8635" gradientUnits="userSpaceOnUse">
<stop stop-color="#FF9514"/>
<stop offset="1" stop-color="#FA6D20"/>
</linearGradient>
</defs>
</svg>
