<svg width="97" height="97" viewBox="0 0 97 97" fill="none" xmlns="http://www.w3.org/2000/svg">
<circle cx="48.5" cy="48.5" r="48.5" fill="white"/>
<circle cx="48.5001" cy="48.5001" r="41.5714" fill="#7210FF"/>
<path d="M51.1382 45.8622C49.7389 44.4635 47.8414 43.6777 45.8628 43.6777C43.8843 43.6777 41.9868 44.4635 40.5875 45.8622L35.3105 51.1375C33.9111 52.5369 33.125 54.4348 33.125 56.4137C33.125 58.3927 33.9111 60.2906 35.3105 61.6899C36.7098 63.0892 38.6077 63.8754 40.5867 63.8754C42.5656 63.8754 44.4635 63.0892 45.8628 61.6899L48.5005 59.0522" stroke="white" stroke-width="3.41667" stroke-linecap="round" stroke-linejoin="round"/>
<path d="M45.8633 51.1377C47.2626 52.5364 49.1601 53.3222 51.1386 53.3222C53.1171 53.3222 55.0146 52.5364 56.4139 51.1377L61.691 45.8624C63.0903 44.463 63.8765 42.5651 63.8765 40.5862C63.8765 38.6072 63.0903 36.7093 61.691 35.31C60.2917 33.9106 58.3938 33.1245 56.4148 33.1245C54.4358 33.1245 52.5379 33.9106 51.1386 35.31L48.5009 37.9476" stroke="white" stroke-width="3.41667" stroke-linecap="round" stroke-linejoin="round"/>
</svg>
