<svg width="51" height="51" viewBox="0 0 51 51" fill="none" xmlns="http://www.w3.org/2000/svg">
<g clip-path="url(#clip0_12_9934)">
<circle cx="25.5617" cy="25.5622" r="25.5617" fill="#7210FF"/>
<circle cx="25.5614" cy="25.5622" r="21.9101" fill="white"/>
<path d="M19.1947 17.6048C18.9863 17.4036 18.7072 17.2922 18.4175 17.2947C18.1278 17.2972 17.8507 17.4134 17.6458 17.6183C17.441 17.8232 17.3248 18.1003 17.3222 18.39C17.3197 18.6797 17.4311 18.9588 17.6324 19.1672L24.0132 25.548L17.6313 31.9289C17.5257 32.0308 17.4416 32.1527 17.3836 32.2875C17.3257 32.4223 17.2953 32.5673 17.294 32.714C17.2927 32.8608 17.3207 33.0062 17.3762 33.142C17.4318 33.2778 17.5138 33.4012 17.6176 33.5049C17.7213 33.6087 17.8447 33.6907 17.9805 33.7463C18.1163 33.8018 18.2617 33.8298 18.4085 33.8285C18.5552 33.8272 18.7002 33.7968 18.835 33.7389C18.9698 33.6809 19.0917 33.5968 19.1936 33.4912L25.5756 27.1104L31.9564 33.4912C32.1648 33.6925 32.4439 33.8039 32.7336 33.8014C33.0233 33.7988 33.3004 33.6826 33.5053 33.4778C33.7102 33.2729 33.8264 32.9958 33.8289 32.7061C33.8314 32.4164 33.72 32.1373 33.5188 31.9289L27.1379 25.548L33.5188 19.1672C33.72 18.9588 33.8314 18.6797 33.8289 18.39C33.8264 18.1003 33.7102 17.8232 33.5053 17.6183C33.3004 17.4134 33.0233 17.2972 32.7336 17.2947C32.4439 17.2922 32.1648 17.4036 31.9564 17.6048L25.5756 23.9857L19.1947 17.6037V17.6048Z" fill="#7210FF"/>
</g>
<defs>
<clipPath id="clip0_12_9934">
<rect y="0.000244141" width="50.6173" height="50.6173" rx="25.3086" fill="white"/>
</clipPath>
</defs>
</svg>
