<svg width="240" height="291" viewBox="0 0 240 291" fill="none" xmlns="http://www.w3.org/2000/svg">
<g clip-path="url(#clip0_12_9545)">
<path d="M151.81 63.7134C151.81 63.7134 159.051 65.1463 156.067 75.0342L149.025 68.7919L151.81 63.7134Z" fill="#464646"/>
<path d="M144.478 68.1824L156.689 65.0705L162.628 63.3868L172.033 64.1689C172.462 64.2057 172.776 64.5852 172.73 65.0107C172.691 65.3718 172.402 65.657 172.038 65.6892L165.604 66.2688L166.377 66.5724C167.167 66.8829 167.804 67.4855 168.155 68.2538L169.9 72.0718C170.066 72.4352 169.858 72.8585 169.468 72.9528C169.214 73.0126 168.949 72.9137 168.799 72.6997L167.231 70.4618L166.003 68.7092L167.241 70.0294L167.282 72.679C167.287 72.9482 167.072 73.1713 166.802 73.1759C166.58 73.1805 166.382 73.0379 166.32 72.8263L165.556 70.2686L164.173 68.0628L157.285 70.7861L150.863 75.4943L144.478 68.1824Z" fill="#FFCEC8"/>
<path d="M160.369 66.814L167.998 68.6701C168.377 68.7621 168.656 69.0841 168.691 69.4705C168.742 70.0133 168.308 70.4779 167.761 70.4664L161.646 70.3353C161.646 70.3353 159.85 71.5475 157.285 70.7861L157.294 67.8536L160.369 66.814Z" fill="#FFCEC8"/>
<path d="M167.781 70.623C167.774 70.623 167.765 70.623 167.758 70.623L165.6 70.577C165.512 70.5747 165.443 70.5034 165.445 70.416C165.447 70.3309 165.516 70.2619 165.602 70.2619C165.604 70.2619 165.604 70.2619 165.604 70.2619L167.763 70.3079C167.977 70.3171 168.185 70.2251 168.333 70.0687C168.481 69.91 168.552 69.6984 168.534 69.4845C168.504 69.1648 168.273 68.898 167.959 68.8221L160.329 66.966C160.244 66.9453 160.193 66.8602 160.214 66.7751C160.234 66.6923 160.322 66.644 160.403 66.6601L168.033 68.5162C168.476 68.6243 168.804 69.0015 168.845 69.4546C168.873 69.7582 168.769 70.0595 168.561 70.2826C168.363 70.5011 168.079 70.623 167.781 70.623Z" fill="#FF9C91"/>
<path d="M164.298 67.5708C164.287 67.5708 164.275 67.5708 164.264 67.5662C164.178 67.5478 164.125 67.4627 164.146 67.3776C164.4 66.2712 165.577 66.1171 165.589 66.1148C165.677 66.1056 165.753 66.1654 165.764 66.2528C165.776 66.3379 165.714 66.4161 165.628 66.4276C165.589 66.4322 164.659 66.5587 164.453 67.4489C164.437 67.5202 164.372 67.5708 164.298 67.5708Z" fill="#FF9C91"/>
<path d="M168.093 70.4114L165.603 70.4206L168.093 70.4114Z" fill="#FFCEC8"/>
<path d="M89.0159 43.6915C93.1249 46.5758 96.5344 50.2421 100.223 53.6186C100.276 53.6692 100.322 53.7037 100.373 53.7543C101.913 55.1596 103.464 56.5695 105.002 57.9864C109.348 61.9539 113.704 65.9261 118.046 69.9052L133.901 67.0163L138.882 66.1124L152.035 63.7204C151.874 64.2908 151.786 64.8842 151.798 65.4822C151.825 66.9979 152.55 68.4861 153.716 69.4544C154.526 70.1352 155.565 70.5814 156.207 71.4163C156.754 72.1087 156.966 73.0172 156.961 73.8912C156.955 73.9901 156.948 74.089 156.938 74.1879C156.904 74.7859 156.788 75.3586 156.627 75.929L122.056 87.8226C121.001 88.1032 119.81 88.2297 118.547 88.2228C116.147 88.2113 113.51 87.703 111.193 86.852C109.778 86.3391 108.494 85.695 107.453 84.9544L85.117 66.2159L84.877 41.058C86.3105 41.8814 87.6978 42.7623 89.0159 43.6915Z" fill="#464646"/>
<path d="M81.0242 281.068C81.0242 281.068 78.051 280.652 76.4282 284.123C74.8054 287.596 71.5044 287.833 71.5044 287.833L69.9277 288.118L70.0085 266.98L84.0528 266.037L81.0242 281.068Z" fill="#FFCEC8"/>
<path d="M69.9805 274.6L69.9297 288.118L71.5063 287.833C71.5063 287.833 74.8097 287.596 76.4302 284.123C78.053 280.649 81.0262 281.068 81.0262 281.068L82.3304 274.603H69.9805V274.6Z" fill="#FFCEC8"/>
<path d="M13.6579 281.08C13.6579 281.08 11.5965 280.65 10.0775 284.123C8.5586 287.596 5.46303 287.833 5.46303 287.833H0.982422L5.23219 267.272L17.9838 267.413L13.6579 281.08Z" fill="#FFCEC8"/>
<path d="M3.60876 275.111L0.979492 287.833H5.46241C5.46241 287.833 8.39408 287.52 10.0769 284.123C11.5958 281.052 13.6572 281.08 13.6572 281.08L15.6448 275.111H3.60876Z" fill="#FFCEC8"/>
<path d="M97.0649 285.838C96.8156 285.73 96.5733 285.638 96.3586 285.562C95.5899 285.296 95.0197 285.22 95.0197 285.22C91.5617 284.778 88.8193 284.143 86.721 283.518H86.7118C86.5248 283.451 86.3355 283.4 86.167 283.334C85.426 283.099 84.7727 282.867 84.1933 282.641C84.0063 282.575 83.817 282.499 83.6578 282.425C82.9791 282.142 82.4343 281.882 82.0326 281.666C81.8457 281.558 81.6748 281.466 81.5409 281.39C81.1924 281.19 81.0239 281.066 81.0239 281.066C81.0239 281.066 78.0483 280.65 76.4325 284.118C76.0423 284.953 75.5553 285.599 75.0428 286.101C73.9763 287.143 72.2519 287.444 70.9662 286.644C70.5091 286.358 70.1121 285.951 69.932 285.369V288.111H69.9297V290.995H100.553C100.548 288.033 98.637 286.556 97.0649 285.838Z" fill="#1877F2"/>
<path d="M84.5781 286.639C84.6266 286.657 84.6751 286.667 84.712 286.667C84.8182 286.667 84.9129 286.614 84.9706 286.524L86.7112 283.518C86.5196 283.456 86.3372 283.401 86.1641 283.339L84.4627 286.273C84.3865 286.398 84.4442 286.568 84.5781 286.639Z" fill="white"/>
<path d="M82.0426 285.779C82.0911 285.806 82.128 285.816 82.1765 285.816C82.2827 285.816 82.3774 285.763 82.4351 285.673L84.1942 282.648C84.0026 282.577 83.8202 282.506 83.6563 282.432L81.9249 285.42C81.851 285.544 81.8995 285.708 82.0426 285.779Z" fill="white"/>
<path d="M79.8408 284.882C79.8893 284.9 79.9378 284.91 79.9839 284.91C80.0809 284.91 80.1848 284.864 80.2333 284.774L82.0316 281.669C81.84 281.561 81.6761 281.471 81.5422 281.391L79.7254 284.514C79.6492 284.647 79.7069 284.808 79.8408 284.882Z" fill="white"/>
<path d="M32.6722 291H-0.000976562L0.234481 290.098L0.377601 289.574L1.48333 285.371C1.79265 286.439 3.58397 286.915 5.07289 287.131C6.81343 287.382 8.45009 286.478 9.40346 285.001C9.59505 284.7 9.77973 284.359 9.94824 283.975C11.4718 280.507 14.3873 281.068 14.3873 281.068C14.3873 281.068 14.5373 281.192 14.8721 281.392C14.9967 281.468 15.1491 281.558 15.3314 281.668C15.7077 281.885 16.2109 282.145 16.8457 282.427C17.005 282.503 17.1712 282.577 17.3559 282.644C17.8915 282.869 18.5032 283.101 19.198 283.336C19.3665 283.403 19.5327 283.453 19.7174 283.52H19.7266C21.6842 284.146 24.2534 284.778 27.4944 285.222C27.4944 285.222 28.03 285.298 28.7502 285.565C28.9602 285.641 29.1865 285.73 29.4196 285.841C30.8808 286.556 32.6722 288.033 32.6722 291Z" fill="#1877F2"/>
<path d="M17.7125 286.639C17.7586 286.657 17.8025 286.667 17.8394 286.667C17.9387 286.667 18.0287 286.614 18.0818 286.524L19.7117 283.518C19.5316 283.456 19.3608 283.4 19.1992 283.338L17.604 286.273C17.5324 286.397 17.5878 286.568 17.7125 286.639Z" fill="white"/>
<path d="M15.3347 285.779C15.3785 285.807 15.4155 285.816 15.4616 285.816C15.5609 285.816 15.6509 285.763 15.704 285.673L17.3523 282.649C17.1723 282.577 17.0014 282.506 16.8491 282.432L15.2285 285.42C15.1546 285.544 15.2008 285.708 15.3347 285.779Z" fill="white"/>
<path d="M13.2746 284.882C13.3185 284.9 13.3647 284.909 13.4108 284.909C13.5009 284.909 13.6001 284.863 13.644 284.774L15.3293 281.669C15.1492 281.56 14.9968 281.471 14.8699 281.39L13.1684 284.514C13.0946 284.647 13.1477 284.808 13.2746 284.882Z" fill="white"/>
<path d="M28.7529 112.544L0.675781 278.166H18.1296L55.5927 143.675L66.4191 181.295C67.4002 183.321 67.8365 185.568 67.6795 187.813L66.7192 278.166H85.6181L93.963 185.715C94.173 184.013 94.0414 182.288 93.5798 180.637L81.8069 106.828L59.9025 101.037L30.0641 101.727L28.7529 112.544Z" fill="#1877F2"/>
<path d="M56.0452 143.787L55.1426 143.56L58.5223 130.247L64.363 126.038L64.9078 126.79L59.3418 130.801L56.0452 143.787Z" fill="#3B45BF"/>
<path d="M76.5069 11.3711C76.5069 11.3711 81.1491 30.404 69.7271 32.3843L69.9118 38.3507L62.9335 43.5212L53.0073 37.6193L50.7959 38.4496L53.229 14.7269L76.5069 11.3711Z" fill="#FFCEC8"/>
<path d="M69.7276 32.3845C69.7276 32.3845 62.9381 32.6973 59.4775 29.1967C59.4775 29.1967 61.3036 33.9716 69.8084 35.002L69.7276 32.3845Z" fill="#FFB6AD"/>
<path d="M76.9333 129.955H96.0145L91.4716 45.5685C84.8603 40.4394 82.3465 39.2779 72.4019 37.6012C71.8755 37.5115 67.3626 109.202 66.6816 120.097L66.7809 120.095C66.9217 125.578 71.4254 129.955 76.9333 129.955Z" fill="#464646"/>
<path d="M67.5343 107.955C67.4374 108.427 67.4074 108.896 67.4374 109.37V109.381L66.6964 120.095L45.5283 120.796L48.0145 82.9397L48.026 82.7672L48.0514 82.367L48.0629 82.1876V82.1853L48.0837 81.8725L48.1022 81.6057L48.116 81.3803L48.1253 81.2262L48.1276 81.2101L48.1437 80.9732L48.153 80.8536L48.1714 80.5706L48.1784 80.4833L48.2153 79.9312L48.2199 79.8346L51.087 36.2188L62.5436 42.6405L69.905 37.562L69.8196 35.5978L72.4097 37.5942L67.5966 107.12L67.5343 107.955Z" fill="url(#paint0_linear_12_9545)"/>
<path d="M58.6551 118.128C58.7613 118.126 58.8513 118.045 58.8629 117.937C58.9344 117.328 58.9483 116.748 58.9621 116.187C58.9714 115.858 58.9806 115.515 58.9991 115.168C59.0499 114.094 59.1214 113.004 59.193 111.95C59.2645 110.892 59.3361 109.8 59.3869 108.723C59.3984 108.392 59.4031 108.061 59.4077 107.739C59.4238 106.791 59.44 105.811 59.5947 104.797C59.7009 104.001 60.0795 103.355 60.4835 102.669C60.5781 102.508 60.6751 102.343 60.7697 102.175C60.9175 101.938 61.0675 101.607 60.9336 101.144C60.8274 100.816 60.6589 100.546 60.495 100.289C60.338 100.04 60.1926 99.8082 60.1049 99.5368C59.971 99.0676 60.4073 98.7892 60.9914 98.4741C61.43 98.2372 61.7255 97.8853 61.8247 97.4828C61.9125 97.1286 61.8386 96.7652 61.6124 96.4294C61.6031 96.4156 61.5916 96.4041 61.58 96.3926C61.5085 96.3259 61.4738 96.2178 61.4392 96.1028C61.4138 96.02 61.3884 95.9349 61.3446 95.8567C61.3353 95.8406 61.3261 95.8268 61.3145 95.813C60.7166 95.1644 60.3427 94.6261 60.1072 94.0764C60.6035 83.4548 61.176 72.686 61.7301 62.2691C62.0718 55.8565 62.425 49.2232 62.7551 42.691C62.762 42.5714 62.6697 42.4702 62.5496 42.4656C62.4296 42.461 62.328 42.5507 62.3211 42.6703C61.9887 49.2048 61.6378 55.8358 61.2961 62.2484C60.742 72.6814 60.1672 83.4686 59.6709 94.1063C59.6685 94.1385 59.6755 94.1684 59.687 94.1983C59.9387 94.8056 60.3357 95.3875 60.9729 96.0844C60.9914 96.1235 61.0075 96.1764 61.0237 96.2316C61.0675 96.3742 61.1206 96.549 61.2615 96.6893C61.4092 96.917 61.4577 97.1493 61.4 97.3793C61.3307 97.6576 61.1068 97.9175 60.7813 98.0923C60.2503 98.3798 59.4446 98.8145 59.687 99.661C59.7932 99.9899 59.9617 100.259 60.1256 100.517C60.2826 100.765 60.4281 100.997 60.5158 101.269C60.585 101.508 60.5504 101.701 60.3957 101.952C60.3934 101.954 60.3911 101.959 60.3911 101.961C60.2988 102.127 60.2018 102.292 60.1072 102.451C59.7009 103.141 59.2807 103.856 59.1653 104.735C59.006 105.774 58.9898 106.77 58.9737 107.732C58.9691 108.052 58.9621 108.383 58.9529 108.707C58.9021 109.777 58.8305 110.867 58.759 111.923C58.6874 112.981 58.6158 114.073 58.5651 115.147C58.5443 115.499 58.535 115.844 58.5281 116.178C58.5143 116.755 58.4981 117.298 58.4312 117.889C58.4173 118.008 58.5027 118.114 58.6205 118.128C58.6343 118.128 58.6459 118.128 58.6551 118.128Z" fill="white"/>
<path d="M67.5832 45.5733C67.6501 45.571 67.7148 45.5388 67.7563 45.479L72.5347 38.4616C72.6017 38.3627 72.5763 38.2293 72.477 38.1626C72.3777 38.0959 72.2439 38.1212 72.1769 38.2201L67.5093 45.0765L62.6455 42.4913C62.5763 42.4545 62.4955 42.4568 62.4285 42.4982L58.5966 44.8764L50.9673 39.7243C50.868 39.6576 50.7342 39.6829 50.6672 39.7818C50.6003 39.8807 50.6257 40.0141 50.7249 40.0808L58.4673 45.3111C58.5389 45.3594 58.6312 45.3617 58.7028 45.3157L62.5486 42.9306L67.4724 45.5503C67.5093 45.5664 67.5463 45.5733 67.5832 45.5733Z" fill="white"/>
<path d="M63.2231 49.4118C63.2416 49.9431 63.6871 50.3571 64.2181 50.341C64.7514 50.3226 65.1669 49.8787 65.1508 49.3497C65.1323 48.8184 64.6867 48.4044 64.1558 48.4205C63.6225 48.4366 63.207 48.8805 63.2231 49.4118Z" fill="white"/>
<path d="M62.3316 70.7288C62.3501 71.2601 62.7957 71.6742 63.3266 71.6581C63.8599 71.6397 64.2755 71.1957 64.2593 70.6667C64.2408 70.1354 63.7953 69.7214 63.2643 69.7375C62.731 69.7536 62.3132 70.1975 62.3316 70.7288Z" fill="white"/>
<path d="M61.4029 90.9783C61.4214 91.5097 61.867 91.9237 62.3979 91.9076C62.9312 91.8892 63.3467 91.4453 63.3306 90.9163C63.3121 90.3849 62.8666 89.9709 62.3356 89.987C61.8023 90.0031 61.3845 90.447 61.4029 90.9783Z" fill="white"/>
<path d="M59.9439 114.74C59.9624 115.272 60.408 115.686 60.9389 115.669C61.4722 115.651 61.8878 115.207 61.8716 114.678C61.8531 114.147 61.4076 113.733 60.8766 113.749C60.3433 113.767 59.9255 114.211 59.9439 114.74Z" fill="white"/>
<path d="M13.9993 111.237C14.0616 111.283 14.1262 111.329 14.1909 111.375C17.1779 113.473 20.1165 113.436 20.1165 113.436L17.8497 129.955H34.9249C40.2643 129.955 44.798 126.059 45.5828 120.796L51.0791 36.2257L37.3764 38.7926C33.5353 39.5125 30.0196 41.2375 26.7139 43.3191C12.9559 51.981 9.918 102.357 9.918 102.357C9.68485 105.814 11.1992 109.183 13.9993 111.237Z" fill="#464646"/>
<path d="M33.2432 98.4006L35.203 115.161L56.2718 117.296C56.6227 116.456 56.6711 115.449 56.5465 114.581C56.0825 111.476 54.4412 108.307 55.6485 105.158C56.1194 103.928 57.1236 102.849 58.3932 102.536L33.2432 98.4006Z" fill="#464646"/>
<path d="M32.7608 59.1204C32.7723 59.0261 32.86 58.9594 32.9547 58.9709C33.0493 58.9824 33.1163 59.0698 33.1047 59.1641L28.017 97.3633L46.8928 100.468V100.818L27.7954 97.6784C27.703 97.6623 27.6384 97.5772 27.6523 97.4852L32.7608 59.1204Z" fill="#1F1F1F"/>
<path d="M19.1543 113.346L45.9641 116.086V116.433L19.1174 113.691C19.0228 113.682 18.9535 113.597 18.9627 113.503C18.9743 113.406 19.0574 113.337 19.1543 113.346Z" fill="#1F1F1F"/>
<path d="M56.5363 114.551L58.3346 114.167C58.3346 114.167 59.7519 115.623 62.3304 114.579L64.0225 115.446L65.1466 117.173L66.7833 119.901C66.8249 119.97 66.8826 120.035 66.9518 120.083L67.7321 120.055C67.9075 119.908 67.9998 119.664 67.9352 119.425L67.155 116.327L65.8923 114.264C65.8507 114.202 65.8784 114.117 65.9477 114.089C65.9961 114.068 66.0538 114.082 66.0885 114.124L67.7875 116.228L68.6439 119.319C68.7293 119.614 69.0294 119.796 69.3318 119.731C69.5996 119.676 69.7888 119.437 69.7888 119.165L69.8027 115.506V115.4L68.2099 113.358L67.6628 112.658L68.6739 113.903L69.805 115.294L70.0428 115.589L70.6753 118.107C70.7584 118.471 71.1254 118.694 71.4901 118.611C71.8202 118.542 72.0442 118.241 72.0234 117.905L71.7925 114.022L73.1614 115.674C73.3438 115.89 73.66 115.927 73.877 115.75C74.0663 115.596 74.1217 115.331 74.0109 115.113L72.2773 111.796C72.0811 111.419 71.7787 111.104 71.407 110.901L67.8198 108.914L60.673 106.598C59.7311 106.29 57.3304 105.8 55.5414 105.457C54.5418 108.502 56.0862 111.559 56.5363 114.551Z" fill="#FFCEC8"/>
<path d="M71.6549 114.149L71.6665 114.147C71.7126 114.14 71.745 114.094 71.738 114.048L71.7034 113.836C71.6526 113.532 71.4979 113.252 71.2648 113.049L68.5661 110.683C68.5291 110.65 68.476 110.655 68.4437 110.69C68.4114 110.726 68.416 110.779 68.4506 110.811L71.1494 113.178C71.3525 113.355 71.4864 113.599 71.5326 113.864L71.5672 114.075C71.5741 114.119 71.6111 114.149 71.6549 114.149Z" fill="url(#paint1_linear_12_9545)"/>
<path d="M69.7614 115.524C69.7706 115.524 69.7822 115.522 69.7914 115.518C69.8352 115.499 69.856 115.449 69.8399 115.405L69.7498 115.184C69.7475 115.175 69.7406 115.168 69.736 115.161L67.7206 112.797C67.6906 112.76 67.6352 112.755 67.5982 112.787C67.5613 112.817 67.5567 112.873 67.589 112.909L69.5952 115.262L69.6806 115.469C69.6921 115.504 69.7244 115.524 69.7614 115.524Z" fill="url(#paint2_linear_12_9545)"/>
<path d="M150.05 79.3998C150.02 79.3998 149.99 79.3929 149.963 79.3814C149.856 79.3331 149.81 79.2066 149.859 79.1031C149.937 78.9329 151.731 74.8963 146.869 71.8809C145.101 70.7838 144.055 69.4866 143.762 68.0238C143.383 66.1377 144.404 64.6887 144.447 64.6266C144.514 64.5323 144.648 64.5116 144.741 64.5783C144.835 64.645 144.856 64.7761 144.789 64.8704C144.78 64.8842 143.831 66.2412 144.175 67.9479C144.445 69.2888 145.426 70.494 147.091 71.5244C152.276 74.7422 150.26 79.2365 150.24 79.2802C150.207 79.3538 150.131 79.3998 150.05 79.3998Z" fill="white"/>
<path d="M153.548 75.0413C152.786 75.0413 152.167 74.4249 152.167 73.6658C152.167 72.9068 152.786 72.2904 153.548 72.2904C154.309 72.2904 154.928 72.9068 154.928 73.6658C154.928 74.4226 154.309 75.0413 153.548 75.0413ZM153.548 72.709C153.019 72.709 152.587 73.1391 152.587 73.6658C152.587 74.1926 153.019 74.6227 153.548 74.6227C154.076 74.6227 154.508 74.1926 154.508 73.6658C154.508 73.1391 154.076 72.709 153.548 72.709Z" fill="white"/>
<path d="M53.736 115.729C52.9742 115.729 52.3555 115.113 52.3555 114.354C52.3555 113.595 52.9742 112.978 53.736 112.978C54.4978 112.978 55.1165 113.595 55.1165 114.354C55.1165 115.113 54.4978 115.729 53.736 115.729ZM53.736 113.399C53.2073 113.399 52.7756 113.829 52.7756 114.356C52.7756 114.883 53.2073 115.313 53.736 115.313C54.2647 115.313 54.6964 114.883 54.6964 114.356C54.6964 113.827 54.267 113.399 53.736 113.399Z" fill="white"/>
<path d="M58.3902 102.534C58.3902 102.534 59.3506 104.742 59.1636 106.237L55.5322 105.466C55.5322 105.466 56.1094 103.072 58.3902 102.534Z" fill="#464646"/>
<path d="M50.7801 116.909C50.7501 116.909 50.7178 116.902 50.6878 116.888C50.5724 116.838 50.5193 116.702 50.5701 116.587C51.3411 114.848 50.4177 111.325 49.9837 109.889C49.5358 108.387 49.3881 106.89 49.5404 105.434C49.7898 103.079 50.6578 101.848 51.3411 101.232C51.4358 101.149 51.5812 101.156 51.6643 101.248C51.7497 101.342 51.7428 101.487 51.6482 101.572C51.0225 102.136 50.2284 103.272 49.9952 105.485C49.8475 106.881 49.9929 108.318 50.4223 109.761C50.9787 111.603 51.789 114.961 50.9879 116.771C50.951 116.859 50.8679 116.909 50.7801 116.909Z" fill="white"/>
<path d="M76.5071 11.3712C76.5071 11.3712 73.677 16.7924 66.8649 13.5286C66.8649 13.5286 64.4549 12.6684 63.5754 15.4767C63.2638 16.4658 62.8275 17.6227 61.9111 18.2138C61.5833 18.4254 61.1677 18.5312 60.7984 18.4139C60.5352 18.3288 60.3206 18.1425 60.0851 17.9976C58.9586 17.3053 57.3543 17.7055 56.5325 18.7428C54.8358 20.8819 56.3339 24.0605 59.0625 24.1111C59.4872 24.118 59.9812 24.0973 60.5052 24.0191C60.5052 24.0191 60.2698 29.0953 51.8164 28.4812L52.7051 12.765C52.7051 12.765 52.3612 8.8158 55.8954 10.4005L55.5883 7.77617C55.5883 7.77617 59.1594 11.0859 65.4429 7.94868C71.7264 4.81141 75.0459 2.51826 77.9083 5.85563C80.7707 9.19301 78.7993 12.8616 76.9711 13.5677L76.5071 11.3712Z" fill="#464646"/>
<path d="M118.872 119.708C118.872 119.708 121.469 120.058 123.526 118.009L120.647 113.158C120.645 113.158 117.713 115.943 118.872 119.708Z" fill="#464646"/>
<path d="M205.473 73.5809C205.473 73.5809 209.437 76.6515 210.644 80.6053L202.832 85.1157L201.089 79.2804L205.473 73.5809Z" fill="#464646"/>
<path d="M203.514 77.8841C203.592 77.8611 211.766 74.7584 211.766 74.7584L213.648 66.3655C214.509 66.3977 215.201 67.0854 215.236 67.9433L215.4 71.6786L220.478 69.788C220.575 69.8363 221.196 70.1652 221.388 70.915C221.565 71.6027 221.254 72.1455 221.191 72.249C221.104 72.2743 221.018 72.2996 220.931 72.3249C221.046 72.387 221.588 72.6998 221.803 73.3829C222.034 74.1143 221.711 74.717 221.655 74.8182C221.344 74.9079 221.03 74.9976 220.718 75.0896C220.843 75.1632 221.265 75.4369 221.462 75.9866C221.702 76.6582 221.425 77.2355 221.371 77.339C221.191 77.3896 221.014 77.4425 220.834 77.4931C220.896 77.5391 221.441 77.9531 221.452 78.6799C221.464 79.3608 221 79.7771 220.933 79.8369C218.678 80.3475 216.425 80.8558 214.172 81.3664L208.631 84.1334L203.514 77.8841Z" fill="#FFC4BD"/>
<path d="M217.011 95.1806C216.256 95.1806 215.633 94.5826 215.61 93.8258L213.936 39.2042C213.913 38.4337 214.52 37.7897 215.296 37.7644C216.062 37.7621 216.716 38.3463 216.741 39.1191L218.415 93.7407C218.438 94.5113 217.831 95.1553 217.055 95.1783C217.041 95.1806 217.025 95.1806 217.011 95.1806Z" fill="#1877F2"/>
<path d="M220.632 79.4505L216.415 79.0963C216.108 79.071 215.874 78.8133 215.879 78.5074C215.884 78.2199 216.096 77.9807 216.38 77.937L220.545 77.3275L220.632 79.4505Z" fill="#FFC4BD"/>
<path d="M220.632 79.6368C220.628 79.6368 220.621 79.6368 220.616 79.6368L216.398 79.2826C215.997 79.2481 215.685 78.9054 215.69 78.5052C215.694 78.1257 215.973 77.8106 216.35 77.7554L220.514 77.1436C220.616 77.1229 220.711 77.1988 220.727 77.3C220.743 77.4012 220.671 77.4955 220.57 77.5116L216.405 78.1234C216.211 78.1533 216.066 78.3143 216.063 78.5098C216.061 78.7168 216.223 78.8939 216.431 78.9123L220.648 79.2642C220.752 79.2734 220.828 79.3631 220.819 79.4643C220.81 79.5632 220.729 79.6368 220.632 79.6368Z" fill="#FF9C91"/>
<path d="M220.353 77.3553L215.231 78.0913C214.82 78.1511 214.439 77.8705 214.376 77.4611C214.316 77.0816 214.554 76.7158 214.928 76.6169L220.439 75.1472L220.353 77.3553Z" fill="#FFC4BD"/>
<path d="M215.125 78.2845C214.67 78.2845 214.266 77.951 214.192 77.491C214.118 77.0149 214.414 76.5618 214.88 76.4376L220.39 74.9678C220.49 74.9448 220.594 75 220.619 75.0989C220.647 75.1978 220.587 75.3013 220.487 75.3266L214.977 76.7964C214.695 76.87 214.517 77.1437 214.561 77.4312C214.61 77.7371 214.898 77.9533 215.205 77.905L220.328 77.169C220.425 77.1552 220.524 77.2242 220.54 77.3277C220.554 77.4289 220.485 77.5232 220.381 77.5393L215.259 78.2753C215.212 78.2822 215.168 78.2845 215.125 78.2845Z" fill="#FF9C91"/>
<path d="M220.228 75.2049L215.551 76.4515C215.084 76.5757 214.611 76.2767 214.526 75.8052C214.457 75.4211 214.667 75.0416 215.029 74.8967L220.632 72.6449L220.228 75.2049Z" fill="#FFC4BD"/>
<path d="M215.336 76.6653C215.145 76.6653 214.958 76.6124 214.794 76.5089C214.556 76.3594 214.39 76.1133 214.341 75.8373C214.256 75.3704 214.515 74.9011 214.958 74.7217L220.561 72.47C220.655 72.4332 220.766 72.4769 220.803 72.5735C220.842 72.6678 220.796 72.7782 220.699 72.815L215.096 75.0667C214.817 75.1794 214.653 75.4739 214.708 75.7706C214.741 75.9477 214.842 76.0972 214.995 76.1938C215.147 76.2904 215.327 76.318 215.5 76.2697L220.177 75.023C220.277 75.0023 220.381 75.0552 220.406 75.1541C220.434 75.253 220.374 75.3565 220.274 75.3818L215.597 76.6285C215.512 76.6538 215.424 76.6653 215.336 76.6653Z" fill="#FF9C91"/>
<path d="M220.466 72.7092L216.398 74.3445C215.955 74.524 215.449 74.3146 215.262 73.8753C215.089 73.4636 215.253 72.9898 215.643 72.7736L219.621 70.5702L220.466 72.7092Z" fill="#FFC4BD"/>
<path d="M216.075 74.5929C215.66 74.5929 215.262 74.3491 215.092 73.9465C214.879 73.4451 215.078 72.8724 215.553 72.6079L219.531 70.4045C219.619 70.3539 219.734 70.3861 219.785 70.4758C219.836 70.5655 219.803 70.6782 219.711 70.7288L215.733 72.9322C215.426 73.1024 215.297 73.475 215.433 73.7993C215.579 74.1421 215.98 74.3077 216.327 74.1674L220.394 72.532C220.491 72.4952 220.6 72.5389 220.637 72.6355C220.676 72.7298 220.63 72.8402 220.533 72.877L216.465 74.5124C216.338 74.5699 216.207 74.5929 216.075 74.5929Z" fill="#FF9C91"/>
<path d="M232.628 42.7912C242.452 33.0037 242.452 17.135 232.628 7.34744C222.804 -2.44008 206.877 -2.44008 197.053 7.34745C187.229 17.135 187.229 33.0037 197.053 42.7912C206.877 52.5787 222.804 52.5787 232.628 42.7912Z" fill="url(#paint3_linear_12_9545)"/>
<path d="M233.774 29.9446C236.475 19.5275 230.189 8.90154 219.734 6.21082C209.279 3.52009 198.614 9.78356 195.913 20.2007C193.212 30.6178 199.498 41.2438 209.953 43.9345C220.408 46.6252 231.073 40.3617 233.774 29.9446Z" fill="white"/>
<path d="M131.889 232.82L158.835 237.864L161.314 240.371V232.818L174.527 238.943L177.493 247.423C177.493 247.423 136.462 258.808 104.465 246.2L131.889 232.82Z" fill="#464646"/>
<path d="M107.851 247.426L105.252 288.806L121.799 288.7L123.447 285.857L117.071 282.522L133.221 229.531L125.818 189.009L113.031 186.925L107.851 247.426Z" fill="#FFCEC8"/>
<path d="M156.332 288.806L172.881 288.7L174.529 285.857L167.207 281.579L172.008 229.531L148.103 230.348L156.332 288.806Z" fill="#FFCEC8"/>
<path d="M171.791 284.288L169.473 288.852H156.334V291H178.418C178.418 289.293 177.52 287.713 176.052 286.834L171.791 284.288Z" fill="#FFCEC8"/>
<path d="M170.397 288.7L172.881 283.817L177.431 286.538L174.908 291H156.332V288.7H170.397Z" fill="#1877F2"/>
<path d="M120.45 284.288L118.133 288.852H104.993V291H127.078C127.078 289.293 126.18 287.713 124.712 286.834L120.45 284.288Z" fill="#FFCEC8"/>
<path d="M119.059 288.7L121.54 283.817L126.092 286.538L123.567 291H104.991V288.7H119.059Z" fill="#1877F2"/>
<path d="M104.467 246.2C105.111 246.096 105.743 245.954 106.357 245.786C109.827 244.843 113.156 243.242 116.627 242.414L117.034 240.323L117.214 239.401L125.109 198.906L127.075 239.203L127.124 240.174L127.255 242.924C131.067 243.953 134.838 245.422 138.772 245.657C143.103 245.921 147.378 245.091 151.623 244.026C151.944 243.95 152.276 243.865 152.606 243.78C154.649 243.253 156.692 242.688 158.723 242.188C168.151 239.842 177.493 247.428 177.493 247.428L176.717 214.008L176.69 213.056L174.656 125.424L173.163 111.969L173.01 110.649L170.873 91.4178H137.798L132.029 102.177C130.933 104.231 129.882 106.313 128.89 108.415C128.749 108.698 128.615 108.981 128.493 109.273C122.611 121.946 118.696 135.457 116.918 149.335L114.374 169.111L114.252 170.1L112.551 183.319L112.428 184.252L107.899 219.498L107.768 220.536L104.467 246.2Z" fill="url(#paint4_linear_12_9545)"/>
<path d="M163.588 28.6148C164.045 32.5548 164.054 36.4603 162.018 40.0139C160.665 42.3714 157.724 43.8642 155.072 44.1287C150.781 44.5542 146.976 41.9896 144.857 38.4153L144.135 25.5811L163.114 24.5208L163.588 28.6148Z" fill="#FFCEC8"/>
<path d="M163.732 29.8916C163.732 29.8916 159.464 30.0365 157.511 26.3909C157.511 26.3909 156.145 32.486 147.308 32.6746L144.852 38.4156L143.259 50.9531L135.69 89.6515C135.69 89.6515 116.8 87.6688 115.831 67.065C115.094 51.3809 124.769 44.697 129.434 42.3969C132.961 40.6581 135.9 37.8566 137.562 34.3031C138.282 32.7643 138.848 30.9841 139.081 28.9785C140.009 20.9536 143.559 15.4128 154.492 16.3489C165.496 17.2896 163.732 29.8916 163.732 29.8916Z" fill="url(#paint5_linear_12_9545)"/>
<path d="M131.889 50.4331L137.798 91.4177H165.61L164.19 49.4901L131.889 50.4331Z" fill="url(#paint6_linear_12_9545)"/>
<path d="M142.059 35.2804C142.16 37.1043 143.728 38.4982 145.559 38.397C147.389 38.2957 148.788 36.734 148.687 34.9101C148.585 33.0861 147.018 31.6923 145.187 31.7935C143.356 31.897 141.957 33.4564 142.059 35.2804Z" fill="#FFCEC8"/>
<path d="M137.4 51.8846C137.4 58.564 142.837 63.9829 149.543 63.9829C156.246 63.9829 161.676 58.5663 161.676 51.8846C161.676 51.0658 161.59 50.2631 161.44 49.4926H137.638C137.486 50.2631 137.4 51.0635 137.4 51.8846Z" fill="#FFCEC8"/>
<path d="M149.543 64.3922C142.623 64.3922 136.99 58.7824 136.99 51.8845C136.99 51.6568 137.175 51.4751 137.401 51.4751C137.63 51.4751 137.812 51.6591 137.812 51.8845C137.812 58.3292 143.075 63.5734 149.543 63.5734C156.007 63.5734 161.263 58.3292 161.263 51.8845C161.263 51.6568 161.448 51.4751 161.674 51.4751C161.903 51.4751 162.085 51.6591 162.085 51.8845C162.087 58.7824 156.459 64.3922 149.543 64.3922Z" fill="white"/>
<path d="M112.429 184.253C113.128 184.28 113.837 184.347 114.536 184.451C119.774 185.223 124.569 188.105 127.69 192.374C129.003 194.173 130.026 196.227 131.018 198.216C131.358 198.895 131.708 199.583 132.059 200.261C133.373 202.777 135.076 205.613 137.706 207.564C140.506 209.645 144.061 210.23 146.764 209.061C147.512 208.732 148.193 208.252 148.768 207.658C150.801 209.788 153.562 211.115 155.104 211.748C159.756 213.641 164.825 214.611 169.885 214.611C172.182 214.611 174.472 214.413 176.722 214.009L176.695 213.056C169.631 214.347 162.103 213.583 155.467 210.88C154.275 210.391 151.429 209.082 149.405 206.913C149.783 206.386 150.086 205.811 150.303 205.188C150.831 203.691 150.748 202.172 150.076 200.919C149.566 199.958 148.516 199.176 147.496 199.544C146.683 199.836 146.219 200.74 146.238 201.965C146.275 203.925 147.05 205.574 148.147 206.94C147.646 207.476 147.05 207.911 146.388 208.194C143.987 209.231 140.799 208.693 138.274 206.809C135.797 204.972 134.16 202.248 132.902 199.829C132.542 199.15 132.212 198.472 131.872 197.793C130.861 195.776 129.82 193.685 128.458 191.82C125.187 187.353 120.166 184.32 114.672 183.519C113.964 183.416 113.264 183.349 112.553 183.321L112.429 184.253ZM148.768 206.168C147.851 204.981 147.216 203.566 147.179 201.947C147.17 201.354 147.332 200.608 147.812 200.431C147.879 200.413 147.953 200.395 148.02 200.395C148.465 200.395 148.966 200.848 149.238 201.356C149.788 202.382 149.843 203.635 149.409 204.88C149.25 205.337 149.033 205.761 148.768 206.168Z" fill="#FF9B8F"/>
<path d="M114.252 170.1C116.237 171.08 118.421 171.768 120.729 172.078C121.817 172.23 122.932 172.304 124.077 172.304C128.758 172.304 133.855 171.05 139.254 168.564C141.551 167.508 144.464 165.992 146.697 163.637C148.389 161.848 149.769 159.502 151.046 156.249C153.098 151.021 154.203 145.368 154.307 139.733C154.393 139.742 154.478 139.742 154.573 139.751C158.146 140.016 161.533 138.866 163.86 136.605C167.368 133.175 168.312 128.2 169.231 123.377C169.998 119.315 170.792 115.115 173.165 111.966C173.486 111.534 173.836 111.127 174.215 110.741L173.534 110.08C173.354 110.269 173.174 110.458 173.015 110.646C170.037 114.048 169.157 118.692 168.296 123.205C167.371 128.094 166.5 132.711 163.199 135.924C161.071 138.005 157.941 139.052 154.642 138.806C154.529 138.797 154.425 138.797 154.312 138.778C154.312 138.033 154.294 137.29 154.254 136.545C154.141 134.226 153.753 131.326 151.842 129.431C150.745 128.347 149.023 127.821 147.454 128.092C146.223 128.299 145.279 128.959 144.787 129.967C144.07 131.446 144.467 133.424 145.856 135.261C147.588 137.55 150.282 139.096 153.363 139.604C153.278 145.163 152.191 150.741 150.166 155.904C148.936 159.032 147.613 161.284 146.006 162.988C143.887 165.222 141.08 166.682 138.857 167.699C132.304 170.724 126.253 171.874 120.863 171.138C118.546 170.827 116.343 170.121 114.377 169.102L114.252 170.1ZM153.363 138.649C150.584 138.159 148.172 136.756 146.602 134.693C146.168 134.118 144.806 132.092 145.637 130.388C145.988 129.663 146.687 129.182 147.613 129.021C147.83 128.985 148.047 128.964 148.266 128.964C149.344 128.964 150.45 129.387 151.17 130.105C152.853 131.772 153.204 134.447 153.308 136.595C153.345 137.283 153.363 137.971 153.363 138.649Z" fill="#FF9B8F"/>
<path d="M128.491 109.273C130.525 110.113 132.776 110.554 135.072 110.554C136.501 110.554 137.937 110.384 139.357 110.037C143.507 109 148.018 105.938 149.031 101.453C149.23 101.511 149.428 101.547 149.627 101.575C151.423 101.791 153.39 101.179 155.631 99.6729C158.789 97.5522 161.409 94.7071 163.281 91.4203H162.185C160.416 94.3782 157.995 96.9519 155.102 98.8909C153.06 100.266 151.301 100.832 149.749 100.643C149.56 100.616 149.371 100.577 149.191 100.522C149.209 100.324 149.228 100.117 149.228 99.9098C149.274 98.6654 148.641 97.2808 147.743 96.6966C147.185 96.3286 146.552 96.2826 145.966 96.5563L145.758 96.6598L145.71 96.8852C145.52 97.8075 145.758 98.7873 146.363 99.6269C146.808 100.248 147.441 100.768 148.14 101.115C147.279 105.29 143.034 108.153 139.128 109.124C135.61 109.991 131.979 109.68 128.888 108.418C128.747 108.698 128.616 108.981 128.491 109.273ZM148.274 100.114C147.831 99.85 147.432 99.4935 147.129 99.0772C146.845 98.6815 146.534 98.0697 146.601 97.3337C146.647 97.3245 146.695 97.3153 146.741 97.3153C146.903 97.3153 147.062 97.3728 147.224 97.4763C147.847 97.8903 148.32 98.9553 148.293 99.8684C148.283 99.9535 148.283 100.039 148.274 100.114Z" fill="#FF9B8F"/>
<path d="M130.195 238.361C129.175 238.653 128.125 238.945 127.074 239.201L127.123 240.171C128.247 239.898 129.364 239.578 130.451 239.267C133.902 238.288 137.155 237.354 140.56 237.609C144.408 237.883 148.058 239.709 150.565 242.63C150.943 243.074 151.292 243.543 151.624 244.024C151.945 243.948 152.277 243.863 152.607 243.778C152.201 243.166 151.765 242.582 151.285 242.016C148.609 238.906 144.731 236.956 140.638 236.664C137.051 236.411 133.561 237.4 130.195 238.361Z" fill="#FF9B8F"/>
<path d="M107.765 220.536C108.672 221.196 109.371 222.072 109.759 223.061C110.477 224.841 110.336 226.783 110.193 228.846C110.052 230.796 109.9 232.813 110.544 234.706C111.518 237.618 114.014 239.444 117.031 240.321L117.211 239.398C114.517 238.598 112.303 236.967 111.442 234.405C110.865 232.689 110.999 230.854 111.131 228.913C111.283 226.84 111.433 224.692 110.639 222.714C110.119 221.405 109.154 220.283 107.896 219.501L107.765 220.536Z" fill="#FF9B8F"/>
<path d="M137.717 49.488L132.518 49.6375C129.587 49.7203 126.888 51.2545 125.321 53.7247L106.796 80.7089L117.013 93.212L127.149 83.3126L129.365 91.4179L119.275 103.539V109.561C126.65 116.852 133.811 116.781 133.811 116.781C133.811 116.781 135.669 112.696 142.604 95.7351C149.536 78.7746 137.717 49.488 137.717 49.488Z" fill="#1877F2"/>
<path d="M172.426 89.8746L178.974 97.3153L192.098 88.2163L178.273 60.6709C177.793 59.7118 177.252 58.7917 176.661 57.9039L172.673 90.1207L176.661 57.9039C176.114 57.0828 175.526 56.2939 174.893 55.5372C173.573 53.9708 172.07 52.5609 170.401 51.335C168.778 50.139 166.807 49.488 164.782 49.488H159.623C159.623 49.488 156.472 70.4507 158 91.411C159.519 112.381 162.195 115.686 162.195 115.686C174.263 116.686 179.838 112.095 182.079 109.264L177.899 100.048L172.426 89.8746Z" fill="#1877F2"/>
<path d="M195.309 78.3696L194.328 78.8273L170.279 87.8619L175.369 96.2248C177.149 99.1827 179.795 101.635 183.123 100.694L213.222 85.3226C213.222 85.3226 214.079 83.5125 208.451 81.5045C202.816 79.4897 205.469 73.5854 205.469 73.5854L195.309 78.3696Z" fill="#1877F2"/>
<path d="M173.075 92.1147C172.937 92.1147 172.8 92.0457 172.724 91.9169C172.235 91.1141 172.027 90.1596 172.142 89.2258L173.717 76.3685C173.745 76.1431 173.948 75.9775 174.174 76.012C174.4 76.0396 174.56 76.2443 174.532 76.4674L172.957 89.3247C172.865 90.0745 173.034 90.845 173.426 91.4913C173.544 91.6845 173.481 91.9353 173.288 92.0549C173.221 92.0963 173.147 92.1147 173.075 92.1147Z" fill="#3944C7"/>
<path d="M154.589 44.1609L154.621 50.3158L143.262 50.9506L144.037 37.9324L154.589 44.1609Z" fill="#FFCEC8"/>
<path d="M154.59 44.161C154.59 44.161 150.423 44.4439 147.473 41.6079C147.473 41.6079 148.648 44.7751 154.599 45.8262L154.59 44.161Z" fill="#FFB1A8"/>
<path d="M133.461 105.328C133.408 105.328 133.35 105.317 133.299 105.294L124.945 101.717C124.737 101.628 124.64 101.389 124.73 101.179C124.82 100.972 125.062 100.873 125.27 100.965L133.625 104.542C133.835 104.632 133.93 104.871 133.84 105.08C133.773 105.234 133.62 105.328 133.461 105.328Z" fill="white"/>
<path d="M166.87 105.328C166.711 105.328 166.559 105.236 166.492 105.08C166.402 104.873 166.499 104.632 166.706 104.542L175.059 100.965C175.267 100.876 175.509 100.972 175.599 101.179C175.689 101.386 175.592 101.628 175.384 101.717L167.032 105.294C166.979 105.317 166.923 105.328 166.87 105.328Z" fill="white"/>
<path d="M117.883 114.917L123.1 119.554L126.768 123.356L133.347 125.488C133.555 125.555 133.781 125.484 133.91 125.307C134.097 125.054 134.012 124.69 133.73 124.548L129.109 122.213L129.381 121.537L136.648 124.966C136.867 125.07 137.128 125.028 137.303 124.861C137.576 124.601 137.537 124.154 137.225 123.945L130.731 119.803L130.849 119.6L137.98 123.75C138.22 123.888 138.522 123.839 138.709 123.635C138.945 123.377 138.903 122.972 138.624 122.763L132.4 118.117C132.4 118.117 134.305 117.183 134.404 117.286C134.483 117.365 136.809 119.195 137.869 120.028C138.148 120.247 138.552 120.18 138.746 119.883C138.91 119.63 138.864 119.294 138.638 119.097L134.633 115.596L128.709 115.543L124.704 110.421L117.883 114.917Z" fill="#FFCEC8"/>
<path d="M129.04 113.388C128.366 114.363 127.368 115.117 126.2 115.396C124.612 115.78 122.844 115.38 121.378 116.1C120.416 116.576 119.725 117.477 119.296 118.453C119.123 118.855 118.984 119.281 118.869 119.706C115.843 115.817 112.814 111.927 109.788 108.036C105.73 102.821 98.3888 96.4641 100.942 89.1936C101.427 87.8113 110.619 74.793 111.127 75.0598C111.127 75.0598 113.668 76.3801 118.333 76.4951C118.333 76.4951 123.673 76.2007 125.69 82.9881L117.011 93.2095L129.04 113.388Z" fill="#1877F2"/>
<path d="M122.653 100.617L121.916 100.98L128.361 113.959L129.097 113.596L122.653 100.617Z" fill="#1877F2"/>
<path d="M128.188 113.977C128.04 113.977 127.897 113.898 127.823 113.758L121.514 101.802C121.408 101.602 121.486 101.354 121.687 101.248C121.89 101.142 122.137 101.218 122.244 101.421L128.553 113.376C128.659 113.576 128.581 113.825 128.38 113.931C128.318 113.963 128.253 113.977 128.188 113.977Z" fill="#3944C7"/>
<path d="M203.128 46.3298C202.634 46.3298 202.133 46.1964 201.683 45.9181C200.399 45.1223 200.007 43.4387 200.805 42.1598L224.397 4.3884C225.196 3.10728 226.883 2.71857 228.169 3.51439C229.453 4.3102 229.845 5.99384 229.046 7.27267L205.454 45.0464C204.937 45.8744 204.044 46.3298 203.128 46.3298Z" fill="url(#paint7_linear_12_9545)"/>
<path d="M183.594 83.8115C183.435 83.8115 183.285 83.7195 183.218 83.5677C183.126 83.3607 183.22 83.1192 183.428 83.0272L188.008 81.0123C188.218 80.9203 188.458 81.0146 188.551 81.2216C188.643 81.4286 188.549 81.6701 188.341 81.7621L183.761 83.777C183.707 83.8 183.65 83.8115 183.594 83.8115Z" fill="#3944C7"/>
</g>
<defs>
<linearGradient id="paint0_linear_12_9545" x1="69.2544" y1="133.576" x2="47.0815" y2="133.426" gradientUnits="userSpaceOnUse">
<stop stop-color="#7210FF"/>
<stop offset="1" stop-color="#FA6D20"/>
</linearGradient>
<linearGradient id="paint1_linear_12_9545" x1="71.3496" y1="114.672" x2="68.6145" y2="114.616" gradientUnits="userSpaceOnUse">
<stop stop-color="#7210FF"/>
<stop offset="1" stop-color="#FA6D20"/>
</linearGradient>
<linearGradient id="paint2_linear_12_9545" x1="69.5779" y1="115.938" x2="67.6995" y2="115.905" gradientUnits="userSpaceOnUse">
<stop stop-color="#7210FF"/>
<stop offset="1" stop-color="#FA6D20"/>
</linearGradient>
<linearGradient id="paint3_linear_12_9545" x1="251.576" y1="34.5462" x2="221.724" y2="63.2554" gradientUnits="userSpaceOnUse">
<stop stop-color="#7210FF"/>
<stop offset="1" stop-color="#FA6D20"/>
</linearGradient>
<linearGradient id="paint4_linear_12_9545" x1="168.921" y1="270.829" x2="108.689" y2="270.227" gradientUnits="userSpaceOnUse">
<stop stop-color="#7210FF"/>
<stop offset="1" stop-color="#FA6D20"/>
</linearGradient>
<linearGradient id="paint5_linear_12_9545" x1="158.197" y1="100.662" x2="118.573" y2="100.108" gradientUnits="userSpaceOnUse">
<stop stop-color="#7210FF"/>
<stop offset="1" stop-color="#FA6D20"/>
</linearGradient>
<linearGradient id="paint6_linear_12_9545" x1="161.652" y1="97.7069" x2="133.844" y2="97.2289" gradientUnits="userSpaceOnUse">
<stop stop-color="#7210FF"/>
<stop offset="1" stop-color="#FA6D20"/>
</linearGradient>
<linearGradient id="paint7_linear_12_9545" x1="226.048" y1="52.814" x2="202.075" y2="52.4695" gradientUnits="userSpaceOnUse">
<stop stop-color="#7210FF"/>
<stop offset="1" stop-color="#FA6D20"/>
</linearGradient>
<clipPath id="clip0_12_9545">
<rect width="240" height="291" fill="white"/>
</clipPath>
</defs>
</svg>
