<svg width="97" height="97" viewBox="0 0 97 97" fill="none" xmlns="http://www.w3.org/2000/svg">
<circle cx="48.5" cy="48.5" r="48.5" fill="white"/>
<circle cx="48.5001" cy="48.5001" r="41.5714" fill="#7210FF"/>
<path d="M62.333 35.6665H35.6663C33.833 35.6665 32.333 37.1665 32.333 38.9998V58.9998C32.333 60.8332 33.833 62.3332 35.6663 62.3332H62.333C64.1663 62.3332 65.6663 60.8332 65.6663 58.9998V38.9998C65.6663 37.1665 64.1663 35.6665 62.333 35.6665ZM41.733 53.1165C41.733 53.5998 41.333 53.9998 40.8497 53.9998H40.6997C40.2163 53.9998 39.8163 53.5998 39.8163 53.1165V46.4998L39.0663 47.0498C38.8757 47.1726 38.6453 47.218 38.4223 47.1766C38.1994 47.1353 38.0006 47.0104 37.8665 46.8275C37.7325 46.6446 37.6734 46.4174 37.7012 46.1923C37.7291 45.9672 37.8418 45.7613 38.0163 45.6165L39.9997 44.1998C40.1645 44.0838 40.3579 44.0153 40.559 44.0017C40.7601 43.9882 40.961 44.0301 41.1399 44.123C41.3188 44.2158 41.4687 44.3561 41.5733 44.5283C41.6779 44.7006 41.7331 44.8983 41.733 45.0998V53.1165ZM50.683 53.9998H46.233C45.5663 53.9998 45.033 53.4665 45.033 52.7998C45.033 52.4832 45.1663 52.1665 45.383 51.9498C46.9663 50.3665 48.0163 49.3165 48.583 48.7165C49.2497 48.0165 49.483 47.5665 49.483 46.9498C49.483 46.2832 48.9663 45.7498 48.133 45.7498C47.5663 45.7498 47.183 46.0165 46.933 46.3665C46.683 46.6998 46.2497 46.7998 45.8663 46.6332C45.7348 46.5794 45.6177 46.4956 45.5243 46.3886C45.4308 46.2816 45.3636 46.1543 45.328 46.0167C45.2924 45.8792 45.2894 45.7352 45.3192 45.5963C45.349 45.4574 45.4108 45.3273 45.4997 45.2165C45.7497 44.8998 46.1163 44.5832 46.6163 44.3332C47.7663 43.7832 49.083 43.9998 49.8663 44.3832C51.2997 45.1165 51.383 46.4498 51.383 46.8498C51.383 47.9165 50.8663 48.9498 49.8497 49.9498C49.433 50.3665 48.6497 51.1332 47.5163 52.2665L47.5663 52.3498H50.6997C51.1497 52.3498 51.5163 52.7165 51.5163 53.1665C51.5163 53.6165 51.133 53.9998 50.683 53.9998ZM60.2497 52.5832C60.1163 52.7998 59.3163 53.9998 57.3163 53.9998C57.2663 53.9998 55.2663 54.0998 54.2663 52.3665C54.0163 51.9332 54.1997 51.3665 54.6663 51.1832L54.8663 51.0998C55.233 50.9498 55.6497 51.0832 55.8497 51.4165C56.083 51.8165 56.4997 52.2332 57.3163 52.2332C57.9997 52.2332 58.7997 51.7665 58.7997 50.9498C58.7997 50.0332 57.9997 49.6332 57.0663 49.6332C56.8482 49.6288 56.6405 49.5391 56.4878 49.3833C56.3351 49.2275 56.2496 49.018 56.2497 48.7998C56.2497 48.3665 56.583 48.0165 56.9997 47.9832V47.9665C57.5497 47.9665 58.4663 47.7332 58.4663 46.7665C58.4663 46.1165 57.9497 45.6832 57.2163 45.6832C56.683 45.6832 56.333 45.8998 56.0997 46.1832C55.8663 46.4832 55.483 46.6165 55.133 46.4665L54.9997 46.4165C54.4997 46.2165 54.333 45.5832 54.6663 45.1665C55.1163 44.5832 55.933 43.9998 57.233 43.9998C59.0497 43.9998 59.7997 45.0665 59.933 45.2498C60.483 46.0832 60.3997 47.1832 59.9663 47.8665C59.7163 48.2332 59.433 48.4998 59.0997 48.6665V48.7832C59.5663 48.9665 59.9497 49.2498 60.233 49.6498C60.8497 50.5165 60.783 51.7665 60.2497 52.5832Z" fill="white"/>
</svg>
