<svg width="97" height="97" viewBox="0 0 97 97" fill="none" xmlns="http://www.w3.org/2000/svg">
<circle cx="48.5" cy="48.5" r="48.5" fill="white"/>
<circle cx="48.5001" cy="48.5001" r="41.5714" fill="#FF8514"/>
<path d="M65.7164 41.5407C64.7524 39.2398 63.3499 37.1485 61.5871 35.3832C59.8296 33.6149 57.7419 32.209 55.4426 31.2454C53.0871 30.2533 50.5562 29.7448 48.0004 29.75H47.9144C45.3148 29.7629 42.8012 30.2786 40.4336 31.2926C38.154 32.2662 36.0859 33.6746 34.3449 35.4391C32.5992 37.2004 31.2128 39.2844 30.2629 41.575C29.2768 43.9571 28.7772 46.5123 28.7933 49.0903C28.8062 52.0723 29.5195 55.0329 30.8516 57.6797V64.211C30.8516 65.3024 31.7367 66.1875 32.8238 66.1875H39.3465C42.0057 67.5294 44.9402 68.2354 47.9187 68.25H48.009C50.5785 68.25 53.0664 67.7516 55.4125 66.7762C57.7002 65.824 59.7801 64.4345 61.5355 62.6856C63.3058 60.9282 64.698 58.8743 65.6734 56.584C66.6832 54.2121 67.1988 51.6899 67.2117 49.086C67.2203 46.4692 66.7133 43.9297 65.7164 41.5407ZM39.4238 51.0625C38.2894 51.0625 37.3656 50.1387 37.3656 49C37.3656 47.8614 38.2894 46.9375 39.4238 46.9375C40.5582 46.9375 41.482 47.8614 41.482 49C41.482 50.1387 40.5625 51.0625 39.4238 51.0625ZM48.0004 51.0625C46.866 51.0625 45.9422 50.1387 45.9422 49C45.9422 47.8614 46.866 46.9375 48.0004 46.9375C49.1348 46.9375 50.0586 47.8614 50.0586 49C50.0586 50.1387 49.1348 51.0625 48.0004 51.0625ZM56.5769 51.0625C55.4426 51.0625 54.5187 50.1387 54.5187 49C54.5187 47.8614 55.4426 46.9375 56.5769 46.9375C57.7113 46.9375 58.6351 47.8614 58.6351 49C58.6351 50.1387 57.7113 51.0625 56.5769 51.0625Z" fill="white"/>
</svg>
