<svg width="32" height="32" viewBox="0 0 32 32" fill="none" xmlns="http://www.w3.org/2000/svg">
<path d="M16 25.5062C16.882 24.9495 18.0174 24.1596 19.1383 23.1788C20.7486 21.7698 22.0437 20.2211 22.7492 18.617C21.0082 17.3243 17.8592 16.6745 16 16.6745C14.1408 16.6745 10.9918 17.3243 9.25078 18.617C9.95631 20.2211 11.2514 21.7698 12.8617 23.1788C13.9826 24.1596 15.1181 24.9495 16 25.5062Z" fill="url(#paint0_linear_12_9829)"/>
<path d="M16 14.6745C18.21 14.6745 20 12.8845 20 10.6745C20 8.46453 18.21 6.67453 16 6.67453C13.79 6.67453 12 8.46453 12 10.6745C12 12.8845 13.79 14.6745 16 14.6745Z" fill="url(#paint1_linear_12_9829)"/>
<path fill-rule="evenodd" clip-rule="evenodd" d="M16.4851 1.4136C16.1666 1.33398 15.8334 1.33398 15.5149 1.4136L5.51493 3.9136C4.62459 4.13618 4 4.93615 4 5.85388V16C4 20.1479 6.48066 23.5392 8.95724 25.9097C11.4604 28.3057 14.1715 29.8643 15.0739 30.3526C15.6544 30.6666 16.3456 30.6666 16.9261 30.3526C17.8285 29.8643 20.5396 28.3057 23.0428 25.9097C25.5193 23.5392 28 20.1478 28 16V5.85388C28 4.93615 27.3754 4.13618 26.4851 3.9136L16.4851 1.4136ZM6.66667 6.3744L16 4.04107L25.3333 6.3744V16C25.3333 19.0622 23.482 21.7978 21.1988 23.9833C19.2022 25.8945 17.0334 27.2313 16 27.817C14.9666 27.2313 12.7978 25.8945 10.8012 23.9833C8.51797 21.7978 6.66667 19.0622 6.66667 16V6.3744Z" fill="url(#paint2_linear_12_9829)"/>
<defs>
<linearGradient id="paint0_linear_12_9829" x1="25.1829" y1="34.9733" x2="5.39188" y2="34.626" gradientUnits="userSpaceOnUse">
<stop stop-color="#FF9514"/>
<stop offset="1" stop-color="#FA6D20"/>
</linearGradient>
<linearGradient id="paint1_linear_12_9829" x1="25.1829" y1="34.9733" x2="5.39188" y2="34.626" gradientUnits="userSpaceOnUse">
<stop stop-color="#FF9514"/>
<stop offset="1" stop-color="#FA6D20"/>
</linearGradient>
<linearGradient id="paint2_linear_12_9829" x1="25.1829" y1="34.9733" x2="5.39188" y2="34.626" gradientUnits="userSpaceOnUse">
<stop stop-color="#FF9514"/>
<stop offset="1" stop-color="#FA6D20"/>
</linearGradient>
</defs>
</svg>
