<?xml version="1.0" standalone="no"?>
<!DOCTYPE svg PUBLIC "-//W3C//DTD SVG 20010904//EN"
 "http://www.w3.org/TR/2001/REC-SVG-20010904/DTD/svg10.dtd">
<svg version="1.0" xmlns="http://www.w3.org/2000/svg"
 width="4106.000000pt" height="4106.000000pt" viewBox="0 0 4106.000000 4106.000000"
 preserveAspectRatio="xMidYMid meet">
<metadata>
Created by potrace 1.14, written by Peter Selinger 2001-2017
</metadata>
<g transform="translate(0.000000,4106.000000) scale(0.100000,-0.100000)"
fill="#000000" stroke="none">
<path d="M32187 41054 c-1 -1 -108 -5 -237 -8 -129 -4 -264 -8 -300 -11 -36
-2 -117 -6 -180 -10 -63 -3 -137 -7 -165 -10 -27 -2 -88 -7 -135 -11 -47 -3
-101 -7 -121 -9 -20 -1 -65 -6 -100 -9 -35 -4 -89 -9 -119 -11 -30 -3 -71 -7
-90 -9 -56 -8 -142 -18 -180 -21 -19 -2 -48 -6 -65 -8 -16 -3 -55 -8 -85 -11
-30 -3 -64 -8 -75 -10 -11 -2 -42 -7 -70 -10 -54 -7 -96 -14 -135 -21 -14 -2
-45 -7 -70 -10 -54 -7 -269 -44 -290 -50 -8 -2 -33 -6 -55 -9 -22 -4 -62 -11
-90 -16 -27 -6 -59 -12 -70 -14 -188 -38 -451 -97 -610 -138 -66 -16 -124 -31
-130 -32 -199 -46 -944 -280 -1070 -336 -11 -5 -90 -36 -175 -68 -460 -177
-1013 -440 -1420 -677 -36 -20 -80 -46 -98 -56 -78 -45 -242 -146 -311 -191
-41 -26 -76 -48 -78 -48 -6 0 -335 -224 -411 -279 -236 -172 -299 -221 -491
-376 -156 -125 -143 -114 -321 -271 -292 -256 -676 -641 -902 -904 -26 -30
-61 -71 -78 -90 -77 -85 -407 -502 -460 -580 -8 -13 -31 -44 -51 -69 -48 -62
-313 -455 -380 -563 -30 -49 -73 -118 -96 -155 -55 -89 -158 -269 -282 -493
-46 -83 -259 -511 -316 -635 -20 -44 -77 -177 -127 -295 -49 -118 -96 -228
-103 -245 -7 -16 -25 -64 -40 -105 -15 -41 -33 -88 -40 -105 -7 -16 -18 -48
-25 -70 -7 -22 -25 -74 -40 -115 -52 -141 -203 -624 -225 -719 -3 -9 -25 -95
-50 -191 -25 -96 -50 -193 -54 -215 -5 -22 -25 -110 -44 -195 -19 -85 -38
-168 -40 -185 -3 -16 -17 -86 -31 -155 -25 -124 -89 -498 -102 -595 -3 -27 -8
-58 -10 -69 -2 -10 -6 -44 -9 -75 -4 -31 -8 -63 -10 -71 -2 -8 -7 -40 -10 -70
-3 -30 -8 -66 -10 -80 -2 -14 -6 -50 -10 -80 -3 -30 -8 -71 -10 -90 -2 -19 -7
-66 -11 -105 -4 -38 -8 -81 -9 -95 -12 -104 -28 -304 -40 -490 -33 -500 -39
-690 -39 -1310 -1 -593 14 -1114 39 -1400 2 -25 7 -88 10 -140 3 -52 8 -117
10 -145 10 -118 16 -182 20 -215 2 -19 7 -65 10 -101 2 -37 7 -82 9 -100 3
-19 8 -61 11 -94 3 -33 8 -71 10 -85 2 -14 6 -52 10 -85 3 -33 13 -107 21
-165 20 -143 22 -158 30 -215 3 -27 8 -59 10 -70 4 -18 13 -83 19 -125 1 -8 5
-31 9 -50 3 -19 8 -46 10 -60 5 -29 14 -82 21 -125 7 -36 21 -117 30 -165 5
-29 18 -96 61 -309 3 -12 11 -51 19 -85 8 -33 16 -72 18 -86 3 -14 10 -45 17
-70 7 -25 14 -52 15 -60 6 -26 46 -194 49 -205 1 -5 6 -23 10 -40 107 -420
313 -1065 437 -1360 6 -16 13 -34 15 -40 3 -12 143 -342 174 -410 71 -156 101
-217 185 -386 51 -103 106 -211 123 -240 16 -30 46 -85 67 -124 211 -389 541
-901 830 -1286 138 -184 452 -570 495 -609 4 -3 46 -50 95 -105 190 -213 433
-456 725 -726 147 -135 483 -412 690 -567 74 -56 140 -105 145 -110 6 -4 33
-23 60 -42 28 -18 52 -37 55 -40 21 -28 612 -407 830 -532 238 -137 250 -143
535 -288 233 -118 339 -168 475 -227 30 -13 69 -30 85 -38 350 -162 1071 -414
1530 -535 44 -12 87 -23 95 -25 202 -54 504 -124 645 -151 11 -2 40 -8 65 -13
54 -12 249 -48 304 -57 21 -3 48 -8 60 -10 11 -3 37 -7 56 -9 19 -3 58 -9 85
-15 28 -5 70 -12 95 -15 25 -3 56 -8 70 -10 14 -2 43 -7 65 -9 22 -3 57 -8 78
-11 41 -6 78 -11 152 -20 93 -12 110 -14 170 -20 33 -3 74 -8 90 -10 77 -9
197 -21 325 -30 47 -4 105 -8 129 -11 24 -2 94 -6 155 -10 61 -3 131 -7 156
-9 200 -16 1049 -20 4855 -20 l4350 0 40 21 c22 11 54 40 70 63 l30 43 3
11994 2 11994 -21 44 c-21 46 -74 90 -122 102 -22 5 -8614 13 -8620 8z m3543
-4672 c48 -24 85 -69 99 -118 4 -16 7 -3305 7 -7309 l-1 -7280 -23 -40 c-28
-46 -51 -64 -107 -85 -36 -13 -222 -15 -1516 -14 -811 1 -1526 5 -1589 8 -181
8 -421 24 -485 31 -44 5 -104 11 -205 20 -36 4 -72 8 -80 10 -8 3 -40 7 -70
10 -30 3 -71 8 -90 10 -19 3 -53 8 -75 10 -22 3 -65 10 -95 15 -30 5 -71 12
-90 15 -141 23 -330 60 -490 97 -47 11 -96 22 -110 25 -166 36 -592 167 -815
250 -351 132 -760 328 -1050 505 -343 209 -714 488 -956 718 -174 164 -332
327 -439 450 -36 41 -73 84 -83 95 -33 36 -242 309 -300 390 -31 44 -61 85
-67 92 -5 7 -10 15 -10 18 0 3 -15 27 -33 53 -36 51 -189 297 -200 322 -4 8
-23 42 -42 75 -50 86 -213 411 -267 535 -56 125 -154 373 -193 485 -15 44 -30
87 -33 95 -3 8 -6 17 -7 20 -1 3 -4 12 -8 20 -34 89 -170 574 -202 725 -3 11
-7 31 -10 45 -3 14 -7 34 -9 45 -3 11 -11 52 -20 90 -8 39 -17 83 -20 98 -18
98 -28 150 -32 172 -2 14 -6 37 -9 53 -3 15 -12 74 -21 132 -8 58 -17 116 -19
130 -3 23 -19 138 -30 230 -5 38 -11 92 -20 185 -38 374 -50 659 -50 1155 0
353 8 651 19 780 3 25 7 88 11 140 4 52 8 111 10 130 2 19 6 64 9 100 3 36 8
81 10 100 3 19 7 60 11 90 3 30 8 66 10 80 2 14 7 48 10 75 8 63 12 96 31 215
8 52 17 111 20 130 3 19 19 103 36 185 16 83 32 165 34 183 3 18 26 112 50
210 25 97 47 186 49 197 27 147 234 749 340 990 276 631 594 1144 1009 1625
257 298 661 676 906 848 36 25 76 55 90 68 34 30 302 207 425 281 378 227 767
409 1195 558 172 60 514 163 596 181 12 2 77 17 145 33 136 33 398 86 469 96
25 3 52 8 60 10 8 2 33 7 55 10 23 3 52 7 65 10 28 5 64 10 180 25 47 6 101
13 120 16 19 3 60 7 90 9 30 3 75 7 100 10 203 21 302 28 580 40 91 4 166 8
167 9 1 0 658 1 1460 1 l1458 -1 45 -22z"/>
<path d="M7092 41018 c-24 -11 -55 -37 -68 -58 -14 -21 -47 -114 -74 -206 -59
-206 -133 -462 -330 -1139 -83 -286 -158 -545 -166 -575 -9 -30 -20 -66 -25
-80 -4 -14 -36 -122 -69 -240 -34 -118 -68 -235 -76 -260 -18 -57 -85 -287
-89 -309 -2 -9 -18 -63 -35 -121 -18 -58 -33 -112 -35 -120 -4 -14 -275 -946
-310 -1065 -17 -56 -89 -303 -111 -380 -8 -27 -17 -58 -19 -68 -2 -10 -16 -57
-30 -105 -15 -47 -28 -93 -30 -102 -2 -8 -17 -60 -34 -115 -29 -98 -151 -516
-216 -745 -18 -63 -85 -293 -148 -510 -63 -217 -121 -415 -128 -440 -7 -25
-14 -49 -15 -55 -8 -27 -118 -403 -169 -575 -98 -335 -106 -364 -114 -395 -8
-28 -121 -417 -198 -680 -19 -66 -39 -133 -43 -150 -4 -16 -31 -109 -60 -205
-28 -96 -53 -182 -55 -190 -2 -8 -13 -46 -25 -85 -11 -38 -27 -92 -34 -120 -8
-27 -41 -142 -74 -255 -33 -113 -85 -290 -115 -395 -226 -775 -289 -992 -292
-1005 -2 -8 -28 -98 -58 -200 -30 -102 -85 -288 -121 -415 -64 -223 -79 -274
-110 -380 -15 -48 -39 -132 -182 -625 -36 -124 -77 -263 -90 -310 -37 -126
-149 -509 -263 -905 -56 -192 -110 -379 -120 -415 -11 -36 -27 -90 -35 -120
-18 -64 -66 -224 -96 -325 -12 -38 -23 -79 -26 -90 -2 -11 -13 -49 -23 -85
-11 -36 -32 -105 -46 -155 -14 -49 -53 -182 -86 -295 -33 -113 -62 -212 -64
-220 -1 -9 -15 -55 -30 -102 -14 -48 -28 -95 -30 -105 -2 -10 -20 -72 -40
-138 -20 -66 -38 -128 -41 -137 -7 -30 -13 -50 -44 -158 -17 -58 -32 -109 -34
-115 -1 -5 -10 -35 -19 -65 -9 -30 -80 -273 -157 -540 -77 -267 -149 -514
-160 -550 -11 -36 -52 -175 -91 -310 -148 -512 -221 -765 -310 -1070 -50 -173
-92 -319 -94 -325 -1 -5 -5 -17 -8 -25 -3 -8 -47 -159 -97 -335 -133 -461
-208 -718 -236 -812 -14 -45 -27 -90 -29 -100 -2 -10 -59 -205 -126 -433 -67
-228 -124 -424 -126 -435 -3 -11 -23 -81 -45 -155 -22 -74 -41 -142 -43 -150
-4 -18 -111 -383 -124 -425 -6 -16 -29 -95 -52 -175 -22 -80 -51 -181 -64
-225 -44 -149 -93 -319 -140 -480 -26 -88 -48 -167 -50 -175 -2 -8 -20 -69
-40 -135 -20 -66 -38 -128 -40 -138 -2 -9 -6 -21 -9 -25 -3 -5 -7 -20 -10 -35
-2 -14 -17 -66 -31 -114 -15 -48 -29 -94 -30 -103 -2 -8 -45 -154 -95 -325
-104 -354 -108 -385 -53 -453 17 -20 45 -46 64 -57 34 -20 53 -20 2501 -21
1985 -1 2474 2 2505 12 63 21 104 78 135 185 14 52 44 155 66 229 22 74 42
144 45 155 8 28 108 373 157 540 23 77 43 147 45 155 12 48 379 1309 385 1325
10 24 169 572 200 690 5 17 52 179 105 360 53 182 121 413 150 515 30 102 82
280 115 395 34 116 94 325 135 465 41 140 117 404 170 585 149 512 206 709
209 720 1 6 5 16 9 23 5 6 6 12 3 12 -3 0 1 17 9 38 8 20 19 55 24 77 5 22 27
101 49 175 22 74 86 293 142 485 55 193 117 403 136 469 20 65 37 126 39 135
2 9 22 79 45 156 23 77 44 147 46 155 4 16 12 45 89 305 26 88 51 174 55 190
7 27 93 322 206 710 25 83 46 157 48 165 2 8 41 141 86 295 86 297 146 501
259 891 172 594 239 823 323 1109 27 94 52 179 55 190 13 44 124 430 168 580
26 88 48 167 50 175 2 8 85 292 183 630 99 338 223 764 276 945 52 182 134
463 181 625 48 162 116 396 151 520 36 124 93 317 126 430 70 239 87 299 93
320 2 8 15 53 28 100 13 47 27 94 30 105 3 11 18 65 35 120 16 55 32 109 35
120 3 11 76 261 162 555 86 294 160 549 165 565 8 30 88 307 161 555 22 74 42
142 44 150 22 96 93 313 111 340 33 49 78 73 143 76 65 3 117 -21 155 -71 15
-19 52 -131 106 -315 45 -157 105 -361 132 -455 27 -93 81 -278 120 -410 38
-132 73 -253 78 -270 4 -16 44 -156 90 -310 45 -154 121 -417 170 -585 49
-168 121 -415 160 -550 39 -135 108 -369 152 -520 44 -151 83 -288 87 -305 4
-16 18 -61 29 -100 12 -38 49 -164 82 -280 34 -115 65 -223 71 -240 5 -16 37
-124 70 -240 87 -304 185 -642 225 -780 42 -144 91 -312 230 -790 58 -198 115
-396 129 -440 13 -44 47 -159 74 -255 28 -96 89 -308 136 -470 48 -162 88
-302 90 -310 2 -8 34 -116 70 -240 37 -124 69 -234 72 -245 3 -11 30 -103 60
-205 30 -102 57 -194 60 -205 16 -58 184 -638 229 -790 9 -27 18 -59 21 -70
23 -80 448 -1544 463 -1595 25 -84 210 -720 215 -740 4 -15 69 -238 194 -665
38 -132 106 -364 150 -515 43 -151 105 -363 136 -470 31 -107 59 -202 61 -210
2 -8 17 -62 34 -120 35 -121 33 -165 -8 -224 -15 -22 -45 -49 -67 -60 l-40
-21 -1705 -1 c-938 -1 -1716 -2 -1730 -3 -38 -2 -105 -49 -128 -90 -11 -20
-30 -72 -42 -116 -12 -44 -40 -140 -61 -213 -22 -72 -42 -140 -44 -150 -2 -9
-22 -78 -44 -152 -54 -183 -102 -347 -171 -585 -32 -110 -92 -319 -135 -465
-42 -146 -96 -332 -120 -415 -24 -82 -58 -197 -75 -255 -17 -58 -33 -112 -35
-120 -2 -8 -16 -55 -30 -105 -15 -49 -28 -97 -30 -105 -3 -14 -23 -80 -62
-210 -9 -30 -18 -59 -19 -65 -1 -5 -18 -64 -37 -130 -19 -66 -65 -223 -102
-350 -37 -126 -76 -259 -86 -295 -11 -36 -21 -72 -23 -80 -4 -16 -71 -243
-142 -488 -37 -124 -44 -161 -38 -197 8 -57 50 -116 100 -141 38 -19 140 -19
5698 -20 l5659 -1 46 23 c81 41 118 126 96 219 -7 28 -37 136 -68 240 -71 241
-146 501 -157 540 -4 17 -49 172 -100 345 -50 173 -100 344 -110 380 -10 36
-91 315 -180 620 -88 305 -163 562 -165 570 -1 8 -35 123 -73 255 -127 432
-164 560 -172 590 -4 17 -33 118 -65 225 -31 107 -81 281 -112 385 -30 105
-86 298 -125 430 -38 132 -75 263 -83 290 -7 28 -25 91 -40 140 -26 88 -66
226 -260 895 -53 184 -108 373 -122 420 -13 47 -26 92 -28 100 -2 8 -15 53
-29 100 -13 47 -56 195 -95 330 -39 135 -75 259 -80 275 -10 30 -60 203 -144
495 -140 486 -201 694 -223 770 -14 47 -35 117 -46 155 -11 39 -27 91 -34 116
-8 25 -16 54 -19 65 -2 10 -31 114 -65 229 -34 116 -64 219 -67 230 -3 11 -30
103 -60 205 -30 102 -56 192 -58 200 -1 9 -26 94 -54 190 -29 96 -54 182 -55
190 -2 8 -60 209 -129 445 -68 237 -127 439 -130 450 -3 11 -29 99 -57 195
-28 96 -53 182 -55 190 -2 9 -15 54 -29 100 -14 47 -55 189 -91 315 -66 227
-146 503 -181 620 -9 33 -18 65 -20 70 -1 6 -18 66 -39 135 -20 69 -44 154
-54 190 -23 81 -162 561 -203 695 -16 55 -31 107 -33 115 -5 23 -154 537 -360
1245 -48 165 -96 329 -106 365 -10 36 -49 173 -87 305 -38 132 -72 249 -75
260 -3 11 -19 65 -35 120 -17 55 -65 219 -107 365 -42 146 -117 405 -167 575
-49 171 -93 324 -98 340 -4 17 -45 156 -90 310 -45 154 -103 357 -130 450 -27
94 -58 202 -70 240 -12 39 -28 94 -36 124 -8 30 -35 125 -60 210 -26 86 -54
185 -65 221 -10 36 -45 160 -79 275 -34 116 -65 224 -70 240 -5 17 -16 55 -25
85 -9 30 -22 78 -30 105 -7 28 -48 167 -90 310 -42 143 -78 267 -79 275 -6 23
-136 472 -145 500 -5 14 -17 54 -26 90 -10 36 -24 85 -32 110 -8 25 -16 52
-18 60 -2 8 -18 62 -35 120 -17 58 -33 112 -35 120 -1 8 -20 71 -40 140 -35
119 -51 176 -94 328 -10 37 -62 214 -115 394 -52 180 -102 351 -110 380 -8 29
-37 132 -66 228 -28 96 -53 183 -55 192 -2 10 -22 78 -43 150 -22 73 -72 246
-112 383 -39 138 -84 293 -100 345 -16 52 -34 115 -40 140 -7 25 -18 63 -25
85 -7 22 -25 85 -41 140 -24 82 -35 106 -66 137 -20 20 -54 41 -75 47 -26 8
-1161 11 -3738 11 l-3700 0 -43 -22z"/>
<path d="M194 14664 c-48 -16 -109 -80 -122 -127 -15 -53 -9 -81 63 -332 37
-126 112 -385 167 -575 55 -190 108 -374 119 -410 11 -36 26 -90 35 -120 19
-71 122 -426 135 -465 5 -16 41 -140 80 -275 39 -135 77 -267 85 -295 8 -27
17 -57 19 -65 2 -8 40 -141 85 -295 44 -154 119 -410 165 -570 89 -309 130
-450 257 -885 78 -266 100 -343 138 -480 10 -36 58 -198 105 -360 47 -162 88
-302 90 -310 15 -58 58 -209 65 -225 5 -11 43 -141 85 -290 43 -148 140 -486
217 -750 77 -264 142 -489 145 -500 6 -25 60 -210 72 -250 6 -16 24 -79 41
-140 17 -60 39 -139 50 -175 25 -82 149 -510 154 -530 2 -8 27 -94 56 -190 28
-96 53 -179 54 -185 1 -5 10 -37 20 -70 10 -33 20 -67 21 -75 2 -8 32 -109 65
-225 34 -115 65 -223 70 -240 4 -16 33 -115 63 -220 31 -104 80 -275 111 -380
30 -104 70 -244 90 -310 108 -373 149 -513 156 -540 4 -16 24 -86 45 -155 20
-69 61 -210 91 -315 31 -104 71 -243 90 -308 19 -65 41 -142 49 -170 8 -29 28
-99 45 -157 18 -58 49 -166 70 -240 21 -74 70 -243 108 -375 39 -132 100 -343
137 -470 36 -126 82 -284 102 -350 19 -66 43 -149 53 -185 18 -64 82 -285 185
-636 70 -238 79 -255 159 -288 35 -14 230 -16 2060 -16 1446 0 2032 3 2061 11
73 20 106 70 150 221 20 73 44 151 51 173 7 22 45 153 84 290 40 138 108 374
152 525 44 151 82 282 84 290 2 8 17 62 34 120 18 58 33 112 35 120 2 8 26 94
55 190 79 269 85 291 150 515 33 116 90 311 126 434 36 124 68 232 70 240 4
20 21 80 67 236 20 66 90 307 156 535 66 228 147 510 181 625 82 281 190 656
195 675 2 8 18 62 35 120 36 121 73 247 99 340 10 36 53 184 95 330 43 146
102 348 131 450 105 361 327 1128 380 1310 140 484 170 585 210 725 94 323
139 480 210 725 41 140 102 350 135 465 34 116 70 239 80 275 17 61 63 219
146 505 20 66 64 219 99 340 35 121 91 315 125 430 34 116 63 217 65 225 20
78 50 170 62 190 8 14 33 39 56 55 l42 30 2640 0 2640 0 36 -24 c19 -14 46
-41 60 -60 l24 -36 3 -1470 c3 -1612 6 -1519 -56 -1578 -61 -59 117 -55 -2498
-55 l-2401 0 -42 -21 c-23 -12 -53 -40 -68 -63 l-28 -42 -3 -1186 c-2 -1297
-5 -1226 55 -1286 58 -58 -112 -54 2486 -54 1756 0 2403 -3 2428 -11 47 -16
107 -76 119 -119 6 -22 10 -535 10 -1403 0 -1494 4 -1392 -57 -1453 -58 -58
111 -54 -2488 -54 -2629 0 -2433 5 -2498 -58 -60 -57 -57 17 -57 -1332 0 -681
3 -1252 6 -1269 9 -45 75 -115 122 -129 30 -9 997 -12 4053 -12 3899 0 4015 1
4055 19 44 20 85 68 101 116 5 19 9 2728 8 7150 l0 7120 -26 37 c-32 47 -64
72 -109 86 -48 14 -11011 14 -11055 -1 -44 -14 -93 -54 -111 -89 -9 -17 -43
-123 -76 -237 -137 -472 -159 -548 -233 -801 -42 -146 -81 -278 -85 -295 -9
-34 -156 -537 -291 -1000 -50 -170 -111 -377 -134 -460 -24 -82 -60 -206 -80
-275 -20 -69 -66 -226 -102 -350 -35 -124 -83 -286 -105 -360 -22 -74 -43
-148 -48 -165 -7 -29 -91 -320 -186 -645 -25 -85 -54 -184 -64 -220 -11 -36
-42 -143 -71 -239 -28 -96 -52 -182 -54 -190 -2 -9 -17 -61 -34 -116 -16 -55
-46 -156 -65 -225 -20 -69 -45 -155 -56 -191 -12 -37 -23 -75 -25 -85 -2 -11
-17 -64 -34 -119 -16 -55 -59 -201 -95 -325 -36 -124 -88 -304 -116 -400 -28
-96 -80 -276 -116 -400 -77 -265 -143 -491 -178 -612 -33 -111 -72 -247 -79
-273 -3 -11 -19 -67 -36 -125 -17 -58 -40 -134 -50 -170 -11 -36 -29 -96 -40
-135 -11 -38 -68 -234 -126 -435 -58 -201 -112 -386 -121 -411 -8 -25 -16 -54
-18 -65 -2 -10 -11 -41 -20 -69 -8 -27 -22 -76 -31 -107 -21 -76 -51 -117
-105 -146 -94 -50 -220 -10 -261 83 -11 24 -37 103 -58 177 -58 201 -238 815
-282 968 -22 74 -42 142 -44 150 -1 8 -38 132 -80 275 -42 143 -79 269 -82
280 -3 11 -18 63 -33 115 -16 52 -86 291 -155 530 -70 239 -143 489 -162 555
-126 431 -206 704 -213 730 -4 17 -60 210 -124 430 -146 500 -154 527 -176
600 -10 33 -42 141 -70 240 -29 99 -92 317 -141 485 -90 307 -105 358 -245
835 -42 143 -80 274 -84 290 -4 17 -36 125 -69 240 -152 516 -163 557 -157
596 3 21 94 341 202 711 108 370 197 680 199 688 2 8 38 132 80 275 68 231 82
295 74 356 -4 32 -55 92 -96 114 l-42 22 -2094 0 c-1716 0 -2101 -2 -2133 -13z"/>
<path d="M21867 14669 c-45 -12 -98 -58 -118 -103 -18 -40 -19 -228 -19 -7150
0 -5456 3 -7118 12 -7148 13 -44 61 -94 108 -115 26 -10 303 -13 1503 -13
1415 1 1474 1 1513 19 43 19 86 67 100 111 4 14 9 1193 9 2620 1 1962 5 2602
13 2623 18 43 76 94 119 106 22 6 142 11 283 11 328 0 320 3 430 -205 29 -55
67 -127 85 -160 18 -33 60 -114 95 -180 34 -66 75 -142 90 -170 15 -27 60
-113 100 -190 40 -77 80 -153 90 -170 9 -16 48 -88 85 -160 37 -71 85 -161
105 -200 21 -38 61 -115 90 -170 29 -55 69 -131 90 -170 21 -38 66 -124 101
-190 34 -66 87 -165 116 -220 30 -55 63 -118 74 -140 11 -22 40 -78 65 -125
58 -108 143 -269 207 -390 27 -52 67 -126 87 -165 20 -38 61 -115 90 -170 29
-55 69 -131 90 -170 21 -38 60 -113 88 -165 27 -52 70 -134 96 -182 25 -49 67
-127 92 -175 26 -49 65 -124 89 -168 23 -44 68 -129 100 -190 32 -60 72 -137
90 -170 18 -33 63 -118 100 -190 37 -71 75 -143 85 -160 10 -16 50 -93 90
-170 40 -77 85 -162 100 -190 15 -27 57 -107 94 -177 72 -137 110 -183 165
-198 51 -14 3213 -13 3263 0 82 23 139 105 133 191 -3 47 -16 77 -117 254 -25
44 -58 103 -73 130 -15 28 -48 86 -72 130 -25 44 -59 105 -75 135 -17 30 -49
89 -73 130 -23 41 -57 102 -75 135 -54 98 -79 142 -173 310 -49 88 -99 177
-109 198 -11 20 -24 40 -29 43 -5 3 -7 10 -4 15 4 5 1 9 -4 9 -6 0 -11 4 -11
8 0 4 -61 118 -136 252 -75 135 -152 274 -171 310 -20 36 -39 70 -43 75 -4 6
-22 37 -40 70 -69 126 -240 433 -370 665 -84 151 -107 191 -176 317 -13 24
-43 78 -67 120 -24 43 -59 105 -77 138 -18 33 -72 130 -120 215 -48 85 -102
182 -120 215 -18 33 -96 173 -173 310 -125 222 -189 337 -262 470 -12 22 -42
76 -67 120 -25 44 -60 107 -78 140 -48 88 -68 124 -160 287 -72 130 -82 154
-82 197 0 57 34 127 76 154 14 9 80 35 148 58 212 71 426 159 628 260 180 90
441 242 448 261 2 4 8 8 14 8 16 0 265 189 368 280 392 344 712 768 935 1235
129 271 262 656 310 895 2 8 15 71 28 140 14 69 29 145 33 170 3 25 8 52 9 60
3 18 19 148 29 235 35 310 36 820 1 1150 -2 22 -7 67 -10 100 -15 146 -47 344
-82 500 -13 61 -27 121 -29 135 -13 67 -112 403 -134 455 -11 27 -22 58 -26
70 -12 48 -104 258 -189 430 -202 410 -425 723 -741 1039 -423 423 -1010 784
-1609 991 -44 15 -89 31 -100 35 -11 5 -33 12 -50 16 -40 10 -32 8 -100 28
-122 37 -403 104 -505 121 -19 3 -57 10 -85 15 -60 11 -121 21 -155 25 -14 1
-43 5 -65 8 -56 9 -110 16 -180 22 -33 3 -76 8 -95 10 -32 4 -74 7 -275 22
-115 9 -5808 11 -5838 2z m5368 -2962 c17 -3 62 -8 100 -12 39 -4 79 -9 90
-11 11 -2 36 -6 55 -10 247 -40 505 -138 688 -261 360 -242 607 -679 667
-1178 4 -27 9 -61 12 -75 12 -61 11 -481 -2 -600 -21 -189 -24 -203 -61 -349
-94 -372 -262 -640 -519 -830 -130 -95 -204 -137 -341 -191 -76 -30 -261 -86
-319 -96 -16 -2 -55 -9 -85 -14 -234 -41 -293 -42 -1386 -43 -727 0 -1010 4
-1036 12 -19 6 -48 26 -65 44 -63 67 -59 -52 -58 1797 1 1855 -4 1708 61 1773
53 54 32 53 1141 50 565 -1 1042 -4 1058 -6z"/>
<path d="M39584 14660 c-44 -20 -88 -63 -102 -100 -6 -16 -10 -405 -10 -1011
0 -967 0 -986 -20 -1025 -25 -48 -46 -68 -97 -90 -37 -16 -252 -17 -2995 -18
-2771 -1 -2957 -2 -2986 -18 -42 -23 -81 -71 -94 -116 -8 -26 -10 -280 -8
-823 l3 -785 27 -41 c17 -25 44 -49 73 -63 l46 -22 2948 0 c2797 0 2951 -1
2987 -18 51 -23 80 -52 100 -98 14 -33 16 -148 16 -1032 0 -937 1 -997 18
-1030 10 -19 29 -44 42 -55 57 -50 55 -50 663 -50 314 -1 588 3 610 8 54 11
103 51 126 101 18 40 19 133 19 3104 0 2423 -3 3067 -13 3085 -20 36 -60 78
-92 95 -27 15 -91 17 -626 18 -551 2 -600 0 -635 -16z"/>
<path d="M36967 7764 c-1 -1 -63 -5 -137 -9 -74 -3 -148 -8 -163 -10 -15 -2
-60 -6 -100 -10 -40 -4 -108 -13 -152 -20 -44 -7 -100 -16 -125 -20 -67 -9
-252 -51 -355 -80 -49 -14 -97 -27 -105 -29 -49 -12 -305 -105 -380 -138 -260
-116 -397 -190 -615 -333 -123 -81 -231 -159 -300 -216 -213 -177 -389 -351
-534 -529 -73 -91 -70 -87 -132 -170 -203 -277 -384 -618 -501 -944 -78 -217
-158 -529 -183 -716 -3 -25 -8 -52 -10 -60 -2 -8 -7 -44 -10 -80 -4 -36 -8
-80 -10 -99 -23 -191 -23 -662 0 -841 2 -19 7 -57 10 -85 5 -47 14 -111 20
-145 1 -8 6 -35 10 -60 15 -95 21 -122 55 -265 35 -147 108 -380 150 -480 66
-158 147 -335 162 -354 10 -13 18 -28 18 -33 0 -14 115 -210 188 -322 146
-223 272 -377 477 -581 533 -534 1208 -894 1960 -1044 154 -31 169 -33 280
-46 28 -4 57 -8 65 -10 8 -2 58 -7 110 -11 52 -3 115 -8 140 -10 54 -4 492 -4
570 0 104 6 280 25 383 41 17 3 46 7 62 10 55 7 199 36 260 52 33 8 71 17 85
19 62 11 338 101 465 151 121 48 421 190 450 212 5 5 37 23 70 41 102 56 324
207 440 299 687 545 1156 1310 1340 2183 9 40 18 89 21 108 3 19 7 46 10 60 2
14 6 34 8 45 2 11 7 49 11 85 4 36 9 73 11 83 19 102 27 678 11 852 -10 107
-15 151 -22 185 -2 14 -7 50 -10 80 -3 30 -8 62 -10 70 -2 8 -7 31 -10 50 -3
19 -8 42 -10 50 -2 8 -7 30 -10 47 -15 89 -74 307 -118 438 -109 321 -252 611
-446 905 -30 47 -61 92 -68 100 -6 8 -35 47 -64 85 -549 734 -1441 1273 -2364
1430 -153 26 -186 31 -280 40 -38 4 -83 9 -100 11 -80 9 -510 24 -518 18z
m448 -1907 c22 -3 56 -7 75 -10 19 -3 55 -9 80 -12 664 -92 1222 -460 1494
-985 46 -89 119 -266 132 -320 2 -8 14 -62 28 -120 23 -98 28 -127 41 -227 21
-165 21 -409 1 -588 -9 -72 -37 -239 -43 -248 -2 -4 -6 -18 -9 -31 -2 -13 -14
-55 -26 -92 -12 -38 -22 -71 -23 -74 -1 -3 -7 -18 -13 -33 -7 -16 -12 -30 -12
-33 0 -2 -21 -48 -46 -102 -221 -462 -646 -812 -1182 -971 -95 -28 -273 -68
-342 -77 -19 -3 -46 -7 -60 -9 -14 -3 -61 -7 -105 -11 -44 -3 -96 -8 -115 -10
-123 -13 -477 -1 -635 22 -16 2 -46 6 -65 8 -19 3 -60 10 -90 15 -30 6 -65 13
-78 16 -13 2 -32 7 -42 10 -10 3 -28 8 -39 10 -12 2 -61 16 -109 31 -600 183
-1061 614 -1247 1169 -183 542 -134 1223 121 1686 49 90 138 221 188 279 54
62 210 215 251 245 22 17 42 32 45 36 10 11 136 95 197 131 114 67 356 173
443 193 8 2 67 17 130 33 64 17 138 33 165 36 27 4 51 9 54 11 6 3 78 11 195
21 27 2 51 6 54 8 5 5 535 -2 587 -7z"/>
</g>
</svg>
