<?xml version="1.0" standalone="no"?>
<!DOCTYPE svg PUBLIC "-//W3C//DTD SVG 20010904//EN"
 "http://www.w3.org/TR/2001/REC-SVG-20010904/DTD/svg10.dtd">
<svg version="1.0" xmlns="http://www.w3.org/2000/svg"
 width="512.000000pt" height="512.000000pt" viewBox="0 0 512.000000 512.000000"
 preserveAspectRatio="xMidYMid meet">
<metadata>
Created by potrace 1.14, written by Peter Selinger 2001-2017
</metadata>
<g transform="translate(0.000000,512.000000) scale(0.100000,-0.100000)"
fill="#000000" stroke="none">
<path d="M1110 5060 c-25 -5 -58 -10 -75 -13 -45 -7 -152 -36 -183 -49 -281
-117 -466 -268 -599 -488 -78 -129 -140 -307 -159 -456 -19 -150 1 -375 47
-514 67 -206 217 -426 366 -537 21 -15 40 -31 43 -34 13 -17 167 -103 231
-130 68 -28 176 -59 259 -74 74 -14 276 -14 365 0 451 71 812 406 931 865 24
91 28 125 28 255 1 149 -3 199 -23 285 -61 269 -238 530 -469 694 -123 88
-306 164 -461 191 -82 14 -228 16 -301 5z"/>
<path d="M3808 5065 c-2 -2 -25 -6 -53 -9 -121 -13 -310 -79 -430 -149 -284
-166 -472 -426 -551 -762 -22 -96 -26 -324 -7 -440 45 -281 203 -547 425 -717
199 -152 416 -227 668 -233 142 -4 257 12 381 51 370 117 666 438 763 829 40
159 40 385 2 540 -26 105 -84 246 -133 323 -18 29 -33 54 -33 57 0 13 -142
176 -192 220 -213 190 -475 293 -745 293 -50 0 -93 -1 -95 -3z"/>
<path d="M1188 2365 c-2 -1 -31 -6 -65 -9 -305 -32 -614 -208 -811 -461 -105
-136 -195 -359 -217 -541 -13 -104 -9 -290 9 -379 86 -433 409 -782 825 -890
103 -26 140 -30 311 -30 129 0 182 4 245 19 92 23 84 21 110 30 150 56 200
101 227 201 21 76 -15 165 -109 271 -16 17 -47 53 -70 80 -23 27 -51 60 -63
74 -12 14 -40 47 -63 74 -23 27 -57 65 -75 85 -39 43 -72 102 -72 131 0 41 27
86 61 102 29 13 86 15 394 13 409 -2 439 1 492 58 58 64 65 142 24 298 -68
263 -242 513 -468 669 -39 28 -76 50 -81 50 -6 0 -12 3 -14 8 -12 28 -250 114
-366 132 -66 10 -218 20 -224 15z"/>
<path d="M3775 2354 c-454 -63 -823 -363 -964 -783 -42 -126 -55 -206 -55
-361 -1 -137 6 -213 25 -285 6 -22 12 -44 13 -50 6 -32 43 -126 76 -194 132
-271 361 -472 645 -570 143 -49 219 -60 410 -56 177 3 242 14 378 65 161 60
230 195 167 325 -13 28 -26 52 -30 55 -3 3 -13 15 -22 28 -8 12 -31 39 -49 60
-19 20 -75 84 -124 142 -50 58 -95 111 -102 118 -76 80 -114 152 -105 197 2
13 17 38 32 57 l28 33 398 0 399 0 48 28 c82 48 105 121 80 257 -40 222 -158
439 -333 610 -110 107 -101 101 -194 159 -226 142 -475 199 -721 165z"/>
</g>
</svg>
