<?xml version="1.0" standalone="no"?>
<!DOCTYPE svg PUBLIC "-//W3C//DTD SVG 20010904//EN"
 "http://www.w3.org/TR/2001/REC-SVG-20010904/DTD/svg10.dtd">
<svg version="1.0" xmlns="http://www.w3.org/2000/svg"
 width="700.000000pt" height="700.000000pt" viewBox="0 0 700.000000 700.000000"
 preserveAspectRatio="xMidYMid meet">
<metadata>
Created by potrace 1.14, written by Peter Selinger 2001-2017
</metadata>
<g transform="translate(0.000000,700.000000) scale(0.100000,-0.100000)"
fill="#000000" stroke="none">
<path d="M1509 6376 c0 -6 -2 -18 -4 -26 -46 -204 -131 -590 -155 -700 -17
-80 -37 -172 -45 -205 -27 -114 -120 -539 -131 -595 -3 -14 -7 -33 -10 -42 -3
-10 -8 -30 -10 -45 -3 -16 -10 -48 -15 -73 -6 -25 -12 -54 -15 -65 -2 -11 -36
-164 -75 -340 -39 -176 -73 -331 -75 -345 -3 -14 -9 -41 -14 -60 -5 -19 -12
-48 -14 -65 -8 -43 -12 -62 -31 -140 -9 -38 -19 -83 -21 -100 -3 -16 -7 -36
-9 -43 -4 -11 -144 -642 -160 -721 -2 -9 -8 -36 -14 -61 -5 -24 -8 -46 -6 -48
3 -3 580 -5 686 -3 23 1 26 6 41 84 9 45 31 147 48 227 17 80 33 156 36 170 3
14 18 86 34 160 16 74 31 146 34 160 2 14 20 100 40 192 20 92 38 179 40 193
3 14 7 33 10 43 3 9 7 28 10 42 7 44 57 284 66 320 5 19 12 50 15 68 5 29 31
154 40 192 2 8 13 62 25 120 12 58 24 114 26 125 3 11 7 31 10 45 3 14 7 32 9
40 2 8 7 31 10 50 3 19 13 64 21 100 8 36 20 88 25 115 6 28 12 59 15 70 2 11
6 31 9 45 16 81 29 130 35 130 3 0 23 -78 44 -172 21 -95 46 -207 56 -248 11
-41 21 -86 24 -100 2 -14 14 -68 26 -120 12 -52 24 -106 26 -120 3 -14 9 -41
14 -61 10 -36 117 -504 126 -549 3 -14 16 -72 30 -129 13 -57 27 -117 30 -135
3 -17 16 -77 30 -132 13 -56 24 -105 24 -108 0 -3 -130 -6 -290 -6 -159 0
-290 -1 -290 -2 0 -2 -13 -66 -29 -143 -16 -77 -27 -142 -25 -144 7 -7 1466
-7 1470 0 2 4 -19 96 -47 205 -76 302 -120 477 -124 494 -2 8 -17 71 -35 140
-18 69 -34 133 -36 143 -2 9 -6 25 -8 35 -3 9 -86 341 -186 737 -100 396 -183
727 -185 735 -14 61 -164 648 -169 661 -6 14 -59 16 -481 16 -349 1 -475 -2
-476 -11z"/>
<path d="M4260 6382 c-14 -1 -60 -12 -102 -23 -250 -63 -456 -243 -580 -509
-74 -159 -128 -377 -143 -575 -2 -38 -8 -115 -12 -170 -9 -138 -10 -748 0
-870 62 -784 307 -1172 827 -1315 105 -29 295 -59 425 -67 198 -14 658 -7 800
12 17 2 59 6 95 9 36 4 74 8 85 11 11 2 35 4 53 4 l32 1 0 1749 0 1749 -727
-1 c-401 -1 -739 -3 -753 -5z m670 -526 c19 -4 42 -9 51 -12 14 -4 16 -116 16
-1209 0 -1095 -2 -1205 -16 -1206 -50 -4 -194 3 -246 11 -108 18 -119 20 -190
41 -93 28 -148 54 -221 105 -107 75 -156 155 -198 319 -27 110 -61 296 -71
390 -4 33 -9 71 -11 85 -22 128 -21 593 1 707 2 12 7 43 10 70 23 160 82 333
148 431 93 139 275 247 451 268 22 3 42 7 43 8 6 6 200 -1 233 -8z"/>
<path d="M1666 2640 c-6 -20 -17 -70 -22 -95 -2 -11 -10 -54 -19 -95 -8 -41
-16 -86 -19 -100 -2 -14 -16 -83 -30 -155 -14 -71 -27 -141 -30 -155 -7 -41
-86 -439 -101 -515 -8 -38 -17 -85 -20 -103 -18 -107 -43 -206 -46 -176 -2 22
-11 66 -35 169 -14 61 -28 120 -30 132 -2 12 -22 100 -44 195 -21 95 -41 184
-44 198 -2 14 -14 67 -25 117 -12 51 -21 97 -21 101 0 5 27 8 59 6 l60 -2 22
94 c13 51 20 96 17 100 -5 4 -497 8 -621 5 -13 -1 -17 -6 -12 -20 3 -11 8 -28
10 -38 4 -19 144 -572 226 -893 28 -107 52 -202 54 -210 6 -25 82 -327 111
-442 l28 -108 257 0 258 0 10 38 c5 20 12 51 15 67 7 42 13 71 46 230 23 111
74 361 106 520 2 11 39 198 83 415 44 217 82 406 84 420 3 14 8 36 11 50 3 14
8 36 10 50 3 14 11 57 20 95 8 39 17 82 19 96 l5 25 -194 0 c-167 0 -195 -2
-198 -16z"/>
<path d="M2189 2656 c-1 -1 -2 -67 -3 -148 l-2 -146 311 -1 c170 0 334 0 363
-1 l52 0 0 -259 0 -259 -317 0 c-175 0 -326 -1 -335 -1 -16 -1 -18 -15 -18
-154 l0 -154 343 0 342 0 1 -276 c0 -243 -2 -277 -15 -281 -9 -3 -146 -5 -306
-5 -159 0 -323 0 -362 0 l-73 -1 0 -153 0 -153 560 0 560 0 0 996 0 996 -550
0 c-302 0 -551 0 -551 0z"/>
<path d="M3446 2650 c-1 -3 -2 -450 -2 -995 l1 -990 223 -1 222 0 0 35 c0 20
1 222 1 448 l0 413 25 6 c14 4 67 4 118 2 70 -4 106 -11 147 -30 112 -51 155
-126 174 -298 3 -30 8 -80 12 -110 3 -30 6 -147 6 -260 l0 -205 213 0 c117 0
215 3 218 6 3 3 -4 30 -15 60 -42 110 -53 187 -64 459 -5 138 -28 287 -50 329
-23 45 -86 95 -174 140 -82 40 -82 41 -54 51 89 33 168 106 216 202 49 98 67
186 64 328 -2 108 -4 120 -35 182 -39 80 -102 140 -187 178 -117 53 -127 54
-608 55 -247 0 -450 -2 -451 -5z m746 -264 c143 -69 166 -339 43 -484 -50 -58
-124 -84 -235 -84 -47 1 -93 3 -104 5 -17 3 -19 19 -20 290 -1 183 3 288 9
291 6 2 69 3 140 2 102 -1 138 -6 167 -20z"/>
<path d="M5686 2633 c-1 -1 -46 -3 -101 -4 -208 -4 -317 -33 -378 -103 -49
-56 -65 -149 -61 -347 6 -247 50 -300 284 -345 19 -3 133 -7 254 -8 382 -5
506 32 557 162 20 51 22 76 23 237 0 146 -3 190 -18 232 -41 122 -162 169
-449 175 -60 2 -110 2 -111 1z m303 -241 c80 -25 96 -52 96 -161 0 -126 -15
-148 -122 -171 -47 -11 -434 -14 -493 -4 -120 20 -142 47 -142 172 1 107 13
134 75 156 63 23 66 23 307 24 183 0 235 -3 279 -16z"/>
<path d="M5160 1303 l0 -413 93 0 93 0 -1 138 c-1 75 1 143 3 150 3 9 103 12
453 12 l449 0 0 115 0 115 -452 2 -453 3 -1 135 c-1 74 -2 140 -3 146 0 6 -34
10 -91 10 l-90 -1 0 -412z"/>
</g>
</svg>
