<svg width="16" height="16" viewBox="0 0 16 16" fill="none" xmlns="http://www.w3.org/2000/svg">
<path fill-rule="evenodd" clip-rule="evenodd" d="M5.11301 1.33286H10.893C13.153 1.33286 14.6663 2.91952 14.6663 5.27952V10.7269C14.6663 13.0802 13.153 14.6662 10.893 14.6662H5.11301C2.85301 14.6662 1.33301 13.0802 1.33301 10.7269V5.27952C1.33301 2.91952 2.85301 1.33286 5.11301 1.33286ZM10.0064 9.99966C10.233 9.77366 10.233 9.40699 10.0064 9.18033L8.8197 7.99366L10.0064 6.80632C10.233 6.58033 10.233 6.20699 10.0064 5.98032C9.7797 5.75299 9.41303 5.75299 9.1797 5.98032L7.9997 7.16633L6.81303 5.98032C6.5797 5.75299 6.21303 5.75299 5.98637 5.98032C5.7597 6.20699 5.7597 6.58033 5.98637 6.80632L7.17303 7.99366L5.98637 9.17366C5.7597 9.40699 5.7597 9.77366 5.98637 9.99966C6.0997 10.113 6.25303 10.1737 6.3997 10.1737C6.55303 10.1737 6.6997 10.113 6.81303 9.99966L7.9997 8.82032L9.18637 9.99966C9.2997 10.1203 9.44637 10.1737 9.59303 10.1737C9.74637 10.1737 9.89303 10.113 10.0064 9.99966Z" fill="#7210FF"/>
</svg>
