<svg width="17" height="17" viewBox="0 0 17 17" fill="none" xmlns="http://www.w3.org/2000/svg">
<path fill-rule="evenodd" clip-rule="evenodd" d="M12.8891 4.2045C12.9748 4.53868 13.0096 4.87357 13.0431 5.19635L13.0744 5.48992C13.125 5.90316 13.1542 6.99836 13.1621 8.20079C13.531 8.4179 13.7801 8.81832 13.7826 9.27512C13.7851 9.74027 13.5311 10.1442 13.1533 10.3544C13.1397 11.2221 13.1134 11.9485 13.0744 12.2697L13.0431 12.574L13.0425 12.5797L13.0425 12.5797V12.5797C13.0127 12.885 12.9819 13.201 12.894 13.538C12.6605 14.3354 12.0383 14.8527 11.3318 14.8527C11.3095 14.8527 11.2872 14.8527 11.2621 14.852C10.872 14.852 10.4476 14.6125 10.2073 14.4038L7.86405 12.4521H5.33337C4.40459 12.4521 3.72455 11.7802 3.60123 10.7406C3.45909 9.70102 3.48696 7.91754 3.60123 6.97271C3.7357 5.9887 4.44779 5.3068 5.33337 5.3068H7.86405L10.1627 3.38366C10.44 3.14282 10.9291 2.90483 11.3158 2.90626C12.0091 2.90626 12.6557 3.40503 12.8891 4.2045ZM7.22145 14.4545C7.22145 14.0146 7.57802 13.658 8.01788 13.658C8.45773 13.658 8.81431 14.0146 8.81431 14.4545V16.0473C8.81431 16.4872 8.45773 16.8438 8.01788 16.8438C7.57802 16.8438 7.22145 16.4872 7.22145 16.0473V14.4545ZM7.61966 8.87946C7.39974 8.87946 7.22145 9.05775 7.22145 9.27768V11.667C7.22145 11.8869 7.39974 12.0652 7.61966 12.0652C7.83959 12.0652 8.01788 11.8869 8.01788 11.667V9.27768C8.01788 9.05775 7.83959 8.87946 7.61966 8.87946Z" fill="white"/>
</svg>
