<svg width="24" height="24" viewBox="0 0 24 24" fill="none" xmlns="http://www.w3.org/2000/svg">
<path fill-rule="evenodd" clip-rule="evenodd" d="M10.4285 6.77141C9.72382 6.77141 9.04797 7.05136 8.54967 7.54967C8.05136 8.04798 7.77141 8.72382 7.77141 9.42854V12.9714C7.77141 14.1459 8.23799 15.2723 9.0685 16.1028C9.89901 16.9333 11.0254 17.3999 12.2 17.3999C13.3745 17.3999 14.5009 16.9333 15.3314 16.1028C16.1619 15.2723 16.6285 14.1459 16.6285 12.9714V9.42854C16.6285 9.19363 16.7218 8.96835 16.8879 8.80225C17.054 8.63615 17.2793 8.54283 17.5142 8.54283C17.7491 8.54283 17.9744 8.63615 18.1405 8.80225C18.3066 8.96835 18.3999 9.19363 18.3999 9.42854V12.9714C18.3999 13.7856 18.2395 14.5918 17.928 15.344C17.6164 16.0962 17.1597 16.7797 16.584 17.3554C16.0083 17.9311 15.3248 18.3878 14.5726 18.6994C13.8204 19.011 13.0141 19.1713 12.2 19.1713C11.3858 19.1713 10.5795 19.011 9.82733 18.6994C9.07512 18.3878 8.39164 17.9311 7.81592 17.3554C7.2402 16.7797 6.78352 16.0962 6.47194 15.344C6.16037 14.5918 6 13.7856 6 12.9714V9.42854C6 8.25402 6.46658 7.1276 7.29709 6.29709C8.1276 5.46658 9.25402 5 10.4285 5C11.6031 5 12.7295 5.46658 13.56 6.29709C14.3905 7.1276 14.8571 8.25402 14.8571 9.42854V12.9714C14.8571 13.6761 14.5771 14.3519 14.0788 14.8502C13.5805 15.3485 12.9047 15.6285 12.2 15.6285C11.4952 15.6285 10.8194 15.3485 10.3211 14.8502C9.82278 14.3519 9.54283 13.6761 9.54283 12.9714V9.42854C9.54283 9.19363 9.63614 8.96835 9.80225 8.80225C9.96835 8.63615 10.1936 8.54283 10.4285 8.54283C10.6634 8.54283 10.8887 8.63615 11.0548 8.80225C11.2209 8.96835 11.3142 9.19363 11.3142 9.42854V12.9714C11.3142 13.2063 11.4076 13.4316 11.5737 13.5977C11.7398 13.7638 11.965 13.8571 12.2 13.8571C12.4349 13.8571 12.6601 13.7638 12.8262 13.5977C12.9923 13.4316 13.0857 13.2063 13.0857 12.9714V9.42854C13.0857 8.72382 12.8057 8.04798 12.3074 7.54967C11.8091 7.05136 11.1332 6.77141 10.4285 6.77141Z" fill="#BDBDBD"/>
</svg>
