<svg width="16" height="16" viewBox="0 0 16 16" fill="none" xmlns="http://www.w3.org/2000/svg">
<g clip-path="url(#clip0_1654_36740)">
<path d="M11.2517 3.80159C10.9909 3.54267 10.5698 3.54341 10.31 3.80325L4.04056 10.0727C3.86714 10.2461 3.58602 10.2463 3.4124 10.0731L1.41028 8.07574C1.15046 7.81654 0.729791 7.81679 0.470281 8.0763C0.210552 8.33603 0.210552 8.75714 0.470282 9.01687L3.09813 11.6447C3.44526 11.9918 4.00807 11.9918 4.35521 11.6447L11.2533 4.74659C11.5145 4.48544 11.5137 4.06181 11.2517 3.80159Z" fill="#7210FF"/>
<path d="M15.7566 3.80169C15.4958 3.54275 15.0747 3.54358 14.8149 3.80356L8.62788 9.99598C8.45483 10.1692 8.1743 10.1698 8.00048 9.99739L7.82412 9.82245C7.73724 9.73627 7.59703 9.73655 7.51049 9.82309L6.82205 10.5115C6.73608 10.5975 6.73516 10.7366 6.81998 10.8237L7.60307 11.6279C7.94878 11.9829 8.51805 11.9867 8.86845 11.6363L15.7583 4.74649C16.0194 4.4854 16.0186 4.06186 15.7566 3.80169Z" fill="#7210FF"/>
</g>
<defs>
<clipPath id="clip0_1654_36740">
<rect width="16" height="16" fill="white"/>
</clipPath>
</defs>
</svg>
