<svg width="14" height="14" viewBox="0 0 14 14" fill="none" xmlns="http://www.w3.org/2000/svg">
<path d="M1.86573 0.58409C1.69769 0.421793 1.47263 0.331988 1.23902 0.334018C1.00541 0.336048 0.781947 0.42975 0.616754 0.594943C0.451561 0.760136 0.357859 0.983601 0.355829 1.21721C0.353799 1.45082 0.443603 1.67588 0.6059 1.84392L5.75124 6.98926L0.60501 12.1346C0.519913 12.2168 0.452037 12.3151 0.405342 12.4238C0.358648 12.5325 0.334069 12.6494 0.333041 12.7677C0.332013 12.886 0.354556 13.0033 0.399355 13.1128C0.444154 13.2223 0.510311 13.3218 0.593966 13.4055C0.677621 13.4891 0.7771 13.5553 0.886597 13.6001C0.996093 13.6449 1.11342 13.6674 1.23172 13.6664C1.35002 13.6654 1.46693 13.6408 1.57563 13.5941C1.68434 13.5474 1.78265 13.4795 1.86484 13.3944L7.01107 8.24909L12.1564 13.3944C12.3244 13.5567 12.5495 13.6465 12.7831 13.6445C13.0167 13.6425 13.2402 13.5488 13.4054 13.3836C13.5706 13.2184 13.6643 12.9949 13.6663 12.7613C13.6683 12.5277 13.5785 12.3026 13.4162 12.1346L8.2709 6.98926L13.4162 1.84392C13.5785 1.67588 13.6683 1.45082 13.6663 1.21721C13.6643 0.983601 13.5706 0.760136 13.4054 0.594943C13.2402 0.42975 13.0167 0.336048 12.7831 0.334018C12.5495 0.331988 12.3244 0.421793 12.1564 0.58409L7.01107 5.72943L1.86573 0.583199V0.58409Z" fill="#6C859F"/>
</svg>
