<svg width="16" height="16" viewBox="0 0 16 16" fill="none" xmlns="http://www.w3.org/2000/svg">
<path fill-rule="evenodd" clip-rule="evenodd" d="M5.11301 1.33282H10.893C13.153 1.33282 14.6663 2.91949 14.6663 5.27949V10.7268C14.6663 13.0802 13.153 14.6662 10.893 14.6662H5.11301C2.85301 14.6662 1.33301 13.0802 1.33301 10.7268V5.27949C1.33301 2.91949 2.85301 1.33282 5.11301 1.33282ZM10.0064 9.99963C10.233 9.77363 10.233 9.40696 10.0064 9.18029L8.8197 7.99363L10.0064 6.80629C10.233 6.58029 10.233 6.20696 10.0064 5.98029C9.7797 5.75296 9.41303 5.75296 9.1797 5.98029L7.9997 7.16629L6.81303 5.98029C6.5797 5.75296 6.21303 5.75296 5.98637 5.98029C5.7597 6.20696 5.7597 6.58029 5.98637 6.80629L7.17303 7.99363L5.98637 9.17363C5.7597 9.40696 5.7597 9.77363 5.98637 9.99963C6.0997 10.113 6.25303 10.1736 6.3997 10.1736C6.55303 10.1736 6.6997 10.113 6.81303 9.99963L7.9997 8.82029L9.18637 9.99963C9.2997 10.1203 9.44637 10.1736 9.59303 10.1736C9.74637 10.1736 9.89303 10.113 10.0064 9.99963Z" fill="#9E9E9E"/>
</svg>
