<svg width="24" height="24" viewBox="0 0 24 24" fill="none" xmlns="http://www.w3.org/2000/svg">
<path fill-rule="evenodd" clip-rule="evenodd" d="M8.17381 2.54893C8.36956 2.17993 8.759 1.97716 9.15233 2.00205C9.28344 2.01035 9.41405 2.04432 9.53905 2.10557L12 3.30674L14.4609 2.10557C14.9609 1.86057 15.5642 2.05793 15.8242 2.54893L17.1074 4.96689L19.8047 5.43955C20.3537 5.53655 20.7284 6.04966 20.6504 6.60166L20.2676 9.3126L22.1719 11.2813C22.5589 11.6823 22.5588 12.3188 22.1738 12.7188L20.2695 14.6856L20.6523 17.3966C20.7303 17.9486 20.3556 18.4646 19.8066 18.5606L17.1094 19.0333L15.8262 21.4513C15.5642 21.9433 14.9619 22.1396 14.4609 21.8946L12 20.6935L9.541 21.8966C9.04 22.1416 8.43481 21.9433 8.17381 21.4513L6.89061 19.0333L4.19334 18.5606C3.64434 18.4636 3.27159 17.9505 3.34959 17.3985L3.73241 14.6876L1.82811 12.7188C1.44011 12.3178 1.44011 11.6823 1.82811 11.2813L3.73241 9.31455L3.34959 6.60361C3.27159 6.05161 3.64434 5.5375 4.19334 5.4415L6.89061 4.96885L8.17381 2.54893ZM8 15H9.00001V9H8V13L6 9H5V15H6V11L8 15ZM10 15H13V14.007L11 14V12.5H12.5V11.5H11V9.99H13V9H10V15ZM18 15C18.5523 15 19 14.5523 19 14V9H17.959V14H17.026V9.99H15.984V14.01H15.042V9H14V14.0016C14 14.5539 14.4477 15 15 15H18Z" fill="#7C7E83"/>
</svg>
