<svg width="24" height="24" viewBox="0 0 24 24" fill="none" xmlns="http://www.w3.org/2000/svg">
<path fill-rule="evenodd" clip-rule="evenodd" d="M9.50008 12.5536C12.2547 12.5536 14.4627 10.3169 14.4627 7.52672C14.4627 4.73651 12.2547 2.49988 9.50008 2.49988C6.74551 2.49988 4.53745 4.73651 4.53745 7.52672C4.53745 10.3169 6.74551 12.5536 9.50008 12.5536ZM9.5 15.0151C5.45422 15.0151 2 15.6619 2 18.2463C2 20.8297 5.4332 21.4999 9.5 21.4999C13.5448 21.4999 17 20.853 17 18.2686C17 15.6842 13.5668 15.0151 9.5 15.0151ZM22.0501 10.5001C22.0501 12.1777 20.6902 13.5376 19.0126 13.5376C17.335 13.5376 15.9751 12.1777 15.9751 10.5001C15.9751 8.82258 17.335 7.46265 19.0126 7.46265C20.6902 7.46265 22.0501 8.82258 22.0501 10.5001ZM17.3252 10.5157C17.3252 10.2378 17.5504 10.0125 17.8283 10.0125H20.1971C20.4749 10.0125 20.7002 10.2378 20.7002 10.5157C20.7002 10.7935 20.4749 11.0188 20.1971 11.0188H17.8283C17.5504 11.0188 17.3252 10.7935 17.3252 10.5157Z" fill="#212121"/>
</svg>
