<svg width="24" height="24" viewBox="0 0 24 24" fill="none" xmlns="http://www.w3.org/2000/svg">
  <path fill-rule="evenodd" clip-rule="evenodd" d="M9.50002 12.5536C12.2546 12.5536 14.4627 10.3169 14.4627 7.52672C14.4627 4.73651 12.2546 2.49988 9.50002 2.49988C6.74545 2.49988 4.53739 4.73651 4.53739 7.52672C4.53739 10.3169 6.74545 12.5536 9.50002 12.5536ZM9.49994 15.0151C5.45416 15.0151 1.99994 15.6619 1.99994 18.2463C1.99994 20.8297 5.43314 21.4999 9.49994 21.4999C13.5447 21.4999 16.9999 20.853 16.9999 18.2686C16.9999 15.6842 13.5667 15.0151 9.49994 15.0151ZM22.05 10.5001C22.05 12.1777 20.6901 13.5376 19.0125 13.5376C17.335 13.5376 15.975 12.1777 15.975 10.5001C15.975 8.82258 17.335 7.46265 19.0125 7.46265C20.6901 7.46265 22.05 8.82258 22.05 10.5001ZM17.3251 10.5157C17.3251 10.2378 17.5504 10.0125 17.8282 10.0125H20.197C20.4749 10.0125 20.7001 10.2378 20.7001 10.5157C20.7001 10.7935 20.4749 11.0188 20.197 11.0188H17.8282C17.5504 11.0188 17.3251 10.7935 17.3251 10.5157Z" />
</svg>
