<svg width="24" height="24" viewBox="0 0 24 24" fill="none" xmlns="http://www.w3.org/2000/svg">
<path fill-rule="evenodd" clip-rule="evenodd" d="M12.1707 13C12.5825 14.1652 13.6938 15 15 15C16.3062 15 17.4175 14.1652 17.8293 13H21V11H17.8293C17.4175 9.83481 16.3062 9 15 9C13.6938 9 12.5825 9.83481 12.1707 11H3V13H12.1707ZM14 12C14 12.5523 14.4477 13 15 13C15.5523 13 16 12.5523 16 12C16 11.4477 15.5523 11 15 11C14.4477 11 14 11.4477 14 12Z" fill="#7C7E83"/>
<path fill-rule="evenodd" clip-rule="evenodd" d="M11.8293 19C11.4175 20.1652 10.3062 21 9 21C7.69378 21 6.58254 20.1652 6.17071 19H3V17H6.17071C6.58254 15.8348 7.69378 15 9 15C10.3062 15 11.4175 15.8348 11.8293 17H21V19H11.8293ZM10 18C10 18.5523 9.55228 19 9 19C8.44772 19 8 18.5523 8 18C8 17.4477 8.44772 17 9 17C9.55228 17 10 17.4477 10 18Z" fill="#7C7E83"/>
<path fill-rule="evenodd" clip-rule="evenodd" d="M11.8293 7C11.4175 8.16519 10.3062 9 9 9C7.69378 9 6.58254 8.16519 6.17071 7H3V5H6.17071C6.58254 3.83481 7.69378 3 9 3C10.3062 3 11.4175 3.83481 11.8293 5H21V7H11.8293ZM10 6C10 6.55228 9.55228 7 9 7C8.44772 7 8 6.55228 8 6C8 5.44772 8.44772 5 9 5C9.55228 5 10 5.44772 10 6Z" fill="#7C7E83"/>
</svg>
