<svg width="24" height="24" viewBox="0 0 24 24" fill="none" xmlns="http://www.w3.org/2000/svg">
<path d="M8.8094 1.5C8.48625 1.49975 8.17167 1.60387 7.91247 1.79685C7.65327 1.98983 7.46332 2.26135 7.3709 2.571L4.5464 12.054C4.49641 12.2219 4.48633 12.3992 4.51696 12.5717C4.54759 12.7442 4.61809 12.9072 4.72284 13.0476C4.82759 13.188 4.96369 13.3021 5.1203 13.3806C5.27691 13.4592 5.4497 13.5 5.6249 13.5H7.9994L6.0794 20.0835C5.5034 22.0575 8.0654 23.3835 9.3464 21.7755L19.2569 9.3255C19.3888 9.15976 19.4712 8.96016 19.4947 8.74966C19.5181 8.53915 19.4817 8.3263 19.3896 8.13558C19.2974 7.94487 19.1533 7.78404 18.9738 7.6716C18.7943 7.55916 18.5867 7.49968 18.3749 7.5H15.3299L16.8209 3.5265C16.9059 3.29973 16.9347 3.05575 16.9049 2.81541C16.8751 2.57506 16.7876 2.34551 16.6498 2.14637C16.5119 1.94723 16.3279 1.78442 16.1135 1.67186C15.8991 1.5593 15.6606 1.50033 15.4184 1.5H8.8094Z" fill="#7210FF"/>
</svg>
