<svg width="32" height="32" viewBox="0 0 32 32" fill="none" xmlns="http://www.w3.org/2000/svg">
<circle cx="16" cy="16" r="16" fill="white"/>
<path fill-rule="evenodd" clip-rule="evenodd" d="M19.2082 9.08387C19.734 9.08387 20.259 9.15804 20.7582 9.32554C23.834 10.3255 24.9424 13.7005 24.0165 16.6505C23.4915 18.158 22.6332 19.5339 21.509 20.658C19.8999 22.2164 18.134 23.5997 16.2332 24.7914L16.0249 24.9172L15.8082 24.783C13.9007 23.5997 12.1249 22.2164 10.5007 20.6497C9.38402 19.5255 8.52485 18.158 7.99152 16.6505C7.04985 13.7005 8.15818 10.3255 11.2674 9.30804C11.509 9.22471 11.7582 9.16637 12.0082 9.13387H12.1082C12.3424 9.09971 12.5749 9.08387 12.8082 9.08387H12.8999C13.4249 9.09971 13.9332 9.19137 14.4257 9.35887H14.4749C14.5082 9.37471 14.5332 9.39221 14.5499 9.40804C14.734 9.46721 14.9082 9.53387 15.0749 9.62554L15.3915 9.76721C15.468 9.80802 15.5539 9.87037 15.6281 9.92426C15.6752 9.95841 15.7175 9.98916 15.7499 10.0089C15.7635 10.0169 15.7773 10.025 15.7912 10.0331C15.8627 10.0748 15.9371 10.1183 15.9999 10.1664C16.9257 9.45887 18.0499 9.07554 19.2082 9.08387ZM21.4249 15.0839C21.7665 15.0747 22.0582 14.8005 22.0832 14.4497V14.3505C22.1082 13.183 21.4007 12.1255 20.3249 11.7172C19.9832 11.5997 19.6082 11.7839 19.4832 12.1339C19.3665 12.4839 19.5499 12.8672 19.8999 12.9914C20.434 13.1914 20.7915 13.7172 20.7915 14.2997V14.3255C20.7757 14.5164 20.8332 14.7005 20.9499 14.8422C21.0665 14.9839 21.2415 15.0664 21.4249 15.0839Z" fill="#BDBDBD"/>
</svg>
