<svg fill="none" height="24" viewBox="0 0 24 24" width="24" xmlns="http://www.w3.org/2000/svg"><path clip-rule="evenodd" d="m11.9945 8.6462-1.507-1.48247c-.87308-.81375-1.77858-1.16373-2.75312-1.16373-2.03239 0-3.73438 1.68284-3.73438 3.80294 0 1.24266.20032 1.96376.81904 2.82376.73137 1.0166 2.06384 2.244 4.60996 4.2862l2.5711 2.0365 2.2463-1.777.9228-.7424c2.2747-1.8495 3.452-2.9811 4.0946-3.9215.5469-.8005.7362-1.5034.7362-2.70556 0-2.11321-1.691-3.79201-3.7146-3.80289l-.2246.00499c-.9141.04539-1.7583.40067-2.5602 1.15847zm.1165-2.9212c1.1279-1.07202 2.4295-1.65415 3.8808-1.71892l.2738-.00608c3.1572 0 5.7344 2.59865 5.7344 5.80294 0 3.00316-1.0353 4.49316-5.5731 8.18206l-.9332.7508-2.3641 1.8702c-.6641.5253-1.5951.5253-2.2592 0l-2.68798-2.1291c-5.05509-4.0541-6.18242-5.5403-6.18242-8.67396 0-3.20429 2.57716-5.80294 5.73438-5.80294 1.54022 0 2.92822.58469 4.13792 1.72042l.1217.11976z" fill="#7c7e83" fill-rule="evenodd"/></svg>