<svg width="24" height="24" viewBox="0 0 24 24" fill="none" xmlns="http://www.w3.org/2000/svg">
<path fill-rule="evenodd" clip-rule="evenodd" d="M12.1062 2C16.5895 2 20.2125 5.71002 20.2125 10.1062C20.2125 13.1871 18.22 16.7766 14.3386 21.017C14.2784 21.0828 14.2154 21.1458 14.1496 21.206C12.9167 22.3345 11.0024 22.2499 9.87389 21.017C5.99244 16.7766 4 13.1871 4 10.1062C4 5.71002 7.623 2 12.1062 2ZM12 7C10.344 7 9 8.344 9 10C9 11.656 10.344 13 12 13C13.656 13 15 11.656 15 10C15 8.344 13.656 7 12 7Z" fill="#7C7E83"/>
</svg>
