<svg width="18" height="18" viewBox="0 0 18 18" fill="none" xmlns="http://www.w3.org/2000/svg">
<path d="M12.793 11.2936C12.6054 11.1056 12.3508 11 12.0852 11H11.8265C11.7517 11 11.6799 10.971 11.6262 10.9192C11.5161 10.813 11.5085 10.6397 11.6033 10.5197C12.4791 9.4107 13 8.01273 13 6.5C13 2.91 10.09 0 6.5 0C2.91 0 0 2.91 0 6.5C0 10.09 2.91 13 6.5 13C8.01273 13 9.4107 12.4791 10.5197 11.6033C10.6397 11.5085 10.813 11.5161 10.9192 11.6262C10.971 11.6799 11 11.7517 11 11.8265V12.0852C11 12.3508 11.1056 12.6054 11.2936 12.793L15.2929 16.7843C15.6835 17.1742 16.3162 17.1738 16.7064 16.7836L16.7836 16.7064C17.1738 16.3162 17.1742 15.6835 16.7843 15.2929L12.793 11.2936ZM6.5 11C4.01 11 2 8.99 2 6.5C2 4.01 4.01 2 6.5 2C8.99 2 11 4.01 11 6.5C11 8.99 8.99 11 6.5 11Z" fill="#89A3BE"/>
</svg>
