<svg width="25" height="24" viewBox="0 0 25 24" fill="none" xmlns="http://www.w3.org/2000/svg">
<path d="M13.5 2C13.029 2 12.6357 2.36008 12.5977 2.83008L12.582 3.01953C12.5793 3.05251 12.593 3.08098 12.5938 3.11328C11.8101 3.29551 11.1196 3.70573 10.5879 4.27344C10.56 4.2564 10.5421 4.22909 10.5117 4.21484L10.3418 4.13477C9.9158 3.93377 9.40592 4.092 9.16992 4.5C8.93392 4.908 9.0505 5.42731 9.4375 5.69531L9.59375 5.80469C9.62369 5.82543 9.65813 5.82904 9.68945 5.8457C9.57799 6.21341 9.5 6.59591 9.5 7C9.5 7.40409 9.57799 7.78659 9.68945 8.1543C9.65813 8.17095 9.62369 8.17457 9.59375 8.19531L9.4375 8.30273C9.0505 8.57173 8.93392 9.092 9.16992 9.5C9.40592 9.908 9.9158 10.0662 10.3418 9.86523L10.5117 9.78516C10.542 9.77089 10.56 9.74359 10.5879 9.72656C11.1191 10.2938 11.8089 10.7043 12.5918 10.8867C12.591 10.919 12.5774 10.9475 12.5801 10.9805L12.5977 11.1699C12.6367 11.6399 13.029 12 13.5 12C13.971 12 14.3643 11.6399 14.4023 11.1699L14.418 10.9805C14.4207 10.9475 14.407 10.919 14.4062 10.8867C15.1899 10.7045 15.8804 10.2943 16.4121 9.72656C16.44 9.74366 16.4579 9.77084 16.4883 9.78516L16.6582 9.86719C17.0842 10.0682 17.5941 9.90995 17.8301 9.50195C18.0661 9.09395 17.9495 8.57369 17.5625 8.30469L17.4062 8.19531C17.3763 8.17457 17.3419 8.17096 17.3105 8.1543C17.422 7.78659 17.5 7.40409 17.5 7C17.5 6.59591 17.422 6.21341 17.3105 5.8457C17.3419 5.82905 17.3763 5.82543 17.4062 5.80469L17.5625 5.69727C17.9495 5.42827 18.0661 4.908 17.8301 4.5C17.5941 4.092 17.0842 3.93377 16.6582 4.13477L16.4883 4.21484C16.458 4.22911 16.44 4.25641 16.4121 4.27344C15.8809 3.70617 15.1911 3.29573 14.4082 3.11328C14.409 3.08098 14.4226 3.05251 14.4199 3.01953L14.4023 2.83008C14.3633 2.36008 13.971 2 13.5 2ZM13.5 5.5C14.328 5.5 15 6.172 15 7C15 7.828 14.328 8.5 13.5 8.5C12.672 8.5 12 7.828 12 7C12 6.172 12.672 5.5 13.5 5.5ZM21.0859 12C20.7239 12 20.3619 12.1381 20.0859 12.4141L15.5 17H11.5C11.224 17 11 16.776 11 16.5C11 16.224 11.224 16 11.5 16H13.5C14.605 16 15.5 15.105 15.5 14V13H9.15625C8.09525 13 7.07812 13.4209 6.32812 14.1719L2.5 18L6.5 22L8.5 20H15.6719C16.2019 20 16.7109 19.7891 17.0859 19.4141L22.0859 14.4141C22.6379 13.8621 22.6379 12.9661 22.0859 12.4141C21.8099 12.1381 21.4479 12 21.0859 12Z" fill="#7C7E83"/>
</svg>
