<svg width="16" height="16" viewBox="0 0 16 16" fill="none" xmlns="http://www.w3.org/2000/svg">
<path d="M3.66536 1.3335L3.45703 1.60433L1.5612 4.12516C1.54557 4.13818 1.53255 4.1512 1.51953 4.16683C1.47005 4.21631 1.42839 4.271 1.39453 4.3335C1.37891 4.35954 1.36589 4.38818 1.35286 4.41683L1.33203 4.43766C1.33203 4.44548 1.33203 4.45068 1.33203 4.4585C1.29297 4.5887 1.29297 4.72412 1.33203 4.85433V6.771L1.3737 6.87516L1.97786 8.66683L1.3737 10.4585L1.33203 10.5627V14.6668H4.76953L9.3112 14.021L11.1237 14.6252L11.2279 14.6668H14.6654V11.896L14.6237 11.771L13.8945 9.72933L14.6237 7.54183L14.6654 7.43766V4.79183C14.6706 4.75016 14.6706 4.7085 14.6654 4.66683V4.5835C14.6654 4.56266 14.6654 4.54183 14.6654 4.521V4.43766L14.6237 4.396C14.6107 4.36735 14.5977 4.3387 14.582 4.31266L14.5612 4.29183C14.5534 4.28402 14.5482 4.27881 14.5404 4.271L14.5195 4.22933C14.5117 4.22152 14.5065 4.21631 14.4987 4.2085L12.5404 1.60433L12.332 1.3335H3.66536ZM4.33203 2.66683H7.95703L7.29036 4.00016H3.33203L4.33203 2.66683ZM8.70703 2.66683H11.6654L12.6654 4.00016H8.04036L8.70703 2.66683ZM2.66536 5.3335H13.332V7.25016L12.5612 9.521L12.4987 9.72933L12.5612 9.9585L13.332 12.1043V13.3335H11.4154L9.54037 12.7085L9.39453 12.646H9.3737L7.54036 12.0418L7.22786 12.9585L4.5612 13.3335H2.66536V10.7502L3.29036 8.87516L3.3737 8.66683L3.29036 8.4585L2.66536 6.5835V5.3335ZM6.66536 6.00016V7.3335H9.9987V6.00016H6.66536Z"/>
</svg>
