<svg width="24" height="24" viewBox="0 0 24 24" fill="none" xmlns="http://www.w3.org/2000/svg">
<path fill-rule="evenodd" clip-rule="evenodd" d="M19.7575 4.05655C19.2345 3.57179 17.1169 2.03457 12.4032 2.01544C12.4032 2.01544 6.8412 1.67739 4.11122 4.16498C2.59953 5.67667 2.07012 7.8836 2.01272 10.62C1.95531 13.3563 1.88515 18.4846 6.82844 19.8751V21.9991C6.82844 21.9991 6.82844 22.8602 7.36423 23.0324C7.93072 23.2124 8.30386 22.7904 8.79003 22.2405L8.79005 22.2404L8.7901 22.2404L8.79031 22.2401C8.88978 22.1276 8.99398 22.0098 9.10554 21.8906C9.46273 21.5016 9.96025 20.9339 10.3302 20.5002C12.4333 20.6966 14.5545 20.5414 16.6066 20.0409C16.6683 20.0207 16.7561 19.9983 16.8652 19.9705C17.9619 19.6908 21.2115 18.8621 21.7859 14.1919C22.4556 8.90416 21.4925 5.56186 19.7575 4.05655ZM20.3316 13.8155C19.8494 17.6676 17.2642 18.2697 16.3336 18.4865C16.2303 18.5105 16.1473 18.5299 16.0899 18.5483C14.3243 18.9836 12.5015 19.1407 10.6874 19.014C10.6874 19.014 8.54424 21.5653 7.8745 22.267C7.83724 22.311 7.79005 22.3455 7.73682 22.3677C7.68358 22.3899 7.62583 22.3991 7.56834 22.3946C7.45353 22.3627 7.42163 22.2287 7.42163 22.031V18.5037C3.36865 17.3731 3.46891 13.2442 3.52556 10.911L3.53079 10.6901C3.58181 8.40664 4.00917 6.53138 5.28486 5.26845C7.57472 3.19545 12.3011 3.50162 12.3011 3.50162C16.2877 3.50162 18.2012 4.7199 18.6413 5.12174C20.1275 6.38467 20.8738 9.39529 20.3316 13.8155ZM12.7267 8.43335C13.003 8.41972 13.279 8.4652 13.5364 8.56677C13.7937 8.66834 14.0264 8.82365 14.2189 9.02233C14.4115 9.22101 14.5594 9.45849 14.6528 9.71889C14.7462 9.9793 14.783 10.2566 14.7606 10.5324C14.7419 10.7636 14.5393 10.9358 14.3081 10.9171C14.0769 10.8984 13.9046 10.6958 13.9234 10.4646C13.936 10.308 13.9152 10.1504 13.8621 10.0025C13.809 9.85461 13.725 9.71972 13.6157 9.60687C13.5063 9.49402 13.3742 9.4058 13.228 9.34811C13.0818 9.29042 12.925 9.26459 12.7681 9.27233C12.5364 9.28377 12.3393 9.10522 12.3279 8.87355C12.3165 8.64187 12.495 8.44479 12.7267 8.43335ZM12.3819 7.00452C12.15 6.99869 11.9573 7.18195 11.9515 7.41383C11.9456 7.64572 12.1289 7.83842 12.3608 7.84425C13.1817 7.86488 13.9628 8.20188 14.541 8.78467C14.7994 9.07126 14.9986 9.40622 15.1269 9.77024C15.2561 10.137 15.3109 10.5259 15.288 10.9141C15.2743 11.1457 15.4509 11.3445 15.6825 11.3582C15.914 11.3719 16.1128 11.1952 16.1265 10.9637C16.1561 10.4639 16.0855 9.96319 15.9191 9.49099C15.7526 9.01879 15.4936 8.58456 15.1572 8.21375L15.1508 8.20679L15.1451 8.20097C14.4136 7.45955 13.4231 7.03068 12.3819 7.00452ZM11.8647 5.62035C12.6085 5.60362 13.3482 5.73599 14.0401 6.00967C14.732 6.28334 15.3621 6.69278 15.8932 7.21384L15.901 7.22144L15.9009 7.22154C16.4513 7.79014 16.8798 8.46521 17.16 9.20533C17.4402 9.94545 17.5662 10.735 17.5304 11.5256C17.5199 11.7573 17.3235 11.9366 17.0918 11.9261C16.8601 11.9156 16.6807 11.7192 16.6912 11.4875C16.7219 10.8113 16.6141 10.1359 16.3744 9.50275C16.1353 8.87133 15.7702 8.29527 15.3011 7.80968C14.8508 7.36896 14.3171 7.02255 13.7311 6.79078C13.1435 6.55835 12.5153 6.44593 11.8836 6.46013C11.6517 6.46535 11.4594 6.28158 11.4542 6.04968C11.449 5.81778 11.6328 5.62556 11.8647 5.62035ZM13.1158 14.026C13.0167 14.0635 12.9105 14.0788 12.8048 14.0709C11.9824 13.8249 11.2344 13.3775 10.6285 12.7694C10.0226 12.1613 9.57799 11.4116 9.33494 10.5883C9.32698 10.4816 9.34225 10.3745 9.37969 10.2743C9.41713 10.1741 9.47585 10.0832 9.55181 10.0079L10.0493 9.61879C10.1977 9.48178 10.294 9.29761 10.3219 9.09761C10.3498 8.8976 10.3076 8.6941 10.2024 8.52171C10.1733 8.47446 10.1401 8.41939 10.1039 8.35934C9.9494 8.10321 9.74024 7.75644 9.56456 7.53943C9.3477 7.27153 8.83742 6.63369 8.83742 6.63369C8.72088 6.49046 8.55576 6.39507 8.37346 6.36567C8.19117 6.33627 8.00443 6.37491 7.84877 6.47423C7.49845 6.74904 7.19476 7.07858 6.94941 7.45013C6.73646 7.68074 6.59663 7.96929 6.54757 8.27933C6.54372 8.31963 6.54372 8.36021 6.54757 8.40052C6.54792 8.52185 6.56729 8.64238 6.60497 8.75771C6.87532 9.55344 7.22805 10.3188 7.65741 11.0412C8.0291 11.7132 8.45579 12.3532 8.9331 12.9547C9.17329 13.2567 9.42876 13.5463 9.69851 13.8222H9.7304C10.0026 14.0936 10.2901 14.3491 10.5915 14.5876C11.1915 15.0671 11.8317 15.4939 12.505 15.8633C13.2284 16.2925 13.9935 16.6473 14.7885 16.9221C14.902 16.9577 15.0204 16.9749 15.1393 16.9731C15.1794 16.98 15.2204 16.98 15.2605 16.9731C15.5721 16.9231 15.8624 16.7835 16.0961 16.5713C16.4199 16.2807 16.6955 15.9405 16.9125 15.5635C17.0114 15.4088 17.0498 15.2231 17.0204 15.0419C16.991 14.8607 16.8958 14.6967 16.7531 14.5812C16.7531 14.5748 16.1471 14.0709 15.8473 13.8477C15.5313 13.618 15.2035 13.4051 14.865 13.2099C14.6951 13.1019 14.4925 13.0575 14.2929 13.0843C14.0934 13.1111 13.9097 13.2076 13.7743 13.3566L13.3789 13.8541C13.3048 13.9299 13.215 13.9886 13.1158 14.026Z" fill="#7360F2"/>
</svg>
