<svg width="24" height="24" viewBox="0 0 24 24" fill="none" xmlns="http://www.w3.org/2000/svg">
<path d="M12.0658 22C10.2885 22 8.51117 21.5393 6.99715 20.618L6.60219 20.4206L2.78422 21.4077L3.77162 17.6567L3.50832 17.2618C0.611927 12.5894 1.99429 6.40345 6.73384 3.50789C11.4734 0.612323 17.5953 1.9943 20.4917 6.73249C23.3881 11.4707 22.0057 17.5908 17.2662 20.4864C15.7521 21.4735 13.909 22 12.0658 22ZM17.8586 14.6953L17.1345 14.3662C17.1345 14.3662 16.0813 13.9056 15.423 13.5765C15.3572 13.5765 15.2914 13.5107 15.2255 13.5107C15.028 13.5107 14.8964 13.5765 14.7647 13.6424C14.7647 13.6424 14.6989 13.7082 13.7773 14.7611C13.7115 14.8927 13.5798 14.9585 13.4482 14.9585H13.3824C13.3165 14.9585 13.1849 14.8927 13.1191 14.8269L12.7899 14.6953C12.0658 14.3662 11.4076 13.9714 10.8809 13.4449C10.7493 13.3133 10.5518 13.1817 10.4202 13.0501C9.95936 12.5894 9.49857 12.063 9.16944 11.4707L9.10361 11.3391C9.03779 11.2733 9.03779 11.2074 8.97196 11.0758C8.97196 10.9442 8.97196 10.8126 9.03778 10.7468C9.03778 10.7468 9.30109 10.4178 9.49857 10.2203C9.63023 10.0887 9.69606 9.89129 9.82771 9.75967C9.95936 9.56224 10.0252 9.29901 9.95936 9.10159C9.89354 8.77255 9.10361 6.99572 8.90613 6.60087C8.77448 6.40345 8.64282 6.33764 8.44534 6.27183H8.24786C8.11621 6.27183 7.91873 6.27183 7.72124 6.27183C7.58959 6.27183 7.45794 6.33764 7.32628 6.33764L7.26046 6.40345C7.1288 6.46926 6.99715 6.60087 6.86549 6.66668C6.73384 6.7983 6.66801 6.92991 6.53636 7.06153C6.07557 7.6538 5.81226 8.3777 5.81226 9.10159C5.81226 9.62805 5.94392 10.1545 6.1414 10.6152L6.20722 10.8126C6.79967 12.063 7.58959 13.1817 8.64282 14.1688L8.90613 14.4321C9.10361 14.6295 9.30109 14.7611 9.43275 14.9585C10.8151 16.1431 12.395 16.9986 14.1723 17.4592C14.3698 17.525 14.6331 17.525 14.8306 17.5908C15.028 17.5908 15.2914 17.5908 15.4888 17.5908C15.818 17.5908 16.2129 17.4592 16.4762 17.3276C16.6737 17.196 16.8054 17.196 16.937 17.0644L17.0687 16.9328C17.2003 16.8012 17.332 16.7353 17.4636 16.6037C17.5953 16.4721 17.727 16.3405 17.7928 16.2089C17.9244 15.9456 17.9903 15.6166 18.0561 15.2876C18.0561 15.1559 18.0561 14.9585 18.0561 14.8269C18.0561 14.8269 17.9903 14.7611 17.8586 14.6953Z" fill="#00E676"/>
</svg>
