<svg width="14" height="14" viewBox="0 0 14 14" fill="none" xmlns="http://www.w3.org/2000/svg">
<path d="M7.00016 0.333252C3.32416 0.333252 0.333496 3.32392 0.333496 6.99992C0.333496 10.6759 3.32416 13.6666 7.00016 13.6666C10.6762 13.6666 13.6668 10.6759 13.6668 6.99992C13.6668 3.32392 10.6762 0.333252 7.00016 0.333252ZM1.66683 6.99992C1.66683 6.40059 1.77083 5.82525 1.95416 5.28725L3.00016 6.33325L4.3335 7.66659V8.99992L5.66683 10.3333L6.3335 10.9999V12.2873C3.7075 11.9573 1.66683 9.71459 1.66683 6.99992ZM11.2202 10.2486C10.7848 9.89792 10.1248 9.66659 9.66683 9.66659V8.99992C9.66683 8.6463 9.52635 8.30716 9.27631 8.05711C9.02626 7.80706 8.68712 7.66659 8.3335 7.66659H5.66683V5.66659C6.02045 5.66659 6.35959 5.52611 6.60964 5.27606C6.85969 5.02601 7.00016 4.68687 7.00016 4.33325V3.66659H7.66683C8.02045 3.66659 8.35959 3.52611 8.60964 3.27606C8.85969 3.02601 9.00016 2.68687 9.00016 2.33325V2.05925C10.9522 2.85192 12.3335 4.76659 12.3335 6.99992C12.3334 8.17638 11.9417 9.31934 11.2202 10.2486V10.2486Z" fill="#7210FF"/>
</svg>
