<svg width="18" height="18" viewBox="0 0 18 18" fill="none" xmlns="http://www.w3.org/2000/svg">
<path d="M9.00008 0.666626C4.40508 0.666626 0.666748 4.40496 0.666748 8.99996C0.666748 13.595 4.40508 17.3333 9.00008 17.3333C13.5951 17.3333 17.3334 13.595 17.3334 8.99996C17.3334 4.40496 13.5951 0.666626 9.00008 0.666626ZM2.33341 8.99996C2.33341 8.25079 2.46342 7.53163 2.69258 6.85913L4.00008 8.16663L5.66675 9.83329V11.5L7.33342 13.1666L8.16675 14V15.6091C4.88425 15.1966 2.33341 12.3933 2.33341 8.99996ZM14.2751 13.0608C13.7309 12.6225 12.9059 12.3333 12.3334 12.3333V11.5C12.3334 11.0579 12.1578 10.634 11.8453 10.3214C11.5327 10.0089 11.1088 9.83329 10.6667 9.83329H7.33342V7.33329C7.77544 7.33329 8.19937 7.1577 8.51193 6.84514C8.82449 6.53258 9.00008 6.10865 9.00008 5.66663V4.83329H9.83342C10.2754 4.83329 10.6994 4.6577 11.0119 4.34514C11.3245 4.03258 11.5001 3.60865 11.5001 3.16663V2.82413C13.9401 3.81496 15.6667 6.20829 15.6667 8.99996C15.6666 10.4705 15.177 11.8992 14.2751 13.0608Z" fill="#BDBDBD"/>
</svg>
