<svg width="20" height="20" viewBox="0 0 20 20" fill="none" xmlns="http://www.w3.org/2000/svg">
<g clip-path="url(#clip0_800_484)">
<path d="M9.99993 16.9642C13.8462 16.9642 16.9642 13.8462 16.9642 9.99993C16.9642 6.15366 13.8462 3.03564 9.99993 3.03564C6.15366 3.03564 3.03564 6.15366 3.03564 9.99993C3.03564 13.8462 6.15366 16.9642 9.99993 16.9642Z" stroke="#7210FF" stroke-width="1.07143" stroke-linecap="round" stroke-linejoin="round"/>
<path d="M3.57129 12.6786H5.44629C5.94357 12.6786 6.42048 12.481 6.77211 12.1294C7.12374 11.7778 7.32129 11.3009 7.32129 10.8036V9.19643C7.32129 8.69915 7.51883 8.22224 7.87046 7.87061C8.22209 7.51898 8.69901 7.32143 9.19629 7.32143C9.69357 7.32143 10.1705 7.12389 10.5221 6.77226C10.8737 6.42063 11.0713 5.94371 11.0713 5.44643V3.11072" stroke="#7210FF" stroke-width="1.07143" stroke-linecap="round" stroke-linejoin="round"/>
<path d="M16.9641 9.89293C16.4277 9.61458 15.8328 9.46769 15.2284 9.46436H12.9463C12.449 9.46436 11.9721 9.6619 11.6205 10.0135C11.2688 10.3652 11.0713 10.8421 11.0713 11.3394C11.0713 11.8366 11.2688 12.3136 11.6205 12.6652C11.9721 13.0168 12.449 13.2144 12.9463 13.2144C13.3015 13.2144 13.6421 13.3555 13.8933 13.6066C14.1445 13.8578 14.2856 14.1984 14.2856 14.5536V15.4858" stroke="#7210FF" stroke-width="1.07143" stroke-linecap="round" stroke-linejoin="round"/>
</g>
<defs>
<clipPath id="clip0_800_484">
<rect width="15" height="15" fill="white" transform="translate(2.5 2.5)"/>
</clipPath>
</defs>
</svg>
