<svg width="944" height="728" viewBox="0 0 944 728" fill="none" xmlns="http://www.w3.org/2000/svg">
<rect width="944" height="728" rx="32" fill="url(#paint0_linear_688_22693)"/>
<path d="M786.607 482C786.254 482.012 785.907 482.09 785.584 482.231C785.276 482.364 784.996 482.553 784.759 482.789C784.458 483.089 784.235 483.459 784.111 483.867C783.988 484.274 783.967 484.706 784.05 485.123C784.133 485.541 784.318 485.931 784.589 486.26C784.859 486.588 785.206 486.844 785.599 487.005C785.919 487.135 786.261 487.201 786.607 487.199C786.956 487.202 787.303 487.132 787.624 486.994C787.931 486.863 788.21 486.674 788.444 486.436C788.676 486.199 788.862 485.92 788.993 485.615C789.129 485.295 789.199 484.951 789.199 484.603C789.199 484.255 789.129 483.911 788.993 483.591C788.858 483.282 788.668 483.001 788.431 482.763C788.193 482.526 787.913 482.336 787.605 482.204C787.291 482.068 786.951 481.999 786.609 482H786.607Z" fill="#FCD201"/>
<path d="M162.607 472C162.254 472.012 161.907 472.09 161.584 472.231C161.276 472.364 160.996 472.553 160.759 472.789C160.458 473.089 160.235 473.459 160.111 473.867C159.988 474.274 159.967 474.706 160.05 475.123C160.133 475.541 160.318 475.931 160.589 476.26C160.859 476.588 161.206 476.844 161.599 477.005C161.919 477.135 162.261 477.201 162.607 477.199C162.956 477.202 163.303 477.132 163.624 476.994C163.931 476.863 164.21 476.674 164.444 476.436C164.676 476.199 164.862 475.92 164.993 475.615C165.129 475.295 165.199 474.951 165.199 474.603C165.199 474.255 165.129 473.911 164.993 473.591C164.858 473.282 164.668 473.001 164.431 472.763C164.193 472.526 163.913 472.336 163.605 472.204C163.291 472.068 162.951 471.999 162.609 472H162.607Z" fill="#FCD201"/>
<path d="M108.607 374C108.254 374.012 107.907 374.09 107.584 374.231C107.276 374.364 106.996 374.553 106.759 374.789C106.458 375.089 106.235 375.459 106.111 375.867C105.988 376.274 105.967 376.706 106.05 377.123C106.133 377.541 106.318 377.931 106.589 378.26C106.859 378.588 107.206 378.844 107.599 379.005C107.919 379.135 108.261 379.201 108.607 379.199C108.956 379.202 109.303 379.132 109.624 378.994C109.931 378.863 110.21 378.674 110.444 378.436C110.676 378.199 110.862 377.92 110.993 377.615C111.129 377.295 111.199 376.951 111.199 376.603C111.199 376.255 111.129 375.911 110.993 375.591C110.858 375.282 110.668 375.001 110.431 374.763C110.193 374.526 109.913 374.336 109.605 374.204C109.291 374.068 108.951 373.999 108.609 374H108.607Z" fill="#FCD201"/>
<path d="M816.607 322C816.254 322.012 815.907 322.09 815.584 322.231C815.276 322.364 814.996 322.553 814.759 322.789C814.458 323.089 814.235 323.459 814.111 323.867C813.988 324.274 813.967 324.706 814.05 325.123C814.133 325.541 814.318 325.931 814.589 326.26C814.859 326.588 815.206 326.844 815.599 327.005C815.919 327.135 816.261 327.201 816.607 327.199C816.956 327.202 817.303 327.132 817.624 326.994C817.931 326.863 818.21 326.674 818.444 326.436C818.676 326.199 818.862 325.92 818.993 325.615C819.129 325.295 819.199 324.951 819.199 324.603C819.199 324.255 819.129 323.911 818.993 323.591C818.858 323.282 818.668 323.001 818.431 322.763C818.193 322.526 817.913 322.336 817.605 322.204C817.291 322.068 816.951 321.999 816.609 322H816.607Z" fill="#FCD201"/>
<path d="M48.6066 253C48.2541 253.012 47.907 253.09 47.5835 253.231C47.2762 253.364 46.9964 253.553 46.7587 253.789C46.4575 254.089 46.2352 254.459 46.1115 254.867C45.9878 255.274 45.9667 255.706 46.0499 256.123C46.1332 256.541 46.3182 256.931 46.5886 257.26C46.859 257.588 47.2062 257.844 47.5994 258.005C47.9193 258.135 48.2615 258.201 48.6066 258.199C48.9563 258.202 49.3028 258.132 49.6244 257.994C49.9311 257.863 50.2095 257.674 50.4439 257.436C50.6758 257.199 50.862 256.92 50.9931 256.615C51.129 256.295 51.199 255.951 51.199 255.603C51.199 255.255 51.129 254.911 50.9931 254.591C50.8585 254.282 50.6677 254.001 50.4306 253.763C50.1932 253.526 49.9131 253.336 49.6052 253.204C49.2905 253.068 48.9512 252.999 48.6086 253H48.6066Z" fill="white"/>
<path d="M904.35 417C903.997 417.012 903.65 417.09 903.327 417.231C903.019 417.364 902.74 417.553 902.502 417.789C902.201 418.089 901.978 418.459 901.855 418.867C901.731 419.274 901.71 419.706 901.793 420.123C901.876 420.541 902.061 420.931 902.332 421.26C902.602 421.588 902.949 421.844 903.343 422.005C903.662 422.135 904.005 422.201 904.35 422.199C904.699 422.202 905.046 422.132 905.368 421.994C905.674 421.863 905.953 421.674 906.187 421.436C906.419 421.199 906.605 420.92 906.736 420.615C906.872 420.295 906.942 419.951 906.942 419.603C906.942 419.255 906.872 418.911 906.736 418.591C906.602 418.282 906.411 418.001 906.174 417.763C905.936 417.526 905.656 417.336 905.348 417.204C905.034 417.068 904.694 416.999 904.352 417H904.35Z" fill="white"/>
<path d="M823.607 553C823.254 553.012 822.907 553.09 822.584 553.231C822.276 553.364 821.996 553.553 821.759 553.789C821.458 554.089 821.235 554.459 821.111 554.867C820.988 555.274 820.967 555.706 821.05 556.123C821.133 556.541 821.318 556.931 821.589 557.26C821.859 557.588 822.206 557.844 822.599 558.005C822.919 558.135 823.261 558.201 823.607 558.199C823.956 558.202 824.303 558.132 824.624 557.994C824.931 557.863 825.21 557.674 825.444 557.436C825.676 557.199 825.862 556.92 825.993 556.615C826.129 556.295 826.199 555.951 826.199 555.603C826.199 555.255 826.129 554.911 825.993 554.591C825.858 554.282 825.668 554.001 825.431 553.763C825.193 553.526 824.913 553.336 824.605 553.204C824.291 553.068 823.951 552.999 823.609 553H823.607Z" fill="white"/>
<path d="M78.6066 428C78.2541 428.012 77.907 428.09 77.5835 428.231C77.2762 428.364 76.9964 428.553 76.7587 428.789C76.4575 429.089 76.2352 429.459 76.1115 429.867C75.9878 430.274 75.9667 430.706 76.0499 431.123C76.1332 431.541 76.3182 431.931 76.5886 432.26C76.859 432.588 77.2062 432.844 77.5994 433.005C77.9193 433.135 78.2615 433.201 78.6066 433.199C78.9563 433.202 79.3028 433.132 79.6244 432.994C79.9311 432.863 80.2095 432.674 80.4439 432.436C80.6758 432.199 80.862 431.92 80.9931 431.615C81.129 431.295 81.199 430.951 81.199 430.603C81.199 430.255 81.129 429.911 80.9931 429.591C80.8585 429.282 80.6677 429.001 80.4306 428.763C80.1932 428.526 79.9131 428.336 79.6052 428.204C79.2905 428.068 78.9512 427.999 78.6086 428H78.6066Z" fill="white"/>
<path d="M839.592 210.871C839.511 210.147 839.32 209.438 839.027 208.77C838.622 207.845 838.048 207.003 837.334 206.288C836.619 205.577 835.776 205.009 834.849 204.612C833.901 204.204 832.88 203.996 831.848 204C830.787 204.036 829.742 204.271 828.768 204.694C827.842 205.092 827 205.66 826.284 206.369C825.378 207.27 824.708 208.381 824.336 209.602C823.963 210.824 823.9 212.119 824.15 213.372C824.401 214.624 824.958 215.795 825.772 216.78C826.586 217.765 827.632 218.533 828.815 219.016C829.779 219.406 830.809 219.603 831.848 219.597C832.901 219.606 833.944 219.396 834.912 218.983C835.565 218.702 836.128 217.943 835.836 217.09C835.736 216.832 835.594 216.593 835.416 216.381L835.39 216.349L833.036 213.64C833.026 213.629 833.017 213.618 833.008 213.606C832.556 213.056 832.871 212.237 833.595 212.264L838.16 212.286H838.215C839.521 212.259 839.624 211.181 839.592 210.871Z" fill="white"/>
<path d="M881.592 434.919C881.511 434.194 881.32 433.486 881.027 432.818C880.622 431.893 880.048 431.051 879.334 430.336C878.619 429.625 877.776 429.057 876.849 428.66C875.901 428.252 874.88 428.044 873.848 428.048C872.787 428.083 871.742 428.319 870.768 428.742C869.842 429.14 869 429.708 868.284 430.417C867.378 431.318 866.708 432.428 866.336 433.65C865.963 434.872 865.9 436.167 866.15 437.419C866.401 438.672 866.958 439.843 867.772 440.828C868.586 441.813 869.632 442.581 870.815 443.064C871.779 443.454 872.809 443.651 873.848 443.645C874.901 443.653 875.944 443.444 876.912 443.03C877.565 442.75 878.128 441.991 877.836 441.138C877.736 440.88 877.594 440.64 877.416 440.429L877.39 440.397L875.036 437.688C875.026 437.677 875.017 437.666 875.008 437.654C874.556 437.103 874.871 436.284 875.595 436.312L880.16 436.334H880.215C881.521 436.306 881.624 435.229 881.592 434.919Z" fill="#FFD300"/>
<path d="M140.592 243.871C140.511 243.147 140.32 242.438 140.027 241.77C139.622 240.845 139.048 240.003 138.334 239.288C137.619 238.577 136.776 238.009 135.849 237.612C134.901 237.204 133.88 236.996 132.848 237C131.787 237.036 130.742 237.271 129.768 237.694C128.842 238.092 128 238.66 127.284 239.369C126.378 240.27 125.708 241.381 125.336 242.602C124.963 243.824 124.9 245.119 125.15 246.372C125.401 247.624 125.958 248.795 126.772 249.78C127.586 250.765 128.632 251.533 129.815 252.016C130.779 252.406 131.809 252.603 132.848 252.597C133.901 252.606 134.944 252.396 135.912 251.983C136.565 251.702 137.128 250.943 136.836 250.09C136.736 249.832 136.594 249.593 136.416 249.381L136.39 249.349L134.036 246.64C134.026 246.629 134.017 246.618 134.008 246.606C133.556 246.056 133.871 245.237 134.595 245.264L139.16 245.286H139.215C140.521 245.259 140.624 244.181 140.592 243.871Z" fill="#FFD300"/>
<path d="M149.523 106C148.371 106.039 147.236 106.295 146.178 106.756C145.173 107.189 144.258 107.807 143.481 108.579C142.496 109.56 141.769 110.771 141.365 112.104C140.96 113.436 140.891 114.847 141.163 116.213C141.435 117.578 142.041 118.855 142.925 119.929C143.809 121.003 144.944 121.84 146.23 122.367C147.276 122.791 148.395 123.006 149.523 123C150.667 123.009 151.8 122.781 152.851 122.33C153.854 121.903 154.765 121.283 155.531 120.506C156.289 119.729 156.898 118.819 157.327 117.821C157.771 116.774 158 115.648 158 114.511C158 113.373 157.771 112.247 157.327 111.201C156.887 110.192 156.263 109.274 155.488 108.494C154.711 107.72 153.795 107.1 152.788 106.667C151.76 106.223 150.65 105.995 149.53 106H149.523Z" fill="#FFD300"/>
<path d="M179.022 558C177.937 558.036 176.869 558.278 175.873 558.712C174.927 559.119 174.066 559.701 173.335 560.427C172.408 561.351 171.724 562.491 171.343 563.745C170.962 564.998 170.897 566.327 171.154 567.612C171.41 568.897 171.979 570.099 172.811 571.11C173.643 572.12 174.712 572.909 175.922 573.404C176.907 573.804 177.96 574.006 179.022 574C180.098 574.009 181.165 573.794 182.154 573.37C183.098 572.967 183.955 572.384 184.676 571.652C185.39 570.922 185.963 570.065 186.366 569.125C186.784 568.14 187 567.081 187 566.01C187 564.939 186.784 563.88 186.366 562.895C185.952 561.945 185.365 561.081 184.635 560.347C183.905 559.618 183.043 559.035 182.095 558.628C181.127 558.21 180.082 557.996 179.028 558H179.022Z" fill="white"/>
<defs>
<linearGradient id="paint0_linear_688_22693" x1="944" y1="728" x2="-122.897" y2="326.882" gradientUnits="userSpaceOnUse">
<stop stop-color="#7210FF"/>
<stop offset="1" stop-color="#9D59FF"/>
</linearGradient>
</defs>
</svg>
