<svg width="704" height="648" viewBox="0 0 704 648" fill="none" xmlns="http://www.w3.org/2000/svg">
<rect width="704" height="648" rx="32" fill="url(#paint0_linear_688_22885)"/>
<path d="M613.866 453C613.613 453.008 613.365 453.065 613.133 453.166C612.913 453.26 612.713 453.396 612.543 453.564C612.327 453.779 612.168 454.044 612.08 454.336C611.991 454.628 611.976 454.937 612.036 455.236C612.095 455.535 612.228 455.814 612.421 456.049C612.615 456.284 612.863 456.467 613.145 456.583C613.374 456.676 613.619 456.723 613.866 456.721C614.116 456.723 614.364 456.674 614.594 456.575C614.814 456.481 615.013 456.345 615.181 456.175C615.347 456.005 615.48 455.806 615.574 455.588C615.671 455.358 615.721 455.112 615.721 454.863C615.721 454.614 615.671 454.368 615.574 454.138C615.478 453.918 615.341 453.717 615.171 453.546C615.001 453.376 614.801 453.241 614.581 453.146C614.355 453.049 614.112 452.999 613.867 453H613.866Z" fill="#FCD201"/>
<path d="M628.866 280C628.613 280.008 628.365 280.065 628.133 280.166C627.913 280.26 627.713 280.396 627.543 280.564C627.327 280.779 627.168 281.044 627.08 281.336C626.991 281.628 626.976 281.937 627.036 282.236C627.095 282.535 627.228 282.814 627.421 283.049C627.615 283.284 627.863 283.467 628.145 283.583C628.374 283.676 628.619 283.723 628.866 283.721C629.116 283.723 629.364 283.674 629.594 283.575C629.814 283.481 630.013 283.345 630.181 283.175C630.347 283.005 630.48 282.806 630.574 282.588C630.671 282.358 630.721 282.112 630.721 281.863C630.721 281.614 630.671 281.368 630.574 281.138C630.478 280.918 630.341 280.717 630.171 280.546C630.001 280.376 629.801 280.241 629.581 280.146C629.355 280.049 629.112 279.999 628.867 280H628.866Z" fill="#FCD201"/>
<path d="M677.451 358C677.198 358.008 676.95 358.065 676.718 358.166C676.498 358.26 676.298 358.396 676.128 358.564C675.912 358.779 675.753 359.044 675.665 359.336C675.576 359.628 675.561 359.937 675.621 360.236C675.68 360.535 675.813 360.814 676.006 361.049C676.2 361.284 676.448 361.467 676.73 361.583C676.959 361.676 677.204 361.723 677.451 361.721C677.701 361.723 677.949 361.674 678.179 361.575C678.399 361.481 678.598 361.345 678.766 361.175C678.932 361.005 679.065 360.806 679.159 360.588C679.256 360.358 679.306 360.112 679.306 359.863C679.306 359.614 679.256 359.368 679.159 359.138C679.063 358.918 678.926 358.717 678.756 358.546C678.586 358.376 678.386 358.241 678.165 358.146C677.94 358.049 677.697 357.999 677.452 358H677.451Z" fill="white"/>
<path d="M640.35 503.821C640.098 503.829 639.849 503.885 639.618 503.986C639.398 504.081 639.198 504.216 639.027 504.385C638.812 504.6 638.653 504.865 638.564 505.157C638.476 505.448 638.461 505.757 638.52 506.056C638.58 506.355 638.712 506.635 638.906 506.87C639.099 507.105 639.348 507.288 639.629 507.403C639.858 507.496 640.103 507.543 640.35 507.542C640.6 507.544 640.848 507.494 641.079 507.395C641.298 507.302 641.497 507.166 641.665 506.996C641.831 506.826 641.965 506.627 642.058 506.408C642.156 506.179 642.206 505.933 642.206 505.684C642.206 505.435 642.156 505.188 642.058 504.959C641.962 504.738 641.825 504.537 641.656 504.367C641.486 504.197 641.285 504.061 641.065 503.967C640.84 503.869 640.597 503.82 640.352 503.821H640.35Z" fill="white"/>
<path d="M623.161 196.918C623.102 196.4 622.966 195.893 622.756 195.414C622.466 194.752 622.055 194.15 621.544 193.638C621.033 193.129 620.429 192.722 619.765 192.438C619.087 192.146 618.356 191.997 617.617 192C616.858 192.025 616.11 192.194 615.413 192.497C614.75 192.781 614.147 193.188 613.635 193.696C612.986 194.34 612.507 195.136 612.24 196.01C611.974 196.885 611.928 197.812 612.108 198.708C612.287 199.605 612.686 200.443 613.268 201.148C613.851 201.853 614.6 202.403 615.447 202.748C616.136 203.027 616.874 203.168 617.617 203.164C618.371 203.17 619.118 203.021 619.811 202.724C620.278 202.524 620.681 201.98 620.472 201.37C620.4 201.185 620.299 201.014 620.171 200.862L620.153 200.839L618.468 198.9C618.461 198.892 618.454 198.884 618.448 198.876C618.124 198.482 618.35 197.896 618.868 197.916L622.135 197.931H622.175C623.11 197.911 623.184 197.14 623.161 196.918Z" fill="white"/>
<path d="M661.161 370.826C661.102 370.308 660.966 369.801 660.756 369.322C660.466 368.66 660.055 368.058 659.544 367.546C659.033 367.037 658.429 366.63 657.765 366.346C657.087 366.054 656.356 365.905 655.617 365.908C654.858 365.933 654.11 366.102 653.413 366.405C652.75 366.689 652.147 367.096 651.635 367.604C650.986 368.248 650.507 369.043 650.24 369.918C649.974 370.793 649.928 371.72 650.108 372.616C650.287 373.513 650.686 374.351 651.268 375.056C651.851 375.761 652.6 376.311 653.447 376.656C654.136 376.935 654.874 377.076 655.617 377.072C656.371 377.078 657.118 376.929 657.811 376.632C658.278 376.432 658.681 375.888 658.472 375.278C658.4 375.093 658.299 374.922 658.171 374.77L658.153 374.747L656.468 372.808C656.461 372.8 656.454 372.792 656.448 372.784C656.124 372.39 656.35 371.804 656.868 371.824L660.135 371.839H660.175C661.11 371.819 661.184 371.048 661.161 370.826Z" fill="#FFD300"/>
<path d="M73.7266 421C73.4931 421.008 73.2632 421.06 73.0489 421.153C72.8453 421.241 72.66 421.366 72.5026 421.522C72.3031 421.721 72.1558 421.967 72.0739 422.236C71.9919 422.506 71.9779 422.792 72.0331 423.069C72.0882 423.345 72.2108 423.604 72.3899 423.822C72.569 424.039 72.799 424.209 73.0594 424.316C73.2713 424.402 73.498 424.445 73.7266 424.444C73.9582 424.446 74.1878 424.399 74.4007 424.308C74.604 424.221 74.7884 424.096 74.9436 423.938C75.0972 423.781 75.2206 423.597 75.3074 423.395C75.3974 423.183 75.4438 422.954 75.4438 422.724C75.4438 422.494 75.3974 422.266 75.3074 422.054C75.2182 421.849 75.0919 421.663 74.9348 421.505C74.7775 421.348 74.592 421.223 74.3881 421.135C74.1796 421.045 73.9549 420.999 73.7279 421H73.7266Z" fill="#FCD201"/>
<path d="M57.5977 319C57.3642 319.008 57.1343 319.06 56.92 319.153C56.7164 319.241 56.5311 319.366 56.3737 319.522C56.1742 319.721 56.0269 319.967 55.9449 320.236C55.863 320.506 55.849 320.792 55.9042 321.069C55.9593 321.345 56.0819 321.604 56.261 321.822C56.4401 322.039 56.6701 322.209 56.9305 322.316C57.1424 322.402 57.3691 322.445 57.5977 322.444C57.8293 322.446 58.0589 322.399 58.2718 322.308C58.4751 322.221 58.6595 322.096 58.8147 321.938C58.9683 321.781 59.0917 321.597 59.1785 321.395C59.2685 321.183 59.3149 320.954 59.3149 320.724C59.3149 320.494 59.2685 320.266 59.1785 320.054C59.0893 319.849 58.963 319.663 58.8059 319.505C58.6486 319.348 58.4631 319.223 58.2591 319.135C58.0507 319.045 57.826 318.999 57.599 319H57.5977Z" fill="#FCD201"/>
<path d="M19.7266 218.598C19.4931 218.606 19.2632 218.658 19.0489 218.752C18.8453 218.839 18.66 218.964 18.5026 219.121C18.3031 219.32 18.1558 219.565 18.0739 219.835C17.9919 220.105 17.9779 220.391 18.0331 220.667C18.0882 220.944 18.2108 221.202 18.3899 221.42C18.569 221.638 18.799 221.807 19.0594 221.914C19.2713 222 19.498 222.043 19.7266 222.042C19.9582 222.044 20.1878 221.998 20.4007 221.906C20.604 221.82 20.7884 221.694 20.9436 221.537C21.0972 221.38 21.2206 221.195 21.3074 220.993C21.3974 220.781 21.4438 220.553 21.4438 220.322C21.4438 220.092 21.3974 219.864 21.3074 219.652C21.2182 219.448 21.0919 219.262 20.9348 219.104C20.7775 218.947 20.592 218.821 20.3881 218.734C20.1796 218.643 19.9549 218.597 19.7279 218.598H19.7266Z" fill="white"/>
<path d="M37.7266 354.769C37.4931 354.777 37.2632 354.829 37.0489 354.923C36.8453 355.01 36.66 355.135 36.5026 355.292C36.3031 355.491 36.1558 355.736 36.0739 356.006C35.9919 356.276 35.9779 356.562 36.0331 356.838C36.0882 357.115 36.2108 357.373 36.3899 357.591C36.569 357.808 36.799 357.978 37.0594 358.085C37.2713 358.171 37.498 358.214 37.7266 358.213C37.9582 358.215 38.1878 358.169 38.4007 358.077C38.604 357.991 38.7884 357.865 38.9436 357.708C39.0972 357.55 39.2206 357.366 39.3074 357.164C39.3974 356.952 39.4438 356.724 39.4438 356.493C39.4438 356.263 39.3974 356.035 39.3074 355.823C39.2182 355.618 39.0919 355.433 38.9348 355.275C38.7775 355.118 38.592 354.992 38.3881 354.905C38.1796 354.814 37.9549 354.768 37.7279 354.769H37.7266Z" fill="white"/>
<path d="M80.6574 212.551C80.6033 212.071 80.4771 211.602 80.2831 211.16C80.0147 210.547 79.6343 209.989 79.1614 209.515C78.6879 209.045 78.1293 208.668 77.5152 208.406C76.8876 208.135 76.211 207.997 75.5275 208C74.8245 208.024 74.1323 208.179 73.4872 208.46C72.8741 208.723 72.316 209.1 71.8422 209.569C71.2416 210.166 70.7981 210.902 70.5515 211.711C70.3048 212.52 70.2626 213.378 70.4286 214.208C70.5947 215.037 70.9638 215.813 71.503 216.465C72.0422 217.118 72.7347 217.627 73.5188 217.947C74.1568 218.205 74.8393 218.335 75.5275 218.331C76.225 218.337 76.9161 218.199 77.5574 217.924C77.9897 217.739 78.3627 217.236 78.1689 216.671C78.1028 216.5 78.0088 216.341 77.8908 216.201L77.8737 216.18L76.3144 214.385C76.3079 214.378 76.3017 214.371 76.296 214.363C75.9968 213.998 76.205 213.456 76.6848 213.474L79.7084 213.489H79.7453C80.61 213.47 80.6785 212.757 80.6574 212.551Z" fill="#FFD300"/>
<path d="M86.5734 67C85.8099 67.0257 85.0581 67.1956 84.3575 67.501C83.6919 67.7876 83.0859 68.1971 82.5711 68.7081C81.9187 69.3584 81.4371 70.1606 81.1692 71.043C80.9013 71.9253 80.8555 72.8605 81.0358 73.765C81.2161 74.6694 81.617 75.5151 82.2026 76.2264C82.7882 76.9377 83.5403 77.4925 84.3919 77.8414C85.0848 78.1225 85.8259 78.2649 86.5734 78.2605C87.3309 78.2669 88.0815 78.1159 88.7779 77.817C89.4423 77.5338 90.0453 77.1233 90.5529 76.6084C91.0552 76.0941 91.4585 75.4912 91.7424 74.83C92.0367 74.1367 92.1884 73.3909 92.1884 72.6374C92.1884 71.884 92.0367 71.1382 91.7424 70.4449C91.4509 69.7767 91.0378 69.1687 90.5242 68.6522C90.0099 68.1391 89.4033 67.7285 88.7363 67.4421C88.0548 67.1475 87.3199 66.997 86.5777 67H86.5734Z" fill="#FFD300"/>
<path d="M92.3136 497C91.595 497.024 90.8874 497.184 90.228 497.472C89.6015 497.741 89.0312 498.127 88.5467 498.608C87.9327 499.22 87.4794 499.975 87.2273 500.805C86.9752 501.636 86.932 502.516 87.1017 503.367C87.2714 504.218 87.6487 505.014 88.1999 505.684C88.751 506.353 89.4589 506.875 90.2604 507.204C90.9125 507.468 91.6101 507.602 92.3136 507.598C93.0265 507.604 93.7329 507.462 94.3883 507.181C95.0138 506.914 95.5812 506.528 96.0589 506.043C96.5318 505.559 96.9113 504.992 97.1785 504.369C97.4555 503.717 97.5983 503.015 97.5983 502.306C97.5983 501.597 97.4555 500.895 97.1785 500.242C96.9041 499.613 96.5153 499.041 96.032 498.555C95.548 498.072 94.977 497.686 94.3493 497.416C93.7078 497.139 93.0162 496.997 92.3176 497H92.3136Z" fill="white"/>
<defs>
<linearGradient id="paint0_linear_688_22885" x1="704" y1="648" x2="-122.145" y2="387.766" gradientUnits="userSpaceOnUse">
<stop stop-color="#7210FF"/>
<stop offset="1" stop-color="#9D59FF"/>
</linearGradient>
</defs>
</svg>
