<svg width="328" height="575" viewBox="0 0 328 575" fill="none" xmlns="http://www.w3.org/2000/svg">
<rect width="328" height="575" rx="24" fill="url(#paint0_linear_688_22884)"/>
<path d="M304.073 89.8547C304.072 90.1071 304.118 90.3576 304.21 90.5929C304.296 90.8165 304.423 91.0219 304.585 91.1985C304.792 91.4224 305.05 91.5918 305.338 91.6918C305.626 91.7917 305.934 91.819 306.235 91.7712C306.536 91.7234 306.821 91.602 307.063 91.4178C307.306 91.2337 307.499 90.9925 307.625 90.7159C307.727 90.4907 307.783 90.2478 307.792 90.0009C307.804 89.7509 307.764 89.5011 307.674 89.2672C307.589 89.0441 307.461 88.8397 307.298 88.6654C307.135 88.4928 306.941 88.3518 306.726 88.2495C306.501 88.1433 306.257 88.0835 306.008 88.0737C305.759 88.0639 305.511 88.1044 305.278 88.1925C305.054 88.2801 304.847 88.4086 304.67 88.5715C304.494 88.7347 304.351 88.9297 304.247 89.1462C304.141 89.3674 304.082 89.6081 304.073 89.8533L304.073 89.8547Z" fill="#FCD201"/>
<path d="M72.0733 29.8547C72.0719 30.1071 72.1182 30.3576 72.21 30.5929C72.296 30.8165 72.4233 31.0219 72.5854 31.1985C72.7917 31.4224 73.0503 31.5918 73.3382 31.6918C73.6261 31.7917 73.9343 31.819 74.2353 31.7712C74.5363 31.7234 74.8208 31.602 75.0633 31.4178C75.3058 31.2337 75.4987 30.9925 75.625 30.7159C75.7268 30.4907 75.7835 30.2478 75.7917 30.0009C75.8037 29.7509 75.7636 29.5011 75.6739 29.2672C75.589 29.0441 75.4613 28.8397 75.2979 28.6654C75.1346 28.4928 74.9407 28.3518 74.726 28.2495C74.5009 28.1433 74.2566 28.0835 74.0078 28.0737C73.759 28.0639 73.5108 28.1044 73.278 28.1925C73.0536 28.2801 72.8474 28.4086 72.6702 28.5715C72.4941 28.7347 72.3506 28.9297 72.2474 29.1462C72.1413 29.3674 72.082 29.6081 72.0734 29.8533L72.0733 29.8547Z" fill="#FCD201"/>
<path d="M16.0733 90.8547C16.0719 91.1071 16.1182 91.3576 16.21 91.5929C16.296 91.8165 16.4233 92.0219 16.5854 92.1985C16.7917 92.4224 17.0503 92.5918 17.3382 92.6918C17.6261 92.7917 17.9343 92.819 18.2353 92.7712C18.5363 92.7234 18.8208 92.602 19.0633 92.4178C19.3058 92.2337 19.4987 91.9925 19.625 91.7159C19.7268 91.4907 19.7835 91.2478 19.7917 91.0009C19.8037 90.7509 19.7636 90.5011 19.6739 90.2672C19.589 90.0441 19.4613 89.8397 19.2979 89.6654C19.1346 89.4928 18.9407 89.3518 18.726 89.2495C18.5009 89.1433 18.2566 89.0835 18.0078 89.0737C17.759 89.0639 17.5108 89.1044 17.278 89.1925C17.0536 89.2801 16.8474 89.4086 16.6702 89.5715C16.4941 89.7347 16.3506 89.9297 16.2474 90.1462C16.1413 90.3674 16.082 90.6081 16.0734 90.8533L16.0733 90.8547Z" fill="white"/>
<path d="M290.073 43.8544C290.072 44.1069 290.118 44.3574 290.21 44.5927C290.296 44.8162 290.423 45.0216 290.585 45.1983C290.792 45.4221 291.05 45.5916 291.338 45.6915C291.626 45.7914 291.934 45.8187 292.235 45.7709C292.536 45.7231 292.821 45.6017 293.063 45.4176C293.306 45.2335 293.499 44.9923 293.625 44.7156C293.727 44.4905 293.783 44.2476 293.792 44.0007C293.804 43.7506 293.764 43.5008 293.674 43.267C293.589 43.0439 293.461 42.8394 293.298 42.6651C293.135 42.4926 292.941 42.3516 292.726 42.2492C292.501 42.1431 292.257 42.0833 292.008 42.0735C291.759 42.0637 291.511 42.1041 291.278 42.1923C291.054 42.2799 290.847 42.4084 290.67 42.5713C290.494 42.7344 290.351 42.9294 290.247 43.146C290.141 43.3672 290.082 43.6079 290.073 43.853L290.073 43.8544Z" fill="white"/>
<path d="M21.3531 50.1966C20.8325 50.2347 20.3206 50.351 19.8346 50.5417C19.1613 50.8055 18.5431 51.1925 18.0114 51.683C17.4831 52.1743 17.0527 52.7615 16.7431 53.4135C16.4246 54.0796 16.2468 54.8044 16.2208 55.5424C16.2163 56.3025 16.3553 57.0566 16.6303 57.765C16.889 58.4383 17.2718 59.0568 17.7588 59.5883C18.3774 60.2622 19.153 60.7723 20.0164 61.073C20.8799 61.3737 21.8043 61.4557 22.7071 61.3117C23.6099 61.1676 24.4631 60.802 25.1905 60.2475C25.9179 59.693 26.4968 58.9668 26.8756 58.1338C27.1812 57.4558 27.3512 56.7245 27.376 55.9811C27.412 55.2283 27.2918 54.4761 27.0229 53.7721C26.8409 53.2974 26.3136 52.8733 25.6956 53.0585C25.5082 53.1227 25.3327 53.2175 25.1762 53.3389L25.1528 53.3565L23.1489 54.9639C23.1409 54.9707 23.1326 54.977 23.124 54.9829C22.7175 55.2905 22.1406 55.0426 22.1809 54.5253L22.325 51.2611L22.3265 51.2213C22.3433 50.2869 21.5757 50.1826 21.3531 50.1966Z" fill="white"/>
<path d="M247.353 20.1968C246.832 20.2349 246.321 20.3513 245.835 20.5419C245.161 20.8058 244.543 21.1928 244.011 21.6833C243.483 22.1746 243.053 22.7618 242.743 23.4137C242.425 24.0799 242.247 24.8046 242.221 25.5427C242.216 26.3027 242.355 27.0568 242.63 27.7653C242.889 28.4385 243.272 29.057 243.759 29.5886C244.377 30.2625 245.153 30.7725 246.016 31.0733C246.88 31.374 247.804 31.456 248.707 31.3119C249.61 31.1679 250.463 30.8023 251.191 30.2477C251.918 29.6932 252.497 28.967 252.876 28.134C253.181 27.456 253.351 26.7247 253.376 25.9814C253.412 25.2285 253.292 24.4764 253.023 23.7724C252.841 23.2977 252.314 22.8736 251.696 23.0588C251.508 23.123 251.333 23.2177 251.176 23.3391L251.153 23.3567L249.149 24.9642C249.141 24.9709 249.133 24.9773 249.124 24.9831C248.717 25.2907 248.141 25.0428 248.181 24.5256L248.325 21.2614L248.327 21.2215C248.343 20.2871 247.576 20.1828 247.353 20.1968Z" fill="#FFD300"/>
<defs>
<linearGradient id="paint0_linear_688_22884" x1="328" y1="575" x2="-83.835" y2="506.886" gradientUnits="userSpaceOnUse">
<stop stop-color="#7210FF"/>
<stop offset="1" stop-color="#9D59FF"/>
</linearGradient>
</defs>
</svg>
