<svg width="1208" height="728" viewBox="0 0 1208 728" fill="none" xmlns="http://www.w3.org/2000/svg">
<rect width="1208" height="728" rx="32" fill="url(#paint0_linear_688_22592)"/>
<path d="M127.011 200C126.468 200.018 125.934 200.139 125.437 200.356C124.964 200.56 124.533 200.85 124.167 201.214C123.704 201.676 123.362 202.245 123.172 202.872C122.981 203.499 122.949 204.164 123.077 204.806C123.205 205.449 123.49 206.049 123.906 206.555C124.322 207.06 124.856 207.454 125.461 207.702C125.953 207.902 126.48 208.003 127.011 208C127.549 208.004 128.082 207.897 128.577 207.685C129.049 207.484 129.477 207.192 129.838 206.826C130.195 206.461 130.481 206.032 130.683 205.563C130.892 205.07 131 204.54 131 204.005C131 203.47 130.892 202.94 130.683 202.447C130.476 201.973 130.183 201.541 129.818 201.174C129.452 200.809 129.021 200.518 128.548 200.314C128.063 200.105 127.541 199.998 127.014 200H127.011Z" fill="white"/>
<path d="M169.011 342C168.468 342.018 167.934 342.139 167.437 342.356C166.964 342.56 166.533 342.85 166.167 343.214C165.704 343.676 165.362 344.245 165.172 344.872C164.981 345.499 164.949 346.164 165.077 346.806C165.205 347.449 165.49 348.049 165.906 348.555C166.322 349.06 166.856 349.454 167.461 349.702C167.953 349.902 168.48 350.003 169.011 350C169.549 350.004 170.082 349.897 170.577 349.685C171.049 349.484 171.477 349.192 171.838 348.826C172.195 348.461 172.481 348.032 172.683 347.563C172.892 347.07 173 346.54 173 346.005C173 345.47 172.892 344.94 172.683 344.447C172.476 343.973 172.183 343.541 171.818 343.174C171.452 342.809 171.021 342.518 170.548 342.314C170.063 342.105 169.541 341.998 169.014 342H169.011Z" fill="#FCD201"/>
<path d="M232.011 436C231.468 436.018 230.934 436.139 230.437 436.356C229.964 436.56 229.533 436.85 229.167 437.214C228.704 437.676 228.362 438.245 228.172 438.872C227.981 439.499 227.949 440.164 228.077 440.806C228.205 441.449 228.49 442.049 228.906 442.555C229.322 443.06 229.856 443.454 230.461 443.702C230.953 443.902 231.48 444.003 232.011 444C232.549 444.004 233.082 443.897 233.577 443.685C234.049 443.484 234.477 443.192 234.838 442.826C235.195 442.461 235.481 442.032 235.683 441.563C235.892 441.07 236 440.54 236 440.005C236 439.47 235.892 438.94 235.683 438.447C235.476 437.973 235.183 437.541 234.818 437.174C234.452 436.809 234.021 436.518 233.548 436.314C233.063 436.105 232.541 435.998 232.014 436H232.011Z" fill="#FCD201"/>
<path d="M147.011 369C146.468 369.018 145.934 369.139 145.437 369.356C144.964 369.56 144.533 369.85 144.167 370.214C143.704 370.676 143.362 371.245 143.172 371.872C142.981 372.499 142.949 373.164 143.077 373.806C143.205 374.449 143.49 375.049 143.906 375.555C144.322 376.06 144.856 376.454 145.461 376.702C145.953 376.902 146.48 377.003 147.011 377C147.549 377.004 148.082 376.897 148.577 376.685C149.049 376.484 149.477 376.192 149.838 375.826C150.195 375.461 150.481 375.032 150.683 374.563C150.892 374.07 151 373.54 151 373.005C151 372.47 150.892 371.94 150.683 371.447C150.476 370.973 150.183 370.541 149.818 370.174C149.452 369.809 149.021 369.518 148.548 369.314C148.063 369.105 147.541 368.998 147.014 369H147.011Z" fill="white"/>
<path d="M253.022 522C251.937 522.036 250.869 522.278 249.873 522.712C248.927 523.119 248.066 523.701 247.335 524.427C246.408 525.351 245.724 526.491 245.343 527.745C244.962 528.998 244.897 530.327 245.154 531.612C245.41 532.897 245.979 534.099 246.811 535.11C247.643 536.12 248.712 536.909 249.922 537.404C250.907 537.804 251.96 538.006 253.022 538C254.098 538.009 255.165 537.794 256.154 537.37C257.098 536.967 257.955 536.384 258.676 535.652C259.39 534.922 259.963 534.065 260.366 533.125C260.784 532.14 261 531.081 261 530.01C261 528.939 260.784 527.88 260.366 526.895C259.952 525.945 259.365 525.081 258.635 524.347C257.905 523.618 257.043 523.035 256.095 522.628C255.127 522.21 254.082 521.996 253.028 522H253.022Z" fill="white"/>
<path d="M228.022 78.0001C226.937 78.0365 225.869 78.278 224.873 78.7118C223.927 79.1191 223.066 79.7009 222.335 80.427C221.408 81.351 220.724 82.4908 220.343 83.7445C219.962 84.9983 219.897 86.327 220.154 87.6122C220.41 88.8973 220.979 90.0988 221.811 91.1095C222.643 92.1202 223.712 92.9085 224.922 93.4042C225.907 93.8037 226.96 94.006 228.022 93.9997C229.098 94.0088 230.165 93.7943 231.154 93.3695C232.098 92.9672 232.955 92.3839 233.676 91.6523C234.39 90.9216 234.963 90.0649 235.366 89.1254C235.784 88.1403 236 87.0807 236 86.0101C236 84.9395 235.784 83.8799 235.366 82.8948C234.952 81.9453 234.365 81.0815 233.635 80.3475C232.905 79.6185 232.043 79.0351 231.095 78.6282C230.127 78.2096 229.082 77.9957 228.028 78.0001H228.022Z" fill="#FFD300"/>
<path d="M196.993 215.573C196.867 214.458 196.574 213.368 196.123 212.34C195.5 210.916 194.616 209.621 193.518 208.52C192.418 207.427 191.12 206.552 189.693 205.942C188.236 205.314 186.664 204.994 185.076 205C183.443 205.055 181.835 205.417 180.336 206.067C178.912 206.68 177.616 207.555 176.515 208.646C175.12 210.031 174.09 211.741 173.517 213.621C172.944 215.501 172.846 217.493 173.231 219.421C173.617 221.348 174.474 223.15 175.727 224.665C176.98 226.181 178.588 227.363 180.41 228.107C181.892 228.706 183.477 229.009 185.076 229C186.696 229.013 188.302 228.691 189.791 228.055C190.796 227.623 191.662 226.455 191.212 225.143C191.058 224.746 190.84 224.377 190.566 224.051L190.526 224.002L186.904 219.833C186.889 219.817 186.875 219.8 186.861 219.781C186.166 218.934 186.65 217.674 187.764 217.717L194.788 217.751H194.874C196.883 217.708 197.042 216.05 196.993 215.573Z" fill="#FFD300"/>
<path d="M918.011 429C917.468 429.018 916.934 429.139 916.437 429.356C915.964 429.56 915.533 429.85 915.167 430.214C914.704 430.676 914.362 431.245 914.172 431.872C913.981 432.499 913.949 433.164 914.077 433.806C914.205 434.449 914.49 435.049 914.906 435.555C915.322 436.06 915.856 436.454 916.461 436.702C916.953 436.902 917.48 437.003 918.011 437C918.549 437.004 919.082 436.897 919.577 436.685C920.049 436.484 920.477 436.192 920.838 435.826C921.195 435.461 921.481 435.032 921.683 434.563C921.892 434.07 922 433.54 922 433.005C922 432.47 921.892 431.94 921.683 431.447C921.476 430.973 921.183 430.541 920.818 430.174C920.452 429.809 920.021 429.518 919.548 429.314C919.063 429.105 918.541 428.998 918.014 429H918.011Z" fill="#FCD201"/>
<path d="M988.011 283C987.468 283.018 986.934 283.139 986.437 283.356C985.964 283.56 985.533 283.85 985.167 284.214C984.704 284.676 984.362 285.245 984.172 285.872C983.981 286.499 983.949 287.164 984.077 287.806C984.205 288.449 984.49 289.049 984.906 289.555C985.322 290.06 985.856 290.454 986.461 290.702C986.953 290.902 987.48 291.003 988.011 291C988.549 291.004 989.082 290.897 989.577 290.685C990.049 290.484 990.477 290.192 990.838 289.826C991.195 289.461 991.481 289.032 991.683 288.563C991.892 288.07 992 287.54 992 287.005C992 286.47 991.892 285.94 991.683 285.447C991.476 284.973 991.183 284.541 990.818 284.174C990.452 283.809 990.021 283.518 989.548 283.314C989.063 283.105 988.541 282.998 988.014 283H988.011Z" fill="#FCD201"/>
<path d="M1150.01 307C1149.47 307.018 1148.93 307.139 1148.44 307.356C1147.96 307.56 1147.53 307.85 1147.17 308.214C1146.7 308.676 1146.36 309.245 1146.17 309.872C1145.98 310.499 1145.95 311.164 1146.08 311.806C1146.2 312.449 1146.49 313.049 1146.91 313.555C1147.32 314.06 1147.86 314.454 1148.46 314.702C1148.95 314.902 1149.48 315.003 1150.01 315C1150.55 315.004 1151.08 314.897 1151.58 314.685C1152.05 314.484 1152.48 314.192 1152.84 313.826C1153.19 313.461 1153.48 313.032 1153.68 312.563C1153.89 312.07 1154 311.54 1154 311.005C1154 310.47 1153.89 309.94 1153.68 309.447C1153.48 308.973 1153.18 308.541 1152.82 308.174C1152.45 307.809 1152.02 307.518 1151.55 307.314C1151.06 307.105 1150.54 306.998 1150.01 307H1150.01Z" fill="white"/>
<path d="M996.011 520C995.468 520.018 994.934 520.139 994.437 520.356C993.964 520.56 993.533 520.85 993.167 521.214C992.704 521.676 992.362 522.245 992.172 522.872C991.981 523.499 991.949 524.164 992.077 524.806C992.205 525.449 992.49 526.049 992.906 526.555C993.322 527.06 993.856 527.454 994.461 527.702C994.953 527.902 995.48 528.003 996.011 528C996.549 528.004 997.082 527.897 997.577 527.685C998.049 527.484 998.477 527.192 998.838 526.826C999.195 526.461 999.481 526.032 999.683 525.563C999.892 525.07 1000 524.54 1000 524.005C1000 523.47 999.892 522.94 999.683 522.447C999.476 521.973 999.183 521.541 998.818 521.174C998.452 520.809 998.021 520.518 997.548 520.314C997.063 520.105 996.541 519.998 996.014 520H996.011Z" fill="white"/>
<path d="M1015.99 141.573C1015.87 140.458 1015.57 139.368 1015.12 138.34C1014.5 136.916 1013.62 135.621 1012.52 134.52C1011.42 133.427 1010.12 132.552 1008.69 131.942C1007.24 131.314 1005.66 130.994 1004.08 131C1002.44 131.055 1000.83 131.417 999.336 132.067C997.912 132.68 996.616 133.555 995.515 134.646C994.12 136.031 993.09 137.741 992.517 139.621C991.944 141.501 991.846 143.493 992.231 145.421C992.617 147.348 993.474 149.15 994.727 150.665C995.98 152.181 997.588 153.363 999.41 154.107C1000.89 154.706 1002.48 155.009 1004.08 155C1005.7 155.013 1007.3 154.691 1008.79 154.055C1009.8 153.623 1010.66 152.455 1010.21 151.143C1010.06 150.746 1009.84 150.377 1009.57 150.051L1009.53 150.002L1005.9 145.833C1005.89 145.817 1005.87 145.8 1005.86 145.781C1005.17 144.934 1005.65 143.674 1006.76 143.717L1013.79 143.751H1013.87C1015.88 143.708 1016.04 142.05 1015.99 141.573Z" fill="white"/>
<path d="M1114.99 334.573C1114.87 333.458 1114.57 332.368 1114.12 331.34C1113.5 329.916 1112.62 328.621 1111.52 327.52C1110.42 326.427 1109.12 325.552 1107.69 324.942C1106.24 324.314 1104.66 323.994 1103.08 324C1101.44 324.055 1099.83 324.417 1098.34 325.067C1096.91 325.68 1095.62 326.555 1094.52 327.646C1093.12 329.031 1092.09 330.741 1091.52 332.621C1090.94 334.501 1090.85 336.493 1091.23 338.421C1091.62 340.348 1092.47 342.15 1093.73 343.665C1094.98 345.181 1096.59 346.363 1098.41 347.107C1099.89 347.706 1101.48 348.009 1103.08 348C1104.7 348.013 1106.3 347.691 1107.79 347.055C1108.8 346.623 1109.66 345.455 1109.21 344.143C1109.06 343.746 1108.84 343.377 1108.57 343.051L1108.53 343.002L1104.9 338.833C1104.89 338.817 1104.87 338.8 1104.86 338.781C1104.17 337.934 1104.65 336.674 1105.76 336.717L1112.79 336.751H1112.87C1114.88 336.708 1115.04 335.05 1114.99 334.573Z" fill="#FFD300"/>
<defs>
<linearGradient id="paint0_linear_688_22592" x1="1208" y1="728" x2="-57.3591" y2="119.222" gradientUnits="userSpaceOnUse">
<stop stop-color="#7210FF"/>
<stop offset="1" stop-color="#9D59FF"/>
</linearGradient>
</defs>
</svg>
