<svg width="124" height="124" viewBox="0 0 124 124" fill="none" xmlns="http://www.w3.org/2000/svg">
<circle cx="64.6504" cy="61.7773" r="48" fill="url(#paint0_linear_1399_53721)"/>
<ellipse cx="118.998" cy="18.944" rx="5.0018" ry="5.16667" fill="#AA70FF"/>
<ellipse cx="13.338" cy="6.88889" rx="6.66907" ry="6.88889" fill="#AA70FF"/>
<ellipse cx="6.66901" cy="91.6222" rx="3.33453" ry="3.44444" fill="#AA70FF"/>
<ellipse cx="110.373" cy="110.566" rx="1.66727" ry="1.72222" fill="#AA70FF"/>
<path fill-rule="evenodd" clip-rule="evenodd" d="M60.6273 75.3779L75.2713 56.4404C76.0672 55.4192 76.3501 54.2385 76.0849 53.0364C75.8549 51.9435 75.1829 50.9043 74.1748 50.116L71.7164 48.1632C69.5764 46.4611 66.9235 46.6403 65.4025 48.5931L63.7577 50.727C63.5455 50.9939 63.5986 51.3881 63.8639 51.6031C63.8639 51.6031 68.0201 54.9355 68.1085 55.0071C68.3915 55.2759 68.6037 55.6342 68.6568 56.0642C68.7452 56.9063 68.1615 57.6946 67.2949 57.8021C66.8882 57.8558 66.4991 57.7304 66.2161 57.4975L61.8477 54.0218C61.6354 53.8623 61.3171 53.8963 61.1402 54.1113L50.7586 67.5485C50.0865 68.3906 49.8566 69.4834 50.0865 70.5405L51.4129 76.2916C51.4837 76.5962 51.749 76.8112 52.0673 76.8112L57.9037 76.7395C58.9648 76.7216 59.9553 76.2379 60.6273 75.3779ZM68.7997 73.5863H78.3165C79.245 73.5863 80.0002 74.3513 80.0002 75.2919C80.0002 76.2343 79.245 76.9975 78.3165 76.9975H68.7997C67.8711 76.9975 67.1159 76.2343 67.1159 75.2919C67.1159 74.3513 67.8711 73.5863 68.7997 73.5863Z" fill="white"/>
<ellipse cx="71.0257" cy="3.09918" rx="1.66727" ry="1.72222" fill="#AA70FF"/>
<ellipse cx="41.6818" cy="121.589" rx="2.33417" ry="2.41111" fill="#AA70FF"/>
<ellipse cx="81.3627" cy="117.8" rx="0.666907" ry="0.688889" fill="#AA70FF"/>
<ellipse cx="113.708" cy="76.1226" rx="1.66727" ry="1.72222" fill="#AA70FF"/>
<ellipse cx="0.666907" cy="51.6674" rx="0.666907" ry="0.688889" fill="#AA70FF"/>
<defs>
<linearGradient id="paint0_linear_1399_53721" x1="112.65" y1="109.777" x2="-1.58099" y2="76.657" gradientUnits="userSpaceOnUse">
<stop stop-color="#7210FF"/>
<stop offset="1" stop-color="#9D59FF"/>
</linearGradient>
</defs>
</svg>
