<svg width="124" height="124" viewBox="0 0 124 124" fill="none" xmlns="http://www.w3.org/2000/svg">
<ellipse cx="63.6674" cy="62.3444" rx="47.0169" ry="48.5667" fill="url(#paint0_linear_995_40959)"/>
<ellipse cx="118.998" cy="18.9444" rx="5.0018" ry="5.16667" fill="#AA70FF"/>
<ellipse cx="13.3381" cy="6.88889" rx="6.66907" ry="6.88889" fill="#AA70FF"/>
<ellipse cx="6.66907" cy="91.6222" rx="3.33453" ry="3.44444" fill="#AA70FF"/>
<ellipse cx="110.373" cy="110.567" rx="1.66727" ry="1.72222" fill="#AA70FF"/>
<path fill-rule="evenodd" clip-rule="evenodd" d="M63.2222 79.133C63.4037 79.2309 63.6067 79.2808 63.8098 79.2791C64.0128 79.2774 64.2141 79.226 64.3973 79.1263L70.2468 75.8963C71.9056 74.9829 73.2046 73.9616 74.218 72.7726C76.4214 70.1819 77.6247 66.8755 77.6032 63.4662L77.5339 52.2201C77.5273 50.9248 76.7037 49.769 75.4856 49.3488L64.6037 45.5774C63.9484 45.3483 63.2304 45.3532 62.5867 45.5891L51.7461 49.495C50.5346 49.9317 49.7258 51.0958 49.7324 52.3928L49.8018 63.6306C49.8232 67.0449 51.0677 70.3364 53.3075 72.9005C54.3308 74.0729 55.6413 75.0793 57.3182 75.9777L63.2222 79.133ZM61.6738 65.9157C61.9181 66.1582 62.235 66.2778 62.5519 66.2744C62.8688 66.2728 63.1841 66.1499 63.425 65.9041L69.8175 59.3943C70.2978 58.9044 70.2929 58.1172 69.8076 57.634C69.3207 57.1507 68.5367 57.154 68.0564 57.6439L62.5338 63.267L60.2725 61.0217C59.7856 60.5385 59.0033 60.5435 58.5213 61.0334C58.041 61.5233 58.046 62.3104 58.5329 62.7937L61.6738 65.9157Z" fill="white"/>
<ellipse cx="71.0255" cy="3.1" rx="1.66727" ry="1.72222" fill="#AA70FF"/>
<ellipse cx="41.6816" cy="121.589" rx="2.33417" ry="2.41111" fill="#AA70FF"/>
<ellipse cx="81.3626" cy="117.8" rx="0.666907" ry="0.688889" fill="#AA70FF"/>
<ellipse cx="113.708" cy="76.1222" rx="1.66727" ry="1.72222" fill="#AA70FF"/>
<ellipse cx="0.666907" cy="51.6667" rx="0.666907" ry="0.688889" fill="#AA70FF"/>
<defs>
<linearGradient id="paint0_linear_995_40959" x1="110.684" y1="110.911" x2="-1.75505" y2="79.3506" gradientUnits="userSpaceOnUse">
<stop stop-color="#7210FF"/>
<stop offset="1" stop-color="#9D59FF"/>
</linearGradient>
</defs>
</svg>
