<svg width="124" height="124" viewBox="0 0 124 124" fill="none" xmlns="http://www.w3.org/2000/svg">
<circle cx="64.6504" cy="61.7773" r="48" fill="url(#paint0_linear_995_44821)"/>
<ellipse cx="118.998" cy="18.944" rx="5.0018" ry="5.16667" fill="#AA70FF"/>
<ellipse cx="13.338" cy="6.88889" rx="6.66907" ry="6.88889" fill="#AA70FF"/>
<ellipse cx="6.66901" cy="91.6222" rx="3.33453" ry="3.44444" fill="#AA70FF"/>
<ellipse cx="110.373" cy="110.567" rx="1.66727" ry="1.72222" fill="#AA70FF"/>
<path fill-rule="evenodd" clip-rule="evenodd" d="M71.4164 46.1673C72.468 46.1673 73.518 46.3156 74.5164 46.6506C80.668 48.6506 82.8847 55.4006 81.033 61.3006C79.983 64.3156 78.2664 67.0673 76.018 69.3156C72.7997 72.4323 69.268 75.1989 65.4664 77.5823L65.0497 77.8339L64.6164 77.5656C60.8014 75.1989 57.2497 72.4323 54.0014 69.2989C51.768 67.0506 50.0497 64.3156 48.983 61.3006C47.0997 55.4006 49.3164 48.6506 55.5347 46.6156C56.018 46.4489 56.5164 46.3323 57.0164 46.2673H57.2164C57.6847 46.1989 58.1497 46.1673 58.6164 46.1673H58.7997C59.8497 46.1989 60.8664 46.3823 61.8514 46.7173H61.9497C62.0164 46.7489 62.0664 46.7839 62.0997 46.8156C62.468 46.9339 62.8164 47.0673 63.1497 47.2506L63.783 47.5339C63.9361 47.6155 64.1078 47.7403 64.2563 47.848C64.3504 47.9163 64.4351 47.9778 64.4997 48.0173C64.5269 48.0333 64.5545 48.0494 64.5824 48.0657C64.7253 48.1491 64.8742 48.236 64.9997 48.3323C66.8514 46.9173 69.0997 46.1506 71.4164 46.1673ZM75.8496 58.1676C76.5329 58.1492 77.1162 57.6009 77.1662 56.8992V56.7009C77.2162 54.3659 75.8012 52.2509 73.6496 51.4342C72.9662 51.1992 72.2162 51.5676 71.9662 52.2676C71.7329 52.9676 72.0996 53.7342 72.7996 53.9826C73.8679 54.3826 74.5829 55.4342 74.5829 56.5992V56.6509C74.5512 57.0326 74.6662 57.4009 74.8996 57.6842C75.1329 57.9676 75.4829 58.1326 75.8496 58.1676Z" fill="white"/>
<ellipse cx="71.0257" cy="3.10015" rx="1.66727" ry="1.72222" fill="#AA70FF"/>
<ellipse cx="41.6818" cy="121.589" rx="2.33417" ry="2.41111" fill="#AA70FF"/>
<ellipse cx="81.3627" cy="117.8" rx="0.666907" ry="0.688889" fill="#AA70FF"/>
<ellipse cx="113.708" cy="76.1226" rx="1.66727" ry="1.72222" fill="#AA70FF"/>
<ellipse cx="0.666907" cy="51.6664" rx="0.666907" ry="0.688889" fill="#AA70FF"/>
<defs>
<linearGradient id="paint0_linear_995_44821" x1="112.65" y1="109.777" x2="-1.58099" y2="76.657" gradientUnits="userSpaceOnUse">
<stop stop-color="#7210FF"/>
<stop offset="1" stop-color="#9D59FF"/>
</linearGradient>
</defs>
</svg>
