<svg id="Layer_1" data-name="Layer 1" xmlns="http://www.w3.org/2000/svg" viewBox="0 0 247.23 38.52"><defs><style>.cls-1{fill:#1e4592;}</style></defs><title>text</title><path class="cls-1" d="M.39,38.12,14.68.9H20L35.22,38.12H29.61L25.27,26.85H9.7L5.62,38.12ZM11.13,22.84H23.75L19.86,12.53q-1.78-4.7-2.64-7.72a47.4,47.4,0,0,1-2,7.11Z" transform="translate(-0.39 -0.24)"/><path class="cls-1" d="M39.16,38.12V.9H52a31.1,31.1,0,0,1,6.63.53A12.62,12.62,0,0,1,64.07,4.1a15.15,15.15,0,0,1,4.41,6.36,25,25,0,0,1,1.46,8.85,26,26,0,0,1-1,7.52,18.24,18.24,0,0,1-2.54,5.42A13.48,13.48,0,0,1,63,35.62a13.8,13.8,0,0,1-4.44,1.87,25.38,25.38,0,0,1-6,.63Zm4.93-4.39H52A19.29,19.29,0,0,0,57.81,33a8.27,8.27,0,0,0,3.34-1.93,11.74,11.74,0,0,0,2.73-4.71,23,23,0,0,0,1-7.17q0-5.84-1.92-9a9.65,9.65,0,0,0-4.66-4.2,19.26,19.26,0,0,0-6.37-.76H44.08Z" transform="translate(-0.39 -0.24)"/><path class="cls-1" d="M87.35,38.12,72.93.9h5.33l9.67,27q1.17,3.25,2,6.09.86-3,2-6.09L101.95.9h5L92.4,38.12Z" transform="translate(-0.39 -0.24)"/><path class="cls-1" d="M111.5,38.12V.9h26.91V5.29h-22v11.4H137v4.37H116.42V33.73h22.85v4.39Z" transform="translate(-0.39 -0.24)"/><path class="cls-1" d="M146.15,38.12V.9h16.5a22,22,0,0,1,7.57,1,8.28,8.28,0,0,1,4.14,3.54,10.57,10.57,0,0,1,1.55,5.61,9.36,9.36,0,0,1-2.56,6.68q-2.56,2.72-7.92,3.45a12.77,12.77,0,0,1,3,1.85,25.59,25.59,0,0,1,4.09,5L179,38.12h-6.2l-4.93-7.74q-2.16-3.35-3.55-5.13a11.17,11.17,0,0,0-2.5-2.49,7.41,7.41,0,0,0-2.25-1,14.83,14.83,0,0,0-2.74-.18h-5.71V38.12Zm4.93-20.79h10.59a15.87,15.87,0,0,0,5.28-.7,5.62,5.62,0,0,0,2.89-2.23,6,6,0,0,0,1-3.34,5.55,5.55,0,0,0-1.92-4.34Q167,5,162.86,5H151.08Z" transform="translate(-0.39 -0.24)"/><path class="cls-1" d="M192.16,38.12V5.29H179.9V.9h29.5V5.29H197.09V38.12Z" transform="translate(-0.39 -0.24)"/><path class="cls-1" d="M212,20q0-9.27,5-14.51A16.92,16.92,0,0,1,229.84.24a17.82,17.82,0,0,1,9.29,2.46,16.09,16.09,0,0,1,6.31,6.87,22.31,22.31,0,0,1,2.17,10,21.93,21.93,0,0,1-2.29,10.13,15.6,15.6,0,0,1-6.47,6.77,18.49,18.49,0,0,1-9,2.3,17.6,17.6,0,0,1-9.39-2.54,16.34,16.34,0,0,1-6.27-6.93A21,21,0,0,1,212,20Zm5.08.08q0,6.73,3.62,10.6a12.62,12.62,0,0,0,18.23,0q3.59-3.91,3.59-11.1A19.06,19.06,0,0,0,241,11.6a11.81,11.81,0,0,0-4.49-5.26,12.18,12.18,0,0,0-6.64-1.87,12.59,12.59,0,0,0-9,3.59Q217.09,11.67,217.09,20.07Z" transform="translate(-0.39 -0.24)"/></svg>