<svg xmlns="http://www.w3.org/2000/svg" viewBox="0 0 60 55.76"><defs><style>.a{fill:#1e4592;}.b{fill:#fb8c00;}</style></defs><g transform="translate(-361 -856)"><g transform="translate(421.001 912.26) rotate(180)"><path class="a" d="M58.771,4.822A8.706,8.706,0,0,0,51.2.5H8.8A8.785,8.785,0,0,0,1.112,13.539l21.2,38.186a8.786,8.786,0,0,0,15.375,0l21.2-38.191a8.708,8.708,0,0,0-.121-8.715Zm-2.953,7.011-21.2,38.191a5.271,5.271,0,0,1-9.228,0L4.186,11.836A5.271,5.271,0,0,1,8.8,4.014H51.2a5.271,5.271,0,0,1,4.615,7.819Zm0,0" transform="translate(0)"/></g><path class="b" d="M7.274-8.15H3.294L2.856-27.727H7.731ZM2.723-2.18a2.443,2.443,0,0,1,.7-1.793,2.585,2.585,0,0,1,1.923-.711,2.585,2.585,0,0,1,1.923.711,2.443,2.443,0,0,1,.7,1.793A2.4,2.4,0,0,1,7.293-.435a2.591,2.591,0,0,1-1.942.7,2.591,2.591,0,0,1-1.942-.7A2.4,2.4,0,0,1,2.723-2.18Z" transform="translate(385.277 899.727)"/></g></svg>