<svg width="24" height="24" viewBox="0 0 24 24" fill="none" xmlns="http://www.w3.org/2000/svg">
<g clip-path="url(#clip0_3069_73697)">
<path fill-rule="evenodd" clip-rule="evenodd" d="M12.5002 5.40002C12.5002 5.12388 12.2764 4.90002 12.0002 4.90002C11.7241 4.90002 11.5002 5.12388 11.5002 5.40002V7.29997H9.8761C9.51021 7.28393 9.14878 7.38648 8.84572 7.59257C8.53875 7.8013 8.30841 8.10474 8.19013 8.45661L7.43184 10.9H5.4002C4.94933 10.9 4.51693 11.0791 4.19811 11.3979C3.8793 11.7167 3.7002 12.1491 3.7002 12.6V15C3.7002 15.4508 3.8793 15.8832 4.19811 16.2021C4.40404 16.408 4.65737 16.5556 4.93245 16.6344C5.14204 18.03 6.34613 19.1 7.80015 19.1C9.23126 19.1 10.4203 18.0634 10.6572 16.7001H13.3431C13.5801 18.0634 14.7691 19.1 16.2002 19.1C17.6542 19.1 18.8583 18.03 19.0679 16.6344C19.343 16.5557 19.5963 16.408 19.8023 16.2021C20.1211 15.8832 20.3002 15.4508 20.3002 15V12.6C20.3002 12.1491 20.1211 11.7167 19.8023 11.3979C19.4835 11.0791 19.0511 10.9 18.6002 10.9H17.1611L16.3507 8.45847L16.3501 8.45665C16.2318 8.10478 16.0016 7.80131 15.6947 7.59257C15.3916 7.38648 15.0302 7.28393 14.6643 7.29997H12.5002V5.40002ZM11.9929 8.29997C11.9954 8.30001 11.9978 8.30002 12.0002 8.30002C12.0027 8.30002 12.0051 8.30001 12.0075 8.29997H14.6762C14.6849 8.29997 14.6936 8.29975 14.7023 8.29929C14.8549 8.29132 15.006 8.33354 15.1324 8.41949C15.2586 8.5053 15.3535 8.6307 15.4023 8.77529L16.3256 11.5575C16.3935 11.762 16.5847 11.9 16.8002 11.9H18.6002C18.7858 11.9 18.9639 11.9737 19.0952 12.105C19.2264 12.2363 19.3002 12.4143 19.3002 12.6V15C19.3002 15.1856 19.2264 15.3637 19.0952 15.4949C19.0739 15.5162 19.0515 15.5359 19.028 15.5541C18.7343 14.2634 17.5798 13.3 16.2002 13.3C14.769 13.3 13.58 14.3367 13.3431 15.7001H10.6572C10.4203 14.3367 9.23128 13.3 7.80015 13.3C6.42058 13.3 5.266 14.2634 4.97237 15.554C4.94887 15.5359 4.92644 15.5162 4.90522 15.4949C4.77394 15.3637 4.7002 15.1856 4.7002 15V12.6C4.7002 12.4143 4.77394 12.2363 4.90522 12.105C5.0365 11.9737 5.21454 11.9 5.4002 11.9H7.8002C8.01925 11.9 8.2128 11.7574 8.27773 11.5482L9.13976 8.7705C9.18894 8.62765 9.28303 8.50449 9.40803 8.41949C9.53443 8.33354 9.68549 8.29132 9.83813 8.29929C9.84681 8.29975 9.8555 8.29997 9.86419 8.29997H11.9929ZM14.3002 16.2001L14.3002 16.2045C14.3026 17.2518 15.1523 18.1 16.2002 18.1C17.2495 18.1 18.1002 17.2494 18.1002 16.2C18.1002 15.1507 17.2495 14.3 16.2002 14.3C15.1523 14.3 14.3026 15.1483 14.3002 16.1956L14.3002 16.2001ZM5.9002 16.2L5.90016 16.2063C5.90353 17.2528 6.75289 18.1 7.80015 18.1C8.84949 18.1 9.70015 17.2494 9.70015 16.2C9.70015 15.1507 8.84949 14.3 7.80015 14.3C6.75292 14.3 5.90357 15.1473 5.90016 16.1937L5.9002 16.2Z" fill="#212121"/>
</g>
<defs>
<clipPath id="clip0_3069_73697">
<rect width="16.8" height="16.8" fill="white" transform="translate(3.6001 3.59998)"/>
</clipPath>
</defs>
</svg>
