<svg width="40" height="40" viewBox="0 0 40 40" fill="none" xmlns="http://www.w3.org/2000/svg">
<path fill-rule="evenodd" clip-rule="evenodd" d="M20.8334 9.00002C20.8334 8.53978 20.4603 8.16669 20 8.16669C19.5398 8.16669 19.1667 8.53978 19.1667 9.00002V12.1666H16.4598C15.85 12.1399 15.2476 12.3108 14.7425 12.6543C14.2309 13.0022 13.847 13.5079 13.6498 14.0943L12.386 18.1666H8.99996C8.24851 18.1666 7.52784 18.4651 6.99649 18.9965C6.46514 19.5278 6.16663 20.2485 6.16663 20.9999V24.9999C6.16663 25.7514 6.46514 26.472 6.99649 27.0034C7.33971 27.3466 7.76192 27.5927 8.22039 27.7239C8.5697 30.0499 10.5765 31.8334 12.9999 31.8334C15.3851 31.8334 17.3667 30.1057 17.7616 27.8334H22.2382C22.6331 30.1057 24.6147 31.8334 26.9999 31.8334C29.4233 31.8334 31.4301 30.0499 31.7794 27.7239C32.2379 27.5927 32.6602 27.3467 33.0034 27.0034C33.5348 26.472 33.8333 25.7514 33.8333 24.9999V20.9999C33.8333 20.2485 33.5348 19.5278 33.0034 18.9965C32.4721 18.4651 31.7514 18.1666 31 18.1666H28.6014L27.2509 14.0974L27.2499 14.0944C27.0527 13.508 26.669 13.0022 26.1574 12.6543C25.6523 12.3108 25.0499 12.1399 24.4401 12.1666H20.8334V9.00002ZM19.9879 13.8333C19.9919 13.8333 19.996 13.8334 20 13.8334C20.0041 13.8334 20.0082 13.8333 20.0122 13.8333H24.46C24.4744 13.8333 24.4889 13.8329 24.5034 13.8321C24.7578 13.8189 25.0096 13.8892 25.2202 14.0325C25.4306 14.1755 25.5888 14.3845 25.6701 14.6255L27.2091 19.2624C27.3222 19.6032 27.6409 19.8333 28 19.8333H31C31.3094 19.8333 31.6061 19.9562 31.8249 20.175C32.0437 20.3938 32.1666 20.6905 32.1666 20.9999V24.9999C32.1666 25.3094 32.0437 25.6061 31.8249 25.8249C31.7895 25.8603 31.7521 25.8932 31.7129 25.9234C31.2235 23.7723 29.2992 22.1667 26.9999 22.1667C24.6147 22.1667 22.633 23.8945 22.2381 26.1668H17.7616C17.3668 23.8945 15.3851 22.1667 12.9999 22.1667C10.7006 22.1667 8.7763 23.7722 8.28691 25.9233C8.24776 25.8931 8.21036 25.8603 8.175 25.8249C7.95621 25.6061 7.83329 25.3094 7.83329 24.9999V20.9999C7.83329 20.6905 7.95621 20.3938 8.175 20.175C8.39379 19.9562 8.69054 19.8333 8.99996 19.8333H13C13.3651 19.8333 13.6876 19.5956 13.7958 19.2469L15.2326 14.6175C15.3145 14.3794 15.4713 14.1741 15.6797 14.0325C15.8903 13.8892 16.1421 13.8189 16.3965 13.8321C16.411 13.8329 16.4255 13.8333 16.44 13.8333H19.9879ZM23.8333 27.0001L23.8333 27.0076C23.8373 28.753 25.2535 30.1667 26.9999 30.1667C28.7488 30.1667 30.1666 28.749 30.1666 27.0001C30.1666 25.2512 28.7488 23.8334 26.9999 23.8334C25.2535 23.8334 23.8373 25.2471 23.8333 26.9926L23.8333 27.0001ZM9.83329 26.9999L9.83323 27.0104C9.83881 28.7546 11.2544 30.1667 12.9999 30.1667C14.7488 30.1667 16.1665 28.749 16.1665 27.0001C16.1665 25.2512 14.7488 23.8334 12.9999 23.8334C11.2545 23.8334 9.83892 25.2455 9.83323 26.9895L9.83329 26.9999Z" fill="#F54336"/>
</svg>
