<svg width="24" height="24" viewBox="0 0 24 24" fill="none" xmlns="http://www.w3.org/2000/svg">
<g clip-path="url(#clip0_1300_35046)">
<path fill-rule="evenodd" clip-rule="evenodd" d="M12.5 5.40002C12.5 5.12388 12.2761 4.90002 12 4.90002C11.7239 4.90002 11.5 5.12388 11.5 5.40002V7.29997H9.87586C9.50997 7.28393 9.14854 7.38648 8.84547 7.59257C8.53851 7.8013 8.30817 8.10474 8.18988 8.45661L7.4316 10.9H5.39995C4.94908 10.9 4.51668 11.0791 4.19787 11.3979C3.87906 11.7167 3.69995 12.1491 3.69995 12.6V15C3.69995 15.4508 3.87906 15.8832 4.19787 16.2021C4.4038 16.408 4.65713 16.5556 4.93221 16.6344C5.14179 18.03 6.34588 19.1 7.7999 19.1C9.23102 19.1 10.42 18.0634 10.657 16.7001H13.3429C13.5798 18.0634 14.7688 19.1 16.1999 19.1C17.6539 19.1 18.858 18.03 19.0676 16.6344C19.3427 16.5557 19.5961 16.408 19.802 16.2021C20.1208 15.8832 20.2999 15.4508 20.2999 15V12.6C20.2999 12.1491 20.1208 11.7167 19.802 11.3979C19.4832 11.0791 19.0508 10.9 18.6 10.9H17.1608L16.3505 8.45847L16.3499 8.45665C16.2316 8.10478 16.0014 7.80131 15.6944 7.59257C15.3914 7.38648 15.0299 7.28393 14.664 7.29997H12.5V5.40002ZM11.9927 8.29997C11.9951 8.30001 11.9976 8.30002 12 8.30002C12.0024 8.30002 12.0049 8.30001 12.0073 8.29997H14.676C14.6846 8.29997 14.6933 8.29975 14.702 8.29929C14.8547 8.29132 15.0057 8.33354 15.1321 8.41949C15.2583 8.5053 15.3532 8.6307 15.402 8.77529L16.3254 11.5575C16.3933 11.762 16.5845 11.9 16.8 11.9H18.6C18.7856 11.9 18.9636 11.9737 19.0949 12.105C19.2262 12.2363 19.3 12.4143 19.3 12.6V15C19.3 15.1856 19.2262 15.3637 19.0949 15.4949C19.0737 15.5162 19.0512 15.5359 19.0277 15.5541C18.7341 14.2634 17.5795 13.3 16.1999 13.3C14.7688 13.3 13.5798 14.3367 13.3429 15.7001H10.657C10.42 14.3367 9.23103 13.3 7.7999 13.3C6.42033 13.3 5.26576 14.2634 4.97212 15.554C4.94863 15.5359 4.92619 15.5162 4.90498 15.4949C4.7737 15.3637 4.69995 15.1856 4.69995 15V12.6C4.69995 12.4143 4.7737 12.2363 4.90498 12.105C5.03625 11.9737 5.2143 11.9 5.39995 11.9H7.79995C8.01901 11.9 8.21256 11.7574 8.27748 11.5482L9.13952 8.7705C9.18869 8.62765 9.28278 8.50449 9.40778 8.41949C9.53418 8.33354 9.68524 8.29132 9.83789 8.29929C9.84657 8.29975 9.85526 8.29997 9.86395 8.29997H11.9927ZM14.3 16.2001L14.2999 16.2045C14.3024 17.2518 15.1521 18.1 16.1999 18.1C17.2493 18.1 18.0999 17.2494 18.0999 16.2C18.0999 15.1507 17.2493 14.3 16.1999 14.3C15.1521 14.3 14.3023 15.1483 14.2999 16.1956L14.3 16.2001ZM5.89995 16.2L5.89991 16.2063C5.90329 17.2528 6.75265 18.1 7.7999 18.1C8.84924 18.1 9.6999 17.2494 9.6999 16.2C9.6999 15.1507 8.84924 14.3 7.7999 14.3C6.75267 14.3 5.90333 15.1473 5.89991 16.1937L5.89995 16.2Z" fill="#212121"/>
</g>
<defs>
<clipPath id="clip0_1300_35046">
<rect width="16.8" height="16.8" fill="white" transform="translate(3.59998 3.59998)"/>
</clipPath>
</defs>
</svg>
