<svg width="24" height="24" viewBox="0 0 24 24" fill="none" xmlns="http://www.w3.org/2000/svg">
<path d="M8.50907 8.5625V8.20727C8.50907 6.4423 9.86893 5 11.5626 5C13.2564 5 14.6162 6.4423 14.6162 8.20727V8.56352H16.7008C16.8269 8.56364 16.9484 8.61056 17.0419 8.69518C17.1353 8.77981 17.1941 8.89611 17.2067 9.02155L18.1227 18.1823C18.1298 18.253 18.1221 18.3244 18.0999 18.392C18.0777 18.4595 18.0416 18.5216 17.994 18.5744C17.9463 18.6271 17.8881 18.6693 17.8232 18.6982C17.7582 18.7271 17.6879 18.742 17.6169 18.7421H5.50843C5.43734 18.742 5.36706 18.7271 5.30211 18.6982C5.23716 18.6693 5.17899 18.6271 5.13133 18.5744C5.08367 18.5216 5.04759 18.4595 5.02541 18.392C5.00323 18.3244 4.99544 18.253 5.00255 18.1823L5.91862 9.02155C5.93123 8.89611 5.98995 8.77981 6.08341 8.69518C6.17687 8.61056 6.29842 8.56364 6.4245 8.56352H8.50907V8.5625ZM9.52693 8.5625H13.5984V8.20727C13.5984 6.99195 12.6802 6.01786 11.5626 6.01786C10.445 6.01786 9.52693 6.99195 9.52693 8.20727V8.56352V8.5625ZM8.50907 9.58036H6.88559L6.0713 17.7232H17.054L16.2387 9.58036H14.6162V11.1071C14.6162 11.2421 14.5626 11.3716 14.4672 11.467C14.3717 11.5625 14.2423 11.6161 14.1073 11.6161C13.9723 11.6161 13.8429 11.5625 13.7474 11.467C13.652 11.3716 13.5984 11.2421 13.5984 11.1071V9.58036H9.52693V11.1071C9.52693 11.2421 9.47331 11.3716 9.37786 11.467C9.28242 11.5625 9.15297 11.6161 9.018 11.6161C8.88302 11.6161 8.75357 11.5625 8.65813 11.467C8.56269 11.3716 8.50907 11.2421 8.50907 11.1071V9.58036Z" fill="#212121"/>
</svg>
