<svg width="40" height="40" viewBox="0 0 40 40" fill="none" xmlns="http://www.w3.org/2000/svg">
<path d="M29.3511 20.3385V16.4514C29.3511 15.9359 29.1463 15.4416 28.7819 15.0771C28.4174 14.7126 27.923 14.5078 27.4075 14.5078H8.94358C8.42811 14.5078 7.93375 14.7126 7.56926 15.0771C7.20477 15.4416 7 15.9359 7 16.4514V30.0564C7 30.5719 7.20477 31.0662 7.56926 31.4307C7.93375 31.7952 8.42811 32 8.94358 32H27.4075C27.923 32 28.4174 31.7952 28.7819 31.4307C29.1463 31.0662 29.3511 30.5719 29.3511 30.0564V25.1975" stroke="#FFD300" stroke-width="1.5" stroke-linecap="round" stroke-linejoin="round"/>
<path d="M13.4919 10.9122L24.512 8.03569C24.6358 8.0008 24.7654 7.99136 24.893 8.00794C25.0206 8.02453 25.1435 8.06679 25.2543 8.13218C25.3651 8.19757 25.4615 8.28473 25.5376 8.3884C25.6138 8.49207 25.6682 8.61011 25.6975 8.73538L26.2417 10.9122" stroke="#FFD300" stroke-width="1.5" stroke-linecap="round" stroke-linejoin="round"/>
<path d="M31.2946 20.3387H26.4357C25.899 20.3387 25.4639 20.7738 25.4639 21.3105V24.2258C25.4639 24.7625 25.899 25.1976 26.4357 25.1976H31.2946C31.8313 25.1976 32.2664 24.7625 32.2664 24.2258V21.3105C32.2664 20.7738 31.8313 20.3387 31.2946 20.3387Z" stroke="#FFD300" stroke-width="1.5" stroke-linecap="round" stroke-linejoin="round"/>
</svg>
