<svg width="24" height="24" viewBox="0 0 24 24" fill="none" xmlns="http://www.w3.org/2000/svg">
<path fill-rule="evenodd" clip-rule="evenodd" d="M4.22336 8.728C4.52644 8.42491 4.93752 8.25464 5.36615 8.25464H16.4445C16.8732 8.25464 17.2842 8.42491 17.5873 8.728C17.8904 9.03108 18.0607 9.44216 18.0607 9.87078V12.2031C18.0607 12.4516 17.8592 12.6531 17.6107 12.6531C17.3621 12.6531 17.1607 12.4516 17.1607 12.2031V9.87078C17.1607 9.68085 17.0852 9.4987 16.9509 9.36439C16.8166 9.23009 16.6345 9.15464 16.4445 9.15464H5.36615C5.17621 9.15464 4.99406 9.23009 4.85975 9.36439C4.72545 9.4987 4.65 9.68085 4.65 9.87078V18.0338C4.65 18.2237 4.72545 18.4059 4.85975 18.5402C4.99406 18.6745 5.17621 18.7499 5.36615 18.7499H16.4445C16.6345 18.7499 16.8166 18.6745 16.9509 18.5402C17.0852 18.4059 17.1607 18.2237 17.1607 18.0338V15.1184C17.1607 14.8699 17.3621 14.6684 17.6107 14.6684C17.8592 14.6684 18.0607 14.8699 18.0607 15.1184V18.0338C18.0607 18.4624 17.8904 18.8735 17.5873 19.1766C17.2842 19.4797 16.8732 19.6499 16.4445 19.6499H5.36615C4.93752 19.6499 4.52644 19.4797 4.22336 19.1766C3.92027 18.8735 3.75 18.4624 3.75 18.0338V9.87078C3.75 9.44216 3.92027 9.03108 4.22336 8.728Z" fill="#212121"/>
<path fill-rule="evenodd" clip-rule="evenodd" d="M14.8778 5.25099C14.8615 5.24887 14.845 5.25008 14.8292 5.25453L14.8208 5.2568L8.20878 6.9827C7.96831 7.04546 7.72249 6.90141 7.65972 6.66094C7.59695 6.42047 7.74101 6.17464 7.98148 6.11187L14.5899 4.38692C14.7213 4.35059 14.8586 4.34092 14.9938 4.3585C15.1306 4.37628 15.2624 4.42161 15.3813 4.49174C15.5001 4.56187 15.6035 4.65535 15.6852 4.76654C15.7662 4.87669 15.8242 5.00196 15.8558 5.13491L16.1816 6.43814C16.2419 6.67925 16.0953 6.92357 15.8542 6.98385C15.6131 7.04413 15.3688 6.89753 15.3085 6.65643L14.9803 5.34374C14.9766 5.32777 14.9697 5.31271 14.96 5.29949C14.9503 5.28627 14.938 5.27516 14.9238 5.26683C14.9097 5.25849 14.8941 5.2531 14.8778 5.25099Z" fill="#212121"/>
<path fill-rule="evenodd" clip-rule="evenodd" d="M15.8614 12.6532C15.7879 12.6532 15.7284 12.7128 15.7284 12.7862V14.5355C15.7284 14.609 15.7879 14.6685 15.8614 14.6685H18.7768C18.8503 14.6685 18.9099 14.609 18.9099 14.5355V12.7862C18.9099 12.7128 18.8503 12.6532 18.7768 12.6532H15.8614ZM14.8284 12.7862C14.8284 12.2157 15.2909 11.7532 15.8614 11.7532H18.7768C19.3474 11.7532 19.8099 12.2157 19.8099 12.7862V14.5355C19.8099 15.106 19.3474 15.5685 18.7768 15.5685H15.8614C15.2909 15.5685 14.8284 15.106 14.8284 14.5355V12.7862Z" fill="#212121"/>
</svg>
