<svg width="24" height="24" viewBox="0 0 24 24" fill="none" xmlns="http://www.w3.org/2000/svg">
<g clip-path="url(#clip0_2624_53880)">
<path d="M21.0003 16.2741C20.8968 16.474 20.7335 16.5424 20.5105 16.5319C20.1995 16.5178 19.887 16.5283 19.5546 16.5283V16.7361C19.5546 17.3686 19.5546 18.0011 19.5546 18.6333C19.551 19.7194 18.7719 20.5011 17.6853 20.5015C13.4145 20.5029 9.14382 20.5029 4.87324 20.5015C3.78707 20.5015 3.00503 19.7194 3.0025 18.6347C3.00033 17.5987 3.00033 16.5629 3.0025 15.5272C3.0025 15.3157 3.10243 15.1789 3.27802 15.1325C3.429 15.0924 3.61039 15.1633 3.67628 15.3099C3.71055 15.399 3.72691 15.494 3.72444 15.5895C3.7277 16.5953 3.72444 17.601 3.7277 18.6068C3.72646 18.721 3.73751 18.835 3.76064 18.9468C3.81357 19.1744 3.93914 19.3786 4.11837 19.5285C4.29761 19.6784 4.52077 19.7659 4.75413 19.7777C4.79033 19.7795 4.82654 19.7777 4.86274 19.7777C9.13959 19.7777 13.4163 19.7777 17.6929 19.7777C18.2758 19.7777 18.7096 19.4283 18.8153 18.8798C18.8225 18.8506 18.8269 18.8208 18.8283 18.7908C18.8283 18.0446 18.8283 17.2987 18.8283 16.5272H18.6111C16.8583 16.5272 15.1054 16.5272 13.3526 16.5272C12.9966 16.5295 12.6437 16.4607 12.3146 16.3248C11.9855 16.1888 11.687 15.9885 11.4364 15.7355C11.1859 15.4825 10.9884 15.182 10.8556 14.8517C10.7229 14.5213 10.6575 14.1678 10.6633 13.8118C10.6785 12.3809 11.8559 11.1952 13.2983 11.185C15.063 11.1727 16.828 11.1814 18.593 11.1814H18.8178C18.8226 11.1246 18.8302 11.0786 18.8302 11.0326C18.8302 10.3701 18.8334 9.70749 18.8302 9.04492C18.8265 8.40589 18.3595 7.93377 17.7241 7.93341C13.4294 7.93124 9.13452 7.93124 4.83957 7.93341C4.19185 7.93341 3.72625 8.40408 3.7248 9.05579C3.7219 10.0616 3.7248 11.0674 3.7248 12.0732C3.7248 12.1275 3.72697 12.1818 3.7248 12.2357C3.71068 12.4446 3.5626 12.5905 3.366 12.5913C3.31901 12.5922 3.2723 12.5838 3.22858 12.5666C3.18486 12.5494 3.145 12.5236 3.11132 12.4908C3.07763 12.4581 3.0508 12.4189 3.03236 12.3757C3.01393 12.3324 3.00427 12.286 3.00395 12.239C2.99634 12.0768 3.00141 11.9131 3.00141 11.7513C3.00141 10.8717 3.00141 9.99243 3.00141 9.11335C3.00141 7.99605 3.76173 7.22849 4.87469 7.20604C4.97224 7.1975 5.06377 7.15525 5.13356 7.08656C6.75581 5.47179 8.37566 3.8546 9.99308 2.23501C10.0774 2.15101 10.1741 2.07968 10.2657 2.00256H10.4829C10.5821 2.08801 10.6868 2.16802 10.7795 2.25962C11.0955 2.57136 11.4076 2.88707 11.7462 3.22631C11.8635 3.09742 11.967 2.97288 12.0825 2.85919C12.3776 2.56955 12.6785 2.28786 12.9768 2.00256H13.194C13.2896 2.08366 13.3917 2.15825 13.48 2.24623C15.1757 3.93824 16.8707 5.63146 18.5651 7.32588C18.6672 7.42762 18.7766 7.52212 18.887 7.61553C19.2313 7.90517 19.4793 8.26505 19.5181 8.71473C19.5608 9.21111 19.547 9.71219 19.5543 10.2111C19.5583 10.5286 19.5543 10.8462 19.5543 11.1807C19.8837 11.1807 20.1958 11.1908 20.5065 11.1771C20.7288 11.1673 20.8906 11.2401 21 11.4323L21.0003 16.2741ZM20.2682 11.903H14.8092C14.2972 11.903 13.7853 11.8925 13.2737 11.9077C12.7654 11.9243 12.2836 12.1389 11.9312 12.5056C11.5789 12.8723 11.3837 13.3622 11.3874 13.8708C11.3942 14.9461 12.2599 15.8023 13.3577 15.8042C15.6097 15.8085 17.8618 15.8085 20.114 15.8042C20.1658 15.8042 20.2172 15.7973 20.2682 15.7937V11.903ZM17.3356 7.20133L13.0869 2.95405L8.83849 7.20133H17.3356ZM10.391 2.92689L6.10822 7.21002C6.57672 7.21002 7.06224 7.20532 7.54739 7.21328C7.60628 7.21597 7.66503 7.20546 7.71934 7.18254C7.77365 7.15961 7.82215 7.12484 7.8613 7.08077C8.93564 6.00087 10.012 4.92315 11.0905 3.8476C11.1314 3.80669 11.1694 3.76252 11.1958 3.73392L10.391 2.92689Z" fill="black"/>
<path d="M3.36322 13.495C3.45683 13.4965 3.54632 13.5338 3.61326 13.5993C3.6802 13.6647 3.71951 13.7534 3.72311 13.8469C3.72382 13.8947 3.71506 13.9422 3.69733 13.9866C3.67959 14.031 3.65323 14.0715 3.61977 14.1057C3.5863 14.1398 3.5464 14.167 3.50237 14.1857C3.45834 14.2044 3.41104 14.2141 3.36322 14.2144C3.3154 14.2141 3.2681 14.2044 3.22407 14.1857C3.18004 14.167 3.14014 14.1398 3.10668 14.1057C3.07322 14.0715 3.04686 14.031 3.02912 13.9866C3.01138 13.9422 3.00262 13.8947 3.00334 13.8469C3.00719 13.7534 3.04659 13.665 3.11347 13.5996C3.18036 13.5342 3.26969 13.4968 3.36322 13.495Z" fill="black"/>
<path d="M13.3331 14.938C13.0467 14.9366 12.7726 14.8219 12.5705 14.619C12.3684 14.4161 12.2548 14.1415 12.2545 13.8551C12.2557 13.5684 12.37 13.2938 12.5725 13.0909C12.775 12.8879 13.0493 12.773 13.336 12.7711C13.4792 12.7714 13.6209 12.8 13.7531 12.8552C13.8852 12.9104 14.0052 12.9912 14.1061 13.0928C14.207 13.1944 14.2868 13.315 14.3411 13.4475C14.3953 13.5801 14.4229 13.722 14.4221 13.8653C14.4186 14.1515 14.3022 14.4248 14.0983 14.6257C13.8944 14.8266 13.6193 14.9388 13.3331 14.938ZM13.698 13.8642C13.6985 13.8161 13.6895 13.7685 13.6716 13.7239C13.6537 13.6794 13.6271 13.6388 13.5935 13.6045C13.5599 13.5702 13.5198 13.5429 13.4756 13.5241C13.4315 13.5053 13.384 13.4953 13.336 13.4949C13.2425 13.4967 13.1532 13.5342 13.0863 13.5997C13.0195 13.6652 12.9802 13.7537 12.9765 13.8471C12.975 13.9408 13.0099 14.0313 13.0737 14.0997C13.1376 14.1682 13.2255 14.2092 13.319 14.2143C13.3669 14.2166 13.4149 14.2093 13.46 14.1928C13.5051 14.1764 13.5465 14.1512 13.5818 14.1186C13.6171 14.086 13.6455 14.0467 13.6655 14.0031C13.6854 13.9594 13.6965 13.9122 13.698 13.8642Z" fill="black"/>
</g>
<defs>
<clipPath id="clip0_2624_53880">
<rect width="18" height="18.5025" fill="white" transform="translate(3 2)"/>
</clipPath>
</defs>
</svg>
