<svg width="24" height="24" viewBox="0 0 24 24" fill="none" xmlns="http://www.w3.org/2000/svg">
<g clip-path="url(#clip0_3069_73769)">
<path fill-rule="evenodd" clip-rule="evenodd" d="M7.40002 6.89995C7.40002 5.68492 8.385 4.69995 9.60002 4.69995C10.8151 4.69995 11.8 5.68492 11.8 6.89995C11.8 8.11498 10.8151 9.09995 9.60002 9.09995C8.385 9.09995 7.40002 8.11498 7.40002 6.89995ZM9.60002 3.69995C7.83271 3.69995 6.40002 5.13264 6.40002 6.89995C6.40002 8.66726 7.83271 10.1 9.60002 10.1C11.3673 10.1 12.8 8.66726 12.8 6.89995C12.8 5.13264 11.3673 3.69995 9.60002 3.69995ZM10.9125 11.0447C10.0477 10.8451 9.14908 10.8435 8.28366 11.0401C7.41824 11.2367 6.60846 11.6263 5.91485 12.18C5.22124 12.7336 4.66175 13.4368 4.27821 14.2372C3.8948 15.0372 3.69713 15.9135 3.69998 16.8007V18.5999C3.69998 18.876 3.92384 19.0999 4.19998 19.0999H8.99998C9.27612 19.0999 9.49998 18.876 9.49998 18.5999C9.49998 18.3237 9.27612 18.0999 8.99998 18.0999H4.69998L4.69998 16.7999L4.69998 16.7982C4.6975 16.0615 4.8616 15.3337 5.18 14.6693C5.4984 14.0049 5.96287 13.4211 6.53868 12.9615C7.11449 12.5019 7.78674 12.1784 8.50518 12.0152C9.22361 11.852 9.96965 11.8533 10.6875 12.0191C10.9566 12.0812 11.225 11.9134 11.2872 11.6444C11.3493 11.3753 11.1815 11.1068 10.9125 11.0447ZM13.2 14.8999C13.1447 14.8999 13.1 14.9447 13.1 14.9999V19.1999C13.1 19.2551 13.1447 19.2999 13.2 19.2999H19.2C19.2552 19.2999 19.3 19.2551 19.3 19.1999V14.9999C19.3 14.9447 19.2552 14.8999 19.2 14.8999H18.605C18.6033 14.8999 18.6016 14.8999 18.5999 14.8999C18.5982 14.8999 18.5966 14.8999 18.5949 14.8999H13.805C13.8033 14.8999 13.8016 14.8999 13.7999 14.8999C13.7982 14.8999 13.7966 14.8999 13.7949 14.8999H13.2ZM13.2999 13.8999H13.2C12.5925 13.8999 12.1 14.3924 12.1 14.9999V19.1999C12.1 19.8074 12.5925 20.2999 13.2 20.2999H19.2C19.8075 20.2999 20.3 19.8074 20.3 19.1999V14.9999C20.3 14.3924 19.8075 13.8999 19.2 13.8999H19.0999V13.1999C19.0999 12.4308 18.7944 11.6932 18.2505 11.1493C17.7067 10.6055 16.9691 10.2999 16.1999 10.2999C15.4308 10.2999 14.6932 10.6055 14.1493 11.1493C13.6055 11.6932 13.2999 12.4308 13.2999 13.1999V13.8999ZM14.2999 13.8999H18.0999V13.1999C18.0999 12.696 17.8997 12.2127 17.5434 11.8564C17.1871 11.5001 16.7038 11.2999 16.1999 11.2999C15.696 11.2999 15.2127 11.5001 14.8564 11.8564C14.5001 12.2127 14.2999 12.696 14.2999 13.1999V13.8999Z" fill="#212121"/>
</g>
<defs>
<clipPath id="clip0_3069_73769">
<rect width="16.8" height="16.8" fill="white" transform="translate(3.6001 3.59998)"/>
</clipPath>
</defs>
</svg>
