<svg width="40" height="40" viewBox="0 0 40 40" fill="none" xmlns="http://www.w3.org/2000/svg">
<g clip-path="url(#clip0_3231_71173)">
<path fill-rule="evenodd" clip-rule="evenodd" d="M12.3334 11.5C12.3334 9.47498 13.975 7.83335 16.0001 7.83335C18.0251 7.83335 19.6667 9.47498 19.6667 11.5C19.6667 13.5251 18.0251 15.1667 16.0001 15.1667C13.975 15.1667 12.3334 13.5251 12.3334 11.5ZM16.0001 6.16669C13.0546 6.16669 10.6667 8.5545 10.6667 11.5C10.6667 14.4455 13.0546 16.8334 16.0001 16.8334C18.9456 16.8334 21.3334 14.4455 21.3334 11.5C21.3334 8.5545 18.9456 6.16669 16.0001 6.16669ZM18.1875 18.4079C16.7463 18.0752 15.2485 18.0726 13.8061 18.4002C12.3638 18.7279 11.0141 19.3773 9.85813 20.3C8.70211 21.2228 7.76963 22.3948 7.1304 23.7287C6.49137 25.0621 6.16193 26.5227 6.16668 28.0013V30.9999C6.16668 31.4602 6.53977 31.8333 7.00001 31.8333H15C15.4602 31.8333 15.8333 31.4602 15.8333 30.9999C15.8333 30.5397 15.4602 30.1666 15 30.1666H7.83334L7.83335 27.9999L7.83334 27.9971C7.82922 26.7692 8.10271 25.5563 8.63338 24.449C9.16405 23.3417 9.93816 22.3686 10.8978 21.6026C11.8575 20.8366 12.9779 20.2975 14.1753 20.0255C15.3727 19.7535 16.6161 19.7557 17.8126 20.0319C18.261 20.1354 18.7085 19.8558 18.812 19.4074C18.9155 18.9589 18.6359 18.5115 18.1875 18.4079ZM22 24.8333C21.908 24.8333 21.8333 24.9079 21.8333 24.9999V31.9999C21.8333 32.092 21.908 32.1666 22 32.1666H32C32.092 32.1666 32.1667 32.092 32.1667 31.9999V24.9999C32.1667 24.9079 32.092 24.8333 32 24.8333H31.0084C31.0056 24.8333 31.0027 24.8333 30.9999 24.8333C30.9971 24.8333 30.9943 24.8333 30.9915 24.8333H23.0084C23.0056 24.8333 23.0027 24.8333 22.9999 24.8333C22.9971 24.8333 22.9943 24.8333 22.9915 24.8333H22ZM22.1666 23.1666H22C20.9875 23.1666 20.1667 23.9874 20.1667 24.9999V31.9999C20.1667 33.0125 20.9875 33.8333 22 33.8333H32C33.0125 33.8333 33.8333 33.0125 33.8333 31.9999V24.9999C33.8333 23.9874 33.0125 23.1666 32 23.1666H31.8333V22C31.8333 20.7181 31.324 19.4887 30.4176 18.5823C29.5112 17.6759 28.2818 17.1666 26.9999 17.1666C25.718 17.1666 24.4887 17.6759 23.5822 18.5823C22.6758 19.4887 22.1666 20.7181 22.1666 22V23.1666ZM23.8333 23.1666H30.1666V22C30.1666 21.1601 29.833 20.3547 29.2391 19.7608C28.6452 19.1669 27.8398 18.8333 26.9999 18.8333C26.1601 18.8333 25.3546 19.1669 24.7607 19.7608C24.1669 20.3547 23.8333 21.1601 23.8333 22V23.1666Z" fill="#FF981F"/>
</g>
<defs>
<clipPath id="clip0_3231_71173">
<rect width="28" height="28" fill="white" transform="translate(6 6)"/>
</clipPath>
</defs>
</svg>
