<svg width="24" height="24" viewBox="0 0 24 24" fill="none" xmlns="http://www.w3.org/2000/svg">
<g clip-path="url(#clip0_3069_73750)">
<path fill-rule="evenodd" clip-rule="evenodd" d="M20.3002 4.19995C20.3002 3.92381 20.0763 3.69995 19.8002 3.69995C19.5241 3.69995 19.3002 3.92381 19.3002 4.19995V16.2C19.3002 17.0221 18.9736 17.8106 18.3922 18.392C17.8109 18.9733 17.0224 19.3 16.2002 19.3H13.8002C12.978 19.3 12.1895 18.9733 11.6082 18.392C11.0268 17.8106 10.7002 17.0221 10.7002 16.2C10.7002 15.9238 10.4763 15.7 10.2002 15.7C9.92405 15.7 9.7002 15.9238 9.7002 16.2C9.7002 17.2873 10.1322 18.3302 10.9011 19.0991C11.67 19.868 12.7128 20.2999 13.8002 20.2999H16.2002C17.2876 20.2999 18.3304 19.868 19.0993 19.0991C19.8682 18.3302 20.3002 17.2873 20.3002 16.2V4.19995ZM6.6002 7.29993C5.83107 7.29993 5.09344 7.60546 4.54959 8.14932C4.00573 8.69317 3.7002 9.4308 3.7002 10.1999V12.5999C3.7002 13.3691 4.00573 14.1067 4.54959 14.6505C5.09344 15.1944 5.83107 15.4999 6.6002 15.4999H7.8002C7.96714 15.4999 8.12307 15.4166 8.21585 15.2778L9.61919 13.1788L9.6195 13.1784C9.6835 13.0833 9.76987 13.0054 9.87103 12.9515C9.97235 12.8975 10.0854 12.8692 10.2002 12.8692C10.315 12.8692 10.428 12.8975 10.5294 12.9515C10.6305 13.0054 10.7169 13.0833 10.7809 13.1784L10.7812 13.1788L12.1845 15.2778C12.2773 15.4166 12.4333 15.4999 12.6002 15.4999H13.8002C14.5693 15.4999 15.3069 15.1944 15.8508 14.6505C16.3947 14.1067 16.7002 13.3691 16.7002 12.5999V10.1999C16.7002 9.4308 16.3947 8.69317 15.8508 8.14932C15.3069 7.60546 14.5693 7.29993 13.8002 7.29993H6.6002ZM5.25669 8.85642C5.61301 8.5001 6.09628 8.29993 6.6002 8.29993H13.8002C14.3041 8.29993 14.7874 8.5001 15.1437 8.85642C15.5 9.21274 15.7002 9.69602 15.7002 10.1999V12.5999C15.7002 13.1038 15.5 13.5871 15.1437 13.9434C14.7874 14.2997 14.3041 14.4999 13.8002 14.4999H12.8674L11.6119 12.622L11.6112 12.621C11.4557 12.3896 11.2456 12.2 10.9996 12.0689C10.7535 11.9378 10.479 11.8692 10.2002 11.8692C9.92139 11.8692 9.64686 11.9378 9.4008 12.0689C9.15474 12.2 8.9447 12.3896 8.7892 12.621L8.78854 12.622L7.53303 14.4999H6.6002C6.09628 14.4999 5.61301 14.2997 5.25669 13.9434C4.90037 13.5871 4.7002 13.1038 4.7002 12.5999V10.1999C4.7002 9.69602 4.90037 9.21274 5.25669 8.85642Z" fill="#212121"/>
</g>
<defs>
<clipPath id="clip0_3069_73750">
<rect width="16.8" height="16.8" fill="white" transform="translate(3.6001 3.59998)"/>
</clipPath>
</defs>
</svg>
