<svg width="24" height="24" viewBox="0 0 24 24" fill="none" xmlns="http://www.w3.org/2000/svg">
<g clip-path="url(#clip0_1300_35097)">
<path fill-rule="evenodd" clip-rule="evenodd" d="M20.2999 4.19995C20.2999 3.92381 20.0761 3.69995 19.7999 3.69995C19.5238 3.69995 19.3 3.92381 19.3 4.19995V16.2C19.3 17.0221 18.9733 17.8106 18.392 18.392C17.8106 18.9733 17.0221 19.3 16.2 19.3H13.8C12.9778 19.3 12.1893 18.9733 11.6079 18.392C11.0266 17.8106 10.7 17.0221 10.7 16.2C10.7 15.9238 10.4761 15.7 10.2 15.7C9.92381 15.7 9.69995 15.9238 9.69995 16.2C9.69995 17.2873 10.1319 18.3302 10.9008 19.0991C11.6697 19.868 12.7126 20.2999 13.8 20.2999H16.2C17.2873 20.2999 18.3302 19.868 19.0991 19.0991C19.868 18.3302 20.2999 17.2873 20.2999 16.2V4.19995ZM6.59995 7.29993C5.83082 7.29993 5.0932 7.60546 4.54934 8.14932C4.00549 8.69317 3.69995 9.4308 3.69995 10.1999V12.5999C3.69995 13.3691 4.00549 14.1067 4.54934 14.6505C5.0932 15.1944 5.83082 15.4999 6.59995 15.4999H7.79995C7.96689 15.4999 8.12282 15.4166 8.21561 15.2778L9.61895 13.1788L9.61925 13.1784C9.68325 13.0833 9.76963 13.0054 9.87079 12.9515C9.97211 12.8975 10.0851 12.8692 10.2 12.8692C10.3148 12.8692 10.4278 12.8975 10.5291 12.9515C10.6303 13.0054 10.7166 13.0833 10.7807 13.1784L10.781 13.1788L12.1843 15.2778C12.2771 15.4166 12.433 15.4999 12.6 15.4999H13.8C14.5691 15.4999 15.3067 15.1944 15.8506 14.6505C16.3944 14.1067 16.7 13.3691 16.7 12.5999V10.1999C16.7 9.4308 16.3944 8.69317 15.8506 8.14932C15.3067 7.60546 14.5691 7.29993 13.8 7.29993H6.59995ZM5.25645 8.85642C5.61277 8.5001 6.09604 8.29993 6.59995 8.29993H13.8C14.3039 8.29993 14.7871 8.5001 15.1435 8.85642C15.4998 9.21274 15.7 9.69602 15.7 10.1999V12.5999C15.7 13.1038 15.4998 13.5871 15.1435 13.9434C14.7871 14.2997 14.3039 14.4999 13.8 14.4999H12.8671L11.6116 12.622L11.611 12.621C11.4554 12.3896 11.2454 12.2 10.9993 12.0689C10.7533 11.9378 10.4788 11.8692 10.2 11.8692C9.92114 11.8692 9.64662 11.9378 9.40056 12.0689C9.1545 12.2 8.94446 12.3896 8.78895 12.621L8.78829 12.622L7.53278 14.4999H6.59995C6.09604 14.4999 5.61277 14.2997 5.25645 13.9434C4.90013 13.5871 4.69995 13.1038 4.69995 12.5999V10.1999C4.69995 9.69602 4.90013 9.21274 5.25645 8.85642Z" fill="#212121"/>
</g>
<defs>
<clipPath id="clip0_1300_35097">
<rect width="16.8" height="16.8" fill="white" transform="translate(3.59998 3.59998)"/>
</clipPath>
</defs>
</svg>
