<svg width="40" height="40" viewBox="0 0 40 40" fill="none" xmlns="http://www.w3.org/2000/svg">
<g clip-path="url(#clip0_3231_71154)">
<path fill-rule="evenodd" clip-rule="evenodd" d="M33.8333 7.00002C33.8333 6.53978 33.4602 6.16669 33 6.16669C32.5397 6.16669 32.1666 6.53978 32.1666 7.00002V27C32.1666 28.3703 31.6223 29.6845 30.6533 30.6534C29.6844 31.6223 28.3702 32.1667 27 32.1667H23C21.6297 32.1667 20.3155 31.6223 19.3466 30.6534C18.3776 29.6845 17.8333 28.3703 17.8333 27C17.8333 26.5398 17.4602 26.1667 17 26.1667C16.5397 26.1667 16.1666 26.5398 16.1666 27C16.1666 28.8123 16.8866 30.5504 18.1681 31.8319C19.4496 33.1134 21.1876 33.8334 23 33.8334H27C28.8123 33.8334 30.5504 33.1134 31.8319 31.8319C33.1134 30.5504 33.8333 28.8123 33.8333 27V7.00002ZM11 12.1666C9.71808 12.1666 8.4887 12.6759 7.58228 13.5823C6.67585 14.4887 6.16663 15.7181 6.16663 17V21C6.16663 22.2819 6.67585 23.5112 7.58228 24.4177C8.4887 25.3241 9.71808 25.8333 11 25.8333H13C13.2782 25.8333 13.5381 25.6944 13.6927 25.4631L16.0316 21.9648L16.0321 21.964C16.1388 21.8056 16.2828 21.6757 16.4514 21.5859C16.6202 21.4959 16.8086 21.4488 17 21.4488C17.1913 21.4488 17.3797 21.4959 17.5486 21.5859C17.7172 21.6757 17.8611 21.8056 17.9678 21.964L17.9683 21.9648L20.3072 25.4631C20.4618 25.6944 20.7217 25.8333 21 25.8333H23C24.2818 25.8333 25.5112 25.3241 26.4176 24.4177C27.3241 23.5112 27.8333 22.2819 27.8333 21V17C27.8333 15.7181 27.3241 14.4887 26.4176 13.5823C25.5112 12.6759 24.2818 12.1666 23 12.1666H11ZM8.76079 14.7608C9.35465 14.1669 10.1601 13.8333 11 13.8333H23C23.8398 13.8333 24.6453 14.1669 25.2391 14.7608C25.833 15.3547 26.1666 16.1601 26.1666 17V21C26.1666 21.8398 25.833 22.6453 25.2391 23.2392C24.6453 23.833 23.8398 24.1666 23 24.1666H21.4452L19.3527 21.0368L19.3516 21.0352C19.0924 20.6495 18.7424 20.3335 18.3323 20.115C17.9222 19.8965 17.4646 19.7822 17 19.7822C16.5353 19.7822 16.0777 19.8965 15.6676 20.115C15.2575 20.3335 14.9075 20.6495 14.6483 21.0352L14.6472 21.0368L12.5547 24.1666H11C10.1601 24.1666 9.35465 23.833 8.76079 23.2392C8.16692 22.6453 7.83329 21.8398 7.83329 21V17C7.83329 16.1601 8.16692 15.3547 8.76079 14.7608Z" fill="#4ADE80"/>
</g>
<defs>
<clipPath id="clip0_3231_71154">
<rect width="28" height="28" fill="white" transform="translate(6 6)"/>
</clipPath>
</defs>
</svg>
