<svg width="24" height="24" viewBox="0 0 24 24" fill="none" xmlns="http://www.w3.org/2000/svg">
<g clip-path="url(#clip0_2622_53854)">
<path d="M23.2684 9.69807C23.0625 10.2567 22.6538 10.4865 22.0713 10.4388C22.0009 10.4374 21.9306 10.44 21.8605 10.4468C21.7432 11.0478 21.6264 11.6431 21.5109 12.2379C21.2463 13.5966 20.9832 14.9548 20.7216 16.3126C20.6687 16.5855 20.5232 16.7095 20.3146 16.6618C20.106 16.6142 20.0258 16.4489 20.0791 16.1768C20.436 14.3372 20.7921 12.4975 21.1475 10.6576C21.1599 10.5936 21.1634 10.5284 21.1722 10.4508H2.83925C2.92259 10.8917 3.00284 11.3194 3.0853 11.7476C3.50508 13.9179 3.92472 16.0883 4.3442 18.2589C4.47648 18.9481 4.92446 19.3397 5.62732 19.3401C9.88092 19.3428 14.135 19.3428 18.3894 19.3401C19.0888 19.3401 19.5302 18.9679 19.6682 18.2849C19.7017 18.12 19.7259 17.952 19.7722 17.7911C19.8229 17.6147 19.953 17.523 20.1391 17.5534C20.3133 17.5821 20.4275 17.698 20.4072 17.874C20.3393 18.4609 20.2308 19.0359 19.7705 19.4693C19.4261 19.7934 19.0209 19.9777 18.5477 19.9984C18.482 20.0011 18.4155 20.0033 18.3498 20.0033C14.125 20.0033 9.90032 20.0033 5.67582 20.0033C4.61757 20.0033 3.90678 19.423 3.69777 18.4013C3.63207 18.0786 3.57342 17.7545 3.5108 17.4313C3.07163 15.1604 2.63364 12.8892 2.19681 10.6174C2.17035 10.4803 2.12318 10.434 1.98517 10.4384C1.8171 10.4477 1.6485 10.4384 1.48248 10.4106C1.27892 10.3718 1.09457 10.2651 0.959595 10.1078C0.82462 9.95056 0.747031 9.75215 0.739513 9.54506C0.728489 9.2364 0.728048 8.92775 0.739513 8.62174C0.748881 8.38445 0.848359 8.15966 1.01771 7.99318C1.18705 7.8267 1.41352 7.73106 1.65093 7.72575C1.94372 7.71693 5.23738 7.72002 5.53281 7.72575C5.75637 7.72928 5.89525 7.85803 5.89702 8.05116C5.89878 8.24429 5.76033 8.37833 5.53942 8.38274C5.27486 8.38804 2.01029 8.38274 1.74573 8.38274C1.50057 8.38583 1.40048 8.48548 1.39739 8.73021C1.39431 8.97493 1.39739 9.21524 1.39739 9.456C1.39739 9.66103 1.5063 9.77788 1.70605 9.77876C2.8719 9.78317 4.0373 9.77876 5.23357 9.77876C5.06337 9.27565 5.09115 8.81531 5.49064 8.37966H4.48793C4.39269 8.37966 4.29745 8.37966 4.2022 8.37966C3.94426 8.37657 3.79302 8.2562 3.79037 8.0538C3.78773 7.85141 3.93984 7.72177 4.19426 7.72089C4.77366 7.72089 5.35349 7.72707 5.93244 7.71384C6.05068 7.70747 6.16279 7.65916 6.24861 7.57759C7.52999 6.24595 8.81841 4.92136 10.0711 3.56503C10.5742 3.02003 11.2568 2.7537 11.9614 3.31149C12.226 3.20567 12.4592 3.06942 12.7088 3.02312C13.1453 2.94155 13.5025 3.12586 13.8072 3.4451C15.1093 4.8173 16.4184 6.18245 17.7197 7.55554C17.7688 7.6118 17.83 7.65621 17.8987 7.68546C17.9675 7.7147 18.0419 7.72802 18.1165 7.72442C19.4367 7.71825 20.7573 7.73633 22.077 7.71384C22.663 7.70414 23.0678 7.90433 23.2654 8.46873L23.2684 9.69807ZM16.5349 9.77039C16.0842 9.29858 15.6733 8.86249 15.2526 8.4361C15.2085 8.38936 15.1066 8.38098 15.0321 8.38054C13.0097 8.3779 10.9869 8.37878 8.9639 8.38319C8.86567 8.38579 8.7717 8.42385 8.69934 8.49034C8.32234 8.86954 7.9568 9.25934 7.58862 9.64736C7.55814 9.68619 7.53073 9.72732 7.50661 9.77039H16.5349ZM5.75432 9.21215C5.79004 9.45555 5.91834 9.65309 6.12118 9.7329C6.36149 9.82506 6.56564 9.75936 6.73849 9.57813C8.32235 7.91932 9.9059 6.26035 11.4892 4.60124C11.7246 4.35387 11.7277 4.02802 11.5112 3.81549C11.2947 3.60296 10.9556 3.61045 10.7122 3.86487C9.12751 5.52281 7.54512 7.1828 5.96508 8.84485C5.87116 8.94451 5.82355 9.08869 5.75432 9.21215ZM18.2175 9.15219C18.1712 9.07767 18.1042 8.91364 17.9908 8.7937C16.6001 7.32567 15.2053 5.86145 13.8063 4.40106C13.6141 4.19955 13.4262 3.99319 13.2243 3.80226C13.1381 3.72102 13.0269 3.67149 12.9089 3.6618C12.7909 3.6521 12.673 3.68282 12.5748 3.74891C12.3803 3.87766 12.2798 4.12194 12.3618 4.34506C12.4133 4.46561 12.4882 4.57472 12.5823 4.66606C13.9906 6.14821 15.4016 7.62785 16.8153 9.105C16.9824 9.28138 17.146 9.45776 17.3211 9.62532C17.3957 9.70284 17.4934 9.75408 17.5997 9.77133C17.7059 9.78859 17.8148 9.77093 17.9101 9.721C18.1015 9.62929 18.2051 9.46922 18.2175 9.15219ZM12.0029 5.02058L9.44543 7.70149H14.5603L12.0029 5.02058ZM18.7867 9.77744C19.9698 9.77744 21.1343 9.77744 22.2993 9.77744C22.4994 9.77744 22.6079 9.65927 22.6079 9.45467C22.6079 9.22759 22.6079 9.0005 22.6079 8.77342C22.6079 8.47269 22.5166 8.38142 22.2155 8.38098C21.0505 8.38098 19.8853 8.38098 18.7197 8.38098C18.6668 8.38098 18.6139 8.39024 18.55 8.39642C18.9031 8.89865 18.9261 9.03269 18.7867 9.77744Z" fill="black"/>
<path d="M7.57455 12.0777C8.06444 12.0737 8.47276 12.4229 8.56359 12.9366C8.79288 14.2324 9.01952 15.5288 9.24352 16.8257C9.3414 17.3928 8.99483 17.8804 8.43131 17.9832C7.90218 18.0798 7.3951 17.7186 7.29589 17.163C7.10055 16.0691 6.91094 14.9738 6.71825 13.8794C6.68121 13.6704 6.64063 13.4622 6.60492 13.2532C6.57899 13.1105 6.58453 12.9638 6.62113 12.8234C6.65773 12.683 6.72452 12.5523 6.81684 12.4404C6.90916 12.3284 7.02479 12.238 7.15566 12.1754C7.28653 12.1127 7.42948 12.0794 7.57455 12.0777ZM7.5988 12.7391C7.54792 12.7368 7.49721 12.7461 7.45052 12.7665C7.40383 12.7868 7.36241 12.8176 7.32945 12.8564C7.2965 12.8952 7.2729 12.9411 7.26043 12.9905C7.24796 13.0398 7.24696 13.0914 7.25752 13.1412C7.48416 14.4443 7.71507 15.7464 7.95024 17.0475C7.98727 17.2534 8.14778 17.365 8.32415 17.3341C8.51376 17.3011 8.62884 17.1331 8.59444 16.9258C8.53051 16.544 8.46217 16.163 8.39382 15.7816C8.23332 14.875 8.07325 13.9684 7.91363 13.0619C7.87968 12.87 7.77562 12.7624 7.59837 12.7391H7.5988Z" fill="black"/>
<path d="M17.415 13.1448C17.3467 13.5417 17.2677 14.01 17.1853 14.4778C17.0292 15.3632 16.8721 16.2486 16.7139 17.134C16.6107 17.7117 16.1191 18.0798 15.5811 17.9846C15.0079 17.8832 14.6635 17.3959 14.7641 16.8121C14.9875 15.5149 15.2144 14.2185 15.4449 12.923C15.5401 12.3891 16.0062 12.0293 16.5106 12.0813C17.0283 12.1351 17.4154 12.5593 17.415 13.1448ZM16.7536 13.1157C16.7659 12.9195 16.6442 12.763 16.4617 12.7409C16.2791 12.7189 16.1341 12.8432 16.0944 13.0668C15.873 14.3111 15.6534 15.5559 15.4356 16.8011C15.3783 17.1283 15.4639 17.2998 15.6865 17.3355C15.8999 17.3695 16.034 17.2218 16.0913 16.8946C16.1907 16.3264 16.2906 15.7578 16.3912 15.189C16.5102 14.4976 16.6306 13.8065 16.7523 13.1157H16.7536Z" fill="black"/>
<path d="M12.9928 15.0364C12.9928 15.689 13.0056 16.3416 12.9893 16.9933C12.9685 17.8091 12.1396 18.265 11.4702 17.8391C11.3473 17.7648 11.2432 17.6631 11.1661 17.542C11.089 17.4208 11.0409 17.2834 11.0258 17.1406C11.0172 17.0752 11.0127 17.0094 11.0121 16.9435C11.0121 15.6754 11.0121 14.4074 11.0121 13.1395C11.0121 12.7519 11.151 12.438 11.4857 12.229C12.0977 11.8476 12.9068 12.2312 12.9769 12.9486C13.0104 13.2899 12.9923 13.6369 12.9945 13.9808C12.9945 14.3336 12.9945 14.6863 12.9945 15.0364H12.9928ZM12.3336 15.0289C12.3336 14.6468 12.3336 14.2657 12.3336 13.8856C12.3336 13.6144 12.3397 13.3432 12.3287 13.0725C12.3203 12.8697 12.1709 12.733 11.9923 12.7396C11.8212 12.7453 11.6938 12.8772 11.6753 13.0712C11.67 13.1289 11.6722 13.188 11.6722 13.2475C11.6722 14.4422 11.6722 15.6366 11.6722 16.8306C11.6686 16.9183 11.6748 17.0062 11.6907 17.0925C11.7291 17.2575 11.8582 17.3624 12.0099 17.3289C12.1237 17.3038 12.2304 17.1887 12.3098 17.0895C12.3512 17.0379 12.3323 16.9342 12.3327 16.854C12.3354 16.2455 12.3356 15.6372 12.3336 15.0289Z" fill="black"/>
</g>
<defs>
<clipPath id="clip0_2622_53854">
<rect width="22.5369" height="17" fill="white" transform="translate(0.731567 3)"/>
</clipPath>
</defs>
</svg>
