<svg width="40" height="40" viewBox="0 0 40 40" fill="none" xmlns="http://www.w3.org/2000/svg">
<path d="M30.1345 18.3799H9.90326C9.63336 18.3776 9.36611 18.4332 9.11954 18.543C8.87297 18.6528 8.65282 18.8142 8.47394 19.0164C8.29507 19.2185 8.16163 19.4566 8.08264 19.7147C8.00364 19.9728 7.98093 20.2449 8.01602 20.5125L9.39371 30.8923C9.4536 31.3492 9.67858 31.7684 10.0262 32.0708C10.3739 32.3733 10.8202 32.5381 11.2809 32.5342H28.719C29.1798 32.5381 29.6261 32.3733 29.9738 32.0708C30.3214 31.7684 30.5464 31.3492 30.6063 30.8923L31.984 20.5125C32.0187 20.248 31.9969 19.9792 31.9201 19.7237C31.8433 19.4683 31.7133 19.232 31.5385 19.0305C31.3637 18.829 31.1483 18.6668 30.9062 18.5547C30.6642 18.4425 30.4012 18.383 30.1345 18.3799Z" stroke="#4AAF57" stroke-width="1.5" stroke-linecap="round" stroke-linejoin="round"/>
<path d="M15.3007 23.0978V27.8159" stroke="#4AAF57" stroke-width="1.5" stroke-linecap="round" stroke-linejoin="round"/>
<path d="M20.0187 23.0978V27.8159" stroke="#4AAF57" stroke-width="1.5" stroke-linecap="round" stroke-linejoin="round"/>
<path d="M24.7368 23.0978V27.8159" stroke="#4AAF57" stroke-width="1.5" stroke-linecap="round" stroke-linejoin="round"/>
<path d="M24.699 9.96271C25.8295 10.158 26.8653 10.7172 27.6488 11.5552C28.4324 12.3933 28.9207 13.4642 29.0397 14.6053L29.4549 18.3798" stroke="#4AAF57" stroke-width="1.5" stroke-linecap="round" stroke-linejoin="round"/>
<path d="M10.5825 18.38L10.9977 14.6055C11.1244 13.4712 11.6162 12.4088 12.3991 11.5783C13.182 10.7477 14.2135 10.1941 15.3384 10.0007" stroke="#4AAF57" stroke-width="1.5" stroke-linecap="round" stroke-linejoin="round"/>
<path d="M24.7369 10.359C24.7369 10.6688 24.6759 10.9756 24.5573 11.2618C24.4388 11.548 24.265 11.8081 24.046 12.0271C23.8269 12.2462 23.5669 12.42 23.2806 12.5385C22.9944 12.6571 22.6877 12.7181 22.3779 12.7181H17.6598C17.0341 12.7181 16.4341 12.4696 15.9917 12.0271C15.5493 11.5847 15.3007 10.9847 15.3007 10.359C15.3007 9.73339 15.5493 9.13336 15.9917 8.69095C16.4341 8.24854 17.0341 8 17.6598 8H22.3779C23.0035 8 23.6036 8.24854 24.046 8.69095C24.4884 9.13336 24.7369 9.73339 24.7369 10.359V10.359Z" stroke="#4AAF57" stroke-width="1.5" stroke-linecap="round" stroke-linejoin="round"/>
</svg>
