<svg width="24" height="24" viewBox="0 0 24 24" fill="none" xmlns="http://www.w3.org/2000/svg">
<path fill-rule="evenodd" clip-rule="evenodd" d="M5.9438 10.5779H18.086C18.3096 10.5805 18.5301 10.6305 18.733 10.7245C18.936 10.8185 19.1166 10.9545 19.2632 11.1235C19.4097 11.2924 19.5187 11.4905 19.5831 11.7047C19.6475 11.9189 19.6657 12.1443 19.6367 12.366L19.6366 12.3667L18.8101 18.5938C18.81 18.5941 18.81 18.5943 18.81 18.5946C18.7596 18.9774 18.571 19.3286 18.2797 19.582C17.9888 19.8351 17.6154 19.9733 17.2298 19.9705H6.77036C6.38477 19.9733 6.01142 19.8351 5.72047 19.582C5.42908 19.3285 5.24048 18.9772 5.19019 18.5942C5.19017 18.5941 5.19021 18.5944 5.19019 18.5942L4.36353 12.366C4.33411 12.1416 4.35315 11.9135 4.41938 11.6971C4.48562 11.4807 4.5975 11.2811 4.74747 11.1116C4.89745 10.9421 5.08203 10.8068 5.28877 10.7147C5.49487 10.6229 5.71821 10.5763 5.9438 10.5779ZM5.93824 11.4779C5.84065 11.4771 5.74402 11.4972 5.65487 11.5369C5.56572 11.5766 5.48613 11.6349 5.42145 11.708C5.35678 11.7811 5.30854 11.8672 5.27998 11.9605C5.25144 12.0537 5.24322 12.152 5.25585 12.2486C5.25586 12.2487 5.25584 12.2485 5.25585 12.2486L6.08251 18.4769C6.10416 18.6421 6.1855 18.7936 6.3112 18.903C6.43689 19.0123 6.59825 19.0719 6.76485 19.0705L6.76867 19.0705L17.2353 19.0705C17.4019 19.0719 17.5633 19.0123 17.689 18.903C17.8147 18.7936 17.896 18.6421 17.9177 18.4769L18.7443 12.2489C18.7443 12.2488 18.7443 12.2491 18.7443 12.2489C18.7568 12.1535 18.7489 12.056 18.7212 11.9638C18.6935 11.8714 18.6464 11.786 18.5832 11.7131C18.5201 11.6403 18.4421 11.5816 18.3546 11.5411C18.2678 11.5009 18.1735 11.4793 18.0779 11.4779L5.93824 11.4779Z" fill="#212121"/>
<path fill-rule="evenodd" clip-rule="evenodd" d="M9.18047 13.4087C9.429 13.4087 9.63047 13.6102 9.63047 13.8587V16.6896C9.63047 16.9381 9.429 17.1396 9.18047 17.1396C8.93194 17.1396 8.73047 16.9381 8.73047 16.6896V13.8587C8.73047 13.6102 8.93194 13.4087 9.18047 13.4087Z" fill="#212121"/>
<path fill-rule="evenodd" clip-rule="evenodd" d="M12.0113 13.4087C12.2598 13.4087 12.4613 13.6102 12.4613 13.8587V16.6896C12.4613 16.9381 12.2598 17.1396 12.0113 17.1396C11.7628 17.1396 11.5613 16.9381 11.5613 16.6896V13.8587C11.5613 13.6102 11.7628 13.4087 12.0113 13.4087Z" fill="#212121"/>
<path fill-rule="evenodd" clip-rule="evenodd" d="M14.8421 13.4087C15.0906 13.4087 15.2921 13.6102 15.2921 13.8587V16.6896C15.2921 16.9381 15.0906 17.1396 14.8421 17.1396C14.5936 17.1396 14.3921 16.9381 14.3921 16.6896V13.8587C14.3921 13.6102 14.5936 13.4087 14.8421 13.4087Z" fill="#212121"/>
<path fill-rule="evenodd" clip-rule="evenodd" d="M14.376 5.90105C14.4183 5.65615 14.6512 5.49192 14.8961 5.53423C15.671 5.6681 16.381 6.05141 16.9181 6.62585C17.4548 7.19997 17.7895 7.93361 17.8713 8.71529C17.8713 8.71572 17.8714 8.71614 17.8714 8.71657L18.1203 10.9787C18.1474 11.2257 17.9692 11.448 17.7222 11.4752C17.4751 11.5024 17.2528 11.3242 17.2257 11.0771L16.9763 8.80989C16.9151 8.22276 16.6638 7.6717 16.2606 7.2405C15.8575 6.80931 15.3245 6.52158 14.7429 6.42109C14.498 6.37878 14.3337 6.14595 14.376 5.90105Z" fill="#212121"/>
<path fill-rule="evenodd" clip-rule="evenodd" d="M9.6467 5.92411C9.68881 6.16905 9.52439 6.40175 9.27946 6.44386C8.70068 6.54337 8.16991 6.82825 7.76709 7.25559C7.36435 7.68285 7.11131 8.22937 7.04607 8.81288C7.04606 8.813 7.04608 8.81277 7.04607 8.81288L6.797 11.0772C6.76983 11.3242 6.54753 11.5024 6.30049 11.4753C6.05346 11.4481 5.87522 11.2258 5.9024 10.9788L6.15159 8.71334C6.23842 7.93582 6.57555 7.20756 7.11218 6.63826C7.64882 6.06896 8.35591 5.68944 9.12695 5.55687C9.37189 5.51476 9.60458 5.67918 9.6467 5.92411Z" fill="#212121"/>
<path fill-rule="evenodd" clip-rule="evenodd" d="M10.5959 5.24998C10.3399 5.24998 10.0943 5.35169 9.91324 5.53274C9.73218 5.7138 9.63047 5.95936 9.63047 6.21541C9.63047 6.47145 9.73218 6.71701 9.91324 6.89807C10.0943 7.07912 10.3399 7.18084 10.5959 7.18084H13.4268C13.5535 7.18084 13.6791 7.15586 13.7962 7.10735C13.9133 7.05883 14.0198 6.98772 14.1094 6.89807C14.1991 6.80842 14.2702 6.70199 14.3187 6.58486C14.3672 6.46773 14.3922 6.34219 14.3922 6.21541C14.3922 5.95936 14.2905 5.7138 14.1094 5.53274C13.9284 5.35169 13.6828 5.24998 13.4268 5.24998H10.5959ZM9.27684 4.89635C9.62668 4.54651 10.1012 4.34998 10.5959 4.34998H13.4268C13.9215 4.34998 14.396 4.54651 14.7458 4.89635C15.0957 5.24618 15.2922 5.72066 15.2922 6.21541C15.2922 6.46038 15.2439 6.70295 15.1502 6.92927C15.0564 7.1556 14.919 7.36124 14.7458 7.53446C14.5726 7.70768 14.367 7.84509 14.1406 7.93884C13.9143 8.03258 13.6717 8.08084 13.4268 8.08084H10.5959C10.1012 8.08084 9.62668 7.8843 9.27684 7.53446C8.927 7.18463 8.73047 6.71015 8.73047 6.21541C8.73047 5.72066 8.927 5.24618 9.27684 4.89635Z" fill="#212121"/>
</svg>
