<svg width="24" height="24" viewBox="0 0 24 24" fill="none" xmlns="http://www.w3.org/2000/svg">
<g clip-path="url(#clip0_1300_35076)">
<path fill-rule="evenodd" clip-rule="evenodd" d="M12.5 4.19995C12.5 3.92381 12.2761 3.69995 12 3.69995C11.7239 3.69995 11.5 3.92381 11.5 4.19995V8.53544C9.80385 8.77806 8.5 10.2368 8.5 12C8.5 13.933 10.067 15.5 12 15.5C13.933 15.5 15.5 13.933 15.5 12C15.5 10.2368 14.1961 8.77806 12.5 8.53544V4.19995ZM9.5 12C9.5 10.6193 10.6193 9.5 12 9.5C13.3807 9.5 14.5 10.6193 14.5 12C14.5 13.3807 13.3807 14.5 12 14.5C10.6193 14.5 9.5 13.3807 9.5 12ZM14.5546 5.89271C14.6801 5.64674 14.9813 5.5491 15.2273 5.67462C16.3931 6.26956 17.3718 7.17519 18.0552 8.29146C18.7386 9.40771 19.1002 10.6911 19.1 12V16.8C19.1 17.2508 18.9209 17.6832 18.6021 18.0021C18.2833 18.3209 17.8509 18.5 17.4 18.5H15.5V19.8C15.5 20.0761 15.2761 20.3 15 20.3C14.7238 20.3 14.5 20.0761 14.5 19.8V18C14.5 17.7238 14.7238 17.5 15 17.5H17.4C17.5856 17.5 17.7637 17.4262 17.895 17.295C18.0262 17.1637 18.1 16.9856 18.1 16.8V12C18.1002 10.8755 17.7896 9.77267 17.2024 8.81362C16.6152 7.85457 15.7744 7.07649 14.7727 6.56534C14.5267 6.43982 14.4291 6.13867 14.5546 5.89271ZM9.22707 6.56543C9.47309 6.44002 9.57086 6.13891 9.44544 5.89289C9.32002 5.64687 9.01891 5.54911 8.77289 5.67452C7.60657 6.26911 6.62734 7.17459 5.94344 8.29089C5.25954 9.40719 4.89758 10.6908 4.89758 12C4.89758 13.3091 5.25954 14.5928 5.94344 15.7091C6.57331 16.7372 7.45367 17.5864 8.49998 18.1787V19.8C8.49998 20.0761 8.72384 20.3 8.99998 20.3C9.27613 20.3 9.49998 20.0761 9.49998 19.8V17.88C9.49998 17.692 9.39455 17.5199 9.22707 17.4345C8.22502 16.9237 7.38372 16.1457 6.79614 15.1867C6.20856 14.2276 5.89758 13.1247 5.89758 12C5.89758 10.8752 6.20856 9.77237 6.79614 8.8133C7.38372 7.85422 8.22502 7.07628 9.22707 6.56543Z" fill="#212121"/>
</g>
<defs>
<clipPath id="clip0_1300_35076">
<rect width="16.8" height="16.8" fill="white" transform="translate(3.59998 3.59998)"/>
</clipPath>
</defs>
</svg>
