<svg width="24" height="24" viewBox="0 0 24 24" fill="none" xmlns="http://www.w3.org/2000/svg">
<g clip-path="url(#clip0_3069_73726)">
<path fill-rule="evenodd" clip-rule="evenodd" d="M12.5001 4.19995C12.5001 3.92381 12.2763 3.69995 12.0001 3.69995C11.724 3.69995 11.5001 3.92381 11.5001 4.19995V8.53544C9.80398 8.77806 8.50012 10.2368 8.50012 12C8.50012 13.933 10.0671 15.5 12.0001 15.5C13.9331 15.5 15.5001 13.933 15.5001 12C15.5001 10.2368 14.1963 8.77806 12.5001 8.53544V4.19995ZM9.50012 12C9.50012 10.6193 10.6194 9.5 12.0001 9.5C13.3808 9.5 14.5001 10.6193 14.5001 12C14.5001 13.3807 13.3808 14.5 12.0001 14.5C10.6194 14.5 9.50012 13.3807 9.50012 12ZM14.5547 5.89271C14.6803 5.64674 14.9814 5.5491 15.2274 5.67462C16.3932 6.26956 17.3719 7.17519 18.0554 8.29146C18.7388 9.40771 19.1003 10.6911 19.1001 12V16.8C19.1001 17.2508 18.921 17.6832 18.6022 18.0021C18.2834 18.3209 17.851 18.5 17.4001 18.5H15.5001V19.8C15.5001 20.0761 15.2762 20.3 15.0001 20.3C14.724 20.3 14.5001 20.0761 14.5001 19.8V18C14.5001 17.7238 14.724 17.5 15.0001 17.5H17.4001C17.5858 17.5 17.7638 17.4262 17.8951 17.295C18.0264 17.1637 18.1001 16.9856 18.1001 16.8V12C18.1003 10.8755 17.7897 9.77267 17.2025 8.81362C16.6153 7.85457 15.7745 7.07649 14.7728 6.56534C14.5269 6.43982 14.4292 6.13867 14.5547 5.89271ZM9.2272 6.56543C9.47321 6.44002 9.57098 6.13891 9.44556 5.89289C9.32014 5.64687 9.01903 5.54911 8.77302 5.67452C7.60669 6.26911 6.62747 7.17459 5.94356 8.29089C5.25966 9.40719 4.89771 10.6908 4.89771 12C4.89771 13.3091 5.25966 14.5928 5.94356 15.7091C6.57343 16.7372 7.45379 17.5864 8.50011 18.1787V19.8C8.50011 20.0761 8.72396 20.3 9.00011 20.3C9.27625 20.3 9.50011 20.0761 9.50011 19.8V17.88C9.50011 17.692 9.39467 17.5199 9.2272 17.4345C8.22514 16.9237 7.38384 16.1457 6.79626 15.1867C6.20868 14.2276 5.89771 13.1247 5.89771 12C5.89771 10.8752 6.20868 9.77237 6.79626 8.8133C7.38384 7.85422 8.22514 7.07628 9.2272 6.56543Z" fill="#212121"/>
</g>
<defs>
<clipPath id="clip0_3069_73726">
<rect width="16.8" height="16.8" fill="white" transform="translate(3.6001 3.59998)"/>
</clipPath>
</defs>
</svg>
