<svg width="24" height="24" viewBox="0 0 24 24" fill="none" xmlns="http://www.w3.org/2000/svg">
<g clip-path="url(#clip0_3069_73735)">
<path fill-rule="evenodd" clip-rule="evenodd" d="M12.377 7.85276C13.548 6.51075 14.6881 5.97611 15.6547 5.9066C16.621 5.83711 17.4924 6.22614 18.1479 6.88632C19.4814 8.22916 19.8228 10.5618 18.2767 12.1324L12.0015 17.9188L8.46451 14.6337C8.26218 14.4457 7.94581 14.4574 7.75789 14.6597C7.56996 14.8621 7.58164 15.1784 7.78397 15.3664L11.66 18.9664C11.8513 19.1441 12.1472 19.1446 12.3392 18.9676L18.9632 12.8596C18.9688 12.8545 18.9742 12.8492 18.9796 12.8438C21.0006 10.8025 20.4949 7.83063 18.8575 6.18171C18.0266 5.34489 16.8798 4.81592 15.5829 4.90918C14.4109 4.99346 13.1805 5.58082 11.9984 6.78908C10.2855 5.05624 8.47465 4.62068 6.93552 5.09138C5.32077 5.5852 4.14467 7.04008 3.80665 8.67052C3.7506 8.94091 3.92435 9.20555 4.19474 9.26161C4.46514 9.31766 4.72977 9.14391 4.78583 8.87352C5.05981 7.55196 6.00772 6.42083 7.22797 6.04766C8.41039 5.68605 9.99053 5.99866 11.625 7.85449C11.7202 7.96256 11.8574 8.02435 12.0014 8.02401C12.1454 8.02368 12.2823 7.96127 12.377 7.85276ZM9.43432 9.35191C9.35079 9.20573 9.1993 9.11141 9.03126 9.10094C8.86323 9.09048 8.70121 9.16529 8.60019 9.29998L6.9502 11.5H4.2002C3.92405 11.5 3.7002 11.7238 3.7002 12C3.7002 12.2761 3.92405 12.5 4.2002 12.5H7.2002C7.35757 12.5 7.50577 12.4259 7.6002 12.3L8.94362 10.5087L10.9661 14.048C11.0496 14.1942 11.2011 14.2885 11.3691 14.299C11.5372 14.3095 11.6992 14.2347 11.8002 14.1L13.4502 11.9H15.0002C15.2763 11.9 15.5002 11.6761 15.5002 11.4C15.5002 11.1238 15.2763 10.9 15.0002 10.9H13.2002C13.0428 10.9 12.8946 10.9741 12.8002 11.1L11.4568 12.8912L9.43432 9.35191Z" fill="#212121"/>
</g>
<defs>
<clipPath id="clip0_3069_73735">
<rect width="16.8" height="16.8" fill="white" transform="translate(3.6001 3.59998)"/>
</clipPath>
</defs>
</svg>
