<svg width="24" height="24" viewBox="0 0 24 24" fill="none" xmlns="http://www.w3.org/2000/svg">
<g clip-path="url(#clip0_1300_35084)">
<path fill-rule="evenodd" clip-rule="evenodd" d="M12.3767 7.85276C13.5478 6.51075 14.6878 5.97611 15.6544 5.9066C16.6207 5.83711 17.4922 6.22614 18.1477 6.88632C19.4811 8.22916 19.8225 10.5618 18.2764 12.1324L12.0012 17.9188L8.46427 14.6337C8.26193 14.4457 7.94557 14.4574 7.75764 14.6597C7.56972 14.8621 7.5814 15.1784 7.78373 15.3664L11.6597 18.9664C11.8511 19.1441 12.147 19.1446 12.3389 18.9676L18.9629 12.8596C18.9685 12.8545 18.974 12.8492 18.9793 12.8438C21.0003 10.8025 20.4947 7.83063 18.8573 6.18171C18.0263 5.34489 16.8795 4.81592 15.5827 4.90918C14.4107 4.99346 13.1803 5.58082 11.9982 6.78908C10.2853 5.05624 8.47441 4.62068 6.93527 5.09138C5.32052 5.5852 4.14443 7.04008 3.80641 8.67052C3.75035 8.94091 3.92411 9.20555 4.1945 9.26161C4.46489 9.31766 4.72953 9.14391 4.78559 8.87352C5.05957 7.55196 6.00747 6.42083 7.22772 6.04766C8.41015 5.68605 9.99029 5.99866 11.6248 7.85449C11.72 7.96256 11.8571 8.02435 12.0011 8.02401C12.1452 8.02368 12.282 7.96127 12.3767 7.85276ZM9.43407 9.35191C9.35054 9.20573 9.19905 9.11141 9.03102 9.10094C8.86298 9.09048 8.70097 9.16529 8.59995 9.29998L6.94995 11.5H4.19995C3.92381 11.5 3.69995 11.7238 3.69995 12C3.69995 12.2761 3.92381 12.5 4.19995 12.5H7.19995C7.35733 12.5 7.50552 12.4259 7.59995 12.3L8.94337 10.5087L10.9658 14.048C11.0494 14.1942 11.2008 14.2885 11.3689 14.299C11.5369 14.3095 11.6989 14.2347 11.8 14.1L13.45 11.9H15C15.2761 11.9 15.5 11.6761 15.5 11.4C15.5 11.1238 15.2761 10.9 15 10.9H13.2C13.0426 10.9 12.8944 10.9741 12.8 11.1L11.4565 12.8912L9.43407 9.35191Z" fill="#212121"/>
</g>
<defs>
<clipPath id="clip0_1300_35084">
<rect width="16.8" height="16.8" fill="white" transform="translate(3.59998 3.59998)"/>
</clipPath>
</defs>
</svg>
