<svg width="40" height="40" viewBox="0 0 40 40" fill="none" xmlns="http://www.w3.org/2000/svg">
<path fill-rule="evenodd" clip-rule="evenodd" d="M20.6279 13.0879C22.5797 10.8512 24.4798 9.96017 26.0907 9.84432C27.7012 9.7285 29.1536 10.3769 30.2462 11.4772C32.4686 13.7152 33.0376 17.603 30.4608 20.2206L20.0021 29.8646L14.1072 24.3894C13.7699 24.0762 13.2427 24.0957 12.9294 24.4329C12.6162 24.7701 12.6357 25.2974 12.9729 25.6106L19.4329 31.6106C19.7518 31.9068 20.245 31.9077 20.5649 31.6126L31.605 21.4326C31.6142 21.4241 31.6233 21.4153 31.6322 21.4063C35.0006 18.0041 34.1578 13.051 31.4289 10.3028C30.044 8.90813 28.1326 8.02651 25.9712 8.18194C24.0178 8.32242 21.9672 9.30135 19.997 11.3151C17.1422 8.42705 14.1241 7.70111 11.5588 8.48561C8.86758 9.30864 6.90742 11.7334 6.34406 14.4508C6.25063 14.9015 6.54022 15.3426 6.99087 15.436C7.44153 15.5294 7.88259 15.2398 7.97602 14.7892C8.43266 12.5866 10.0125 10.7014 12.0462 10.0794C14.017 9.47673 16.6505 9.99774 19.3747 13.0908C19.5333 13.2709 19.7619 13.3739 20.002 13.3733C20.242 13.3728 20.4701 13.2688 20.6279 13.0879ZM15.7235 15.5865C15.5843 15.3429 15.3318 15.1857 15.0517 15.1682C14.7717 15.1508 14.5017 15.2755 14.3333 15.4999L11.5833 19.1666H6.99996C6.53972 19.1666 6.16663 19.5397 6.16663 19.9999C6.16663 20.4602 6.53972 20.8333 6.99996 20.8333H12C12.2623 20.8333 12.5092 20.7098 12.6666 20.4999L14.9057 17.5146L18.2764 23.4134C18.4156 23.657 18.6681 23.8142 18.9482 23.8317C19.2282 23.8491 19.4983 23.7244 19.6666 23.4999L22.4166 19.8333H25C25.4602 19.8333 25.8333 19.4602 25.8333 18.9999C25.8333 18.5397 25.4602 18.1666 25 18.1666H22C21.7377 18.1666 21.4907 18.2901 21.3333 18.4999L19.0943 21.4853L15.7235 15.5865Z" fill="#FF981F"/>
</svg>
