<svg width="40" height="40" viewBox="0 0 40 40" fill="none" xmlns="http://www.w3.org/2000/svg">
<g clip-path="url(#clip0_3231_71146)">
<path fill-rule="evenodd" clip-rule="evenodd" d="M13 7.83335C12.3557 7.83335 11.8333 8.35569 11.8333 9.00002V13C11.8333 13.6444 12.3557 14.1667 13 14.1667H31C31.6443 14.1667 32.1667 13.6444 32.1667 13V9.00002C32.1667 8.35569 31.6443 7.83335 31 7.83335H13ZM10.1667 9.00002C10.1667 7.43521 11.4352 6.16669 13 6.16669H31C32.5648 6.16669 33.8333 7.43521 33.8333 9.00002V13C33.8333 14.5648 32.5648 15.8334 31 15.8334H13C11.4352 15.8334 10.1667 14.5648 10.1667 13V11.8334H8.99996C8.69054 11.8334 8.39379 11.9563 8.175 12.1751C7.95621 12.3939 7.83329 12.6906 7.83329 13.0001V15.0001C7.83329 15.8399 8.16692 16.6454 8.76079 17.2392C9.35465 17.8331 10.1601 18.1667 11 18.1667H18C19.2818 18.1667 20.5112 18.676 21.4176 19.5824C22.3241 20.4888 22.8333 21.7182 22.8333 23.0001V24.1668H22.9999C23.7513 24.1668 24.472 24.4653 25.0033 24.9966C25.5347 25.528 25.8332 26.2487 25.8332 27.0001V33.0001C25.8332 33.4603 25.4601 33.8334 24.9999 33.8334C24.5396 33.8334 24.1665 33.4603 24.1665 33.0001V27.0001C24.1665 26.6907 24.0436 26.3939 23.8248 26.1751C23.606 25.9564 23.3093 25.8334 22.9999 25.8334H20.9999C20.6905 25.8334 20.3937 25.9564 20.1749 26.1751C19.9561 26.3939 19.8332 26.6907 19.8332 27.0001V33.0001C19.8332 33.4603 19.4601 33.8334 18.9999 33.8334C18.5396 33.8334 18.1665 33.4603 18.1665 33.0001V27.0001C18.1665 26.2487 18.4651 25.528 18.9964 24.9966C19.5278 24.4653 20.2484 24.1668 20.9999 24.1668H21.1666V23.0001C21.1666 22.1602 20.833 21.3548 20.2391 20.7609C19.6453 20.167 18.8398 19.8334 18 19.8334H11C9.71808 19.8334 8.4887 19.3242 7.58228 18.4177C6.67585 17.5113 6.16663 16.2819 6.16663 15.0001V13.0001C6.16663 12.2486 6.46514 11.5279 6.99649 10.9966C7.52784 10.4652 8.24851 10.1667 8.99996 10.1667H10.1667V9.00002Z" fill="#246BFD"/>
</g>
<defs>
<clipPath id="clip0_3231_71146">
<rect width="28" height="28" fill="white" transform="translate(6 6)"/>
</clipPath>
</defs>
</svg>
