<svg width="24" height="24" viewBox="0 0 24 24" fill="none" xmlns="http://www.w3.org/2000/svg">
<g clip-path="url(#clip0_1300_35090)">
<path fill-rule="evenodd" clip-rule="evenodd" d="M7.79998 4.69995C7.41338 4.69995 7.09998 5.01335 7.09998 5.39995V7.79995C7.09998 8.18655 7.41338 8.49995 7.79998 8.49995H18.6C18.9866 8.49995 19.3 8.18655 19.3 7.79995V5.39995C19.3 5.01335 18.9866 4.69995 18.6 4.69995H7.79998ZM6.09998 5.39995C6.09998 4.46107 6.86109 3.69995 7.79998 3.69995H18.6C19.5389 3.69995 20.3 4.46107 20.3 5.39995V7.79995C20.3 8.73883 19.5389 9.49995 18.6 9.49995H7.79998C6.86109 9.49995 6.09998 8.73883 6.09998 7.79995V7.09998H5.39995C5.2143 7.09998 5.03625 7.17373 4.90498 7.305C4.7737 7.43628 4.69995 7.61432 4.69995 7.79998V8.99998C4.69995 9.50389 4.90013 9.98716 5.25645 10.3435C5.61277 10.6998 6.09604 10.9 6.59995 10.9H10.8C11.5691 10.9 12.3067 11.2055 12.8506 11.7494C13.3944 12.2932 13.7 13.0308 13.7 13.8V14.5H13.7999C14.2508 14.5 14.6832 14.6791 15.002 14.9979C15.3208 15.3167 15.4999 15.7491 15.4999 16.2V19.8C15.4999 20.0761 15.276 20.3 14.9999 20.3C14.7238 20.3 14.4999 20.0761 14.4999 19.8V16.2C14.4999 16.0143 14.4262 15.8363 14.2949 15.705C14.1636 15.5737 13.9856 15.5 13.7999 15.5H12.5999C12.4143 15.5 12.2362 15.5737 12.1049 15.705C11.9737 15.8363 11.8999 16.0143 11.8999 16.2V19.8C11.8999 20.0761 11.676 20.3 11.3999 20.3C11.1238 20.3 10.8999 20.0761 10.8999 19.8V16.2C10.8999 15.7491 11.079 15.3167 11.3978 14.9979C11.7166 14.6791 12.149 14.5 12.5999 14.5H12.7V13.8C12.7 13.2961 12.4998 12.8128 12.1435 12.4565C11.7871 12.1002 11.3039 11.9 10.8 11.9H6.59995C5.83082 11.9 5.0932 11.5944 4.54934 11.0506C4.00549 10.5067 3.69995 9.7691 3.69995 8.99998V7.79998C3.69995 7.34911 3.87906 6.91671 4.19787 6.59789C4.51668 6.27908 4.94908 6.09998 5.39995 6.09998H6.09998V5.39995Z" fill="#212121"/>
</g>
<defs>
<clipPath id="clip0_1300_35090">
<rect width="16.8" height="16.8" fill="white" transform="translate(3.59998 3.59998)"/>
</clipPath>
</defs>
</svg>
