<svg width="24" height="24" viewBox="0 0 24 24" fill="none" xmlns="http://www.w3.org/2000/svg">
<g clip-path="url(#clip0_3069_73742)">
<path fill-rule="evenodd" clip-rule="evenodd" d="M7.80022 4.69995C7.41362 4.69995 7.10022 5.01335 7.10022 5.39995V7.79995C7.10022 8.18655 7.41362 8.49995 7.80022 8.49995H18.6002C18.9868 8.49995 19.3002 8.18655 19.3002 7.79995V5.39995C19.3002 5.01335 18.9868 4.69995 18.6002 4.69995H7.80022ZM6.10022 5.39995C6.10022 4.46107 6.86134 3.69995 7.80022 3.69995H18.6002C19.5391 3.69995 20.3002 4.46107 20.3002 5.39995V7.79995C20.3002 8.73883 19.5391 9.49995 18.6002 9.49995H7.80022C6.86134 9.49995 6.10022 8.73883 6.10022 7.79995V7.09998H5.4002C5.21454 7.09998 5.0365 7.17373 4.90522 7.305C4.77395 7.43628 4.7002 7.61432 4.7002 7.79998V8.99998C4.7002 9.50389 4.90037 9.98716 5.25669 10.3435C5.61301 10.6998 6.09628 10.9 6.6002 10.9H10.8002C11.5693 10.9 12.3069 11.2055 12.8508 11.7494C13.3947 12.2932 13.7002 13.0308 13.7002 13.8V14.5H13.8001C14.251 14.5 14.6834 14.6791 15.0022 14.9979C15.321 15.3167 15.5001 15.7491 15.5001 16.2V19.8C15.5001 20.0761 15.2763 20.3 15.0001 20.3C14.724 20.3 14.5001 20.0761 14.5001 19.8V16.2C14.5001 16.0143 14.4264 15.8363 14.2951 15.705C14.1638 15.5737 13.9858 15.5 13.8001 15.5H12.6001C12.4145 15.5 12.2364 15.5737 12.1052 15.705C11.9739 15.8363 11.9001 16.0143 11.9001 16.2V19.8C11.9001 20.0761 11.6763 20.3 11.4001 20.3C11.124 20.3 10.9001 20.0761 10.9001 19.8V16.2C10.9001 15.7491 11.0793 15.3167 11.3981 14.9979C11.7169 14.6791 12.1493 14.5 12.6001 14.5H12.7002V13.8C12.7002 13.2961 12.5 12.8128 12.1437 12.4565C11.7874 12.1002 11.3041 11.9 10.8002 11.9H6.6002C5.83107 11.9 5.09344 11.5944 4.54959 11.0506C4.00573 10.5067 3.7002 9.7691 3.7002 8.99998V7.79998C3.7002 7.34911 3.8793 6.91671 4.19811 6.59789C4.51693 6.27908 4.94933 6.09998 5.4002 6.09998H6.10022V5.39995Z" fill="#212121"/>
</g>
<defs>
<clipPath id="clip0_3069_73742">
<rect width="16.8" height="16.8" fill="white" transform="translate(3.6001 3.59998)"/>
</clipPath>
</defs>
</svg>
