<svg width="40" height="40" viewBox="0 0 40 40" fill="none" xmlns="http://www.w3.org/2000/svg">
<path fill-rule="evenodd" clip-rule="evenodd" d="M19.2441 8.24408C19.5695 7.91864 20.0972 7.91864 20.4226 8.24408L33.4226 21.2441C33.748 21.5695 33.748 22.0972 33.4226 22.4226C33.0971 22.748 32.5695 22.748 32.2441 22.4226L29.6667 19.8452V30.8334C29.6667 31.2936 29.2936 31.6667 28.8334 31.6667H19.8352C19.8346 31.6667 19.834 31.6667 19.8334 31.6667C19.8328 31.6667 19.8322 31.6667 19.8316 31.6667H10.8334C10.3731 31.6667 10 31.2936 10 30.8334V19.8451L7.42259 22.4226C7.09715 22.748 6.56951 22.748 6.24408 22.4226C5.91864 22.0972 5.91864 21.5695 6.24408 21.2441L19.2441 8.24408ZM20.6667 30V22.8334C20.6667 22.3731 20.2937 22 19.8334 22C19.3732 22 19.0001 22.3731 19.0001 22.8334V30H11.6667V18.1785L19.8333 10.0118L28 18.1786V30H20.6667Z" fill="#FFD300"/>
</svg>
