<svg width="24" height="24" viewBox="0 0 24 24" fill="none" xmlns="http://www.w3.org/2000/svg">
<g clip-path="url(#clip0_3070_73806)">
<path fill-rule="evenodd" clip-rule="evenodd" d="M11.5465 4.94637C11.7418 4.75111 12.0584 4.75111 12.2537 4.94637L20.0536 12.7464C20.2489 12.9416 20.2489 13.2582 20.0536 13.4535C19.8584 13.6487 19.5418 13.6487 19.3465 13.4535L17.8001 11.9071V18.5C17.8001 18.7761 17.5763 19 17.3001 19H11.9001H6.50012C6.22398 19 6.00012 18.7761 6.00012 18.5V11.907L4.45365 13.4535C4.25839 13.6487 3.94181 13.6487 3.74654 13.4535C3.55128 13.2582 3.55128 12.9416 3.74654 12.7464L11.5465 4.94637ZM12.4001 18V13.7C12.4001 13.4238 12.1763 13.2 11.9001 13.2C11.624 13.2 11.4001 13.4238 11.4001 13.7V18H7.00012V10.907L11.9001 6.00703L16.8001 10.9071V18H12.4001Z" fill="#212121"/>
</g>
<defs>
<clipPath id="clip0_3070_73806">
<rect width="16.8" height="16.8" fill="white" transform="translate(3.6001 3.59998)"/>
</clipPath>
</defs>
</svg>
