<svg width="24" height="24" viewBox="0 0 24 24" fill="none" xmlns="http://www.w3.org/2000/svg">
<g clip-path="url(#clip0_1300_35055)">
<path fill-rule="evenodd" clip-rule="evenodd" d="M11.6464 6.24642C11.8417 6.05116 12.1582 6.05116 12.3535 6.24642L20.1535 14.0464C20.3488 14.2417 20.3488 14.5583 20.1535 14.7535C19.9582 14.9488 19.6417 14.9488 19.4464 14.7535L17.9 13.2071V19.8C17.9 20.0761 17.6761 20.3 17.4 20.3H12H6.59998C6.32383 20.3 6.09998 20.0761 6.09998 19.8V13.2071L4.5535 14.7535C4.35824 14.9488 4.04166 14.9488 3.8464 14.7535C3.65114 14.5583 3.65114 14.2417 3.8464 14.0464L11.6464 6.24642ZM12.5 19.3V15C12.5 14.7239 12.2761 14.5 12 14.5C11.7239 14.5 11.5 14.7239 11.5 15V19.3H7.09998V12.2071L12 7.30708L16.9 12.2071V19.3H12.5Z" fill="#212121"/>
</g>
<defs>
<clipPath id="clip0_1300_35055">
<rect width="16.8" height="16.8" fill="white" transform="translate(3.59998 3.59998)"/>
</clipPath>
</defs>
</svg>
