<svg width="24" height="24" viewBox="0 0 24 24" fill="none" xmlns="http://www.w3.org/2000/svg">
<g clip-path="url(#clip0_1292_36729)">
<path d="M12 20.3571C16.6155 20.3571 20.3571 16.6155 20.3571 12C20.3571 7.38444 16.6155 3.64282 12 3.64282C7.38444 3.64282 3.64282 7.38444 3.64282 12C3.64282 16.6155 7.38444 20.3571 12 20.3571Z" stroke="#212121" stroke-width="1.28571" stroke-linecap="round" stroke-linejoin="round"/>
<path d="M4.28577 15.2143H6.53577C7.1325 15.2143 7.7048 14.9773 8.12676 14.5553C8.54871 14.1334 8.78577 13.5611 8.78577 12.9643V11.0358C8.78577 10.439 9.02282 9.86673 9.44478 9.44478C9.86673 9.02282 10.439 8.78577 11.0358 8.78577C11.6325 8.78577 12.2048 8.54871 12.6268 8.12676C13.0487 7.7048 13.2858 7.1325 13.2858 6.53577V3.73291" stroke="#212121" stroke-width="1.28571" stroke-linecap="round" stroke-linejoin="round"/>
<path d="M20.3572 11.8715C19.7135 11.5374 18.9996 11.3612 18.2743 11.3572H15.5358C14.939 11.3572 14.3667 11.5942 13.9448 12.0162C13.5228 12.4381 13.2858 13.0104 13.2858 13.6072C13.2858 14.2039 13.5228 14.7762 13.9448 15.1982C14.3667 15.6201 14.939 15.8572 15.5358 15.8572C15.962 15.8572 16.3708 16.0265 16.6722 16.3279C16.9736 16.6293 17.1429 17.0381 17.1429 17.4643V18.5829" stroke="#212121" stroke-width="1.28571" stroke-linecap="round" stroke-linejoin="round"/>
</g>
<defs>
<clipPath id="clip0_1292_36729">
<rect width="18" height="18" fill="white" transform="translate(3 3)"/>
</clipPath>
</defs>
</svg>
