<svg width="24" height="24" viewBox="0 0 24 24" fill="none" xmlns="http://www.w3.org/2000/svg">
<g id="Iconly/Light/Category">
<g id="Category">
<path id="Stroke 1 (Stroke)" fill-rule="evenodd" clip-rule="evenodd" d="M3.80276 4.93943C3.75297 5.33428 3.75001 5.82979 3.75001 6.5C3.75001 7.17286 3.75051 7.66863 3.79786 8.06555C3.84451 8.45665 3.9274 8.65107 4.01972 8.76683C4.10304 8.87131 4.26235 8.99694 4.6536 9.09464C5.05681 9.19532 5.64186 9.25 6.50001 9.25C7.35815 9.25 7.9432 9.19532 8.34642 9.09464C8.73766 8.99694 8.89697 8.87131 8.98029 8.76683C9.07261 8.65107 9.1555 8.45665 9.20216 8.06555C9.24951 7.66863 9.25001 7.17286 9.25001 6.5C9.25001 5.82979 9.24704 5.33428 9.19726 4.93943C9.14821 4.55042 9.06324 4.35427 8.96816 4.23636C8.88148 4.12889 8.71867 4.00281 8.32925 3.9052C7.92791 3.80461 7.34779 3.75 6.50001 3.75C5.65222 3.75 5.07211 3.80461 4.67077 3.9052C4.28134 4.00281 4.11853 4.12889 4.03185 4.23636C3.93677 4.35427 3.8518 4.55042 3.80276 4.93943ZM4.30609 2.45021C4.88649 2.30474 5.61184 2.25 6.50001 2.25C7.38817 2.25 8.11352 2.30474 8.69392 2.45021C9.28624 2.59866 9.78144 2.85536 10.1358 3.29473C10.4817 3.72367 10.6208 4.23844 10.6855 4.7518C10.7495 5.25931 10.75 5.8576 10.75 6.5C10.75 6.51886 10.75 6.53768 10.75 6.55647C10.7501 7.17492 10.7501 7.75268 10.6916 8.24323C10.6306 8.75449 10.4968 9.27099 10.153 9.70208C9.80023 10.1445 9.30398 10.4016 8.70981 10.55C8.12762 10.6953 7.3974 10.75 6.50001 10.75C5.60261 10.75 4.87239 10.6953 4.2902 10.55C3.69603 10.4016 3.19978 10.1445 2.84699 9.70208C2.50319 9.27099 2.36941 8.75449 2.30842 8.24323C2.2499 7.75268 2.24995 7.17492 2.25 6.55647C2.25 6.53768 2.25001 6.51886 2.25001 6.5C2.25001 5.8576 2.25055 5.25931 2.31454 4.7518C2.37926 4.23844 2.51831 3.72367 2.86424 3.29473C3.21858 2.85536 3.71378 2.59866 4.30609 2.45021Z" fill="#212121"/>
<path id="Stroke 3 (Stroke)" fill-rule="evenodd" clip-rule="evenodd" d="M14.8028 4.93943C14.753 5.33428 14.75 5.82979 14.75 6.5C14.75 7.17286 14.7505 7.66863 14.7979 8.06555C14.8445 8.45665 14.9274 8.65107 15.0197 8.76683C15.103 8.87131 15.2624 8.99694 15.6536 9.09464C16.0568 9.19532 16.6419 9.25 17.5 9.25C18.3581 9.25 18.9432 9.19532 19.3464 9.09464C19.7377 8.99694 19.897 8.87131 19.9803 8.76683C20.0726 8.65107 20.1555 8.45665 20.2022 8.06555C20.2495 7.66863 20.25 7.17286 20.25 6.5C20.25 5.82979 20.247 5.33428 20.1973 4.93943C20.1482 4.55042 20.0632 4.35427 19.9682 4.23636C19.8815 4.12889 19.7187 4.00281 19.3292 3.9052C18.9279 3.80461 18.3478 3.75 17.5 3.75C16.6522 3.75 16.0721 3.80461 15.6708 3.9052C15.2813 4.00281 15.1185 4.12889 15.0319 4.23636C14.9368 4.35427 14.8518 4.55042 14.8028 4.93943ZM15.3061 2.45021C15.8865 2.30474 16.6118 2.25 17.5 2.25C18.3882 2.25 19.1135 2.30474 19.6939 2.45021C20.2862 2.59866 20.7814 2.85536 21.1358 3.29473C21.4817 3.72367 21.6208 4.23844 21.6855 4.7518C21.7495 5.25931 21.75 5.8576 21.75 6.5C21.75 6.51886 21.75 6.53768 21.75 6.55647C21.7501 7.17492 21.7501 7.75268 21.6916 8.24323C21.6306 8.75449 21.4968 9.27099 21.153 9.70208C20.8002 10.1445 20.304 10.4016 19.7098 10.55C19.1276 10.6953 18.3974 10.75 17.5 10.75C16.6026 10.75 15.8724 10.6953 15.2902 10.55C14.696 10.4016 14.1998 10.1445 13.847 9.70208C13.5032 9.27099 13.3694 8.75449 13.3084 8.24323C13.2499 7.75268 13.2499 7.17492 13.25 6.55647C13.25 6.53768 13.25 6.51886 13.25 6.5C13.25 5.8576 13.2506 5.25931 13.3145 4.7518C13.3793 4.23844 13.5183 3.72367 13.8642 3.29473C14.2186 2.85536 14.7138 2.59866 15.3061 2.45021Z" fill="#212121"/>
<path id="Stroke 5 (Stroke)" fill-rule="evenodd" clip-rule="evenodd" d="M3.80276 15.9394C3.75297 16.3343 3.75001 16.8298 3.75001 17.5C3.75001 18.1729 3.75051 18.6686 3.79786 19.0655C3.84451 19.4567 3.9274 19.6511 4.01972 19.7668C4.10304 19.8713 4.26235 19.9969 4.6536 20.0946C5.05681 20.1953 5.64186 20.25 6.50001 20.25C7.35815 20.25 7.9432 20.1953 8.34642 20.0946C8.73766 19.9969 8.89697 19.8713 8.98029 19.7668C9.07261 19.6511 9.1555 19.4567 9.20216 19.0655C9.24951 18.6686 9.25001 18.1729 9.25001 17.5C9.25001 16.8298 9.24704 16.3343 9.19726 15.9394C9.14821 15.5504 9.06324 15.3543 8.96816 15.2364C8.88148 15.1289 8.71867 15.0028 8.32925 14.9052C7.92791 14.8046 7.34779 14.75 6.50001 14.75C5.65222 14.75 5.07211 14.8046 4.67077 14.9052C4.28134 15.0028 4.11853 15.1289 4.03185 15.2364C3.93677 15.3543 3.8518 15.5504 3.80276 15.9394ZM4.30609 13.4502C4.88649 13.3047 5.61184 13.25 6.50001 13.25C7.38817 13.25 8.11352 13.3047 8.69392 13.4502C9.28624 13.5987 9.78144 13.8554 10.1358 14.2947C10.4817 14.7237 10.6208 15.2384 10.6855 15.7518C10.7495 16.2593 10.75 16.8576 10.75 17.5C10.75 17.5189 10.75 17.5377 10.75 17.5565C10.7501 18.1749 10.7501 18.7527 10.6916 19.2432C10.6306 19.7545 10.4968 20.271 10.153 20.7021C9.80023 21.1445 9.30398 21.4016 8.70981 21.55C8.12762 21.6953 7.3974 21.75 6.50001 21.75C5.60261 21.75 4.87239 21.6953 4.2902 21.55C3.69603 21.4016 3.19978 21.1445 2.84699 20.7021C2.50319 20.271 2.36941 19.7545 2.30842 19.2432C2.2499 18.7527 2.24995 18.1749 2.25 17.5565C2.25 17.5377 2.25001 17.5189 2.25001 17.5C2.25001 16.8576 2.25055 16.2593 2.31454 15.7518C2.37926 15.2384 2.51831 14.7237 2.86424 14.2947C3.21858 13.8554 3.71378 13.5987 4.30609 13.4502Z" fill="#212121"/>
<path id="Stroke 7 (Stroke)" fill-rule="evenodd" clip-rule="evenodd" d="M14.8028 15.9394C14.753 16.3343 14.75 16.8298 14.75 17.5C14.75 18.1729 14.7505 18.6686 14.7979 19.0655C14.8445 19.4567 14.9274 19.6511 15.0197 19.7668C15.103 19.8713 15.2624 19.9969 15.6536 20.0946C16.0568 20.1953 16.6419 20.25 17.5 20.25C18.3581 20.25 18.9432 20.1953 19.3464 20.0946C19.7377 19.9969 19.897 19.8713 19.9803 19.7668C20.0726 19.6511 20.1555 19.4567 20.2022 19.0655C20.2495 18.6686 20.25 18.1729 20.25 17.5C20.25 16.8298 20.247 16.3343 20.1973 15.9394C20.1482 15.5504 20.0632 15.3543 19.9682 15.2364C19.8815 15.1289 19.7187 15.0028 19.3292 14.9052C18.9279 14.8046 18.3478 14.75 17.5 14.75C16.6522 14.75 16.0721 14.8046 15.6708 14.9052C15.2813 15.0028 15.1185 15.1289 15.0319 15.2364C14.9368 15.3543 14.8518 15.5504 14.8028 15.9394ZM15.3061 13.4502C15.8865 13.3047 16.6118 13.25 17.5 13.25C18.3882 13.25 19.1135 13.3047 19.6939 13.4502C20.2862 13.5987 20.7814 13.8554 21.1358 14.2947C21.4817 14.7237 21.6208 15.2384 21.6855 15.7518C21.7495 16.2593 21.75 16.8576 21.75 17.5C21.75 17.5189 21.75 17.5377 21.75 17.5565C21.7501 18.1749 21.7501 18.7527 21.6916 19.2432C21.6306 19.7545 21.4968 20.271 21.153 20.7021C20.8002 21.1445 20.304 21.4016 19.7098 21.55C19.1276 21.6953 18.3974 21.75 17.5 21.75C16.6026 21.75 15.8724 21.6953 15.2902 21.55C14.696 21.4016 14.1998 21.1445 13.847 20.7021C13.5032 20.271 13.3694 19.7545 13.3084 19.2432C13.2499 18.7527 13.2499 18.1749 13.25 17.5565C13.25 17.5377 13.25 17.5189 13.25 17.5C13.25 16.8576 13.2506 16.2593 13.3145 15.7518C13.3793 15.2384 13.5183 14.7237 13.8642 14.2947C14.2186 13.8554 14.7138 13.5987 15.3061 13.4502Z" fill="#212121"/>
</g>
</g>
</svg>
