<svg width="48" height="48" viewBox="0 0 48 48" fill="none" xmlns="http://www.w3.org/2000/svg">
<path d="M13.9119 5.64648C12.7399 5.69471 11.6402 5.94503 10.6175 6.39973C9.59486 6.85444 8.70792 7.46071 7.96127 8.22085C7.21461 8.97869 6.62861 9.86513 6.20324 10.8802C5.77787 11.8952 5.56519 12.9861 5.56519 14.1527C5.56519 15.3675 5.7824 16.4859 6.22134 17.5124C6.65802 18.539 7.25534 19.4323 8.01557 20.1901C8.77354 20.948 9.65821 21.5382 10.6719 21.9584C11.6832 22.3787 12.7647 22.5877 13.9141 22.5877C15.0862 22.5877 16.179 22.3672 17.1904 21.9217C18.2018 21.4785 19.0819 20.8722 19.8286 20.1006C20.5752 19.3312 21.168 18.4379 21.6047 17.4229C22.0414 16.4078 22.2608 15.317 22.2608 14.1504C22.2608 12.9608 22.0368 11.8516 21.5889 10.8251C21.1409 9.79853 20.5367 8.90061 19.7788 8.12899C19.0208 7.35966 18.1339 6.75338 17.1225 6.30787C16.1066 5.86924 15.0387 5.64648 13.9119 5.64648Z" fill="#7210FF"/>
<path d="M33.3902 5.64648C32.2181 5.69471 31.1185 5.94503 30.0958 6.39973C29.0732 6.85444 28.1862 7.46071 27.4395 8.22085C26.6929 8.97869 26.1069 9.86513 25.6815 10.8802C25.2561 11.8952 25.0435 12.9861 25.0435 14.1527C25.0435 15.3675 25.2607 16.4859 25.6996 17.5124C26.1363 18.539 26.7336 19.4323 27.4939 20.1901C28.2518 20.948 29.1365 21.5382 30.1501 21.9584C31.1615 22.3787 32.243 22.5877 33.3924 22.5877C34.5644 22.5877 35.6573 22.3672 36.6686 21.9217C37.68 21.4785 38.5602 20.8722 39.3068 20.1006C40.0535 19.3312 40.6463 18.4379 41.083 17.4229C41.5196 16.4078 41.7391 15.317 41.7391 14.1504C41.7391 12.9608 41.5151 11.8516 41.0671 10.8251C40.6191 9.79853 40.015 8.90061 39.257 8.12899C38.4991 7.35966 37.6121 6.75338 36.6008 6.30787C35.5849 5.86924 34.5169 5.64648 33.3902 5.64648Z" fill="#7210FF"/>
<path d="M22.2545 32.878C22.1614 32.0765 21.9548 31.3164 21.6393 30.5953C21.1898 29.5687 20.5837 28.6708 19.8233 27.8992C19.0628 27.1299 18.1729 26.5236 17.1582 26.0781C16.1435 25.6349 15.0698 25.4121 13.9393 25.4121C12.7635 25.4603 11.6602 25.7107 10.6342 26.1654C9.60811 26.6201 8.71826 27.2263 7.96915 27.9865C7.22005 28.7443 6.6321 29.6308 6.20534 30.6458C5.77857 31.6608 5.56519 32.7517 5.56519 33.9183C5.56519 35.1331 5.78311 36.2515 6.2235 37.2781C6.66162 38.3046 7.2609 39.1979 8.02363 39.9558C8.78409 40.7136 9.67167 41.3038 10.6886 41.7241C11.7034 42.1443 12.7884 42.3533 13.9416 42.3533C15.1175 42.3533 16.2139 42.1305 17.2286 41.6873C17.9278 41.3819 18.5339 40.5574 18.2183 39.6297C18.1389 39.3931 17.955 39.0854 17.7689 38.8603C17.7598 38.8489 17.7394 38.8259 17.7394 38.8259L15.2151 35.8818C15.2151 35.8818 15.1947 35.8588 15.1833 35.845C14.6998 35.2457 15.0358 34.3569 15.8121 34.3868L20.7108 34.412C20.7108 34.412 20.7494 34.412 20.7699 34.412C22.1773 34.3822 22.2953 33.2133 22.2545 32.878Z" fill="#FFD300"/>
<path d="M41.7333 32.878C41.6402 32.0765 41.4336 31.3164 41.1181 30.5953C40.6686 29.5687 40.0625 28.6708 39.302 27.8992C38.5415 27.1299 37.6516 26.5236 36.6369 26.0781C35.6222 25.6349 34.5484 25.4121 33.4179 25.4121C32.242 25.4603 31.1387 25.7107 30.1126 26.1654C29.0865 26.6201 28.1966 27.2263 27.4475 27.9865C26.6983 28.7443 26.1104 29.6308 25.6836 30.6458C25.2568 31.6608 25.0435 32.7517 25.0435 33.9183C25.0435 35.1331 25.2614 36.2515 25.7018 37.2781C26.1399 38.3046 26.7392 39.1979 27.502 39.9558C28.2624 40.7136 29.1501 41.3038 30.1671 41.7241C31.1818 42.1443 32.2669 42.3533 33.4202 42.3533C34.5961 42.3533 35.6925 42.1305 36.7073 41.6873C37.4065 41.3819 38.0126 40.5574 37.697 39.6297C37.6176 39.3931 37.4337 39.0854 37.2475 38.8603C37.2385 38.8489 37.218 38.8259 37.218 38.8259L34.6937 35.8818C34.6937 35.8818 34.6733 35.8588 34.6619 35.845C34.1784 35.2457 34.5143 34.3569 35.2907 34.3868L40.1896 34.412C40.1896 34.412 40.2282 34.412 40.2486 34.412C41.6561 34.3822 41.7719 33.2133 41.7333 32.878Z" fill="#FFD300"/>
</svg>
