<svg width="24" height="24" viewBox="0 0 24 24" fill="none" xmlns="http://www.w3.org/2000/svg">
<path fill-rule="evenodd" clip-rule="evenodd" d="M4.85289 16.1138C5.01088 15.9219 5.29448 15.8945 5.48633 16.0525C7.69669 17.8728 9.86548 18.75 12.0001 18.75C14.1348 18.75 16.3036 17.8728 18.514 16.0525C18.7058 15.8945 18.9894 15.9219 19.1474 16.1138C19.3054 16.3056 19.278 16.5892 19.0861 16.7472C16.7629 18.6604 14.3986 19.65 12.0001 19.65C9.60168 19.65 7.23735 18.6604 4.91419 16.7472C4.72234 16.5892 4.6949 16.3056 4.85289 16.1138Z" fill="#212121"/>
<path fill-rule="evenodd" clip-rule="evenodd" d="M17.5805 4.3504C17.7507 4.34305 17.9105 4.43249 17.9933 4.58144L19.9932 8.18138C20.0908 8.35701 20.0601 8.57605 19.9181 8.71812L18.7181 9.9181C18.5811 10.0551 18.3719 10.089 18.1986 10.0024L17.0012 9.40365L16.4753 10.4554L18.0379 17.0967C18.0949 17.3386 17.9449 17.5809 17.703 17.6378C17.461 17.6947 17.2188 17.5448 17.1619 17.3029L15.5619 10.503C15.5378 10.4005 15.5503 10.2928 15.5974 10.1986L16.3974 8.59867C16.4508 8.49192 16.5444 8.41075 16.6576 8.37301C16.7708 8.33527 16.8944 8.34405 17.0012 8.39742L18.311 9.05236L19.0416 8.32174L17.3436 5.26529C15.5901 5.39056 14.5864 5.95993 13.9234 6.7045C13.2172 7.49768 12.8538 8.52974 12.4535 9.66674C12.4439 9.69424 12.4341 9.7218 12.4244 9.74942C12.361 9.92947 12.1909 10.0499 12 10.0499H8.36517L6.84042 17.2925C6.78922 17.5357 6.55056 17.6913 6.30737 17.6401C6.06417 17.5889 5.90853 17.3503 5.95972 17.1071L7.44545 10.0499H7.20006C6.6829 10.0499 6.18692 10.2553 5.82123 10.621C5.45554 10.9867 5.2501 11.4827 5.2501 11.9999C5.2501 12.2484 5.04863 12.4499 4.8001 12.4499C4.55157 12.4499 4.3501 12.2484 4.3501 11.9999C4.3501 11.244 4.65036 10.5191 5.18483 9.98464C5.7193 9.45016 6.4442 9.1499 7.20006 9.1499H7.99054C7.99656 9.14978 8.00259 9.14978 8.00865 9.1499H11.6812C12.0484 8.10784 12.4634 6.99088 13.2513 6.106C14.1419 5.10578 15.4644 4.44171 17.5805 4.3504Z" fill="#212121"/>
<path fill-rule="evenodd" clip-rule="evenodd" d="M9.98213 14.2327C10.0505 14.0619 10.2159 13.9498 10.3999 13.9498H13.5999C13.7839 13.9498 13.9494 14.0619 14.0177 14.2327L15.6177 18.2326C15.71 18.4634 15.5978 18.7253 15.367 18.8176C15.1362 18.9099 14.8744 18.7976 14.7821 18.5669L13.2952 14.8498H10.7046L9.21779 18.5669C9.12549 18.7976 8.8636 18.9099 8.63285 18.8176C8.40209 18.7253 8.28986 18.4634 8.38216 18.2326L9.98213 14.2327Z" fill="#212121"/>
</svg>
