<svg width="24" height="24" viewBox="0 0 24 24" fill="none" xmlns="http://www.w3.org/2000/svg">
<g clip-path="url(#clip0_2601_53826)">
<path d="M16.2568 3H16.4618C16.6748 3.11608 16.9054 3.20849 17.0981 3.35204C18.4783 4.38118 19.8496 5.42214 21.2264 6.45591C21.5778 6.71977 21.8243 7.05177 21.9386 7.47726C22.1631 8.31259 21.7392 9.06383 20.9314 9.2106C20.6616 9.2596 20.3739 9.22897 20.096 9.20983C19.7233 9.18414 19.3522 9.1343 18.984 9.09523C18.9623 9.14994 18.9472 9.18057 18.9378 9.21286C18.4168 10.9939 17.8978 12.7753 17.3807 14.5571C17.3559 14.643 17.3803 14.7615 17.4217 14.845C17.8915 15.7928 18.3686 16.7368 18.8445 17.6815C18.8682 17.7291 18.898 17.7741 18.9382 17.8431C19.3159 17.6732 19.688 17.5075 20.0587 17.3386C20.7624 17.0179 21.5482 17.2876 21.8686 17.9612C22.1864 18.6295 21.9116 19.4093 21.2239 19.7459C18.7573 20.953 16.1239 21.4974 13.4053 21.6959C13.1317 21.7159 12.9503 21.5599 12.9341 21.3229C12.9172 21.0757 13.0873 20.9134 13.3643 20.8765C14.4668 20.73 15.5757 20.616 16.6682 20.414C18.1159 20.1464 19.5065 19.6766 20.8315 19.0264C21.1372 18.8764 21.2537 18.5904 21.1279 18.3181C21.0024 18.0469 20.7037 17.9505 20.3971 18.0862C20.2161 18.1662 20.0394 18.2557 19.8579 18.3346C17.5268 19.3476 15.0698 19.7782 12.5478 19.8878C11.0912 19.9511 9.63804 19.8904 8.19169 19.6912C6.2947 19.4295 4.45426 18.971 2.71884 18.1401C2.63303 18.099 2.54436 18.0603 2.45302 18.0351C2.26415 17.9831 2.09842 18.0433 1.96783 18.1797C1.83106 18.3225 1.75785 18.511 1.85776 18.6857C1.93964 18.8289 2.0735 18.9726 2.21961 19.044C4.15436 19.9902 6.21608 20.4911 8.34273 20.7529C8.77642 20.8064 9.21285 20.8376 9.64797 20.8798C9.90921 20.9051 10.0786 21.0859 10.0626 21.3205C10.0468 21.5506 9.86824 21.7018 9.61247 21.6983C9.53044 21.6975 9.44852 21.6924 9.36705 21.6828C8.62829 21.5928 7.88633 21.5229 7.15185 21.4061C5.38444 21.1252 3.68041 20.6271 2.04686 19.8862C1.5229 19.6483 1.13393 19.3232 1.00024 18.7453V18.2943C1.02661 18.2258 1.05297 18.1573 1.07933 18.0888C1.26368 17.611 1.6052 17.3228 2.10882 17.2201C2.47336 17.1457 2.7921 17.2672 3.11292 17.4168C3.49351 17.5942 3.88213 17.7539 4.27615 17.9252L5.46258 15.565C4.98298 15.1852 4.60863 14.7314 4.32908 14.1622C3.99404 14.567 3.56339 14.781 3.11263 14.965C2.78443 15.0992 2.45908 15.2407 2.13422 15.3828C1.97217 15.4537 1.81589 15.4645 1.67038 15.3531C1.53235 15.2473 1.49614 15.1033 1.52064 14.9333C1.59652 14.4063 1.65325 13.8761 1.74275 13.3515C1.89409 12.4645 2.02676 11.5716 2.23763 10.6982C2.46598 9.75234 2.99369 8.97826 3.82087 8.43527C4.39604 8.05777 5.02425 7.92522 5.69919 8.0859C6.46144 8.26745 7.04731 8.72814 7.55242 9.3023C7.64221 9.40446 7.7335 9.44115 7.86462 9.45239C8.34749 9.4936 8.82917 9.5492 9.31127 9.59987C9.97569 9.66962 10.6403 9.73759 11.3043 9.81139C11.4665 9.82923 11.5381 9.77571 11.5893 9.612C11.8786 8.68782 12.1706 7.76407 12.4873 6.84893C12.7643 6.04773 13.0998 5.26985 13.6105 4.58271C14.1226 3.89343 14.7594 3.39932 15.6494 3.31303C15.695 3.30863 15.7415 3.28865 15.7825 3.26635C15.9415 3.17953 16.0988 3.0892 16.2568 3ZM18.1463 18.1293C18.1001 18.0336 18.0686 17.9661 18.0352 17.8995C17.5575 16.9485 17.0837 15.9954 16.5982 15.0483C16.4968 14.8505 16.4833 14.6682 16.547 14.4596C16.7301 13.8595 16.9021 13.2561 17.0784 12.6538C17.4711 11.312 17.864 9.97027 18.2569 8.62854C18.3521 8.30355 18.4686 8.22297 18.8094 8.24955C18.9997 8.26442 19.1895 8.29118 19.3797 8.31063C19.7669 8.35077 20.1534 8.40381 20.5417 8.42581C21.0377 8.45388 21.2893 8.1512 21.1335 7.68842C21.0659 7.48737 20.929 7.27507 20.7626 7.14728C19.354 6.06575 17.9303 5.00433 16.515 3.93131C16.3976 3.84211 16.3345 3.86322 16.2449 3.95914C15.8664 4.36352 15.7572 5.13028 16.0302 5.64907C16.1479 5.87273 16.1055 6.04381 15.9858 6.25563C15.7153 6.7347 15.4591 7.22494 15.2412 7.72964C15.0799 8.10327 14.9911 8.50788 14.8646 8.89697C14.6718 9.49003 14.3466 9.97647 13.7665 10.2616C13.7173 10.2857 13.675 10.3749 13.6732 10.4351C13.6637 10.756 13.6755 11.0774 13.6662 11.3985C13.6424 12.2158 13.1191 12.9121 12.3444 13.1685C12.2872 13.1875 12.2304 13.2081 12.1731 13.228V15.0152H12.4019C12.7706 15.0152 13.1399 15.018 13.5089 15.0152C14.2701 15.0093 14.832 15.3366 15.1918 16.0101C15.6163 16.8045 16.0434 17.5975 16.473 18.3892C16.507 18.4514 16.6058 18.5355 16.6538 18.5239C17.1487 18.4039 17.6394 18.2661 18.1463 18.1293ZM9.32138 15.0511V13.226C9.20774 13.1854 9.09541 13.1554 8.99152 13.1064C8.24057 12.7518 7.8488 12.1597 7.83393 11.3268C7.82769 10.9803 7.83286 10.6335 7.83286 10.2777C7.74765 10.2708 7.68771 10.2598 7.62842 10.2623C7.37616 10.2732 7.122 10.2718 6.87242 10.3043C5.59495 10.4708 4.7711 11.427 4.811 12.7123C4.84162 13.6988 5.3148 14.4497 6.10738 15.0132C6.43474 15.2459 6.47232 15.3815 6.29493 15.735C5.92156 16.479 5.54811 17.2229 5.17458 17.9669C5.14205 18.0317 5.11374 18.0986 5.06873 18.1969C5.53257 18.3168 5.97643 18.4193 6.4119 18.5494C6.61255 18.6093 6.69663 18.5459 6.78655 18.3739C7.1842 17.6115 7.59851 16.8579 8.00211 16.0986C8.28743 15.5609 8.67426 15.1534 9.32108 15.0511H9.32138ZM15.7042 18.729C15.6714 18.6546 15.6507 18.5987 15.6231 18.5467C15.2565 17.861 14.8773 17.1817 14.5252 16.4887C14.2866 16.0189 13.9299 15.8224 13.4059 15.8299C12.2177 15.8471 11.0293 15.8469 9.84064 15.8294C9.30544 15.8207 8.95078 16.027 8.70988 16.503C8.35588 17.2026 7.97249 17.8875 7.60225 18.5789C7.57169 18.636 7.54576 18.6954 7.51061 18.7683C10.2563 19.2241 12.9695 19.2136 15.7042 18.729ZM6.59595 9.46571C6.38687 9.32834 6.18724 9.17313 5.96697 9.05694C5.34013 8.72624 4.73298 8.77227 4.16007 9.19609C3.60703 9.60504 3.22389 10.1463 3.05994 10.8049C2.87119 11.5641 2.74262 12.3387 2.60341 13.1095C2.53098 13.5102 2.49173 13.917 2.43345 14.3512C2.64301 14.2658 2.82368 14.1889 3.0066 14.1182C3.70105 13.8495 3.98691 13.3265 3.99071 12.6018C3.996 11.6031 4.3713 10.7688 5.16435 10.1429C5.57866 9.81538 6.06105 9.63014 6.59595 9.46571ZM8.65945 10.3161C8.65945 10.7112 8.64352 11.0773 8.66314 11.4415C8.67685 11.7073 8.79125 11.9579 8.9831 12.1424C9.17494 12.3268 9.42984 12.4313 9.69596 12.4346C10.399 12.4449 11.1024 12.4433 11.8054 12.4346C12.2543 12.4292 12.6824 12.1335 12.7789 11.696C12.8606 11.3255 12.8456 10.9339 12.8757 10.5216C11.4283 10.738 10.0546 10.6091 8.65886 10.3159L8.65945 10.3161ZM12.399 9.73682C13.3467 9.7436 13.8472 9.39049 14.1236 8.53934C14.1341 8.50693 14.1468 8.47511 14.1559 8.44229C14.3972 7.57912 14.672 6.73024 15.1751 5.97441C15.2057 5.92839 15.1989 5.84953 15.1919 5.78757C15.1541 5.43731 15.1013 5.0883 15.0747 4.73727C15.0646 4.60364 15.1108 4.4658 15.1353 4.30393C14.6767 4.54531 14.3423 4.88379 14.1213 5.30262C13.7976 5.91613 13.4873 6.54238 13.2412 7.18986C12.9244 8.02233 12.6776 8.88127 12.3984 9.73664L12.399 9.73682ZM11.3295 15.0064V13.2731H10.1603V15.0064H11.3295Z" fill="black"/>
<path d="M11.9072 21.3526C11.9089 21.5778 11.7148 21.7699 11.4903 21.7651C11.2715 21.7603 11.091 21.5775 11.0892 21.3586C11.0875 21.1352 11.2599 20.9575 11.4839 20.9517C11.7176 20.9456 11.9055 21.1237 11.9072 21.3526Z" fill="black"/>
<path d="M17.7708 6.90075C17.5486 6.89783 17.3695 6.71973 17.3673 6.49953C17.3652 6.27664 17.5622 6.08064 17.7836 6.08516C18.0007 6.08956 18.182 6.27409 18.1843 6.49251C18.1868 6.72407 18.0046 6.90384 17.7708 6.90075Z" fill="black"/>
</g>
<defs>
<clipPath id="clip0_2601_53826">
<rect width="21" height="18.7651" fill="white" transform="translate(1 3)"/>
</clipPath>
</defs>
</svg>
