<svg width="40" height="40" viewBox="0 0 40 40" fill="none" xmlns="http://www.w3.org/2000/svg">
<path fill-rule="evenodd" clip-rule="evenodd" d="M20.4886 6.97964C20.3304 6.78187 20.0908 6.66675 19.8376 6.66675C19.5843 6.66675 19.3448 6.78187 19.1866 6.97964L16.0694 10.8761L14.6007 7.54404C14.4974 7.30978 14.2923 7.13594 14.0442 7.07255C13.7962 7.00917 13.5328 7.06326 13.3298 7.21927C12.2907 8.01786 11.45 9.04555 10.8731 10.2223C10.2986 11.3944 10.0013 12.6828 10.0041 13.9879C9.9362 16.1255 10.7172 18.2034 12.1768 19.7672C12.4834 20.0958 12.8148 20.3961 13.1668 20.6662H10.8378C10.593 20.6662 10.3606 20.7738 10.2022 20.9604C10.0437 21.147 9.97537 21.3939 10.0152 21.6354L11.715 31.9543C11.8238 32.6244 12.1696 33.2331 12.6894 33.6698C13.208 34.1054 13.8655 34.3408 14.5427 34.3335H25.1128C25.79 34.3408 26.4474 34.1054 26.966 33.6698C27.4857 33.2332 27.8314 32.6247 27.9404 31.9549L27.9407 31.9531L29.66 21.6369C29.7003 21.3952 29.6322 21.148 29.4738 20.961C29.3154 20.774 29.0827 20.6662 28.8377 20.6662H26.509C26.861 20.3962 27.1923 20.0959 27.4989 19.7674C28.9584 18.2036 29.7394 16.1257 29.6715 13.9881C29.6743 12.683 29.377 11.3946 28.8025 10.2225C28.2257 9.04576 27.385 8.01806 26.3459 7.21947C26.1429 7.06347 25.8794 7.00937 25.6314 7.07276C25.3834 7.13614 25.1782 7.30998 25.0749 7.54425L23.6061 10.8765L20.4886 6.97964ZM24.4763 13.0365C24.5801 12.913 24.6434 12.7646 24.6639 12.6107L26.1363 9.27026C26.6071 9.76892 27.0016 10.337 27.3053 10.9564C27.7692 11.9027 28.0083 12.9433 28.0041 13.9971C28.0041 14.0076 28.0042 14.0181 28.0046 14.0285C28.0619 15.7302 27.4416 17.385 26.2799 18.6297C25.1246 19.8675 23.5277 20.5991 21.8366 20.6662H21.7642C21.5528 20.6633 21.342 20.6485 21.1327 20.622L24.4763 13.0365ZM22.8476 12.5975L19.8376 8.83504L16.828 12.5971L19.8379 19.4256L22.8476 12.5975ZM15.011 12.6089C15.0313 12.7641 15.0951 12.9137 15.2001 13.0379L18.5429 20.6218C18.3282 20.649 18.1119 20.6638 17.895 20.6662H17.8442C16.1512 20.6004 14.5522 19.8686 13.3957 18.6295C12.234 17.3848 11.6137 15.73 11.6711 14.0283C11.6714 14.0179 11.6716 14.0074 11.6715 13.9969C11.6673 12.9431 11.9065 11.9025 12.3703 10.9562C12.674 10.3368 13.0686 9.76872 13.5393 9.27006L15.011 12.6089ZM21.8373 22.3341C21.8093 22.3341 21.7814 22.3339 21.7534 22.3336H17.9036L17.8383 22.3339C17.8303 22.3339 17.8223 22.3338 17.8142 22.3336H11.8201L13.3608 31.6865C13.4055 31.9625 13.5478 32.2132 13.7619 32.393C13.9759 32.5728 14.2475 32.6698 14.527 32.6662L14.5378 32.666L25.1284 32.6661C25.408 32.6697 25.6795 32.5728 25.8936 32.393C26.1076 32.2132 26.25 31.9625 26.2947 31.6865L26.2953 31.6828L27.8535 22.3336H21.8677L21.8672 22.3336C21.8573 22.334 21.8473 22.3341 21.8373 22.3341Z" fill="#4AAF57"/>
</svg>
