<svg width="24" height="24" viewBox="0 0 24 24" fill="none" xmlns="http://www.w3.org/2000/svg">
<path fill-rule="evenodd" clip-rule="evenodd" d="M12.2932 4.18774C12.1982 4.06908 12.0545 4 11.9025 4C11.7506 4 11.6069 4.06908 11.5119 4.18774L9.64164 6.52561L8.76042 4.52638C8.69847 4.38582 8.57536 4.28151 8.42654 4.24348C8.27771 4.20545 8.11966 4.23791 7.99787 4.33151C7.37441 4.81067 6.86998 5.42728 6.52388 6.13333C6.17916 6.83656 6.00077 7.6096 6.00245 8.3927C5.96172 9.67527 6.43031 10.922 7.30605 11.8603C7.49007 12.0574 7.6889 12.2376 7.90011 12.3997H6.50267C6.35579 12.3997 6.21634 12.4642 6.12129 12.5762C6.02625 12.6882 5.98522 12.8363 6.0091 12.9812L7.02899 19.1725C7.09429 19.5746 7.30176 19.9398 7.61365 20.2018C7.92482 20.4632 8.3193 20.6045 8.72559 20.6001H15.0677C15.474 20.6045 15.8685 20.4632 16.1796 20.2018C16.4914 19.9399 16.6989 19.5748 16.7642 19.1729L16.7644 19.1718L17.796 12.9821C17.8202 12.8371 17.7793 12.6887 17.6843 12.5766C17.5892 12.4644 17.4496 12.3997 17.3026 12.3997H15.9054C16.1166 12.2376 16.3154 12.0575 16.4993 11.8604C17.3751 10.9221 17.8437 9.6754 17.8029 8.39282C17.8046 7.60973 17.6262 6.83669 17.2815 6.13345C16.9354 5.42741 16.431 4.81079 15.8075 4.33163C15.6857 4.23803 15.5277 4.20557 15.3788 4.24361C15.23 4.28164 15.1069 4.38594 15.045 4.5265L14.1637 6.52588L12.2932 4.18774ZM14.6858 7.82186C14.7481 7.74777 14.786 7.65874 14.7984 7.5664L15.6818 5.56211C15.9642 5.8613 16.201 6.20215 16.3832 6.57381C16.6615 7.14158 16.805 7.76593 16.8025 8.39824C16.8024 8.40452 16.8025 8.4108 16.8027 8.41708C16.8371 9.43806 16.465 10.431 15.7679 11.1778C15.0748 11.9205 14.1166 12.3594 13.1019 12.3997H13.0586C12.9317 12.3979 12.8052 12.389 12.6796 12.3731L14.6858 7.82186ZM13.7085 7.55846L11.9025 5.30098L10.0968 7.55819L11.9027 11.6553L13.7085 7.55846ZM9.00659 7.56531C9.0188 7.65839 9.05705 7.74815 9.12004 7.8227L11.1257 12.373C10.9969 12.3893 10.8671 12.3982 10.7369 12.3997H10.7065C9.69071 12.3602 8.73134 11.9211 8.03744 11.1777C7.34041 10.4308 6.96824 9.43794 7.00264 8.41696C7.00285 8.41068 7.00295 8.4044 7.00292 8.39812C7.0004 7.76581 7.14389 7.14145 7.42221 6.57369C7.60439 6.20203 7.84113 5.86118 8.12357 5.56199L9.00659 7.56531ZM13.1024 13.4004L13.0521 13.4001H10.7419L10.703 13.4003L10.6954 13.4003L10.6886 13.4001H7.09204L8.01645 19.0118C8.04328 19.1774 8.12869 19.3279 8.25713 19.4358C8.38557 19.5436 8.54849 19.6018 8.71622 19.5997L8.72266 19.5996L15.0771 19.5996C15.2448 19.6018 15.4077 19.5436 15.5361 19.4358C15.6646 19.3279 15.75 19.1774 15.7768 19.0118L15.7772 19.0096L16.7121 13.4001H13.1206L13.1203 13.4001C13.1144 13.4003 13.1084 13.4004 13.1024 13.4004Z" fill="#212121"/>
</svg>
