<svg width="40" height="40" viewBox="0 0 40 40" fill="none" xmlns="http://www.w3.org/2000/svg">
<g clip-path="url(#clip0_3231_71161)">
<path fill-rule="evenodd" clip-rule="evenodd" d="M8.00963 8.3348C7.99466 8.33008 7.97869 8.32952 7.96342 8.33317C7.94816 8.33682 7.93417 8.34454 7.92296 8.35552C7.91213 8.36612 7.90102 8.37642 7.88963 8.38641C7.87082 8.40291 7.85654 8.42395 7.84816 8.44753C7.84045 8.46922 7.83796 8.49238 7.84085 8.51516L9.46126 16.7939C10.2509 15.0909 11.4229 13.5819 12.8968 12.3904C13.8354 11.6316 14.8744 11.0194 15.9781 10.5676L8.03525 8.34242L8.00963 8.3348ZM19.1861 9.73548C19.4404 9.70508 19.6961 9.68253 19.9529 9.66798C19.9843 9.6662 20.0158 9.6662 20.0472 9.66798C20.304 9.68253 20.5597 9.70508 20.814 9.73548L31.5044 6.74057C31.803 6.6494 32.1205 6.63956 32.4243 6.7122C32.7257 6.78427 33.0024 6.93489 33.2265 7.14855C33.4507 7.35025 33.6212 7.60479 33.7223 7.88918C33.8259 8.18067 33.8533 8.49382 33.8017 8.79886L33.7981 8.82038L31.5978 20.0403C31.5267 20.4028 31.2256 20.6752 30.8578 20.7097C30.4901 20.7441 30.1435 20.5324 30.0063 20.1895C29.8821 19.879 29.7536 19.537 29.6447 19.1885C29.6417 19.1792 29.639 19.1698 29.6364 19.1604C29.0455 17.0058 27.793 15.0911 26.0555 13.6865C24.3304 12.2918 22.2136 11.47 20.0001 11.3348C17.7865 11.47 15.6698 12.2918 13.9446 13.6865C12.2071 15.0911 10.9546 17.0058 10.3637 19.1604L10.3597 19.1752C10.268 19.4867 10.1594 19.7729 10.0612 20.0315L10.0596 20.0358L10.0595 20.0361C10.0392 20.0894 10.0194 20.1416 10.0003 20.1926C9.86944 20.5416 9.52267 20.7613 9.15118 20.7305C8.77969 20.6997 8.47384 20.4259 8.40224 20.0601L6.1981 8.7989C6.14654 8.49387 6.17416 8.18067 6.2778 7.88918C6.37892 7.60478 6.54939 7.35024 6.77362 7.14853C6.99768 6.93488 7.27443 6.78427 7.5758 6.7122C7.87957 6.63956 8.19714 6.6494 8.49567 6.74057L19.1861 9.73548ZM24.0221 10.5676C25.1257 11.0194 26.1647 11.6316 27.1033 12.3904C28.5759 13.5809 29.7472 15.0883 30.5368 16.7896L32.1593 8.51508C32.1621 8.49233 32.1596 8.46919 32.1519 8.44753C32.1436 8.42395 32.1293 8.40291 32.1105 8.38641C32.0991 8.37642 32.088 8.36612 32.0771 8.35552C32.0659 8.34454 32.0519 8.33682 32.0367 8.33317C32.0214 8.32952 32.0055 8.33008 31.9905 8.3348L31.9649 8.34242L24.0221 10.5676ZM7.20215 21.6914C6.75565 21.5798 6.30321 21.8513 6.19158 22.2978C6.07996 22.7443 6.35143 23.1967 6.79792 23.3083L14.7979 25.3083C15.2444 25.42 15.6969 25.1485 15.8085 24.702C15.9201 24.2555 15.6486 23.8031 15.2021 23.6914L7.20215 21.6914ZM18.1666 26.4999C18.1666 26.0397 18.5397 25.6666 19 25.6666H21C21.4602 25.6666 21.8333 26.0397 21.8333 26.4999C21.8333 26.9602 21.4602 27.3333 21 27.3333H19C18.5397 27.3333 18.1666 26.9602 18.1666 26.4999ZM14.7235 28.0866C14.9519 28.4861 14.813 28.9952 14.4134 29.2235L7.41343 33.2235C7.01383 33.4519 6.50479 33.313 6.27644 32.9135C6.0481 32.5139 6.18693 32.0048 6.58653 31.7765L13.5865 27.7765C13.9861 27.5481 14.4952 27.687 14.7235 28.0866ZM17.1866 31.3477C16.738 31.2447 16.2909 31.5248 16.1878 31.9733C16.0848 32.4219 16.3649 32.8691 16.8135 32.9721C18.9105 33.4538 21.0895 33.4538 23.1866 32.9721C23.6351 32.8691 23.9152 32.4219 23.8122 31.9733C23.7092 31.5248 23.262 31.2447 22.8135 31.3477C20.9619 31.773 19.0381 31.773 17.1866 31.3477ZM25.2765 28.0866C25.5048 27.687 26.0139 27.5481 26.4135 27.7765L33.4135 31.7765C33.8131 32.0048 33.9519 32.5139 33.7236 32.9135C33.4952 33.313 32.9862 33.4519 32.5866 33.2235L25.5866 29.2235C25.187 28.9952 25.0481 28.4861 25.2765 28.0866ZM33.2022 23.3083C33.6487 23.1967 33.9202 22.7443 33.8086 22.2978C33.6969 21.8513 33.2445 21.5798 32.798 21.6914L24.798 23.6914C24.3515 23.8031 24.08 24.2555 24.1917 24.702C24.3033 25.1485 24.7557 25.42 25.2022 25.3083L33.2022 23.3083Z" fill="#F54336"/>
</g>
<defs>
<clipPath id="clip0_3231_71161">
<rect width="28" height="28" fill="white" transform="translate(6 6)"/>
</clipPath>
</defs>
</svg>
