<svg width="24" height="24" viewBox="0 0 24 24" fill="none" xmlns="http://www.w3.org/2000/svg">
<g clip-path="url(#clip0_1300_35103)">
<path fill-rule="evenodd" clip-rule="evenodd" d="M4.8057 5.00082C4.79672 4.99799 4.78714 4.99765 4.77798 4.99984C4.76882 5.00203 4.76043 5.00666 4.7537 5.01325C4.74721 5.01961 4.74054 5.02579 4.7337 5.03179C4.72242 5.04169 4.71385 5.05431 4.70882 5.06846C4.7042 5.08147 4.7027 5.09537 4.70444 5.10904L5.67668 10.0763C6.15044 9.05447 6.85368 8.14909 7.73799 7.43419C8.30119 6.97888 8.92455 6.61157 9.58676 6.34049L4.82108 5.00539L4.8057 5.00082ZM11.5116 5.84123C11.6642 5.82298 11.8176 5.80946 11.9717 5.80073C11.9905 5.79966 12.0094 5.79966 12.0282 5.80073C12.1823 5.80946 12.3358 5.82298 12.4883 5.84123L18.9026 4.04428C19.0817 3.98958 19.2722 3.98368 19.4545 4.02726C19.6353 4.0705 19.8014 4.16087 19.9358 4.28907C20.0704 4.41009 20.1726 4.56281 20.2333 4.73345C20.2955 4.90834 20.3119 5.09623 20.281 5.27925L20.2788 5.29217L18.9586 12.0241C18.916 12.2416 18.7353 12.4051 18.5146 12.4257C18.294 12.4464 18.086 12.3194 18.0037 12.1136C17.9292 11.9273 17.8521 11.7222 17.7867 11.5131C17.785 11.5075 17.7833 11.5018 17.7818 11.4962C17.4272 10.2034 16.6757 9.0546 15.6332 8.21185C14.5981 7.37504 13.3281 6.88193 12 6.80079C10.6718 6.88193 9.40178 7.37504 8.36667 8.21185C7.32422 9.0546 6.5727 10.2034 6.21815 11.4962L6.21572 11.505C6.16075 11.6919 6.09557 11.8637 6.03667 12.0188L6.03568 12.0214L6.00012 12.1155C5.92159 12.3249 5.71353 12.4567 5.49064 12.4382C5.26774 12.4197 5.08423 12.2555 5.04127 12.036L3.71879 5.27928C3.68785 5.09626 3.70442 4.90834 3.76661 4.73345C3.82728 4.56281 3.92956 4.41008 4.0641 4.28906C4.19853 4.16087 4.36459 4.0705 4.54541 4.02726C4.72767 3.98368 4.91821 3.98958 5.09733 4.04428L11.5116 5.84123ZM14.4132 6.34049C15.0754 6.61157 15.6987 6.97888 16.2619 7.43419C17.1455 8.14848 17.8483 9.05291 18.322 10.0737L19.2955 5.10899C19.2972 5.09533 19.2957 5.08145 19.2911 5.06846C19.2861 5.05431 19.2775 5.04169 19.2662 5.03179C19.2594 5.02579 19.2527 5.01961 19.2462 5.01325C19.2395 5.00667 19.2311 5.00203 19.2219 4.99984C19.2128 4.99765 19.2032 4.99799 19.1942 5.00082L19.1788 5.00539L14.4132 6.34049ZM4.32122 13.0148C4.05332 12.9478 3.78185 13.1107 3.71488 13.3786C3.6479 13.6465 3.81078 13.918 4.07868 13.9849L8.87868 15.1849C9.14658 15.2519 9.41804 15.089 9.48502 14.8211C9.55199 14.5532 9.38911 14.2818 9.12121 14.2148L4.32122 13.0148ZM10.8999 15.8999C10.8999 15.6238 11.1238 15.3999 11.3999 15.3999H12.5999C12.876 15.3999 13.0999 15.6238 13.0999 15.8999C13.0999 16.176 12.876 16.3999 12.5999 16.3999H11.3999C11.1238 16.3999 10.8999 16.176 10.8999 15.8999ZM8.83404 16.8519C8.97104 17.0916 8.88774 17.3971 8.64798 17.5341L4.44798 19.9341C4.20823 20.0711 3.9028 19.9878 3.76579 19.748C3.62879 19.5082 3.71209 19.2028 3.95185 19.0658L8.15184 16.6658C8.3916 16.5288 8.69703 16.6121 8.83404 16.8519ZM10.3119 18.8086C10.0427 18.7468 9.77445 18.9148 9.71263 19.1839C9.65081 19.4531 9.81887 19.7214 10.088 19.7832C11.3462 20.0722 12.6536 20.0722 13.9119 19.7832C14.181 19.7214 14.3491 19.4531 14.2872 19.1839C14.2254 18.9148 13.9571 18.7468 13.688 18.8086C12.5771 19.0638 11.4228 19.0638 10.3119 18.8086ZM15.1658 16.8519C15.3028 16.6121 15.6082 16.5288 15.848 16.6658L20.048 19.0658C20.2878 19.2028 20.3711 19.5082 20.2341 19.748C20.0971 19.9878 19.7916 20.0711 19.5519 19.9341L15.3519 17.5341C15.1121 17.3971 15.0288 17.0916 15.1658 16.8519ZM19.9213 13.9849C20.1892 13.918 20.352 13.6465 20.2851 13.3786C20.2181 13.1107 19.9466 12.9478 19.6787 13.0148L14.8787 14.2148C14.6108 14.2818 14.448 14.5532 14.5149 14.8211C14.5819 15.089 14.8534 15.2519 15.1213 15.1849L19.9213 13.9849Z" fill="#212121"/>
</g>
<defs>
<clipPath id="clip0_1300_35103">
<rect width="16.8" height="16.8" fill="white" transform="translate(3.59998 3.59998)"/>
</clipPath>
</defs>
</svg>
