<svg width="24" height="24" viewBox="0 0 24 24" fill="none" xmlns="http://www.w3.org/2000/svg">
<g clip-path="url(#clip0_3069_73757)">
<path fill-rule="evenodd" clip-rule="evenodd" d="M4.80582 5.00082C4.79684 4.99799 4.78726 4.99765 4.7781 4.99984C4.76895 5.00203 4.76055 5.00666 4.75382 5.01325C4.74733 5.01961 4.74066 5.02579 4.73382 5.03179C4.72254 5.04169 4.71397 5.05431 4.70894 5.06846C4.70432 5.08147 4.70282 5.09537 4.70456 5.10904L5.6768 10.0763C6.15056 9.05447 6.8538 8.14909 7.73811 7.43419C8.30131 6.97888 8.92468 6.61157 9.58688 6.34049L4.8212 5.00539L4.80582 5.00082ZM11.5117 5.84123C11.6643 5.82298 11.8177 5.80946 11.9718 5.80073C11.9906 5.79966 12.0095 5.79966 12.0284 5.80073C12.1825 5.80946 12.3359 5.82298 12.4885 5.84123L18.9027 4.04428C19.0818 3.98958 19.2724 3.98368 19.4546 4.02726C19.6355 4.0705 19.8015 4.16087 19.9359 4.28907C20.0705 4.41009 20.1728 4.56281 20.2334 4.73345C20.2956 4.90834 20.312 5.09623 20.2811 5.27925L20.2789 5.29217L18.9587 12.0241C18.9161 12.2416 18.7354 12.4051 18.5147 12.4257C18.2941 12.4464 18.0861 12.3194 18.0038 12.1136C17.9293 11.9273 17.8522 11.7222 17.7868 11.5131C17.7851 11.5075 17.7834 11.5018 17.7819 11.4962C17.4273 10.2034 16.6758 9.0546 15.6334 8.21185C14.5983 7.37504 13.3282 6.88193 12.0001 6.80079C10.672 6.88193 9.4019 7.37504 8.36679 8.21185C7.32434 9.0546 6.57282 10.2034 6.21828 11.4962L6.21584 11.505C6.16088 11.6919 6.09569 11.8637 6.03679 12.0188L6.03581 12.0214L6.00025 12.1155C5.92171 12.3249 5.71365 12.4567 5.49076 12.4382C5.26786 12.4197 5.08435 12.2555 5.04139 12.036L3.71891 5.27928C3.68798 5.09626 3.70455 4.90834 3.76673 4.73345C3.8274 4.56281 3.92968 4.41008 4.06422 4.28906C4.19866 4.16087 4.36471 4.0705 4.54553 4.02726C4.72779 3.98368 4.91833 3.98958 5.09745 4.04428L11.5117 5.84123ZM14.4133 6.34049C15.0755 6.61157 15.6988 6.97888 16.2621 7.43419C17.1456 8.14848 17.8484 9.05291 18.3221 10.0737L19.2956 5.10899C19.2973 5.09533 19.2958 5.08145 19.2912 5.06846C19.2862 5.05431 19.2776 5.04169 19.2663 5.03179C19.2595 5.02579 19.2528 5.01961 19.2463 5.01325C19.2396 5.00667 19.2312 5.00203 19.2221 4.99984C19.2129 4.99765 19.2033 4.99799 19.1943 5.00082L19.179 5.00539L14.4133 6.34049ZM4.32134 13.0148C4.05344 12.9478 3.78197 13.1107 3.715 13.3786C3.64802 13.6465 3.8109 13.918 4.0788 13.9849L8.8788 15.1849C9.1467 15.2519 9.41817 15.089 9.48514 14.8211C9.55211 14.5532 9.38923 14.2818 9.12134 14.2148L4.32134 13.0148ZM10.9 15.8999C10.9 15.6238 11.1239 15.3999 11.4 15.3999H12.6C12.8762 15.3999 13.1 15.6238 13.1 15.8999C13.1 16.176 12.8762 16.3999 12.6 16.3999H11.4C11.1239 16.3999 10.9 16.176 10.9 15.8999ZM8.83416 16.8519C8.97116 17.0916 8.88786 17.3971 8.64811 17.5341L4.44811 19.9341C4.20835 20.0711 3.90292 19.9878 3.76592 19.748C3.62891 19.5082 3.71221 19.2028 3.95197 19.0658L8.15197 16.6658C8.39173 16.5288 8.69715 16.6121 8.83416 16.8519ZM10.312 18.8086C10.0429 18.7468 9.77458 18.9148 9.71275 19.1839C9.65093 19.4531 9.81899 19.7214 10.0881 19.7832C11.3464 20.0722 12.6538 20.0722 13.912 19.7832C14.1811 19.7214 14.3492 19.4531 14.2874 19.1839C14.2255 18.9148 13.9573 18.7468 13.6881 18.8086C12.5772 19.0638 11.4229 19.0638 10.312 18.8086ZM15.1659 16.8519C15.3029 16.6121 15.6084 16.5288 15.8481 16.6658L20.0481 19.0658C20.2879 19.2028 20.3712 19.5082 20.2342 19.748C20.0972 19.9878 19.7917 20.0711 19.552 19.9341L15.352 17.5341C15.1122 17.3971 15.0289 17.0916 15.1659 16.8519ZM19.9214 13.9849C20.1893 13.918 20.3522 13.6465 20.2852 13.3786C20.2182 13.1107 19.9467 12.9478 19.6789 13.0148L14.8789 14.2148C14.611 14.2818 14.4481 14.5532 14.515 14.8211C14.582 15.089 14.8535 15.2519 15.1214 15.1849L19.9214 13.9849Z" fill="#212121"/>
</g>
<defs>
<clipPath id="clip0_3069_73757">
<rect width="16.8" height="16.8" fill="white" transform="translate(3.6001 3.59998)"/>
</clipPath>
</defs>
</svg>
