<svg xmlns="http://www.w3.org/2000/svg" viewBox="0 0 30.43 30.07"><defs><style>.cls-1{fill:#ff9514;}</style></defs><title>property</title><g id="Layer_2" data-name="Layer 2"><g id="Layer_2-2" data-name="Layer 2"><path class="cls-1" d="M3.4,16.32a7.32,7.32,0,0,1,7.82-1.65l13.4-13.4,1.76,0a1.27,1.27,0,0,1,1,.46L13.23,15.85q.27.22.52.47a7.32,7.32,0,1,1-10.35,0m4.54,8.75a2.08,2.08,0,1,0-2.94,0,2.08,2.08,0,0,0,2.94,0M2.51,15.44a8.58,8.58,0,1,0,12.51.4L28.25,2.6l.8-.8L28.33.92a2.52,2.52,0,0,0-2-.92L24.61,0h-.51l-.36.36L10.88,13.24a8.59,8.59,0,0,0-8.37,2.2Zm4.54,8.75a.83.83,0,1,1,0-1.17.83.83,0,0,1,0,1.17Z"/><path class="cls-1" d="M30.43,5.7,27.72,8.42,26,8.26,26.11,10l-2.54,2.54-.74-.06.06.74-.92.92-.74-.06.06.74-1.4,1.4-1.76-.15.15,1.76-1.53,1.53-.89-.89L17,17.37l-.13-1.46a1.09,1.09,0,0,1,1.1-1.1l1.46.13.57-.57,0-.44a1.1,1.1,0,0,1,1.1-1.1l.44,0,.09-.09,0-.44a1.1,1.1,0,0,1,1.1-1.1l.44,0,1.72-1.72-.13-1.46A1.09,1.09,0,0,1,25.78,7l1.46.13L29,5.38,28.06,2.9,14.58,16.38l-.89-.89L28.28.9l.44.52A1.83,1.83,0,0,1,29,2Z"/></g></g></svg>