<svg xmlns="http://www.w3.org/2000/svg" viewBox="0 0 32.92 26.84"><defs><style>.cls-1{fill:#ff9514;}</style></defs><title>all</title><g id="Layer_2" data-name="Layer 2"><g id="Layer_2-2" data-name="Layer 2"><path class="cls-1" d="M31.9,18.8H29.55v-6H17.06V8h2.35a1,1,0,0,0,1-1V1a1,1,0,0,0-1-1H13.5a1,1,0,0,0-1,1V7a1,1,0,0,0,1,1h2.35v4.79H3.37v6H1a1,1,0,0,0-1,1v6a1,1,0,0,0,1,1H6.93a1,1,0,0,0,1-1v-6a1,1,0,0,0-1-1H4.58V14H15.85V18.8H13.5a1,1,0,0,0-1,1v6a1,1,0,0,0,1,1h5.92a1,1,0,0,0,1-1v-6a1,1,0,0,0-1-1H17.06V14H28.34V18.8H26a1,1,0,0,0-1,1v6a1,1,0,0,0,1,1H31.9a1,1,0,0,0,1-1v-6A1,1,0,0,0,31.9,18.8ZM13.7,1.21h5.52V6.83H13.7Zm-7,24.41H1.21V20H6.73Zm12.49,0H13.7V20h5.52Zm12.49,0H26.18V20H31.7Z"/></g></g></svg>