<svg xmlns="http://www.w3.org/2000/svg" viewBox="0 0 32.61 32.4"><defs><style>.cls-1{fill:#ff9514;}</style></defs><title>hobby</title><g id="Layer_2" data-name="Layer 2"><g id="Layer_2-2" data-name="Layer 2"><path class="cls-1" d="M12.91,18.94H12.2v1.26h0v4.44l1.26-.39V19.49A.56.56,0,0,0,12.91,18.94Zm-.7,7.76v4.44H1.26V18.94H.55a.56.56,0,0,0-.55.55V31.85a.56.56,0,0,0,.55.55H12.91a.56.56,0,0,0,.55-.55V27.09Z"/><path class="cls-1" d="M14.32,22.79a2.84,2.84,0,0,0-.86.13V19.49a.56.56,0,0,0-.55-.55H12.2v1.26h0v4.44l1.26-.39.37-.12a1.64,1.64,0,0,1,.48-.07,1.61,1.61,0,1,1,0,3.23,1.56,1.56,0,0,1-.48-.07l-.37-.12-1.26-.39v4.44H1.26V20.19h0V18.94H.55a.56.56,0,0,0-.55.55V31.85a.56.56,0,0,0,.55.55H12.91a.56.56,0,0,0,.55-.55V28.41a2.92,2.92,0,0,0,.86.13,2.87,2.87,0,1,0,0-5.75Z"/><path class="cls-1" d="M16.06,18.08a2.84,2.84,0,0,0,.13.86H12.76a.56.56,0,0,0-.55.55v.71h5.7l-.39-1.26-.12-.37a1.64,1.64,0,0,1-.07-.48,1.61,1.61,0,1,1,3.23,0,1.56,1.56,0,0,1-.07.48l-.12.37L20,20.19h4.44V31.14H12.21v.71a.56.56,0,0,0,.55.55H25.12a.56.56,0,0,0,.55-.55V19.49a.56.56,0,0,0-.55-.55H21.68a2.92,2.92,0,0,0,.13-.86,2.87,2.87,0,1,0-5.75,0Z"/><path class="cls-1" d="M12.2,7.29v3.44a2.92,2.92,0,0,0-.86-.13,2.87,2.87,0,1,0,0,5.75,2.84,2.84,0,0,0,.86-.13v3.44a.56.56,0,0,0,.55.55h.71V14.5l-1.26.39-.37.12a1.64,1.64,0,0,1-.48.07,1.61,1.61,0,1,1,0-3.23,1.56,1.56,0,0,1,.48.07l.37.12,1.26.39v-5l-.7-.75A.56.56,0,0,0,12.2,7.29Z"/><path class="cls-1" d="M32.06,12.2H28.62a2.92,2.92,0,0,0,.13-.86,2.87,2.87,0,1,0-5.75,0,2.84,2.84,0,0,0,.13.86H19.7c-.3,0-.55.25,0,.55v.71h5.15l-.39-1.26-.12-.37a1.64,1.64,0,0,1-.07-.48,1.61,1.61,0,1,1,3.23,0,1.56,1.56,0,0,1-.07.48l-.12.37-.39,1.26h5l.75-.7A.56.56,0,0,0,32.06,12.2Z"/><path class="cls-1" d="M18.29,9.61a2.84,2.84,0,0,0,.86-.13v3.44a.56.56,0,0,0,.55.55h.71V12.21h0V7.76l-1.26.39-.37.12a1.64,1.64,0,0,1-.48.07,1.61,1.61,0,1,1,0-3.23,1.56,1.56,0,0,1,.48.07l.37.12,1.26.39V1.26H31.35V12.21h0v1.26h.71a.56.56,0,0,0,.55-.55V.55A.56.56,0,0,0,32.06,0H19.7a.56.56,0,0,0-.55.55V4a2.92,2.92,0,0,0-.86-.13,2.87,2.87,0,1,0,0,5.75Z"/><path class="cls-1" d="M9.61,21.05a2.84,2.84,0,0,0-.13-.86h3.44a.56.56,0,0,0,.55-.55v-.71H7.76l.39,1.26.12.37a1.64,1.64,0,0,1,.07.48,1.61,1.61,0,1,1-3.23,0,1.56,1.56,0,0,1,.07-.48l.12-.37.39-1.26H1.26V8H13.46V7.29a.56.56,0,0,0-.55-.55H.55A.56.56,0,0,0,0,7.29V19.64a.56.56,0,0,0,.55.55H4a2.92,2.92,0,0,0-.13.86,2.87,2.87,0,1,0,5.75,0Z"/><line class="cls-1" x1="18.84" y1="15.15" x2="18.84" y2="15.15"/></g></g></svg>