<svg xmlns="http://www.w3.org/2000/svg" viewBox="0 0 23.56 37.52"><defs><style>.cls-1{fill:#ff9514;}</style></defs><title>electro</title><g id="Layer_2" data-name="Layer 2"><g id="Layer_2-2" data-name="Layer 2"><path class="cls-1" d="M6,1.16a.68.68,0,0,1,.67.68v8.34H5.3V1.84A.68.68,0,0,1,6,1.16M6,0A1.85,1.85,0,0,0,4.14,1.84v9.49H7.81V1.84A1.83,1.83,0,0,0,6,0Z"/><path class="cls-1" d="M7.24,11.34a.46.46,0,0,1,.17,0,1.93,1.93,0,0,1,1.78,1.93H2.76a1.93,1.93,0,0,1,1.78-1.93.46.46,0,0,1,.17,0H7.24m0-1.32H4.7a1.86,1.86,0,0,0-.4,0,3.26,3.26,0,0,0-2.88,3.23v1.32h9.08V13.28A3.26,3.26,0,0,0,7.64,10a1.86,1.86,0,0,0-.4,0Z"/><path class="cls-1" d="M17.59,1.16a.68.68,0,0,1,.67.68v8.34H16.91V1.84a.68.68,0,0,1,.68-.68m0-1.16a1.85,1.85,0,0,0-1.84,1.84v9.49h3.67V1.84A1.83,1.83,0,0,0,17.59,0Z"/><path class="cls-1" d="M18.86,11.34a.46.46,0,0,1,.17,0,1.93,1.93,0,0,1,1.78,1.93H14.37a1.93,1.93,0,0,1,1.78-1.93.46.46,0,0,1,.17,0h2.54m0-1.32H16.32a1.86,1.86,0,0,0-.4,0A3.26,3.26,0,0,0,13,13.28v1.32h9.08V13.28A3.26,3.26,0,0,0,19.25,10a1.86,1.86,0,0,0-.4,0Z"/><path class="cls-1" d="M20.56,18.7v5.75a4.39,4.39,0,0,1-4.38,4.38H7.38A4.39,4.39,0,0,1,3,24.45V18.7H20.56m1.32-1.32H1.67v7.08a5.71,5.71,0,0,0,5.71,5.71h8.8a5.71,5.71,0,0,0,5.71-5.71V17.38Z"/><path class="cls-1" d="M14.28,30.26a2.5,2.5,0,0,1-5,0h5m1.13-1.32H8.15a3.65,3.65,0,0,0-.2,1.2,3.83,3.83,0,1,0,7.65,0,3.65,3.65,0,0,0-.2-1.2Z"/><path class="cls-1" d="M21.79,14.61a.46.46,0,0,1,.45.45v1.86a.46.46,0,0,1-.45.45h-20a.46.46,0,0,1-.45-.45V15.06a.46.46,0,0,1,.45-.45h20m0-1.32h-20A1.78,1.78,0,0,0,0,15.06v1.86a1.78,1.78,0,0,0,1.77,1.77h20a1.78,1.78,0,0,0,1.77-1.77V15.06a1.78,1.78,0,0,0-1.77-1.77Z"/><rect class="cls-1" x="5.82" y="21.86" width="11.92" height="1.31" rx="0.63" ry="0.63"/><rect class="cls-1" x="5.82" y="24.74" width="11.92" height="1.31" rx="0.63" ry="0.63"/><rect class="cls-1" x="11.12" y="33.6" width="1.32" height="3.92"/></g></g></svg>