<svg xmlns="http://www.w3.org/2000/svg" viewBox="0 0 31.25 28.89"><defs><style>.cls-1{fill:#ff9514;}</style></defs><title>things</title><g id="Layer_2" data-name="Layer 2"><g id="Layer_2-2" data-name="Layer 2"><rect class="cls-1" x="7.17" y="23.34" width="16.91" height="1.25"/><rect class="cls-1" x="7.17" y="20.57" width="16.91" height="1.25"/><path class="cls-1" d="M16.21,11.7H15A1.05,1.05,0,0,1,14,10.65V4.06L15.63,2.3l1.63,1.76v6.58A1.05,1.05,0,0,1,16.21,11.7ZM14.93,4.43v6.22a.11.11,0,0,0,.11.11h1.16a.11.11,0,0,0,.11-.11V4.43l-.69-.75Z"/><path class="cls-1" d="M19.69,1.25,20,1.8,18.27,4.65,16.41,3.16l-.78-.63-.78.63L13,4.65,11.2,1.8l.36-.54h8.12M20.36,0H10.89L9.71,1.77l2.61,4.17a.59.59,0,0,0,.87.15l2.44-2,2.44,2a.59.59,0,0,0,.87-.15l2.61-4.17L20.36,0Z"/><path class="cls-1" d="M22.37,1.77h.09a6.41,6.41,0,0,1,5.72,3.69l1.67,3.6h0l.09.2a.52.52,0,0,1-.25.69l-5.61,2.61V27.22a.42.42,0,0,1-.43.41H7.58a.42.42,0,0,1-.41-.41V12.59L1.56,10a.52.52,0,0,1-.25-.69l.09-.2h0l1.67-3.6A6.42,6.42,0,0,1,8.59,1.78H9.72l2.6,4.18a.58.58,0,0,0,.5.27.6.6,0,0,0,.38-.14l2.43-1.95,2.43,1.95a.6.6,0,0,0,.38.14.58.58,0,0,0,.5-.27l2.6-4.18h.83m0-1.25H20.84l-.37.59-2.2,3.54L16.41,3.16l-.78-.63-.78.63L13,4.65l-2.2-3.54L10.41.51H8.59A7.68,7.68,0,0,0,1.94,4.94L.36,8.34h0l-.11.23-.08.18A1.74,1.74,0,0,0,.1,10.08a1.8,1.8,0,0,0,.92,1l4.89,2.28V27.22a1.67,1.67,0,0,0,1.67,1.67H23.66a1.68,1.68,0,0,0,1.68-1.67V13.39l4.88-2.27a1.8,1.8,0,0,0,.93-1,1.74,1.74,0,0,0-.07-1.32L31,8.58l-.09-.22,0,0-1.58-3.4A7.71,7.71,0,0,0,22.59.53Z"/><polygon class="cls-1" points="15.63 4.14 10.89 0 20.36 0 15.63 4.14"/></g></g></svg>