<svg xmlns="http://www.w3.org/2000/svg" viewBox="0 0 33.58 23.33"><defs><style>.cls-1{fill:#ff9514;}</style></defs><title>transport</title><g id="Layer_2" data-name="Layer 2"><g id="Layer_2-2" data-name="Layer 2"><path class="cls-1" d="M25.33,1a1.72,1.72,0,0,1,1.62,1.13l1.59,4.37.7-.12a1.51,1.51,0,0,1,1.25-.94,2.1,2.1,0,0,1,.36,0c.65,0,1.18.31,1.26.78s-.47,1.11-1.27,1.25a2.09,2.09,0,0,1-.37,0,1.64,1.64,0,0,1-.79-.19l-.77.13,1.71,2.13a2.31,2.31,0,0,1,.5,1.43v6.08A1.72,1.72,0,0,1,29.4,18.8h-5a2.54,2.54,0,0,0-2.54-2.48H11.67A2.54,2.54,0,0,0,9.13,18.8h-5a1.72,1.72,0,0,1-1.72-1.72V11a2.29,2.29,0,0,1,.5-1.43L4.65,7.44,3.87,7.3a1.64,1.64,0,0,1-.79.19,2.09,2.09,0,0,1-.37,0c-.8-.14-1.36-.7-1.27-1.25a1.18,1.18,0,0,1,1.26-.78,2.11,2.11,0,0,1,.36,0,1.51,1.51,0,0,1,1.25.94l.7.12L6.62,2.15A1.72,1.72,0,0,1,8.23,1H25.33M6.53,6.78H27L26,3.13a1.15,1.15,0,0,0-1.1-.83H8.68a1.15,1.15,0,0,0-1.1.83l-1,3.65m21.55,7.83A1.57,1.57,0,1,0,26.51,13a1.57,1.57,0,0,0,1.57,1.57m-22.6,0A1.57,1.57,0,1,0,3.91,13a1.57,1.57,0,0,0,1.57,1.57m4.65-.27h13.3a1.09,1.09,0,0,0,.9-.34l.86-1.49H8.37L9.23,14a1.09,1.09,0,0,0,.9.34m17.95,2.73a.64.64,0,1,0-.64-.64.64.64,0,0,0,.64.64m-22.6,0a.64.64,0,1,0-.64-.64.64.64,0,0,0,.64.64M25.33,0H8.23A2.75,2.75,0,0,0,5.66,1.8L4.5,5a3,3,0,0,0-1.25-.53,3.14,3.14,0,0,0-.54,0A2.16,2.16,0,0,0,.44,6,2.27,2.27,0,0,0,2.52,8.46l-.38.47A3.33,3.33,0,0,0,1.42,11v6.08a2.75,2.75,0,0,0,2.75,2.75h6l0-1a1.52,1.52,0,0,1,1.52-1.48H21.89a1.52,1.52,0,0,1,1.52,1.48l0,1h6a2.75,2.75,0,0,0,2.74-2.75V11a3.34,3.34,0,0,0-.72-2.07L31,8.46A2.73,2.73,0,0,0,32.8,7.4,1.83,1.83,0,0,0,33.12,6,2.15,2.15,0,0,0,30.85,4.4a3.14,3.14,0,0,0-.53,0A3,3,0,0,0,29.06,5L27.91,1.8A2.75,2.75,0,0,0,25.33,0ZM7.88,5.76l.67-2.34a.12.12,0,0,1,.12-.09H24.89a.12.12,0,0,1,.12.09l.67,2.34Zm20.2,7.83a.55.55,0,1,1,.55-.55.55.55,0,0,1-.55.55Zm-22.6,0A.55.55,0,1,1,6,13a.55.55,0,0,1-.55.55Z"/><path class="cls-1" d="M1.41,15.55v2.56a1.72,1.72,0,0,0,1.72,1.72H5.64v1.56a.88.88,0,0,1-.87.87H1.9A.88.88,0,0,1,1,21.39V16.28a.88.88,0,0,1,.39-.72m1-1.93L.83,14.71A1.9,1.9,0,0,0,0,16.28v5.12a1.9,1.9,0,0,0,1.9,1.9H4.77a1.9,1.9,0,0,0,1.9-1.9V18.81H3.13a.7.7,0,0,1-.7-.7V13.62Z"/><path class="cls-1" d="M32.17,15.59a.88.88,0,0,1,.39.72v5.12a.88.88,0,0,1-.87.87H28.82a.88.88,0,0,1-.87-.87V19.88h2.51a1.72,1.72,0,0,0,1.72-1.72V15.59m-1-1.93v4.49a.7.7,0,0,1-.7.7H26.92v2.58a1.9,1.9,0,0,0,1.9,1.9h2.87a1.9,1.9,0,0,0,1.9-1.9V16.32a1.9,1.9,0,0,0-.83-1.57l-1.6-1.08Z"/></g></g></svg>