<svg xmlns="http://www.w3.org/2000/svg" viewBox="0 0 33.89 28.51"><defs><style>.cls-1{fill:#ff9514;}</style></defs><title>animal</title><g id="Layer_2" data-name="Layer 2"><g id="Layer_2-2" data-name="Layer 2"><path class="cls-1" d="M23.81,28.51A6.91,6.91,0,0,1,20.14,27l-.42-.28a5.86,5.86,0,0,0-1.58-.86,4.5,4.5,0,0,0-2.22-.07,5.58,5.58,0,0,0-1.71.86l-.48.31A7.28,7.28,0,0,1,10,28.4a3.56,3.56,0,0,1-1.94-.58,5.25,5.25,0,0,1-2.3-4.35,8.45,8.45,0,0,1,.48-3.18,12,12,0,0,1,1.2-2.41A11.43,11.43,0,0,1,14,12.8a11.58,11.58,0,0,1,9.07,1.35A11.15,11.15,0,0,1,26.68,18h0a11.62,11.62,0,0,1,1.2,3c.54,2.3.27,5.5-2.3,7A3.55,3.55,0,0,1,23.81,28.51Zm-6.9-4.39a6.07,6.07,0,0,1,1.68.24,7.21,7.21,0,0,1,2,1.07l.39.27c1.38.91,2.66,1.65,3.82,1,1.82-1,2-3.48,1.56-5.25a10.13,10.13,0,0,0-1-2.63,9.61,9.61,0,0,0-3.08-3.35,10.13,10.13,0,0,0-7.82-1.15,9.9,9.9,0,0,0-5.66,4.41,10.5,10.5,0,0,0-1,2.1,6.87,6.87,0,0,0-.39,2.59,3.75,3.75,0,0,0,1.59,3.12,2,2,0,0,0,1.11.34,6.09,6.09,0,0,0,2.9-1.24l.45-.29a6.91,6.91,0,0,1,2.21-1.07A6.06,6.06,0,0,1,16.9,24.11Z"/><path class="cls-1" d="M11.67,1.55c1.41,0,2.65,2,2.65,4.23S13.08,10,11.67,10,9,8,9,5.77s1.24-4.23,2.65-4.23m0-1.55C9.35,0,7.47,2.58,7.47,5.77s1.88,5.77,4.19,5.77S15.86,9,15.86,5.77,14,0,11.67,0Z"/><path class="cls-1" d="M22.22,1.55c1.41,0,2.65,2,2.65,4.23S23.63,10,22.22,10s-2.65-2-2.65-4.23,1.24-4.23,2.65-4.23m0-1.55C19.9,0,18,2.58,18,5.77s1.88,5.77,4.19,5.77S26.42,9,26.42,5.77,24.54,0,22.22,0Z"/><path class="cls-1" d="M30.62,10.32c.81,0,1.72,1.26,1.72,3s-.91,3-1.72,3-1.72-1.26-1.72-3,.91-3,1.72-3m0-1.55c-1.8,0-3.27,2-3.27,4.5s1.46,4.5,3.27,4.5,3.27-2,3.27-4.5-1.46-4.5-3.27-4.5Z"/><path class="cls-1" d="M3.27,10.32c.81,0,1.72,1.26,1.72,3s-.91,3-1.72,3-1.72-1.26-1.72-3,.91-3,1.72-3m0-1.55c-1.8,0-3.27,2-3.27,4.5s1.46,4.5,3.27,4.5,3.27-2,3.27-4.5-1.46-4.5-3.27-4.5Z"/></g></g></svg>