<svg xmlns="http://www.w3.org/2000/svg" viewBox="0 0 30.79 27.22"><defs><style>.cls-1{fill:#ff9514;}</style></defs><title>house</title><g id="Layer_2" data-name="Layer 2"><g id="Layer_2-2" data-name="Layer 2"><path class="cls-1" d="M6.38,23.95A1.59,1.59,0,0,1,8,25.54c0,.32-.09.42-.25.42a9.7,9.7,0,0,0-1.34-.32A9.68,9.68,0,0,0,5,26c-.16,0-.25-.1-.25-.42a1.59,1.59,0,0,1,1.59-1.59m0-1.25a2.85,2.85,0,0,0-2.85,2.85A1.53,1.53,0,0,0,5,27.22,2.55,2.55,0,0,0,5.91,27a1.82,1.82,0,0,1,.47-.13,1.81,1.81,0,0,1,.47.13,2.55,2.55,0,0,0,.87.19,1.53,1.53,0,0,0,1.51-1.68,2.85,2.85,0,0,0-2.85-2.85Z"/><path class="cls-1" d="M24.42,23.95A1.59,1.59,0,0,1,26,25.54c0,.32-.09.42-.25.42a9.69,9.69,0,0,0-1.34-.32,9.7,9.7,0,0,0-1.34.32c-.16,0-.25-.1-.25-.42a1.59,1.59,0,0,1,1.59-1.59m0-1.25a2.85,2.85,0,0,0-2.85,2.85,1.53,1.53,0,0,0,1.51,1.68,2.55,2.55,0,0,0,.87-.19,1.82,1.82,0,0,1,.47-.13,1.82,1.82,0,0,1,.47.13,2.55,2.55,0,0,0,.87.19,1.53,1.53,0,0,0,1.51-1.68,2.85,2.85,0,0,0-2.85-2.85Z"/><path class="cls-1" d="M21.79,1.44A3.57,3.57,0,0,1,25.36,5V18.95H5.44V5A3.57,3.57,0,0,1,9,1.44H21.79m0-1.44H9A5,5,0,0,0,4,5V20.38H26.79V5a5,5,0,0,0-5-5Z"/><polygon class="cls-1" points="12.28 4.22 11.77 3.71 11.02 4.47 10.26 3.71 9.75 4.22 10.51 4.98 9.75 5.74 10.26 6.24 11.02 5.48 11.77 6.24 12.28 5.74 11.52 4.98 12.28 4.22"/><polygon class="cls-1" points="20.79 4.22 20.28 3.71 19.52 4.47 18.77 3.71 18.26 4.22 19.02 4.98 18.26 5.74 18.77 6.24 19.52 5.48 20.28 6.24 20.79 5.74 20.03 4.98 20.79 4.22"/><polygon class="cls-1" points="12.28 9.18 11.77 8.68 11.02 9.43 10.26 8.68 9.75 9.18 10.51 9.94 9.75 10.7 10.26 11.2 11.02 10.44 11.77 11.2 12.28 10.7 11.52 9.94 12.28 9.18"/><polygon class="cls-1" points="20.79 9.18 20.28 8.68 19.52 9.43 18.77 8.68 18.26 9.18 19.02 9.94 18.26 10.7 18.77 11.2 19.52 10.44 20.28 11.2 20.79 10.7 20.03 9.94 20.79 9.18"/><path class="cls-1" d="M29.14,11.62h.1a.44.44,0,0,1,.34.43V22.29a.45.45,0,0,1-.36.43H1.66a.45.45,0,0,1-.44-.44V12.06a.45.45,0,0,1,.44-.44H3.4a.41.41,0,0,1,.2.06.45.45,0,0,1,.23.38v8.48H27V12.06a.45.45,0,0,1,.44-.44h1.73m0-1.22H27.41a1.66,1.66,0,0,0-1.66,1.66v7.26H5V12.06a1.66,1.66,0,0,0-.84-1.44,1.62,1.62,0,0,0-.79-.22H1.66A1.66,1.66,0,0,0,0,12.06V22.29a1.66,1.66,0,0,0,1.66,1.66H29.14a1.55,1.55,0,0,0,.37,0,1.66,1.66,0,0,0,1.29-1.62V12.06a1.66,1.66,0,0,0-1.29-1.62,1.55,1.55,0,0,0-.37,0Z"/><path class="cls-1" d="M19.32,14.44a6.06,6.06,0,0,1,5.88,4.62H5.6a6.06,6.06,0,0,1,5.88-4.62h7.85m0-1.43H11.47A7.47,7.47,0,0,0,4,20.49H26.79A7.47,7.47,0,0,0,19.32,13Z"/></g></g></svg>