<svg xmlns="http://www.w3.org/2000/svg" viewBox="0 0 28.9 32.85"><defs><style>.cls-1{fill:#ff9514;}</style></defs><title>beauty</title><g id="Layer_2" data-name="Layer 2"><g id="Layer_2-2" data-name="Layer 2"><path class="cls-1" d="M11.73,12.37A10.47,10.47,0,0,1,17.47,31.6H6a10.47,10.47,0,0,1,5.75-19.23m0-1.25A11.72,11.72,0,0,0,5.62,32.85H17.83a11.72,11.72,0,0,0-6.1-21.74Z"/><rect class="cls-1" x="11.08" y="3.9" width="1.29" height="4.51"/><ellipse class="cls-1" cx="11.73" cy="2.2" rx="1.58" ry="2.2"/><rect class="cls-1" x="10.68" y="4.78" width="5.76" height="1.53"/><rect class="cls-1" x="1.42" y="18.76" width="20.95" height="1.29"/><rect class="cls-1" x="8.98" y="7.96" width="5.49" height="4.31" rx="0.93" ry="0.93"/><circle class="cls-1" cx="11.73" cy="5.54" r="1.58"/><path class="cls-1" d="M22.12,2.28c3,0,5.49,1.49,5.49,3.26S25.1,8.8,22.12,8.8s-5.49-1.49-5.49-3.26,2.51-3.26,5.49-3.26m0-1.29c-3.74,0-6.78,2-6.78,4.55s3,4.55,6.78,4.55,6.78-2,6.78-4.55S25.86,1,22.12,1Z"/></g></g></svg>