<svg width="172" height="40" viewBox="0 0 172 40" fill="none" xmlns="http://www.w3.org/2000/svg">
<path d="M42.9317 6.49341C41.0347 6.57031 39.2549 6.96949 37.5996 7.69461C35.9442 8.41972 34.5087 9.38654 33.3001 10.5987C32.0916 11.8072 31.1431 13.2208 30.4546 14.8395C29.7661 16.4582 29.4219 18.1978 29.4219 20.0582C29.4219 21.9955 29.7735 23.7789 30.4839 25.4159C31.1907 27.0529 32.1575 28.4775 33.388 29.6861C34.6149 30.8946 36.0468 31.8358 37.6874 32.5059C39.3244 33.1761 41.075 33.5094 42.9354 33.5094C44.8324 33.5094 46.6012 33.1578 48.2382 32.4473C49.8752 31.7405 51.2998 30.7737 52.5083 29.5432C53.7169 28.3164 54.6763 26.8918 55.3831 25.2731C56.09 23.6544 56.4452 21.9149 56.4452 20.0545C56.4452 18.1575 56.0826 16.3886 55.3575 14.7516C54.6324 13.1146 53.6546 11.6827 52.4278 10.4522C51.2009 9.2254 49.7653 8.25857 48.1283 7.54811C46.484 6.84863 44.7555 6.49341 42.9317 6.49341Z" fill="#FCD201"/>
<path d="M72.9063 6.49341C71.0093 6.57031 69.2295 6.96949 67.5742 7.69461C65.9189 8.41972 64.4833 9.38654 63.2747 10.5987C62.0662 11.8072 61.1177 13.2208 60.4292 14.8395C59.7407 16.4582 59.3965 18.1978 59.3965 20.0582C59.3965 21.9955 59.7481 23.7789 60.4585 25.4159C61.1653 27.0529 62.1321 28.4775 63.3626 29.6861C64.5895 30.8946 66.0214 31.8358 67.6621 32.5059C69.2991 33.1761 71.0496 33.5094 72.91 33.5094C74.807 33.5094 76.5758 33.1578 78.2128 32.4473C79.8498 31.7405 81.2744 30.7737 82.4829 29.5432C83.6915 28.3164 84.651 26.8918 85.3578 25.2731C86.0646 23.6544 86.4198 21.9149 86.4198 20.0545C86.4198 18.1575 86.0572 16.3886 85.3321 14.7516C84.607 13.1146 83.6292 11.6827 82.4024 10.4522C81.1755 9.2254 79.74 8.25857 78.103 7.54811C76.4586 6.84863 74.7301 6.49341 72.9063 6.49341Z" fill="#FCD201"/>
<path d="M171.99 18.4065C171.84 17.1284 171.507 15.9162 170.998 14.7663C170.273 13.1293 169.295 11.6974 168.068 10.4669C166.841 9.24005 165.406 8.27323 163.769 7.56277C162.132 6.85596 160.399 6.50073 158.576 6.50073C156.679 6.57764 154.899 6.97682 153.244 7.70193C151.588 8.42704 150.153 9.39386 148.944 10.606C147.736 11.8146 146.787 13.2282 146.099 14.8469C145.41 16.4656 145.066 18.2051 145.066 20.0655C145.066 22.0028 145.417 23.7863 146.128 25.4233C146.835 27.0603 147.802 28.4849 149.032 29.6934C150.259 30.9019 151.691 31.8431 153.331 32.5133C154.968 33.1835 156.719 33.5167 158.579 33.5167C160.476 33.5167 162.245 33.1615 163.882 32.4547C165.01 31.9676 165.988 30.6529 165.479 29.1734C165.351 28.7961 165.054 28.3054 164.754 27.9465C164.739 27.9282 164.706 27.8916 164.706 27.8916L160.634 23.1967C160.634 23.1967 160.601 23.16 160.583 23.1381C159.803 22.1822 160.345 20.765 161.597 20.8126L169.5 20.8529C169.5 20.8529 169.562 20.8529 169.595 20.8529C171.866 20.8052 172.053 18.9412 171.99 18.4065Z" fill="#7C00FF"/>
<path d="M142.66 18.4065C142.51 17.1284 142.177 15.9162 141.668 14.7663C140.943 13.1293 139.965 11.6974 138.738 10.4669C137.511 9.24005 136.076 8.27323 134.439 7.56277C132.802 6.85596 131.069 6.50073 129.246 6.50073C127.349 6.57764 125.569 6.97682 123.914 7.70193C122.258 8.42704 120.823 9.39386 119.614 10.606C118.406 11.8146 117.457 13.2282 116.769 14.8469C116.08 16.4656 115.736 18.2051 115.736 20.0655C115.736 22.0028 116.087 23.7863 116.798 25.4233C117.505 27.0603 118.472 28.4849 119.702 29.6934C120.929 30.9019 122.361 31.8431 124.001 32.5133C125.638 33.1835 127.389 33.5167 129.249 33.5167C131.146 33.5167 132.915 33.1615 134.552 32.4547C135.68 31.9676 136.658 30.6529 136.149 29.1734C136.021 28.7961 135.724 28.3054 135.424 27.9465C135.409 27.9282 135.376 27.8916 135.376 27.8916L131.304 23.1967C131.304 23.1967 131.271 23.16 131.253 23.1381C130.472 22.1822 131.015 20.765 132.267 20.8126L140.17 20.8529C140.17 20.8529 140.232 20.8529 140.265 20.8529C142.536 20.8052 142.726 18.9412 142.66 18.4065Z" fill="#7C00FF"/>
<path d="M113.403 32.495C111.968 33.9196 109.65 33.9122 108.225 32.4803L88.6103 12.7448C87.1857 11.3092 87.193 8.99104 88.6249 7.56644C90.0605 6.14185 92.3787 6.14918 93.8033 7.5811L113.418 27.3166C114.846 28.7486 114.839 31.0667 113.403 32.495Z" fill="#7C00FF"/>
<path d="M88.6247 32.495C90.0603 33.9196 92.3785 33.9122 93.8031 32.4803L113.418 12.7448C114.842 11.3092 114.835 8.99104 113.403 7.56644C111.968 6.14185 109.649 6.14918 108.225 7.5811L88.6101 27.3166C87.1818 28.7486 87.1892 31.0667 88.6247 32.495Z" fill="#7C00FF"/>
<path d="M12.5605 33.1432C10.7734 32.1947 10.0922 29.9791 11.0407 28.192L21.5402 8.3905C22.4887 6.60335 24.7044 5.92219 26.4915 6.8707C28.2787 7.8192 28.9598 10.0348 28.0113 11.822L17.5118 31.6234C16.5633 33.4106 14.3477 34.0881 12.5605 33.1432Z" fill="#FCD201"/>
<path d="M15.8787 33.1432C17.6659 32.1947 18.347 29.9791 17.3985 28.192L6.89904 8.3905C5.95053 6.60335 3.7349 5.92219 1.94775 6.8707C0.160605 7.8192 -0.520561 10.0348 0.427947 11.822L10.9274 31.6234C11.8723 33.4106 14.0916 34.0881 15.8787 33.1432Z" fill="#FCD201"/>
</svg>
