<svg width="150" height="40" viewBox="0 0 150 40" fill="none" xmlns="http://www.w3.org/2000/svg">
<path d="M60.3619 28L54.4771 11.7819H58.1609L62.6093 24.015L67.0577 11.7819H70.7415L64.8566 28H60.3619ZM79.8866 28.3012C78.7899 28.3012 77.7589 28.085 76.7936 27.6525C75.8282 27.2123 74.9787 26.606 74.245 25.8337C73.5113 25.0614 72.936 24.1694 72.519 23.1577C72.1019 22.1383 71.8934 21.0494 71.8934 19.891C71.8934 18.7325 72.1019 17.6475 72.519 16.6358C72.936 15.6163 73.5113 14.7205 74.245 13.9482C74.9787 13.1759 75.8282 12.5735 76.7936 12.141C77.7589 11.7008 78.7899 11.4807 79.8866 11.4807C80.991 11.4807 82.0258 11.7008 82.9912 12.141C83.9566 12.5735 84.8061 13.1759 85.5398 13.9482C86.2734 14.7205 86.8449 15.6163 87.2542 16.6358C87.6713 17.6475 87.8798 18.7325 87.8798 19.891C87.8798 21.0494 87.6713 22.1383 87.2542 23.1577C86.8449 24.1694 86.2734 25.0614 85.5398 25.8337C84.8061 26.606 83.9566 27.2123 82.9912 27.6525C82.0258 28.085 80.991 28.3012 79.8866 28.3012ZM79.8866 24.8259C80.5044 24.8259 81.0836 24.6985 81.6242 24.4436C82.1726 24.181 82.6553 23.8258 83.0723 23.3778C83.4893 22.9222 83.8137 22.397 84.0454 21.8024C84.2848 21.2077 84.4045 20.5706 84.4045 19.891C84.4045 19.2113 84.2848 18.5742 84.0454 17.9795C83.8137 17.3849 83.4893 16.8636 83.0723 16.4157C82.6553 15.96 82.1726 15.6047 81.6242 15.3499C81.0836 15.0873 80.5044 14.956 79.8866 14.956C79.2688 14.956 78.6857 15.0873 78.1374 15.3499C77.5968 15.6047 77.1179 15.96 76.7009 16.4157C76.2839 16.8636 75.9556 17.3849 75.7162 17.9795C75.4845 18.5742 75.3687 19.2113 75.3687 19.891C75.3687 20.5706 75.4845 21.2077 75.7162 21.8024C75.9556 22.397 76.2839 22.9222 76.7009 23.3778C77.1179 23.8258 77.5968 24.181 78.1374 24.4436C78.6857 24.6985 79.2688 24.8259 79.8866 24.8259ZM97.4668 28.3012C96.3701 28.3012 95.3391 28.085 94.3737 27.6525C93.4084 27.2123 92.5588 26.606 91.8252 25.8337C91.0915 25.0614 90.5161 24.1694 90.0991 23.1577C89.6821 22.1383 89.4736 21.0494 89.4736 19.891C89.4736 18.7325 89.6821 17.6475 90.0991 16.6358C90.5161 15.6163 91.0915 14.7205 91.8252 13.9482C92.5588 13.1759 93.4084 12.5735 94.3737 12.141C95.3391 11.7008 96.3701 11.4807 97.4668 11.4807C98.5711 11.4807 99.606 11.7008 100.571 12.141C101.537 12.5735 102.386 13.1759 103.12 13.9482C103.854 14.7205 104.425 15.6163 104.834 16.6358C105.251 17.6475 105.46 18.7325 105.46 19.891C105.46 21.0494 105.251 22.1383 104.834 23.1577C104.425 24.1694 103.854 25.0614 103.12 25.8337C102.386 26.606 101.537 27.2123 100.571 27.6525C99.606 28.085 98.5711 28.3012 97.4668 28.3012ZM97.4668 24.8259C98.0846 24.8259 98.6638 24.6985 99.2044 24.4436C99.7527 24.181 100.235 23.8258 100.652 23.3778C101.069 22.9222 101.394 22.397 101.626 21.8024C101.865 21.2077 101.985 20.5706 101.985 19.891C101.985 19.2113 101.865 18.5742 101.626 17.9795C101.394 17.3849 101.069 16.8636 100.652 16.4157C100.235 15.96 99.7527 15.6047 99.2044 15.3499C98.6638 15.0873 98.0846 14.956 97.4668 14.956C96.8489 14.956 96.2658 15.0873 95.7175 15.3499C95.1769 15.6047 94.6981 15.96 94.2811 16.4157C93.864 16.8636 93.5358 17.3849 93.2964 17.9795C93.0647 18.5742 92.9489 19.2113 92.9489 19.891C92.9489 20.5706 93.0647 21.2077 93.2964 21.8024C93.5358 22.397 93.864 22.9222 94.2811 23.3778C94.6981 23.8258 95.1769 24.181 95.7175 24.4436C96.2658 24.6985 96.8489 24.8259 97.4668 24.8259Z" fill="#7210FF"/>
<path d="M107.071 28L113.002 19.8446L107.14 11.7819H111.427L115.157 16.9022L118.887 11.7819H123.173L117.311 19.8446L123.243 28H118.933L115.157 22.8102L111.38 28H107.071ZM125.323 28V11.7819H135.657V15.2572H128.799V17.5741H134.081V21.0494H128.799V24.5247H135.657V28H125.323ZM138.197 28V11.7819H148.531V15.2572H141.673V17.5741H146.955V21.0494H141.673V24.5247H148.531V28H138.197Z" fill="#FFD300"/>
<circle cx="20" cy="20" r="20" fill="#FFD300"/>
</svg>
