<svg width="40" height="40" viewBox="0 0 40 40" fill="none" xmlns="http://www.w3.org/2000/svg">
<path d="M11.5933 4.70593C10.6166 4.74612 9.70024 4.95472 8.848 5.33364C7.99576 5.71256 7.25664 6.21778 6.63443 6.85123C6.01222 7.48277 5.52388 8.22147 5.16941 9.06734C4.81493 9.91322 4.6377 10.8222 4.6377 11.7944C4.6377 12.8068 4.81871 13.7388 5.18449 14.5942C5.54839 15.4497 6.04616 16.1941 6.67968 16.8256C7.31132 17.4572 8.04855 17.949 8.89325 18.2992C9.73606 18.6494 10.6373 18.8236 11.5952 18.8236C12.5718 18.8236 13.4825 18.6399 14.3254 18.2686C15.1682 17.8992 15.9016 17.394 16.5238 16.751C17.146 16.1099 17.64 15.3655 18.0039 14.5196C18.3678 13.6737 18.5507 12.7647 18.5507 11.7925C18.5507 10.8012 18.3641 9.87685 17.9907 9.02141C17.6174 8.16597 17.114 7.4177 16.4824 6.77468C15.8507 6.13358 15.1116 5.62835 14.2688 5.25708C13.4222 4.89156 12.5322 4.70593 11.5933 4.70593Z" fill="#7210FF"/>
<path d="M27.8252 4.70593C26.8485 4.74612 25.9322 4.95472 25.0799 5.33364C24.2277 5.71256 23.4886 6.21778 22.8664 6.85123C22.2442 7.48277 21.7558 8.22147 21.4013 9.06734C21.0469 9.91322 20.8696 10.8222 20.8696 11.7944C20.8696 12.8068 21.0506 13.7388 21.4164 14.5942C21.7803 15.4497 22.2781 16.1941 22.9116 16.8256C23.5433 17.4572 24.2805 17.949 25.1252 18.2992C25.968 18.6494 26.8693 18.8236 27.8271 18.8236C28.8038 18.8236 29.7145 18.6399 30.5573 18.2686C31.4001 17.8992 32.1336 17.394 32.7558 16.751C33.378 16.1099 33.872 15.3655 34.2359 14.5196C34.5998 13.6737 34.7827 12.7647 34.7827 11.7925C34.7827 10.8012 34.596 9.87685 34.2227 9.02141C33.8494 8.16597 33.3459 7.4177 32.7143 6.77468C32.0826 6.13358 31.3435 5.62835 30.5007 5.25708C29.6541 4.89156 28.7642 4.70593 27.8252 4.70593Z" fill="#7210FF"/>
<path d="M18.5454 27.3981C18.4679 26.7302 18.2957 26.0967 18.0328 25.4958C17.6582 24.6404 17.1531 23.8921 16.5194 23.2491C15.8857 22.608 15.1442 22.1028 14.2986 21.7315C13.453 21.3621 12.5582 21.1765 11.6162 21.1765C10.6363 21.2167 9.71689 21.4253 8.86185 21.8042C8.0068 22.1831 7.26526 22.6884 6.641 23.3218C6.01675 23.9533 5.52679 24.6921 5.17115 25.5379C4.81552 26.3838 4.6377 27.2928 4.6377 28.265C4.6377 29.2774 4.8193 30.2094 5.18629 31.0648C5.55139 31.9202 6.05079 32.6647 6.6864 33.2962C7.32012 33.9278 8.05977 34.4196 8.90725 34.7698C9.75283 35.12 10.6571 35.2942 11.618 35.2942C12.5979 35.2942 13.5116 35.1085 14.3572 34.7392C14.9399 34.4847 15.4449 33.7976 15.182 33.0245C15.1158 32.8274 14.9626 32.5709 14.8074 32.3834C14.7999 32.3738 14.7828 32.3547 14.7828 32.3547L12.6793 29.9012C12.6793 29.9012 12.6623 29.8821 12.6528 29.8706C12.2499 29.3711 12.5298 28.6305 13.1768 28.6554L17.2591 28.6765C17.2591 28.6765 17.2912 28.6765 17.3083 28.6765C18.4811 28.6516 18.5795 27.6775 18.5454 27.3981Z" fill="#FFD300"/>
<path d="M34.7778 27.3981C34.7002 26.7302 34.5281 26.0967 34.2651 25.4958C33.8906 24.6404 33.3855 23.8921 32.7517 23.2491C32.118 22.608 31.3764 22.1028 30.5308 21.7315C29.6852 21.3621 28.7904 21.1765 27.8483 21.1765C26.8684 21.2167 25.949 21.4253 25.0939 21.8042C24.2388 22.1831 23.4973 22.6884 22.873 23.3218C22.2487 23.9533 21.7588 24.6921 21.4031 25.5379C21.0475 26.3838 20.8696 27.2928 20.8696 28.265C20.8696 29.2774 21.0512 30.2094 21.4182 31.0648C21.7833 31.9202 22.2827 32.6647 22.9184 33.2962C23.5521 33.9278 24.2918 34.4196 25.1393 34.7698C25.9849 35.12 26.8892 35.2942 27.8502 35.2942C28.8301 35.2942 29.7439 35.1085 30.5895 34.7392C31.1721 34.4847 31.6772 33.7976 31.4143 33.0245C31.3481 32.8274 31.1948 32.5709 31.0397 32.3834C31.0321 32.3738 31.0151 32.3547 31.0151 32.3547L28.9115 29.9012C28.9115 29.9012 28.8945 29.8821 28.885 29.8706C28.4821 29.3711 28.762 28.6305 29.409 28.6554L33.4914 28.6765C33.4914 28.6765 33.5236 28.6765 33.5406 28.6765C34.7135 28.6516 34.81 27.6775 34.7778 27.3981Z" fill="#FFD300"/>
</svg>
