<svg width="19" height="33" viewBox="0 0 19 33" fill="none" xmlns="http://www.w3.org/2000/svg">
<path d="M16.1979 2.41211H7.05384L2.11834 17.272C2.11527 17.2817 2.11446 17.292 2.11598 17.302C2.1175 17.3121 2.1213 17.3217 2.12709 17.33C2.13289 17.3384 2.14052 17.3453 2.14941 17.3503C2.15829 17.3553 2.1682 17.3581 2.17836 17.3587H7.84085C7.85158 17.3582 7.86227 17.3603 7.87201 17.3648C7.88176 17.3693 7.89027 17.3761 7.89681 17.3846C7.90336 17.3932 7.90776 17.4031 7.90963 17.4137C7.9115 17.4243 7.91078 17.4351 7.90755 17.4454L3.52562 30.5445C3.50055 30.6201 3.50338 30.7022 3.53359 30.7759C3.56381 30.8496 3.61941 30.9101 3.69033 30.9463C3.76126 30.9826 3.84282 30.9923 3.92027 30.9736C3.99771 30.955 4.06592 30.9092 4.11255 30.8446L17.3317 12.6966C17.3391 12.6867 17.3437 12.6749 17.3448 12.6626C17.3459 12.6503 17.3435 12.6379 17.338 12.6268C17.3325 12.6157 17.3239 12.6064 17.3134 12.5999C17.3029 12.5934 17.2907 12.5899 17.2783 12.5899H11.3357C11.3245 12.5887 11.3137 12.5848 11.3042 12.5787C11.2947 12.5726 11.2868 12.5644 11.281 12.5548C11.2751 12.5451 11.2716 12.5342 11.2707 12.5229C11.2698 12.5117 11.2715 12.5004 11.2757 12.4899L16.2579 2.48547C16.2588 2.47671 16.258 2.46785 16.2555 2.4594C16.2529 2.45096 16.2488 2.44309 16.2432 2.43627C16.2376 2.42945 16.2307 2.4238 16.2229 2.41965C16.2152 2.41551 16.2066 2.41294 16.1979 2.41211Z" stroke="#FF8514" stroke-width="3" stroke-linejoin="round"/>
</svg>
