<svg width="133" height="40" viewBox="0 0 133 40" fill="none" xmlns="http://www.w3.org/2000/svg">
<path d="M0 10.8C0 7.01965 0 5.12947 0.735706 3.68556C1.38285 2.41547 2.41547 1.38285 3.68556 0.735706C5.12947 0 7.01965 0 10.8 0H122.2C125.98 0 127.871 0 129.314 0.735706C130.585 1.38285 131.617 2.41547 132.264 3.68556C133 5.12947 133 7.01965 133 10.8V29.2C133 32.9804 133 34.8705 132.264 36.3144C131.617 37.5845 130.585 38.6171 129.314 39.2643C127.871 40 125.98 40 122.2 40H10.8C7.01965 40 5.12947 40 3.68556 39.2643C2.41547 38.6171 1.38285 37.5845 0.735706 36.3144C0 34.8705 0 32.9804 0 29.2V10.8Z" fill="#100F0D"/>
<path d="M45.3962 25.4115H48.8919L47.6404 22.0613C47.4682 21.5984 47.2989 21.0873 47.1319 20.5274C46.9813 21.0227 46.817 21.5284 46.6394 22.0451L45.3962 25.4115ZM49.4893 27.0019H44.8068L43.6607 30.1342H41.6021L46.1874 18.4366H48.133L52.8234 30.1342H50.6599L49.4893 27.0019Z" fill="white"/>
<path d="M58.8962 28.007C59.3026 27.4608 59.5058 26.6628 59.5058 25.6133C59.5058 24.6394 59.3375 23.9328 59.0013 23.4941C58.6647 23.0555 58.2167 22.8363 57.657 22.8363C57.2695 22.8363 56.9117 22.9279 56.5834 23.1107C56.2551 23.2937 55.9429 23.5385 55.6469 23.8453V28.5116C55.8461 28.6083 56.0775 28.6851 56.3413 28.7414C56.605 28.7982 56.8661 28.8265 57.1242 28.8265C57.8994 28.8265 58.4898 28.5531 58.8962 28.007ZM53.653 23.5548C53.653 22.909 53.6314 22.1984 53.5885 21.4236H55.4613C55.5311 21.7842 55.5797 22.1529 55.6066 22.5295C56.3815 21.6847 57.2695 21.262 58.2706 21.262C58.8519 21.262 59.3901 21.4087 59.8853 21.7019C60.3802 21.9953 60.7799 22.4581 61.0839 23.0904C61.3882 23.7229 61.5402 24.5264 61.5402 25.5003C61.5402 26.5175 61.3666 27.3868 61.0194 28.1078C60.6722 28.8292 60.1866 29.3752 59.5623 29.7468C58.9381 30.1179 58.2167 30.3037 57.3989 30.3037C56.8066 30.3037 56.2226 30.2041 55.6469 30.0051V33.6054L53.653 33.775V23.5548Z" fill="white"/>
<path d="M67.9935 28.007C68.3999 27.4608 68.6031 26.6628 68.6031 25.6133C68.6031 24.6394 68.4349 23.9328 68.0986 23.4941C67.7621 23.0555 67.3141 22.8363 66.7543 22.8363C66.3669 22.8363 66.009 22.9279 65.6807 23.1107C65.3522 23.2937 65.0402 23.5385 64.7442 23.8453V28.5116C64.9434 28.6083 65.1746 28.6851 65.4386 28.7414C65.7021 28.7982 65.9631 28.8265 66.2215 28.8265C66.9964 28.8265 67.5871 28.5531 67.9935 28.007ZM62.7501 23.5548C62.7501 22.909 62.7285 22.1984 62.6855 21.4236H64.5586C64.6285 21.7842 64.677 22.1529 64.7039 22.5295C65.4789 21.6847 66.3668 21.262 67.3679 21.262C67.9493 21.262 68.4871 21.4087 68.9826 21.7019C69.4775 21.9953 69.8772 22.4581 70.1815 23.0904C70.4852 23.7229 70.6375 24.5264 70.6375 25.5003C70.6375 26.5175 70.4637 27.3868 70.1167 28.1078C69.7695 28.8292 69.2837 29.3752 68.6597 29.7468C68.0351 30.1179 67.314 30.3037 66.4959 30.3037C65.9039 30.3037 65.3199 30.2041 64.7442 30.0051V33.6054L62.7501 33.775V23.5548Z" fill="white"/>
<path d="M74.3005 29.5812C73.4391 29.1051 72.7773 28.4227 72.3146 27.5347C71.8514 26.6467 71.6202 25.5972 71.6202 24.3863C71.6202 23.0732 71.8866 21.9576 72.4194 21.0399C72.9522 20.1225 73.6775 19.4336 74.5949 18.9733C75.5127 18.5132 76.5418 18.2831 77.6831 18.2831C78.3557 18.2831 78.9975 18.3572 79.6085 18.5051C80.2191 18.6532 80.7882 18.8563 81.3159 19.1147L80.8071 20.6484C79.7468 20.1426 78.7351 19.8896 77.7719 19.8896C76.9591 19.8896 76.2474 20.0632 75.6367 20.4104C75.0258 20.7576 74.5506 21.2675 74.2117 21.9402C73.8725 22.613 73.7031 23.4256 73.7031 24.3781C73.7031 25.2126 73.8335 25.9524 74.0943 26.5982C74.3557 27.2441 74.7674 27.7555 75.3298 28.1321C75.8922 28.5089 76.6013 28.6971 77.457 28.6971C77.8445 28.6971 78.2319 28.6649 78.6194 28.6003C79.0069 28.5359 79.3703 28.4417 79.7093 28.3177V25.9524H77.005V24.4024H81.6469V29.327C80.9794 29.639 80.2783 29.8788 79.5439 30.0454C78.809 30.2121 78.0786 30.2955 77.3519 30.2955C76.1786 30.2955 75.1613 30.0577 74.3005 29.5812Z" fill="white"/>
<path d="M87.5381 28.5195C87.9522 28.3206 88.2914 28.0728 88.5551 27.7769V26.1623C88.0114 26.1032 87.5674 26.0736 87.2231 26.0736C86.3997 26.0736 85.8303 26.2066 85.5159 26.4732C85.2007 26.7393 85.0434 27.0988 85.0434 27.5507C85.0434 27.9817 85.1578 28.3003 85.3866 28.5075C85.6154 28.7147 85.9261 28.8182 86.3189 28.8182C86.717 28.8182 87.1234 28.7188 87.5381 28.5195ZM88.7327 30.1342C88.6626 29.795 88.6167 29.4104 88.5954 28.9798C88.2887 29.3459 87.8893 29.6566 87.3965 29.9123C86.9045 30.1678 86.3485 30.2955 85.7295 30.2955C85.229 30.2955 84.773 30.1974 84.361 30.0008C83.9498 29.8046 83.6226 29.5085 83.3805 29.1128C83.1383 28.7174 83.017 28.2345 83.017 27.6637C83.017 26.819 83.321 26.1448 83.9293 25.6415C84.5375 25.1383 85.5519 24.8868 86.9727 24.8868C87.5055 24.8868 88.033 24.9246 88.5551 24.9998V24.8303C88.5551 24.0607 88.3909 23.5185 88.0626 23.2035C87.7343 22.8889 87.2634 22.7314 86.6501 22.7314C86.2247 22.7314 85.7701 22.7933 85.2855 22.917C84.8013 23.0409 84.3759 23.1889 84.0101 23.3611L83.6951 21.9079C84.0503 21.7464 84.5186 21.5984 85.0999 21.4639C85.6813 21.3295 86.2946 21.262 86.9405 21.262C87.6941 21.262 88.3343 21.3764 88.8618 21.605C89.3893 21.8339 89.801 22.2269 90.097 22.7837C90.393 23.3409 90.541 24.0904 90.541 25.0321V28.4952C90.541 28.856 90.5623 29.4025 90.6055 30.1342H88.7327Z" fill="white"/>
<path d="M92.0709 28.0432V17.7503L94.0567 17.5889V27.688C94.0567 28.0595 94.1199 28.3217 94.2463 28.4752C94.3727 28.6283 94.5732 28.7054 94.8479 28.7054C94.9716 28.7054 95.1466 28.6759 95.3724 28.6166L95.6066 30.0454C95.418 30.1208 95.1882 30.1814 94.9167 30.227C94.6447 30.2726 94.3876 30.2955 94.1455 30.2955C92.762 30.2955 92.0709 29.5449 92.0709 28.0432Z" fill="white"/>
<path d="M97.0356 28.0432V17.7503L99.0215 17.5889V27.688C99.0215 28.0595 99.0847 28.3217 99.2111 28.4752C99.3378 28.6283 99.5383 28.7054 99.8127 28.7054C99.9365 28.7054 100.111 28.6759 100.338 28.6166L100.572 30.0454C100.383 30.1208 100.153 30.1814 99.8815 30.227C99.6095 30.2726 99.3524 30.2955 99.1103 30.2955C97.7271 30.2955 97.0356 29.5449 97.0356 28.0432Z" fill="white"/>
<path d="M106.795 24.7657C106.755 24.0715 106.581 23.5508 106.269 23.2035C105.957 22.8566 105.539 22.6828 105.019 22.6828C104.512 22.6828 104.091 22.8579 103.755 23.2076C103.419 23.5576 103.197 24.0769 103.096 24.7657H106.795ZM108.739 26.0331H103.04C103.131 27.8577 104 28.7699 105.648 28.7699C106.056 28.7699 106.475 28.7201 106.904 28.6206C107.331 28.5208 107.741 28.3878 108.133 28.2208L108.571 29.5851C107.595 30.059 106.501 30.2955 105.285 30.2955C104.357 30.2955 103.579 30.1208 102.944 29.7709C102.307 29.4212 101.829 28.9179 101.509 28.2612C101.19 27.6049 101.03 26.8137 101.03 25.8878C101.03 24.9246 101.199 24.0956 101.539 23.4014C101.877 22.7071 102.349 22.1771 102.955 21.8111C103.56 21.4451 104.259 21.262 105.051 21.262C105.875 21.262 106.56 21.4545 107.112 21.8394C107.664 22.224 108.072 22.7368 108.339 23.3771C108.605 24.0178 108.739 24.7253 108.739 25.5003V26.0331Z" fill="white"/>
<path d="M110.248 23.6113C110.248 23.1324 110.224 22.4032 110.181 21.4236H112.048C112.08 21.6658 112.109 21.955 112.141 22.2915C112.171 22.6277 112.189 22.9008 112.2 23.1107C112.432 22.7287 112.659 22.4071 112.883 22.1462C113.107 21.8849 113.368 21.6725 113.667 21.5081C113.965 21.3441 114.304 21.262 114.688 21.262C114.995 21.262 115.256 21.2944 115.477 21.359L115.227 23.0866C115.035 23.0274 114.819 22.9977 114.581 22.9977C114.115 22.9977 113.704 23.1175 113.355 23.3571C113.005 23.5964 112.632 23.9906 112.232 24.5396V30.1342H110.248V23.6113Z" fill="white"/>
<path d="M116.597 33.6982C116.307 33.6473 116.067 33.5894 115.88 33.5249L116.243 32.0718C116.376 32.1092 116.547 32.1456 116.752 32.1806C116.955 32.2159 117.149 32.2331 117.333 32.2331C118.216 32.2331 118.877 31.6651 119.317 30.5297L119.448 30.2068L116.235 21.4236H118.373L119.989 26.3318C120.251 27.1716 120.421 27.8147 120.496 28.2612C120.648 27.6316 120.824 27.0019 121.029 26.3722L122.669 21.4236H124.677L121.475 30.2473C121.173 31.0814 120.845 31.754 120.496 32.2654C120.147 32.7766 119.733 33.156 119.259 33.4037C118.781 33.6511 118.208 33.775 117.533 33.775C117.2 33.775 116.888 33.7497 116.597 33.6982Z" fill="white"/>
<path d="M41.5933 7.30125H45.1474L45.0474 8.15965H42.6349V9.82205H44.9098V10.6263H42.6349V12.4679H45.1765L45.089 13.3346H41.5933V7.30125Z" fill="white"/>
<path d="M47.5973 10.2554L45.7223 7.30125H46.9055L48.1765 9.47218L49.514 7.30125H50.6639L48.8055 10.2178L50.8181 13.3346H49.6181L48.1807 10.9596L46.7181 13.3346H45.5682L47.5973 10.2554Z" fill="white"/>
<path d="M54.1973 9.99485C54.4194 9.79378 54.5306 9.50951 54.5306 9.14285C54.5306 8.77058 54.4172 8.50285 54.1911 8.33885C53.9647 8.17485 53.6319 8.09298 53.1932 8.09298H52.6266V10.2346C52.8876 10.2762 53.0876 10.297 53.2266 10.297C53.6514 10.297 53.9751 10.1964 54.1973 9.99485ZM51.5847 7.30125H53.2098C53.9735 7.30125 54.5583 7.45698 54.9639 7.76791C55.3695 8.07911 55.5722 8.52898 55.5722 9.11778C55.5722 9.51778 55.4813 9.86738 55.2994 10.1658C55.1173 10.4644 54.8639 10.6938 54.5388 10.8532C54.214 11.0132 53.8402 11.093 53.418 11.093C53.1876 11.093 52.9236 11.0652 52.6266 11.0095V13.3346H51.5847V7.30125Z" fill="white"/>
<path d="M56.6015 7.30125H57.6431V12.4428H60.1389L60.0514 13.3346H56.6015V7.30125Z" fill="white"/>
<path d="M64.4223 12.2991C64.714 12.1034 64.9319 11.834 65.0764 11.4908C65.221 11.1479 65.2932 10.7554 65.2932 10.3138C65.2932 9.88044 65.2292 9.49457 65.1015 9.15537C64.9735 8.81644 64.7695 8.54657 64.489 8.34497C64.2084 8.14364 63.8474 8.04284 63.4055 8.04284C62.9834 8.04284 62.625 8.14497 62.3306 8.34924C62.0362 8.55324 61.8154 8.82711 61.6682 9.17004C61.521 9.51324 61.4474 9.89164 61.4474 10.3055C61.4474 10.7415 61.5167 11.1319 61.6556 11.4762C61.7943 11.8207 62.0068 12.093 62.2932 12.293C62.5791 12.493 62.9332 12.593 63.3556 12.593C63.7751 12.593 64.1306 12.4948 64.4223 12.2991ZM61.7223 13.0388C61.2807 12.786 60.9431 12.4311 60.7098 11.974C60.4764 11.5172 60.3599 10.986 60.3599 10.3804C60.3599 9.74444 60.4839 9.18817 60.7327 8.71164C60.9813 8.23537 61.3396 7.86737 61.8076 7.60737C62.2756 7.34791 62.8277 7.21777 63.4639 7.21777C64.0722 7.21777 64.5959 7.34364 65.0348 7.59484C65.4735 7.84657 65.8084 8.1999 66.0388 8.65537C66.2695 9.1111 66.3847 9.63884 66.3847 10.2388C66.3847 10.886 66.2591 11.4487 66.0076 11.9263C65.7562 12.4039 65.3981 12.7722 64.9327 13.0303C64.4674 13.2887 63.921 13.4179 63.2932 13.4179C62.6876 13.4179 62.1639 13.2916 61.7223 13.0388Z" fill="white"/>
<path d="M69.1807 10.1554C69.4333 10.1554 69.657 10.1063 69.8514 10.0074C70.0458 9.90898 70.1973 9.77005 70.3055 9.59085C70.4141 9.41165 70.4682 9.20391 70.4682 8.96791C70.4682 8.66525 70.3722 8.44365 70.1807 8.30338C69.989 8.16311 69.7098 8.09298 69.3431 8.09298H68.589V10.1554H69.1807ZM67.5474 7.30125H69.4349C70.1237 7.30125 70.6453 7.43885 70.9994 7.71378C71.3535 7.98871 71.5306 8.38205 71.5306 8.89298C71.5306 9.21245 71.4666 9.49378 71.3389 9.73671C71.2111 9.97991 71.0527 10.1778 70.864 10.3303C70.6749 10.4831 70.4807 10.597 70.2807 10.6722L72.1349 13.3346H70.9266L69.3557 10.9428H68.589V13.3346H67.5474V7.30125Z" fill="white"/>
<path d="M72.9599 7.30125H76.5141L76.4141 8.15965H74.0015V9.82205H76.2765V10.6263H74.0015V12.4679H76.5431L76.4556 13.3346H72.9599V7.30125Z" fill="white"/>
<path d="M80.3807 7.30125H81.4223V13.3346H80.3807V7.30125Z" fill="white"/>
<path d="M84.1765 8.17218H82.3055L82.3973 7.30125H87.0933L86.9973 8.17218H85.218V13.3346H84.1765V8.17218Z" fill="white"/>
<path d="M94.3141 12.2991C94.6055 12.1034 94.8237 11.834 94.9682 11.4908C95.1125 11.1479 95.1847 10.7554 95.1847 10.3138C95.1847 9.88044 95.1207 9.49457 94.9933 9.15537C94.8653 8.81644 94.661 8.54657 94.3807 8.34497C94.0999 8.14364 93.7389 8.04284 93.2973 8.04284C92.8749 8.04284 92.5167 8.14497 92.2223 8.34924C91.9277 8.55324 91.7069 8.82711 91.5599 9.17004C91.4125 9.51324 91.3389 9.89164 91.3389 10.3055C91.3389 10.7415 91.4082 11.1319 91.5474 11.4762C91.6861 11.8207 91.8986 12.093 92.1847 12.293C92.4709 12.493 92.825 12.593 93.2474 12.593C93.6666 12.593 94.0223 12.4948 94.3141 12.2991ZM91.6141 13.0388C91.1722 12.786 90.8349 12.4311 90.6015 11.974C90.3682 11.5172 90.2514 10.986 90.2514 10.3804C90.2514 9.74444 90.3757 9.18817 90.6245 8.71164C90.8727 8.23537 91.2311 7.86737 91.6994 7.60737C92.1674 7.34791 92.7194 7.21777 93.3557 7.21777C93.9639 7.21777 94.4874 7.34364 94.9266 7.59484C95.3653 7.84657 95.6999 8.1999 95.9306 8.65537C96.161 9.1111 96.2765 9.63884 96.2765 10.2388C96.2765 10.886 96.1506 11.4487 95.8994 11.9263C95.6479 12.4039 95.2895 12.7722 94.8245 13.0303C94.3591 13.2887 93.8125 13.4179 93.1847 13.4179C92.5791 13.4179 92.0557 13.2916 91.6141 13.0388Z" fill="white"/>
<path d="M97.4389 7.30125H98.6349L101.619 11.9762C101.592 11.5319 101.581 11.122 101.581 10.7471V7.30125H102.547V13.3346H101.389L98.3599 8.58445C98.3903 9.12365 98.4055 9.60125 98.4055 10.0178V13.3346H97.4389V7.30125Z" fill="white"/>
<path fill-rule="evenodd" clip-rule="evenodd" d="M26.9419 7.33366H15.8635C10.6449 7.33366 8.73608 9.24246 8.73608 14.4612V25.5397C8.73608 30.7582 10.6449 32.667 15.8635 32.667H26.9385C32.1571 32.667 34.0694 30.7582 34.0694 25.5397V14.4612C34.0694 9.24246 32.1606 7.33366 26.9419 7.33366Z" fill="#C91C2E"/>
<path d="M19.7883 22.0259H20.8043L20.2947 20.8408L19.7883 22.0259ZM19.5382 22.6233L19.2368 23.3129H18.5507L20.0099 20.0026H20.6027L22.056 23.3129H21.3515L21.0539 22.6233H19.5382ZM30.579 23.3106H31.2422V20.0026H30.579V23.3106ZM27.9398 21.8891H29.1619V21.2863H27.9398V20.6082H29.7139V20.0047H27.2768V23.3126H29.7779V22.7092H27.9398V21.8891ZM25.3048 22.2801L24.5528 20.0025H24.0046L23.2526 22.2801L22.5208 20.004H21.8056L22.96 23.3144H23.5163L24.2694 21.14L25.0222 23.3144H25.5835L26.735 20.004H26.0382L25.3048 22.2801ZM17.5384 21.8983C17.5384 22.4368 17.271 22.7246 16.7854 22.7246C16.2971 22.7246 16.0283 22.4287 16.0283 21.8754V20.0044H15.3563V21.8983C15.3563 22.8301 15.8739 23.3643 16.7763 23.3643C17.6875 23.3643 18.2102 22.8199 18.2102 21.8709V20.0025H17.5384V21.8983ZM13.7528 20.0026H14.4246V23.3147H13.7528V21.9697H12.2352V23.3147H11.5632V20.0026H12.2352V21.3387H13.7528V20.0026Z" fill="white"/>
<path d="M21.4028 15.7852C19.0778 15.7852 17.186 13.8934 17.186 11.5683H17.7818C17.7818 13.565 19.406 15.1894 21.4028 15.1894C23.3996 15.1894 25.0239 13.565 25.0239 11.5683H25.6196C25.6196 13.8934 23.7279 15.7852 21.4028 15.7852Z" fill="white"/>
<path d="M3.68556 39.2643L4.13955 38.3733L3.68556 39.2643ZM132.264 36.3144L131.373 35.8604L132.264 36.3144ZM129.314 39.2643L129.768 40.1553L129.314 39.2643ZM129.314 0.735706L129.768 -0.1553L129.314 0.735706ZM132.264 3.68556L133.155 3.23157L132.264 3.68556ZM10.8 1H122.2V-1H10.8V1ZM132 10.8V29.2H134V10.8H132ZM122.2 39H10.8V41H122.2V39ZM1 29.2V10.8H-1V29.2H1ZM10.8 39C8.89332 39 7.52346 38.9992 6.44805 38.9114C5.38431 38.8244 4.69704 38.6573 4.13955 38.3733L3.23157 40.1553C4.11799 40.607 5.09776 40.8077 6.28518 40.9047C7.46093 41.0008 8.92633 41 10.8 41V39ZM-1 29.2C-1 31.0737 -1.00078 32.5391 -0.904716 33.7148C-0.8077 34.9022 -0.606954 35.882 -0.1553 36.7684L1.62671 35.8604C1.34266 35.303 1.17555 34.6157 1.08864 33.552C1.00078 32.4765 1 31.1067 1 29.2H-1ZM4.13955 38.3733C3.05762 37.822 2.17798 36.9424 1.62671 35.8604L-0.1553 36.7684C0.587718 38.2267 1.77332 39.4123 3.23157 40.1553L4.13955 38.3733ZM132 29.2C132 31.1067 131.999 32.4765 131.911 33.552C131.824 34.6157 131.657 35.303 131.373 35.8604L133.155 36.7684C133.607 35.882 133.808 34.9022 133.905 33.7148C134.001 32.5391 134 31.0737 134 29.2H132ZM122.2 41C124.074 41 125.539 41.0008 126.715 40.9047C127.902 40.8077 128.882 40.607 129.768 40.1553L128.86 38.3733C128.303 38.6573 127.616 38.8244 126.552 38.9114C125.477 38.9992 124.107 39 122.2 39V41ZM131.373 35.8604C130.822 36.9424 129.942 37.822 128.86 38.3733L129.768 40.1553C131.227 39.4123 132.412 38.2267 133.155 36.7684L131.373 35.8604ZM122.2 1C124.107 1 125.477 1.00078 126.552 1.08864C127.616 1.17555 128.303 1.34266 128.86 1.62671L129.768 -0.1553C128.882 -0.606954 127.902 -0.8077 126.715 -0.904716C125.539 -1.00078 124.074 -1 122.2 -1V1ZM134 10.8C134 8.92632 134.001 7.46093 133.905 6.28518C133.808 5.09776 133.607 4.11799 133.155 3.23157L131.373 4.13955C131.657 4.69704 131.824 5.38431 131.911 6.44805C131.999 7.52346 132 8.89332 132 10.8H134ZM128.86 1.62671C129.942 2.17798 130.822 3.05762 131.373 4.13955L133.155 3.23157C132.412 1.77332 131.227 0.587718 129.768 -0.1553L128.86 1.62671ZM10.8 -1C8.92632 -1 7.46092 -1.00078 6.28518 -0.904716C5.09776 -0.8077 4.11799 -0.606954 3.23157 -0.1553L4.13955 1.62671C4.69704 1.34266 5.38431 1.17555 6.44805 1.08864C7.52345 1.00078 8.89332 1 10.8 1V-1ZM1 10.8C1 8.89332 1.00078 7.52345 1.08864 6.44804C1.17555 5.38431 1.34266 4.69704 1.62671 4.13955L-0.1553 3.23157C-0.606954 4.11799 -0.8077 5.09776 -0.904716 6.28518C-1.00078 7.46092 -1 8.92632 -1 10.8H1ZM3.23157 -0.1553C1.77332 0.587718 0.587718 1.77332 -0.1553 3.23157L1.62671 4.13955C2.17798 3.05762 3.05762 2.17798 4.13955 1.62671L3.23157 -0.1553Z" fill="#A6A6A6"/>
</svg>
