<svg width="28" height="27" viewBox="0 0 28 27" fill="none" xmlns="http://www.w3.org/2000/svg">
<path d="M23 11H9V8C9 6.897 9.897 6 11 6C12.103 6 13 6.897 13 8H15C15 5.794 13.206 4 11 4C8.794 4 7 5.794 7 8V11H5C4.73478 11 4.48043 11.1054 4.29289 11.2929C4.10536 11.4804 4 11.7348 4 12V14C4 16.606 5.674 18.823 8 19.65V23H10V20H18V23H20V19.65C22.326 18.823 24 16.606 24 14V12C24 11.7348 23.8946 11.4804 23.7071 11.2929C23.5196 11.1054 23.2652 11 23 11ZM22 14C22 16.206 20.206 18 18 18H10C7.794 18 6 16.206 6 14V13H22V14Z" fill="#212121"/>
</svg>
