<svg width="28" height="27" viewBox="0 0 28 27" fill="none" xmlns="http://www.w3.org/2000/svg">
<path d="M22 10.557V4H20V6H8V4H6V10.557C4.81 11.25 4 12.525 4 14V18C4 18.2652 4.10536 18.5196 4.29289 18.7071C4.48043 18.8946 4.73478 19 5 19H6V23H8V19H20V23H22V19H23C23.2652 19 23.5196 18.8946 23.7071 18.7071C23.8946 18.5196 24 18.2652 24 18V14C24 12.525 23.189 11.25 22 10.557ZM20 8V10H15V8H20ZM8 8H13V10H8V8ZM22 17H6V14C6 12.897 6.897 12 8 12H20C21.103 12 22 12.897 22 14V17Z" fill="#212121"/>
</svg>
