<svg width="40" height="40" viewBox="0 0 40 40" fill="none" xmlns="http://www.w3.org/2000/svg">
<path d="M7 16.2137C7.07049 16.0457 7.19214 15.9042 7.34764 15.8094C7.50315 15.7145 7.68461 15.6711 7.86622 15.6853C8.59384 15.6853 9.33012 15.6853 10.0577 15.6853C10.1297 15.6962 10.2031 15.6801 10.2639 15.6401C10.3246 15.6002 10.3685 15.5391 10.3869 15.4687C10.6901 14.7757 11.0019 14.0914 11.3224 13.4071C11.6164 12.805 12.0348 12.2721 12.5499 11.8435C13.0651 11.415 13.6653 11.1006 14.3109 10.9211C15.7844 10.4428 17.3123 10.1518 18.8585 10.0549C20.4886 9.94361 22.1258 10.0017 23.744 10.2281C25.0269 10.3849 26.281 10.7232 27.4687 11.2329C28.405 11.6626 29.1574 12.412 29.5909 13.3465C29.9461 14.0308 30.2493 14.7411 30.5611 15.4427C30.5777 15.5142 30.6211 15.5765 30.6824 15.6168C30.7437 15.6571 30.8181 15.6723 30.8903 15.6593H33.1598C33.2829 15.639 33.4093 15.6515 33.5261 15.6956C33.6428 15.7397 33.7459 15.8137 33.825 15.9103C33.904 16.007 33.9562 16.1227 33.9763 16.2459C33.9964 16.3691 33.9836 16.4954 33.9393 16.6121L33.6015 18.2666C33.5918 18.3635 33.563 18.4575 33.5167 18.5432C33.4704 18.6288 33.4075 18.7045 33.3318 18.7657C33.2561 18.827 33.169 18.8726 33.0755 18.8999C32.982 18.9272 32.8841 18.9357 32.7873 18.9249H32.0943C32.1382 19.0005 32.1874 19.0729 32.2416 19.1415C32.9403 20.0421 33.2924 21.1637 33.2335 22.3021C33.1747 23.4404 32.7089 24.5198 31.9211 25.3436C31.8297 25.4507 31.775 25.5843 31.7652 25.7247C31.7652 26.4783 31.7652 27.2406 31.7652 27.9942C31.7769 28.1439 31.756 28.2944 31.704 28.4353C31.652 28.5762 31.5701 28.7042 31.4639 28.8104C31.3577 28.9166 31.2297 28.9985 31.0888 29.0505C30.9479 29.1025 30.7975 29.1234 30.6477 29.1116H28.3782C28.2304 29.1232 28.0819 29.1028 27.9427 29.0517C27.8035 29.0006 27.677 28.9202 27.5717 28.8157C27.4665 28.7113 27.385 28.5854 27.3328 28.4466C27.2807 28.3078 27.2591 28.1594 27.2695 28.0115C27.2695 27.6997 27.2695 27.3792 27.2695 27.0414H13.7132C13.7132 27.3792 13.7132 27.6997 13.7132 28.0202C13.7248 28.1657 13.7048 28.3121 13.6546 28.4492C13.6044 28.5863 13.5252 28.7109 13.4224 28.8145C13.3196 28.9182 13.1956 28.9984 13.0589 29.0497C12.9222 29.1009 12.776 29.1221 12.6304 29.1116H10.3609C10.2087 29.1278 10.0548 29.1099 9.91032 29.0591C9.76589 29.0084 9.63457 28.9261 9.5259 28.8183C9.41724 28.7104 9.33397 28.5798 9.28212 28.4357C9.23027 28.2917 9.21115 28.1379 9.22616 27.9855C9.22616 27.1973 9.22616 26.4177 9.22616 25.6381C9.22313 25.5206 9.1804 25.4077 9.1049 25.3176C8.30936 24.4964 7.83504 23.4169 7.76828 22.2754C7.70151 21.134 8.04671 20.0066 8.74108 19.0982C8.7851 19.043 8.82562 18.9852 8.86236 18.9249H8.26467C8.16005 18.9422 8.05294 18.937 7.95049 18.9096C7.84805 18.8822 7.75263 18.8333 7.67063 18.766C7.58862 18.6988 7.52192 18.6148 7.47498 18.5197C7.42804 18.4246 7.40196 18.3206 7.39845 18.2146C7.27718 17.6602 7.14726 17.1059 7.02599 16.5515L7 16.2137ZM28.846 16.768C28.535 15.8171 28.1287 14.9 27.6333 14.0308C27.4249 13.6871 27.125 13.4082 26.7671 13.2252C25.9465 12.8271 25.0703 12.5554 24.1684 12.4196C22.2012 12.0734 20.1954 12.0034 18.2088 12.2117C16.9749 12.3094 15.7614 12.5836 14.6054 13.026C13.9958 13.2479 13.4939 13.694 13.2021 14.2733C12.9249 14.8508 12.6564 15.4283 12.3965 16.0058C12.2926 16.231 12.206 16.4735 12.1107 16.7334L28.846 16.768ZM30.2233 22.2685C30.2216 21.8667 30.1009 21.4743 29.8766 21.1409C29.6523 20.8074 29.3343 20.5479 28.9627 20.3949C28.5911 20.2419 28.1825 20.2023 27.7884 20.2811C27.3944 20.36 27.0325 20.5536 26.7483 20.8378C26.4641 21.122 26.2704 21.4839 26.1916 21.8779C26.1128 22.272 26.1524 22.6806 26.3054 23.0522C26.4584 23.4238 26.7179 23.7418 27.0513 23.9661C27.3848 24.1905 27.7771 24.3111 28.179 24.3128C28.7205 24.3105 29.2391 24.0944 29.622 23.7115C30.0049 23.3286 30.221 22.81 30.2233 22.2685ZM12.9422 24.3041C13.4609 24.2571 13.9417 24.013 14.2859 23.6222C14.6301 23.2314 14.8114 22.7235 14.7925 22.2031C14.7737 21.6827 14.5561 21.1893 14.1845 20.8244C13.8129 20.4596 13.3156 20.251 12.795 20.2416C12.5184 20.2366 12.2437 20.288 11.9877 20.3927C11.7316 20.4974 11.4997 20.6532 11.3058 20.8506C11.112 21.048 10.9605 21.2828 10.8604 21.5407C10.7604 21.7986 10.714 22.0741 10.724 22.3506C10.734 22.627 10.8003 22.8985 10.9187 23.1485C11.0372 23.3985 11.2053 23.6217 11.4129 23.8045C11.6205 23.9873 11.8632 24.1259 12.1261 24.2118C12.3891 24.2977 12.6668 24.3291 12.9422 24.3041Z" fill="#7210FF"/>
</svg>
