<svg width="24" height="24" viewBox="0 0 24 24" fill="none" xmlns="http://www.w3.org/2000/svg">
<path d="M15.5 12.0001C18 12.0001 20 14.0001 20 16.5001C20 17.3801 19.75 18.2001 19.31 18.9001C19.31 18.9001 22.9963 20.4048 22.39 22.0001C22.1173 22.7177 21.7172 23.1163 21 23.3901C19.403 23.9997 17.88 20.3201 17.88 20.3201C17.19 20.7501 16.37 21.0001 15.5 21.0001C13 21.0001 11 19.0001 11 16.5001C11 14.0001 13 12.0001 15.5 12.0001ZM15.5 14.0001C14.837 14.0001 14.2011 14.2635 13.7322 14.7323C13.2634 15.2011 13 15.837 13 16.5001C13 17.1631 13.2634 17.799 13.7322 18.2678C14.2011 18.7367 14.837 19.0001 15.5 19.0001C16.163 19.0001 16.7989 18.7367 17.2678 18.2678C17.7366 17.799 18 17.1631 18 16.5001C18 15.837 17.7366 15.2011 17.2678 14.7323C16.7989 14.2635 16.163 14.0001 15.5 14.0001ZM19.5 2.00006C19.6326 2.00006 19.7598 2.05274 19.8536 2.14651C19.9473 2.24028 20 2.36746 20 2.50006V11.8101C19.42 11.2601 18.75 10.8101 18 10.5001V4.70006L15 5.86006V10.0001C14.3 10.0701 13.62 10.2401 13 10.5001V5.87006L9 4.47006V16.5001C9 17.1401 9.09 17.7601 9.26 18.3401L8 17.9001L2.66 19.9701L2.5 20.0001C2.36739 20.0001 2.24021 19.9474 2.14645 19.8536C2.05268 19.7599 2 19.6327 2 19.5001V4.38006C2 4.15006 2.15 3.97006 2.36 3.90006L8 2.00006L14 4.10006L19.34 2.03006L19.5 2.00006ZM4 5.46006V17.3101L7 16.1501V4.45006L4 5.46006Z" fill="#7210FF"/>
</svg>
