<svg width="124" height="124" viewBox="0 0 124 124" fill="none" xmlns="http://www.w3.org/2000/svg">
<ellipse cx="63.6674" cy="62.3445" rx="47.0169" ry="48.5667" fill="url(#paint0_linear_41_6160)"/>
<ellipse cx="118.998" cy="18.9445" rx="5.0018" ry="5.16667" fill="#AA70FF"/>
<ellipse cx="13.3381" cy="6.88889" rx="6.66907" ry="6.88889" fill="#AA70FF"/>
<ellipse cx="6.66907" cy="91.6222" rx="3.33453" ry="3.44444" fill="#AA70FF"/>
<ellipse cx="110.373" cy="110.567" rx="1.66727" ry="1.72222" fill="#AA70FF"/>
<path fill-rule="evenodd" clip-rule="evenodd" d="M63.2216 79.1328C63.4032 79.2308 63.6062 79.2806 63.8092 79.279C64.0122 79.2773 64.2136 79.2258 64.3968 79.1262L70.2463 75.8962C71.9051 74.9828 73.204 73.9615 74.2174 72.7725C76.4209 70.1818 77.6241 66.8754 77.6027 63.4661L77.5333 52.22C77.5267 50.9247 76.7031 49.7688 75.485 49.3487L64.6031 45.5773C63.9479 45.3481 63.2299 45.3531 62.5862 45.5889L51.7455 49.4948C50.5341 49.9316 49.7253 51.0957 49.7319 52.3927L49.8012 63.6305C49.8227 67.0448 51.0672 70.3363 53.3069 72.9003C54.3303 74.0728 55.6408 75.0791 57.3177 75.9776L63.2216 79.1328ZM61.6731 65.9156C61.9174 66.1581 62.2343 66.2776 62.5512 66.2743C62.8681 66.2727 63.1834 66.1498 63.4243 65.904L69.8168 59.3941C70.2971 58.9043 70.2922 58.1171 69.8069 57.6338C69.32 57.1506 68.536 57.1539 68.0557 57.6438L62.533 63.2668L60.2718 61.0216C59.7849 60.5384 59.0026 60.5433 58.5206 61.0332C58.0403 61.5231 58.0453 62.3103 58.5322 62.7935L61.6731 65.9156Z" fill="white"/>
<ellipse cx="71.0255" cy="3.09991" rx="1.66727" ry="1.72222" fill="#AA70FF"/>
<ellipse cx="41.6817" cy="121.589" rx="2.33417" ry="2.41111" fill="#AA70FF"/>
<ellipse cx="81.3626" cy="117.8" rx="0.666907" ry="0.688889" fill="#AA70FF"/>
<ellipse cx="113.708" cy="76.1221" rx="1.66727" ry="1.72222" fill="#AA70FF"/>
<ellipse cx="0.666907" cy="51.6667" rx="0.666907" ry="0.688889" fill="#AA70FF"/>
<defs>
<linearGradient id="paint0_linear_41_6160" x1="110.684" y1="110.911" x2="-1.75505" y2="79.3507" gradientUnits="userSpaceOnUse">
<stop stop-color="#7210FF"/>
<stop offset="1" stop-color="#9D59FF"/>
</linearGradient>
</defs>
</svg>
