<svg width="26" height="27" viewBox="0 0 26 27" fill="none" xmlns="http://www.w3.org/2000/svg">
<path d="M5.5 10.65H5.65V10.5V6.15H10H10.15V6V4.5V4.35H10H4H3.85V4.5V10.5V10.65H4H5.5ZM22 10.65H22.15V10.5V4.5V4.35H22H16H15.85V4.5V6V6.15H16H20.35V10.5V10.65H20.5H22ZM10 22.65H10.15V22.5V21V20.85H10H5.65V16.5V16.35H5.5H4H3.85V16.5V22.5V22.65H4H10ZM22 22.65H22.15V22.5V16.5V16.35H22H20.5H20.35V16.5V20.85H16H15.85V21V22.5V22.65H16H22ZM12.25 8.85H12.1V9V12V12.15H12.25H13.75H13.9V12V9V8.85H13.75H12.25ZM8.5 12.6H8.35V12.75V14.25V14.4H8.5H11.5H11.65V14.25V12.75V12.6H11.5H8.5ZM14.5 12.6H14.35V12.75V14.25V14.4H14.5H17.5H17.65V14.25V12.75V12.6H17.5H14.5ZM12.25 14.85H12.1V15V18V18.15H12.25H13.75H13.9V18V15V14.85H13.75H12.25Z" fill="#212121" stroke="#212121" stroke-width="0.3"/>
</svg>
