<svg width="48" height="48" viewBox="0 0 48 48" fill="none" xmlns="http://www.w3.org/2000/svg">
<rect width="48" height="48" rx="12" fill="#7210FF"/>
<path d="M17.1529 11.2002C16.317 11.2341 15.5328 11.41 14.8034 11.7296C14.0741 12.0492 13.4415 12.4753 12.909 13.0096C12.3765 13.5422 11.9586 14.1652 11.6552 14.8787C11.3519 15.5921 11.2002 16.3588 11.2002 17.1787C11.2002 18.0325 11.3551 18.8186 11.6682 19.5401C11.9796 20.2616 12.4056 20.8894 12.9478 21.4221C13.4883 21.9547 14.1193 22.3695 14.8422 22.6649C15.5635 22.9603 16.3348 23.1072 17.1545 23.1072C17.9904 23.1072 18.7697 22.9522 19.491 22.6391C20.2123 22.3276 20.84 21.9015 21.3725 21.3591C21.905 20.8184 22.3278 20.1906 22.6392 19.4771C22.9507 18.7637 23.1072 17.997 23.1072 17.1771C23.1072 16.341 22.9474 15.5614 22.6279 14.8399C22.3084 14.1184 21.8776 13.4873 21.337 12.945C20.7965 12.4043 20.1639 11.9782 19.4426 11.665C18.7181 11.3568 17.9565 11.2002 17.1529 11.2002Z" fill="white"/>
<path d="M30.8462 11.2002C30.0104 11.2341 29.2262 11.41 28.4968 11.7296C27.7674 12.0492 27.1349 12.4753 26.6024 13.0096C26.0699 13.5422 25.652 14.1652 25.3486 14.8787C25.0452 15.5921 24.8936 16.3588 24.8936 17.1787C24.8936 18.0325 25.0485 18.8186 25.3615 19.5401C25.6729 20.2616 26.099 20.8894 26.6411 21.4221C27.1817 21.9547 27.8126 22.3695 28.5355 22.6649C29.2568 22.9603 30.0281 23.1072 30.8479 23.1072C31.6837 23.1072 32.4631 22.9522 33.1844 22.6391C33.9057 22.3276 34.5334 21.9015 35.0659 21.3591C35.5984 20.8184 36.0211 20.1906 36.3326 19.4771C36.644 18.7637 36.8005 17.997 36.8005 17.1771C36.8005 16.341 36.6408 15.5614 36.3213 14.8399C36.0018 14.1184 35.5709 13.4873 35.0304 12.945C34.4898 12.4043 33.8573 11.9782 33.136 11.665C32.4115 11.3568 31.6498 11.2002 30.8462 11.2002Z" fill="white"/>
<path d="M23.1026 30.1404C23.0362 29.5771 22.8889 29.0428 22.6639 28.536C22.3433 27.8145 21.9111 27.1834 21.3687 26.6411C20.8264 26.1004 20.1918 25.6743 19.4681 25.3611C18.7444 25.0496 17.9787 24.8931 17.1725 24.8931C16.3338 24.927 15.547 25.1029 14.8153 25.4225C14.0835 25.7421 13.4489 26.1682 12.9147 26.7024C12.3804 27.2351 11.9611 27.8581 11.6567 28.5715C11.3524 29.2849 11.2002 30.0516 11.2002 30.8716C11.2002 31.7254 11.3556 32.5115 11.6697 33.233C11.9821 33.9544 12.4095 34.5823 12.9535 35.115C13.4958 35.6476 14.1289 36.0624 14.8541 36.3578C15.5778 36.6532 16.3517 36.8 17.1741 36.8C18.0127 36.8 18.7946 36.6435 19.5183 36.332C20.0169 36.1173 20.4492 35.5378 20.2242 34.8858C20.1675 34.7195 20.0364 34.5032 19.9036 34.345C19.8971 34.337 19.8826 34.3208 19.8826 34.3208L18.0823 32.2516C18.0823 32.2516 18.0677 32.2355 18.0596 32.2258C17.7148 31.8045 17.9544 31.1799 18.5081 31.2008L22.0017 31.2186C22.0017 31.2186 22.0293 31.2186 22.0438 31.2186C23.0476 31.1976 23.1318 30.3761 23.1026 30.1404Z" fill="#FFD300"/>
<path d="M36.7964 30.1404C36.73 29.5771 36.5827 29.0428 36.3576 28.536C36.0371 27.8145 35.6048 27.1834 35.0624 26.6411C34.5201 26.1004 33.8854 25.6743 33.1617 25.3611C32.4381 25.0496 31.6723 24.8931 30.866 24.8931C30.0274 24.927 29.2406 25.1029 28.5088 25.4225C27.777 25.7421 27.1423 26.1682 26.608 26.7024C26.0738 27.2351 25.6545 27.8581 25.3501 28.5715C25.0457 29.2849 24.8936 30.0516 24.8936 30.8716C24.8936 31.7254 25.049 32.5115 25.363 33.233C25.6755 33.9544 26.1029 34.5823 26.6469 35.115C27.1893 35.6476 27.8223 36.0624 28.5476 36.3578C29.2713 36.6532 30.0452 36.8 30.8676 36.8C31.7063 36.8 32.4882 36.6435 33.2119 36.332C33.7106 36.1173 34.1428 35.5378 33.9178 34.8858C33.8611 34.7195 33.73 34.5032 33.5972 34.345C33.5908 34.337 33.5762 34.3208 33.5762 34.3208L31.7759 32.2516C31.7759 32.2516 31.7613 32.2355 31.7532 32.2258C31.4084 31.8045 31.648 31.1799 32.2017 31.2008L35.6955 31.2186C35.6955 31.2186 35.723 31.2186 35.7375 31.2186C36.7413 31.1976 36.8239 30.3761 36.7964 30.1404Z" fill="#FFD300"/>
</svg>
