<svg width="60" height="60" viewBox="0 0 60 60" fill="none" xmlns="http://www.w3.org/2000/svg">
<rect width="60" height="60" rx="18.4615" fill="#7210FF"/>
<rect x="1.33333" y="1.33333" width="13.3333" height="13.3333" rx="6.66667" fill="#4AAF57"/>
<rect x="1.33333" y="1.33333" width="13.3333" height="13.3333" rx="6.66667" stroke="white" stroke-width="2.66667"/>
<path d="M21.4409 14C20.396 14.0424 19.4157 14.2623 18.504 14.6618C17.5923 15.0612 16.8017 15.5939 16.136 16.2617C15.4704 16.9275 14.948 17.7063 14.5688 18.5981C14.1896 19.4898 14 20.4482 14 21.4731C14 22.5404 14.1936 23.523 14.5849 24.4249C14.9742 25.3267 15.5067 26.1116 16.1845 26.7774C16.8602 27.4432 17.6488 27.9617 18.5525 28.3309C19.4541 28.7001 20.4182 28.8837 21.4429 28.8837C22.4877 28.8837 23.4619 28.69 24.3635 28.2986C25.2652 27.9092 26.0498 27.3766 26.7154 26.6987C27.381 26.0228 27.9095 25.2379 28.2988 24.3462C28.6881 23.4544 28.8837 22.496 28.8837 21.4711C28.8837 20.426 28.684 19.4515 28.2847 18.5497C27.8853 17.6478 27.3467 16.8589 26.671 16.181C25.9953 15.5051 25.2046 14.9725 24.303 14.5811C23.3974 14.1957 22.4453 14 21.4409 14Z" fill="white"/>
<path d="M38.5571 14C37.5122 14.0424 36.532 14.2623 35.6203 14.6618C34.7086 15.0612 33.9179 15.5939 33.2523 16.2617C32.5866 16.9275 32.0642 17.7063 31.685 18.5981C31.3058 19.4898 31.1162 20.4482 31.1162 21.4731C31.1162 22.5404 31.3098 23.523 31.7012 24.4249C32.0904 25.3267 32.623 26.1116 33.3007 26.7774C33.9764 27.4432 34.765 27.9617 35.6687 28.3309C36.5703 28.7001 37.5344 28.8837 38.5591 28.8837C39.6039 28.8837 40.5781 28.69 41.4798 28.2986C42.3814 27.9092 43.166 27.3766 43.8316 26.6987C44.4972 26.0228 45.0257 25.2379 45.415 24.3462C45.8043 23.4544 45.9999 22.496 45.9999 21.4711C45.9999 20.426 45.8002 19.4515 45.4009 18.5497C45.0015 17.6478 44.4629 16.8589 43.7872 16.181C43.1115 15.5051 42.3209 14.9725 41.4192 14.5811C40.5136 14.1957 39.5615 14 38.5571 14Z" fill="white"/>
<path d="M28.878 37.6755C28.7951 36.9714 28.6109 36.3035 28.3296 35.67C27.9289 34.7682 27.3886 33.9793 26.7107 33.3014C26.0328 32.6255 25.2395 32.0928 24.3349 31.7014C23.4303 31.312 22.4731 31.1163 21.4653 31.1163C20.4171 31.1587 19.4336 31.3786 18.5189 31.7781C17.6042 32.1776 16.8109 32.7102 16.1431 33.378C15.4753 34.0438 14.9511 34.8226 14.5707 35.7144C14.1902 36.6062 14 37.5645 14 38.5895C14 39.6568 14.1943 40.6393 14.5869 41.5412C14.9774 42.4431 15.5117 43.2279 16.1916 43.8937C16.8696 44.5595 17.6608 45.078 18.5674 45.4472C19.472 45.8165 20.4393 46.0001 21.4674 46.0001C22.5156 46.0001 23.493 45.8043 24.3976 45.415C25.0209 45.1466 25.5612 44.4223 25.28 43.6072C25.2091 43.3994 25.0452 43.129 24.8793 42.9313C24.8712 42.9212 24.853 42.901 24.853 42.901L22.6026 40.3145C22.6026 40.3145 22.5844 40.2943 22.5743 40.2822C22.1433 39.7556 22.4428 38.9748 23.1349 39.0011L27.5019 39.0232C27.5019 39.0232 27.5363 39.0232 27.5546 39.0232C28.8092 38.997 28.9145 37.9701 28.878 37.6755Z" fill="#FFD300"/>
<path d="M45.9947 37.6755C45.9117 36.9714 45.7276 36.3035 45.4463 35.67C45.0456 34.7682 44.5053 33.9793 43.8273 33.3014C43.1494 32.6255 42.356 32.0928 41.4514 31.7014C40.5468 31.312 39.5896 31.1163 38.5818 31.1163C37.5335 31.1587 36.55 31.3786 35.6352 31.7781C34.7205 32.1776 33.9272 32.7102 33.2593 33.378C32.5915 34.0438 32.0674 34.8226 31.6869 35.7144C31.3064 36.6062 31.1162 37.5645 31.1162 38.5895C31.1162 39.6568 31.3105 40.6393 31.7031 41.5412C32.0937 42.4431 32.6279 43.2279 33.3079 43.8937C33.9858 44.5595 34.7771 45.078 35.6838 45.4472C36.5884 45.8165 37.5558 46.0001 38.5838 46.0001C39.6321 46.0001 40.6096 45.8043 41.5142 45.415C42.1375 45.1466 42.6778 44.4223 42.3965 43.6072C42.3257 43.3994 42.1618 43.129 41.9958 42.9313C41.9877 42.9212 41.9695 42.901 41.9695 42.901L39.7191 40.3145C39.7191 40.3145 39.7009 40.2943 39.6908 40.2822C39.2597 39.7556 39.5592 38.9748 40.2514 39.0011L44.6186 39.0232C44.6186 39.0232 44.653 39.0232 44.6712 39.0232C45.9259 38.997 46.0291 37.9701 45.9947 37.6755Z" fill="#FFD300"/>
</svg>
