<svg width="48" height="33" viewBox="0 0 48 33" fill="none" xmlns="http://www.w3.org/2000/svg">
<rect y="0.442383" width="48" height="32" rx="16" fill="#FFD300"/>
<path d="M27.75 7.44238C26.4052 7.44238 25.1865 7.69438 24.234 8.16913C23.2823 8.64388 22.5 9.41713 22.5 10.4424V13.4424C22.5 13.5391 22.5322 13.6329 22.5472 13.7236C21.7965 13.5329 21.0246 13.4384 20.25 13.4424C18.9053 13.4424 17.6865 13.6944 16.734 14.1691C15.7822 14.6439 15 15.4171 15 16.4424V22.4424C15 23.4676 15.7823 24.2409 16.7348 24.7156C17.6865 25.1904 18.9053 25.4424 20.25 25.4424C21.5947 25.4424 22.8135 25.1904 23.766 24.7156C24.717 24.2409 25.5 23.4676 25.5 22.4424V22.1379C26.2337 22.3362 26.99 22.4386 27.75 22.4424C29.0948 22.4424 30.3135 22.1904 31.266 21.7156C32.217 21.2409 33 20.4676 33 19.4424V10.4424C33 9.41713 32.2178 8.64388 31.2653 8.16913C30.3142 7.69438 29.0955 7.44238 27.75 7.44238ZM27.75 8.94238C28.8923 8.94238 29.9093 9.18838 30.5858 9.52813C31.263 9.86788 31.5 10.2256 31.5 10.4424C31.5 10.6599 31.263 11.0169 30.5858 11.3566C29.91 11.6964 28.8923 11.9424 27.75 11.9424C26.6077 11.9424 25.5907 11.6964 24.9142 11.3566C24.237 11.0169 24 10.6591 24 10.4424C24 10.2249 24.237 9.86788 24.9142 9.52813C25.59 9.18838 26.6077 8.94238 27.75 8.94238ZM24 12.5754C24.0787 12.6189 24.1522 12.6751 24.2347 12.7156C25.1865 13.1904 26.4052 13.4424 27.75 13.4424C29.0948 13.4424 30.3135 13.1904 31.266 12.7156C31.3477 12.6751 31.4212 12.6189 31.5 12.5754V13.4424C31.5 13.6599 31.263 14.0169 30.5858 14.3566C29.9093 14.6964 28.8923 14.9424 27.75 14.9424C26.6077 14.9424 25.5907 14.6964 24.9142 14.3566C24.237 14.0169 24 13.6591 24 13.4424V12.5754ZM20.25 14.9424C21.3923 14.9424 22.4093 15.1884 23.0858 15.5281C23.763 15.8679 24 16.2256 24 16.4424C24 16.6599 23.763 17.0169 23.0858 17.3566C22.4093 17.6964 21.3923 17.9424 20.25 17.9424C19.1077 17.9424 18.0907 17.6964 17.4142 17.3566C16.737 17.0169 16.5 16.6591 16.5 16.4424C16.5 16.2249 16.737 15.8679 17.4142 15.5281C18.09 15.1884 19.1077 14.9424 20.25 14.9424ZM31.5 15.5754V16.4424C31.5 16.6599 31.263 17.0169 30.5858 17.3566C29.9093 17.6964 28.8923 17.9424 27.75 17.9424C26.986 17.9465 26.2263 17.8278 25.5 17.5906V16.4424C25.5 16.3456 25.4678 16.2519 25.4528 16.1611C26.1503 16.3426 26.9235 16.4424 27.75 16.4424C29.0948 16.4424 30.3135 16.1904 31.266 15.7156C31.3477 15.6751 31.4212 15.6189 31.5 15.5754ZM16.5 18.5754C16.5788 18.6189 16.6523 18.6751 16.7348 18.7156C17.6865 19.1904 18.9053 19.4424 20.25 19.4424C21.5947 19.4424 22.8135 19.1904 23.766 18.7156C23.8477 18.6751 23.9213 18.6189 24 18.5754V19.4424C24 19.6599 23.763 20.0169 23.0858 20.3566C22.4093 20.6964 21.3923 20.9424 20.25 20.9424C19.1077 20.9424 18.0907 20.6964 17.4142 20.3566C16.737 20.0169 16.5 19.6591 16.5 19.4424V18.5754ZM31.5 18.5754V19.4424C31.5 19.6599 31.263 20.0169 30.5858 20.3566C29.9093 20.6964 28.8923 20.9424 27.75 20.9424C26.8973 20.9424 26.127 20.8224 25.5 20.6139V19.1611C26.1885 19.3426 26.9385 19.4424 27.75 19.4424C29.0948 19.4424 30.3135 19.1904 31.266 18.7156C31.3477 18.6751 31.4212 18.6189 31.5 18.5754ZM16.5 21.5754C16.5788 21.6189 16.6523 21.6751 16.7348 21.7156C17.6865 22.1904 18.9053 22.4424 20.25 22.4424C21.5947 22.4424 22.8135 22.1904 23.766 21.7156C23.8477 21.6751 23.9213 21.6189 24 21.5754V22.4424C24 22.6599 23.763 23.0169 23.0858 23.3566C22.4093 23.6964 21.3923 23.9424 20.25 23.9424C19.1077 23.9424 18.0907 23.6964 17.4142 23.3566C16.737 23.0169 16.5 22.6591 16.5 22.4424V21.5754Z" fill="white"/>
</svg>
